<svg width="116" height="116" viewBox="0 0 116 116" fill="none" xmlns="http://www.w3.org/2000/svg">
<path d="M39.4696 61.216H36.5436V65H34.4096V61.216H25.8516V59.676L33.7276 49.6H36.1036L28.5576 59.324H34.4756V55.98H36.5436V59.324H39.4696V61.216ZM47.4324 55.65C48.4444 55.65 49.3464 55.8407 50.1384 56.222C50.9451 56.6033 51.5758 57.1533 52.0304 57.872C52.4851 58.576 52.7124 59.39 52.7124 60.314C52.7124 61.282 52.4704 62.1327 51.9864 62.866C51.5171 63.5993 50.8644 64.1713 50.0284 64.582C49.2071 64.978 48.2831 65.176 47.2564 65.176C45.1884 65.176 43.5898 64.5087 42.4604 63.174C41.3458 61.8393 40.7884 59.9473 40.7884 57.498C40.7884 55.782 41.0891 54.3227 41.6904 53.12C42.3064 51.9027 43.1571 50.986 44.2424 50.37C45.3424 49.7393 46.6184 49.424 48.0704 49.424C48.8184 49.424 49.5224 49.5047 50.1824 49.666C50.8424 49.8127 51.4144 50.0327 51.8984 50.326L51.0624 52.042C50.3291 51.558 49.3464 51.316 48.1144 51.316C46.5158 51.316 45.2618 51.8147 44.3524 52.812C43.4431 53.7947 42.9884 55.232 42.9884 57.124C42.9884 57.3587 42.9958 57.542 43.0104 57.674C43.4504 57.014 44.0518 56.5153 44.8144 56.178C45.5918 55.826 46.4644 55.65 47.4324 55.65ZM47.1684 63.394C48.1804 63.394 49.0018 63.1227 49.6324 62.58C50.2631 62.0373 50.5784 61.3113 50.5784 60.402C50.5784 59.4927 50.2558 58.774 49.6104 58.246C48.9798 57.7033 48.1291 57.432 47.0584 57.432C46.3691 57.432 45.7531 57.564 45.2104 57.828C44.6824 58.092 44.2644 58.4513 43.9564 58.906C43.6631 59.3607 43.5164 59.8667 43.5164 60.424C43.5164 60.9667 43.6558 61.4653 43.9344 61.92C44.2278 62.36 44.6458 62.7193 45.1884 62.998C45.7458 63.262 46.4058 63.394 47.1684 63.394ZM56.0334 65.132C55.6227 65.132 55.2707 64.9927 54.9774 64.714C54.6841 64.4207 54.5374 64.054 54.5374 63.614C54.5374 63.1887 54.6841 62.8367 54.9774 62.558C55.2707 62.2647 55.6227 62.118 56.0334 62.118C56.4441 62.118 56.7887 62.2573 57.0674 62.536C57.3461 62.8147 57.4854 63.174 57.4854 63.614C57.4854 64.054 57.3387 64.4207 57.0454 64.714C56.7667 64.9927 56.4294 65.132 56.0334 65.132ZM70.5065 49.6V51.096L64.2805 65H61.9485L68.0425 51.514H61.0025V54.264H58.8905V49.6H70.5065ZM75.8434 57.872C74.7727 57.872 73.9074 57.4833 73.2474 56.706C72.5874 55.9287 72.2574 54.9167 72.2574 53.67C72.2574 52.4233 72.5874 51.4113 73.2474 50.634C73.9074 49.8567 74.7727 49.468 75.8434 49.468C76.914 49.468 77.772 49.8567 78.4174 50.634C79.0774 51.3967 79.4074 52.4087 79.4074 53.67C79.4074 54.9313 79.0774 55.9507 78.4174 56.728C77.772 57.4907 76.914 57.872 75.8434 57.872ZM85.1274 49.6H86.8214L76.3054 65H74.6114L85.1274 49.6ZM75.8434 56.618C76.518 56.618 77.046 56.3613 77.4274 55.848C77.8087 55.32 77.9994 54.594 77.9994 53.67C77.9994 52.746 77.8087 52.0273 77.4274 51.514C77.046 50.986 76.518 50.722 75.8434 50.722C75.1834 50.722 74.6554 50.986 74.2594 51.514C73.878 52.042 73.6874 52.7607 73.6874 53.67C73.6874 54.5793 73.878 55.298 74.2594 55.826C74.6554 56.354 75.1834 56.618 75.8434 56.618ZM85.5894 65.132C84.5187 65.132 83.6534 64.7507 82.9934 63.988C82.348 63.2107 82.0254 62.1913 82.0254 60.93C82.0254 59.6687 82.348 58.6567 82.9934 57.894C83.6534 57.1167 84.5187 56.728 85.5894 56.728C86.66 56.728 87.5254 57.1167 88.1854 57.894C88.8454 58.6713 89.1754 59.6833 89.1754 60.93C89.1754 62.1767 88.8454 63.1887 88.1854 63.966C87.5254 64.7433 86.66 65.132 85.5894 65.132ZM85.5894 63.878C86.2494 63.878 86.77 63.614 87.1514 63.086C87.5474 62.558 87.7454 61.8393 87.7454 60.93C87.7454 60.0207 87.5474 59.302 87.1514 58.774C86.77 58.246 86.2494 57.982 85.5894 57.982C84.9147 57.982 84.3867 58.246 84.0054 58.774C83.624 59.2873 83.4334 60.006 83.4334 60.93C83.4334 61.854 83.624 62.58 84.0054 63.108C84.3867 63.6213 84.9147 63.878 85.5894 63.878Z" fill="black"/>
<mask id="path-2-inside-1" fill="white">
<path fill-rule="evenodd" clip-rule="evenodd" d="M58 116C90.0325 116 116 90.0325 116 58C116 25.9675 90.0325 0 58 0C25.9675 0 0 25.9675 0 58C0 90.0325 25.9675 116 58 116ZM57.5 97C79.3152 97 97 79.3152 97 57.5C97 35.6848 79.3152 18 57.5 18C35.6848 18 18 35.6848 18 57.5C18 79.3152 35.6848 97 57.5 97Z"/>
</mask>
<path d="M115 58C115 89.4802 89.4802 115 58 115V117C90.5848 117 117 90.5848 117 58H115ZM58 1C89.4802 1 115 26.5198 115 58H117C117 25.4152 90.5848 -1 58 -1V1ZM1 58C1 26.5198 26.5198 1 58 1V-1C25.4152 -1 -1 25.4152 -1 58H1ZM58 115C26.5198 115 1 89.4802 1 58H-1C-1 90.5848 25.4152 117 58 117V115ZM96 57.5C96 78.763 78.763 96 57.5 96V98C79.8675 98 98 79.8675 98 57.5H96ZM57.5 19C78.763 19 96 36.237 96 57.5H98C98 35.1325 79.8675 17 57.5 17V19ZM19 57.5C19 36.237 36.237 19 57.5 19V17C35.1325 17 17 35.1325 17 57.5H19ZM57.5 96C36.237 96 19 78.763 19 57.5H17C17 79.8675 35.1325 98 57.5 98V96Z" fill="#4A0227" mask="url(#path-2-inside-1)"/>
<mask id="path-4-inside-2" fill="white">
<path fill-rule="evenodd" clip-rule="evenodd" d="M74.3323 113.669C98.4132 106.615 116 84.3615 116 58C116 25.9675 90.0325 0 58 0V18.0031C79.5848 18.2709 97 35.8517 97 57.5C97 75.381 85.1187 90.487 68.8201 95.354L74.3323 113.669Z"/>
</mask>
<path fill-rule="evenodd" clip-rule="evenodd" d="M74.3323 113.669C98.4132 106.615 116 84.3615 116 58C116 25.9675 90.0325 0 58 0V18.0031C79.5848 18.2709 97 35.8517 97 57.5C97 75.381 85.1187 90.487 68.8201 95.354L74.3323 113.669Z" fill="#8D295B"/>
<path d="M74.3323 113.669L73.3748 113.957L73.6608 114.907L74.6134 114.628L74.3323 113.669ZM58 0V-1H57V0H58ZM58 18.0031H57V18.9908L57.9876 19.003L58 18.0031ZM68.8201 95.354L68.534 94.3958L67.5737 94.6826L67.8626 95.6422L68.8201 95.354ZM74.6134 114.628C99.1088 107.454 117 84.8175 117 58H115C115 83.9055 97.7175 105.777 74.0512 112.709L74.6134 114.628ZM117 58C117 25.4152 90.5848 -1 58 -1V1C89.4802 1 115 26.5198 115 58H117ZM57 0V18.0031H59V0H57ZM57.9876 19.003C79.0257 19.264 96 36.3998 96 57.5H98C98 35.3035 80.144 17.2777 58.0124 17.0032L57.9876 19.003ZM96 57.5C96 74.9269 84.4207 89.6518 68.534 94.3958L69.1063 96.3122C85.8167 91.3222 98 75.8352 98 57.5H96ZM67.8626 95.6422L73.3748 113.957L75.2899 113.381L69.7777 95.0658L67.8626 95.6422Z" fill="#8D295B" mask="url(#path-4-inside-2)"/>
</svg>
