<svg width="116" height="116" viewBox="0 0 116 116" fill="none" xmlns="http://www.w3.org/2000/svg">
<mask id="path-1-inside-1" fill="white">
<path d="M116 58C116 90.0325 90.0325 116 58 116C25.9675 116 0 90.0325 0 58C0 25.9675 25.9675 0 58 0C90.0325 0 116 25.9675 116 58ZM14.5 58C14.5 82.0244 33.9756 101.5 58 101.5C82.0244 101.5 101.5 82.0244 101.5 58C101.5 33.9756 82.0244 14.5 58 14.5C33.9756 14.5 14.5 33.9756 14.5 58Z"/>
</mask>
<path d="M116 58C116 90.0325 90.0325 116 58 116C25.9675 116 0 90.0325 0 58C0 25.9675 25.9675 0 58 0C90.0325 0 116 25.9675 116 58ZM14.5 58C14.5 82.0244 33.9756 101.5 58 101.5C82.0244 101.5 101.5 82.0244 101.5 58C101.5 33.9756 82.0244 14.5 58 14.5C33.9756 14.5 14.5 33.9756 14.5 58Z" stroke="#915650" stroke-width="2" mask="url(#path-1-inside-1)"/>
<mask id="path-2-inside-2" fill="white">
<path d="M58 0C72.4376 1.72167e-07 86.3562 5.3847 97.0347 15.1014C107.713 24.8181 114.384 38.1682 115.743 52.5417C117.101 66.9153 113.05 81.2788 104.382 92.8244C95.7131 104.37 83.05 112.267 68.8681 114.973L66.1511 100.729C76.7875 98.7005 86.2848 92.7774 92.7863 84.1183C99.2878 75.4591 102.326 64.6865 101.307 53.9063C100.288 43.1261 95.2849 33.1136 87.276 25.826C79.2672 18.5385 68.8282 14.5 58 14.5L58 0Z"/>
</mask>
<path d="M58 0C72.4376 1.72167e-07 86.3562 5.3847 97.0347 15.1014C107.713 24.8181 114.384 38.1682 115.743 52.5417C117.101 66.9153 113.05 81.2788 104.382 92.8244C95.7131 104.37 83.05 112.267 68.8681 114.973L66.1511 100.729C76.7875 98.7005 86.2848 92.7774 92.7863 84.1183C99.2878 75.4591 102.326 64.6865 101.307 53.9063C100.288 43.1261 95.2849 33.1136 87.276 25.826C79.2672 18.5385 68.8282 14.5 58 14.5L58 0Z" fill="#915650" stroke="#915650" stroke-width="2" mask="url(#path-2-inside-2)"/>
<path d="M51.8171 60.5041H49.4231V63.6001H47.6771V60.5041H40.6751V59.2441L47.1191 51.0001H49.0631L42.8891 58.9561H47.7311V56.2201H49.4231V58.9561H51.8171V60.5041ZM61.2324 51.0001V52.2241L56.1384 63.6001H54.2304L59.2164 52.5661H53.4564V54.8161H51.7284V51.0001H61.2324ZM65.599 57.7681C64.723 57.7681 64.015 57.4501 63.475 56.8141C62.935 56.1781 62.665 55.3501 62.665 54.3301C62.665 53.3101 62.935 52.4821 63.475 51.8461C64.015 51.2101 64.723 50.8921 65.599 50.8921C66.475 50.8921 67.177 51.2101 67.705 51.8461C68.245 52.4701 68.515 53.2981 68.515 54.3301C68.515 55.3621 68.245 56.1961 67.705 56.8321C67.177 57.4561 66.475 57.7681 65.599 57.7681ZM73.195 51.0001H74.581L65.977 63.6001H64.591L73.195 51.0001ZM65.599 56.7421C66.151 56.7421 66.583 56.5321 66.895 56.1121C67.207 55.6801 67.363 55.0861 67.363 54.3301C67.363 53.5741 67.207 52.9861 66.895 52.5661C66.583 52.1341 66.151 51.9181 65.599 51.9181C65.059 51.9181 64.627 52.1341 64.303 52.5661C63.991 52.9981 63.835 53.5861 63.835 54.3301C63.835 55.0741 63.991 55.6621 64.303 56.0941C64.627 56.5261 65.059 56.7421 65.599 56.7421ZM73.573 63.7081C72.697 63.7081 71.989 63.3961 71.449 62.7721C70.921 62.1361 70.657 61.3021 70.657 60.2701C70.657 59.2381 70.921 58.4101 71.449 57.7861C71.989 57.1501 72.697 56.8321 73.573 56.8321C74.449 56.8321 75.157 57.1501 75.697 57.7861C76.237 58.4221 76.507 59.2501 76.507 60.2701C76.507 61.2901 76.237 62.1181 75.697 62.7541C75.157 63.3901 74.449 63.7081 73.573 63.7081ZM73.573 62.6821C74.113 62.6821 74.539 62.4661 74.851 62.0341C75.175 61.6021 75.337 61.0141 75.337 60.2701C75.337 59.5261 75.175 58.9381 74.851 58.5061C74.539 58.0741 74.113 57.8581 73.573 57.8581C73.021 57.8581 72.589 58.0741 72.277 58.5061C71.965 58.9261 71.809 59.5141 71.809 60.2701C71.809 61.0261 71.965 61.6201 72.277 62.0521C72.589 62.4721 73.021 62.6821 73.573 62.6821Z" fill="black"/>
</svg>
