<svg width="116" height="116" viewBox="0 0 116 116" fill="none" xmlns="http://www.w3.org/2000/svg">
<mask id="path-1-inside-1" fill="white">
<path d="M116 58C116 90.0325 90.0325 116 58 116C25.9675 116 0 90.0325 0 58C0 25.9675 25.9675 0 58 0C90.0325 0 116 25.9675 116 58ZM14.5 58C14.5 82.0244 33.9756 101.5 58 101.5C82.0244 101.5 101.5 82.0244 101.5 58C101.5 33.9756 82.0244 14.5 58 14.5C33.9756 14.5 14.5 33.9756 14.5 58Z"/>
</mask>
<path d="M116 58C116 90.0325 90.0325 116 58 116C25.9675 116 0 90.0325 0 58C0 25.9675 25.9675 0 58 0C90.0325 0 116 25.9675 116 58ZM14.5 58C14.5 82.0244 33.9756 101.5 58 101.5C82.0244 101.5 101.5 82.0244 101.5 58C101.5 33.9756 82.0244 14.5 58 14.5C33.9756 14.5 14.5 33.9756 14.5 58Z" stroke="#915650" stroke-width="2" mask="url(#path-1-inside-1)"/>
<mask id="path-2-inside-2" fill="white">
<path d="M58 0C70.0928 1.44205e-07 81.8832 3.7798 91.722 10.8107C101.561 17.8416 108.956 27.772 112.873 39.2128C116.79 50.6536 117.033 63.0327 113.568 74.6184C110.103 86.2042 103.104 96.4172 93.5486 103.829C83.9934 111.241 72.3605 115.481 60.2771 115.955C48.1936 116.43 36.2639 113.116 26.1567 106.477C16.0494 99.8376 8.27014 90.2052 3.90693 78.927C-0.456275 67.6488 -1.18518 55.2889 1.82218 43.576L15.8666 47.182C13.6111 55.9666 14.1578 65.2366 17.4302 73.6953C20.7026 82.1539 26.5371 89.3782 34.1175 94.3576C41.6979 99.337 50.6452 101.823 59.7078 101.466C68.7704 101.11 77.4951 97.9306 84.6615 92.3717C91.8278 86.8129 97.0775 79.1532 99.6762 70.4638C102.275 61.7745 102.093 52.4902 99.1547 43.9096C96.2169 35.329 90.6706 27.8812 83.2915 22.608C75.9124 17.3349 67.0696 14.5 58 14.5L58 0Z"/>
</mask>
<path d="M58 0C70.0928 1.44205e-07 81.8832 3.7798 91.722 10.8107C101.561 17.8416 108.956 27.772 112.873 39.2128C116.79 50.6536 117.033 63.0327 113.568 74.6184C110.103 86.2042 103.104 96.4172 93.5486 103.829C83.9934 111.241 72.3605 115.481 60.2771 115.955C48.1936 116.43 36.2639 113.116 26.1567 106.477C16.0494 99.8376 8.27014 90.2052 3.90693 78.927C-0.456275 67.6488 -1.18518 55.2889 1.82218 43.576L15.8666 47.182C13.6111 55.9666 14.1578 65.2366 17.4302 73.6953C20.7026 82.1539 26.5371 89.3782 34.1175 94.3576C41.6979 99.337 50.6452 101.823 59.7078 101.466C68.7704 101.11 77.4951 97.9306 84.6615 92.3717C91.8278 86.8129 97.0775 79.1532 99.6762 70.4638C102.275 61.7745 102.093 52.4902 99.1547 43.9096C96.2169 35.329 90.6706 27.8812 83.2915 22.608C75.9124 17.3349 67.0696 14.5 58 14.5L58 0Z" fill="#915650" stroke="#915650" stroke-width="2" mask="url(#path-2-inside-2)"/>
<path d="M50.1055 51.0001V52.2241L45.0115 63.6001H43.1035L48.0895 52.5661H42.3295V54.8161H40.6015V51.0001H50.1055ZM55.7693 50.8561C57.4613 50.8561 58.7633 51.4021 59.6753 52.4941C60.5993 53.5861 61.0613 55.1341 61.0613 57.1381C61.0613 58.5421 60.8093 59.7421 60.3053 60.7381C59.8133 61.7221 59.1173 62.4721 58.2173 62.9881C57.3293 63.4921 56.2913 63.7441 55.1033 63.7441C54.4913 63.7441 53.9153 63.6841 53.3753 63.5641C52.8353 63.4321 52.3673 63.2461 51.9713 63.0061L52.6553 61.6021C53.2673 61.9981 54.0773 62.1961 55.0853 62.1961C56.3933 62.1961 57.4133 61.7941 58.1453 60.9901C58.8893 60.1741 59.2613 58.9921 59.2613 57.4441V56.9941C58.9013 57.5341 58.4033 57.9481 57.7673 58.2361C57.1313 58.5121 56.4173 58.6501 55.6253 58.6501C54.7973 58.6501 54.0533 58.4941 53.3933 58.1821C52.7453 57.8701 52.2353 57.4261 51.8633 56.8501C51.5033 56.2621 51.3233 55.5901 51.3233 54.8341C51.3233 54.0421 51.5153 53.3461 51.8993 52.7461C52.2953 52.1461 52.8293 51.6841 53.5013 51.3601C54.1733 51.0241 54.9293 50.8561 55.7693 50.8561ZM55.9313 57.1921C56.4953 57.1921 56.9993 57.0841 57.4433 56.8681C57.8873 56.6521 58.2293 56.3581 58.4693 55.9861C58.7213 55.6141 58.8473 55.2001 58.8473 54.7441C58.8473 54.3001 58.7273 53.8981 58.4873 53.5381C58.2593 53.1661 57.9173 52.8721 57.4613 52.6561C57.0173 52.4281 56.4773 52.3141 55.8413 52.3141C55.0133 52.3141 54.3413 52.5361 53.8253 52.9801C53.3213 53.4241 53.0693 54.0181 53.0693 54.7621C53.0693 55.5061 53.3273 56.1001 53.8433 56.5441C54.3593 56.9761 55.0553 57.1921 55.9313 57.1921ZM65.5286 57.7681C64.6526 57.7681 63.9446 57.4501 63.4046 56.8141C62.8646 56.1781 62.5946 55.3501 62.5946 54.3301C62.5946 53.3101 62.8646 52.4821 63.4046 51.8461C63.9446 51.2101 64.6526 50.8921 65.5286 50.8921C66.4046 50.8921 67.1066 51.2101 67.6346 51.8461C68.1746 52.4701 68.4446 53.2981 68.4446 54.3301C68.4446 55.3621 68.1746 56.1961 67.6346 56.8321C67.1066 57.4561 66.4046 57.7681 65.5286 57.7681ZM73.1246 51.0001H74.5106L65.9066 63.6001H64.5206L73.1246 51.0001ZM65.5286 56.7421C66.0806 56.7421 66.5126 56.5321 66.8246 56.1121C67.1366 55.6801 67.2926 55.0861 67.2926 54.3301C67.2926 53.5741 67.1366 52.9861 66.8246 52.5661C66.5126 52.1341 66.0806 51.9181 65.5286 51.9181C64.9886 51.9181 64.5566 52.1341 64.2326 52.5661C63.9206 52.9981 63.7646 53.5861 63.7646 54.3301C63.7646 55.0741 63.9206 55.6621 64.2326 56.0941C64.5566 56.5261 64.9886 56.7421 65.5286 56.7421ZM73.5026 63.7081C72.6266 63.7081 71.9186 63.3961 71.3786 62.7721C70.8506 62.1361 70.5866 61.3021 70.5866 60.2701C70.5866 59.2381 70.8506 58.4101 71.3786 57.7861C71.9186 57.1501 72.6266 56.8321 73.5026 56.8321C74.3786 56.8321 75.0866 57.1501 75.6266 57.7861C76.1666 58.4221 76.4366 59.2501 76.4366 60.2701C76.4366 61.2901 76.1666 62.1181 75.6266 62.7541C75.0866 63.3901 74.3786 63.7081 73.5026 63.7081ZM73.5026 62.6821C74.0426 62.6821 74.4686 62.4661 74.7806 62.0341C75.1046 61.6021 75.2666 61.0141 75.2666 60.2701C75.2666 59.5261 75.1046 58.9381 74.7806 58.5061C74.4686 58.0741 74.0426 57.8581 73.5026 57.8581C72.9506 57.8581 72.5186 58.0741 72.2066 58.5061C71.8946 58.9261 71.7386 59.5141 71.7386 60.2701C71.7386 61.0261 71.8946 61.6201 72.2066 62.0521C72.5186 62.4721 72.9506 62.6821 73.5026 62.6821Z" fill="black"/>
</svg>
