<svg width="116" height="116" viewBox="0 0 116 116" fill="none" xmlns="http://www.w3.org/2000/svg">
<mask id="path-1-inside-1" fill="white">
<path fill-rule="evenodd" clip-rule="evenodd" d="M58 116C90.0325 116 116 90.0325 116 58C116 25.9675 90.0325 0 58 0C25.9675 0 0 25.9675 0 58C0 90.0325 25.9675 116 58 116ZM57.5 97C79.3152 97 97 79.3152 97 57.5C97 35.6848 79.3152 18 57.5 18C35.6848 18 18 35.6848 18 57.5C18 79.3152 35.6848 97 57.5 97Z"/>
</mask>
<path d="M115 58C115 89.4802 89.4802 115 58 115V117C90.5848 117 117 90.5848 117 58H115ZM58 1C89.4802 1 115 26.5198 115 58H117C117 25.4152 90.5848 -1 58 -1V1ZM1 58C1 26.5198 26.5198 1 58 1V-1C25.4152 -1 -1 25.4152 -1 58H1ZM58 115C26.5198 115 1 89.4802 1 58H-1C-1 90.5848 25.4152 117 58 117V115ZM96 57.5C96 78.763 78.763 96 57.5 96V98C79.8675 98 98 79.8675 98 57.5H96ZM57.5 19C78.763 19 96 36.237 96 57.5H98C98 35.1325 79.8675 17 57.5 17V19ZM19 57.5C19 36.237 36.237 19 57.5 19V17C35.1325 17 17 35.1325 17 57.5H19ZM57.5 96C36.237 96 19 78.763 19 57.5H17C17 79.8675 35.1325 98 57.5 98V96Z" fill="#806328" mask="url(#path-1-inside-1)"/>
<mask id="path-3-inside-2" fill="white">
<path fill-rule="evenodd" clip-rule="evenodd" d="M1.80245 43.594C0.625628 48.1994 0 53.0253 0 57.9973C0 90.0298 25.9675 115.997 58 115.997C90.0325 115.997 116 90.0298 116 57.9973C116 26.1532 90.337 0.302915 58.5645 0V18.0114C79.8876 18.5755 97 36.038 97 57.4973C97 79.3126 79.3152 96.9973 57.5 96.9973C35.6848 96.9973 18 79.3126 18 57.4973C18 54.1539 18.4154 50.9074 19.1974 47.8068L1.80245 43.594Z"/>
</mask>
<path fill-rule="evenodd" clip-rule="evenodd" d="M1.80245 43.594C0.625628 48.1994 0 53.0253 0 57.9973C0 90.0298 25.9675 115.997 58 115.997C90.0325 115.997 116 90.0298 116 57.9973C116 26.1532 90.337 0.302915 58.5645 0V18.0114C79.8876 18.5755 97 36.038 97 57.4973C97 79.3126 79.3152 96.9973 57.5 96.9973C35.6848 96.9973 18 79.3126 18 57.4973C18 54.1539 18.4154 50.9074 19.1974 47.8068L1.80245 43.594Z" fill="#98752E"/>
<path d="M1.80245 43.594L2.03784 42.6221L1.07807 42.3897L0.833587 43.3464L1.80245 43.594ZM58.5645 0L58.574 -0.999955L57.5645 -1.00958V0H58.5645ZM58.5645 18.0114H57.5645V18.9853L58.538 19.011L58.5645 18.0114ZM19.1974 47.8068L20.167 48.0514L20.4139 47.0726L19.4328 46.8349L19.1974 47.8068ZM0.833587 43.3464C-0.363742 48.032 -1 52.9411 -1 57.9973H1C1 53.1095 1.615 48.3667 2.77132 43.8416L0.833587 43.3464ZM-1 57.9973C-1 90.5821 25.4152 116.997 58 116.997V114.997C26.5198 114.997 1 89.4775 1 57.9973H-1ZM58 116.997C90.5848 116.997 117 90.5821 117 57.9973H115C115 89.4775 89.4802 114.997 58 114.997V116.997ZM117 57.9973C117 25.6041 90.8946 -0.691815 58.574 -0.999955L58.5549 0.999955C89.7795 1.29765 115 26.7022 115 57.9973H117ZM57.5645 0V18.0114H59.5645V0H57.5645ZM98 57.4973C98 35.4946 80.4544 17.5901 58.5909 17.0117L58.538 19.011C79.3208 19.5609 96 36.5814 96 57.4973H98ZM57.5 97.9973C79.8675 97.9973 98 79.8648 98 57.4973H96C96 78.7603 78.763 95.9973 57.5 95.9973V97.9973ZM17 57.4973C17 79.8648 35.1325 97.9973 57.5 97.9973V95.9973C36.237 95.9973 19 78.7603 19 57.4973H17ZM18.2278 47.5623C17.4258 50.7422 17 54.0707 17 57.4973H19C19 54.237 19.405 51.0727 20.167 48.0514L18.2278 47.5623ZM19.4328 46.8349L2.03784 42.6221L1.56707 44.5659L18.962 48.7787L19.4328 46.8349Z" fill="#806328" mask="url(#path-3-inside-2)"/>
<path d="M37.6569 49.6V51.096L31.4309 65H29.0989L35.1929 51.514H28.1529V54.264H26.0409V49.6H37.6569ZM48.6146 56.926C49.4946 57.2633 50.1692 57.7473 50.6386 58.378C51.1079 59.0087 51.3426 59.764 51.3426 60.644C51.3426 61.568 51.0932 62.3747 50.5946 63.064C50.0959 63.7387 49.3846 64.2593 48.4606 64.626C47.5366 64.9927 46.4512 65.176 45.2046 65.176C43.9726 65.176 42.8946 64.9927 41.9706 64.626C41.0612 64.2593 40.3572 63.7387 39.8586 63.064C39.3599 62.3747 39.1106 61.568 39.1106 60.644C39.1106 59.764 39.3379 59.0087 39.7926 58.378C40.2619 57.7473 40.9366 57.2633 41.8166 56.926C41.1126 56.5887 40.5772 56.1413 40.2106 55.584C39.8439 55.0267 39.6606 54.3667 39.6606 53.604C39.6606 52.7533 39.8879 52.0127 40.3426 51.382C40.8119 50.7513 41.4646 50.2673 42.3006 49.93C43.1366 49.5927 44.1046 49.424 45.2046 49.424C46.3192 49.424 47.2946 49.5927 48.1306 49.93C48.9812 50.2673 49.6339 50.7513 50.0886 51.382C50.5579 52.0127 50.7926 52.7533 50.7926 53.604C50.7926 54.352 50.6019 55.012 50.2206 55.584C49.8539 56.1413 49.3186 56.5887 48.6146 56.926ZM45.2046 51.206C44.1632 51.206 43.3419 51.4333 42.7406 51.888C42.1392 52.328 41.8386 52.9293 41.8386 53.692C41.8386 54.4547 42.1319 55.056 42.7186 55.496C43.3199 55.936 44.1486 56.156 45.2046 56.156C46.2752 56.156 47.1112 55.936 47.7126 55.496C48.3286 55.056 48.6366 54.4547 48.6366 53.692C48.6366 52.9293 48.3212 52.328 47.6906 51.888C47.0746 51.4333 46.2459 51.206 45.2046 51.206ZM45.2046 63.394C46.4219 63.394 47.3826 63.1447 48.0866 62.646C48.7906 62.1327 49.1426 61.4433 49.1426 60.578C49.1426 59.7273 48.7906 59.06 48.0866 58.576C47.3826 58.0773 46.4219 57.828 45.2046 57.828C43.9872 57.828 43.0339 58.0773 42.3446 58.576C41.6552 59.06 41.3106 59.7273 41.3106 60.578C41.3106 61.4433 41.6552 62.1327 42.3446 62.646C43.0339 63.1447 43.9872 63.394 45.2046 63.394ZM55.0236 65.132C54.613 65.132 54.261 64.9927 53.9676 64.714C53.6743 64.4207 53.5276 64.054 53.5276 63.614C53.5276 63.1887 53.6743 62.8367 53.9676 62.558C54.261 62.2647 54.613 62.118 55.0236 62.118C55.4343 62.118 55.779 62.2573 56.0576 62.536C56.3363 62.8147 56.4756 63.174 56.4756 63.614C56.4756 64.054 56.329 64.4207 56.0356 64.714C55.757 64.9927 55.4196 65.132 55.0236 65.132ZM63.55 49.424C65.618 49.424 67.2093 50.0913 68.324 51.426C69.4533 52.7607 70.018 54.6527 70.018 57.102C70.018 58.818 69.71 60.2847 69.094 61.502C68.4927 62.7047 67.642 63.6213 66.542 64.252C65.4567 64.868 64.188 65.176 62.736 65.176C61.988 65.176 61.284 65.1027 60.624 64.956C59.964 64.7947 59.392 64.5673 58.908 64.274L59.744 62.558C60.492 63.042 61.482 63.284 62.714 63.284C64.3127 63.284 65.5593 62.7927 66.454 61.81C67.3633 60.8127 67.818 59.368 67.818 57.476V56.926C67.378 57.586 66.7693 58.092 65.992 58.444C65.2147 58.7813 64.342 58.95 63.374 58.95C62.362 58.95 61.4527 58.7593 60.646 58.378C59.854 57.9967 59.2307 57.454 58.776 56.75C58.336 56.0313 58.116 55.21 58.116 54.286C58.116 53.318 58.3507 52.4673 58.82 51.734C59.304 51.0007 59.9567 50.436 60.778 50.04C61.5993 49.6293 62.5233 49.424 63.55 49.424ZM63.748 57.168C64.4373 57.168 65.0533 57.036 65.596 56.772C66.1387 56.508 66.5567 56.1487 66.85 55.694C67.158 55.2393 67.312 54.7333 67.312 54.176C67.312 53.6333 67.1653 53.142 66.872 52.702C66.5933 52.2473 66.1753 51.888 65.618 51.624C65.0753 51.3453 64.4153 51.206 63.638 51.206C62.626 51.206 61.8047 51.4773 61.174 52.02C60.558 52.5627 60.25 53.2887 60.25 54.198C60.25 55.1073 60.5653 55.8333 61.196 56.376C61.8267 56.904 62.6773 57.168 63.748 57.168ZM75.4781 57.872C74.4075 57.872 73.5421 57.4833 72.8821 56.706C72.2221 55.9287 71.8921 54.9167 71.8921 53.67C71.8921 52.4233 72.2221 51.4113 72.8821 50.634C73.5421 49.8567 74.4075 49.468 75.4781 49.468C76.5488 49.468 77.4068 49.8567 78.0521 50.634C78.7121 51.3967 79.0421 52.4087 79.0421 53.67C79.0421 54.9313 78.7121 55.9507 78.0521 56.728C77.4068 57.4907 76.5488 57.872 75.4781 57.872ZM84.7621 49.6H86.4561L75.9401 65H74.2461L84.7621 49.6ZM75.4781 56.618C76.1528 56.618 76.6808 56.3613 77.0621 55.848C77.4435 55.32 77.6341 54.594 77.6341 53.67C77.6341 52.746 77.4435 52.0273 77.0621 51.514C76.6808 50.986 76.1528 50.722 75.4781 50.722C74.8181 50.722 74.2901 50.986 73.8941 51.514C73.5128 52.042 73.3221 52.7607 73.3221 53.67C73.3221 54.5793 73.5128 55.298 73.8941 55.826C74.2901 56.354 74.8181 56.618 75.4781 56.618ZM85.2241 65.132C84.1535 65.132 83.2881 64.7507 82.6281 63.988C81.9828 63.2107 81.6601 62.1913 81.6601 60.93C81.6601 59.6687 81.9828 58.6567 82.6281 57.894C83.2881 57.1167 84.1535 56.728 85.2241 56.728C86.2948 56.728 87.1601 57.1167 87.8201 57.894C88.4801 58.6713 88.8101 59.6833 88.8101 60.93C88.8101 62.1767 88.4801 63.1887 87.8201 63.966C87.1601 64.7433 86.2948 65.132 85.2241 65.132ZM85.2241 63.878C85.8841 63.878 86.4048 63.614 86.7861 63.086C87.1821 62.558 87.3801 61.8393 87.3801 60.93C87.3801 60.0207 87.1821 59.302 86.7861 58.774C86.4048 58.246 85.8841 57.982 85.2241 57.982C84.5495 57.982 84.0215 58.246 83.6401 58.774C83.2588 59.2873 83.0681 60.006 83.0681 60.93C83.0681 61.854 83.2588 62.58 83.6401 63.108C84.0215 63.6213 84.5495 63.878 85.2241 63.878Z" fill="black"/>
</svg>
