<svg width="117" height="116" viewBox="0 0 117 116" fill="none" xmlns="http://www.w3.org/2000/svg">
<path d="M45.2855 56.926C46.1655 57.2633 46.8401 57.7473 47.3095 58.378C47.7788 59.0087 48.0135 59.764 48.0135 60.644C48.0135 61.568 47.7641 62.3747 47.2655 63.064C46.7668 63.7387 46.0555 64.2593 45.1315 64.626C44.2075 64.9927 43.1221 65.176 41.8755 65.176C40.6435 65.176 39.5655 64.9927 38.6415 64.626C37.7321 64.2593 37.0281 63.7387 36.5295 63.064C36.0308 62.3747 35.7815 61.568 35.7815 60.644C35.7815 59.764 36.0088 59.0087 36.4635 58.378C36.9328 57.7473 37.6075 57.2633 38.4875 56.926C37.7835 56.5887 37.2481 56.1413 36.8815 55.584C36.5148 55.0267 36.3315 54.3667 36.3315 53.604C36.3315 52.7533 36.5588 52.0127 37.0135 51.382C37.4828 50.7513 38.1355 50.2673 38.9715 49.93C39.8075 49.5927 40.7755 49.424 41.8755 49.424C42.9901 49.424 43.9655 49.5927 44.8015 49.93C45.6521 50.2673 46.3048 50.7513 46.7595 51.382C47.2288 52.0127 47.4635 52.7533 47.4635 53.604C47.4635 54.352 47.2728 55.012 46.8915 55.584C46.5248 56.1413 45.9895 56.5887 45.2855 56.926ZM41.8755 51.206C40.8341 51.206 40.0128 51.4333 39.4115 51.888C38.8101 52.328 38.5095 52.9293 38.5095 53.692C38.5095 54.4547 38.8028 55.056 39.3895 55.496C39.9908 55.936 40.8195 56.156 41.8755 56.156C42.9461 56.156 43.7821 55.936 44.3835 55.496C44.9995 55.056 45.3075 54.4547 45.3075 53.692C45.3075 52.9293 44.9921 52.328 44.3615 51.888C43.7455 51.4333 42.9168 51.206 41.8755 51.206ZM41.8755 63.394C43.0928 63.394 44.0535 63.1447 44.7575 62.646C45.4615 62.1327 45.8135 61.4433 45.8135 60.578C45.8135 59.7273 45.4615 59.06 44.7575 58.576C44.0535 58.0773 43.0928 57.828 41.8755 57.828C40.6581 57.828 39.7048 58.0773 39.0155 58.576C38.3261 59.06 37.9815 59.7273 37.9815 60.578C37.9815 61.4433 38.3261 62.1327 39.0155 62.646C39.7048 63.1447 40.6581 63.394 41.8755 63.394ZM56.3197 65.176C55.1023 65.176 54.017 64.868 53.0637 64.252C52.125 63.6213 51.3843 62.712 50.8417 61.524C50.299 60.336 50.0277 58.928 50.0277 57.3C50.0277 55.672 50.299 54.264 50.8417 53.076C51.3843 51.888 52.125 50.986 53.0637 50.37C54.017 49.7393 55.1023 49.424 56.3197 49.424C57.5223 49.424 58.593 49.7393 59.5317 50.37C60.485 50.986 61.233 51.888 61.7757 53.076C62.3183 54.264 62.5897 55.672 62.5897 57.3C62.5897 58.928 62.3183 60.336 61.7757 61.524C61.233 62.712 60.485 63.6213 59.5317 64.252C58.593 64.868 57.5223 65.176 56.3197 65.176ZM56.3197 63.218C57.5517 63.218 58.5343 62.712 59.2677 61.7C60.0157 60.688 60.3897 59.2213 60.3897 57.3C60.3897 55.3787 60.0157 53.912 59.2677 52.9C58.5343 51.888 57.5517 51.382 56.3197 51.382C55.073 51.382 54.0757 51.888 53.3277 52.9C52.5943 53.912 52.2277 55.3787 52.2277 57.3C52.2277 59.2213 52.5943 60.688 53.3277 61.7C54.0757 62.712 55.073 63.218 56.3197 63.218ZM68.0455 57.872C66.9748 57.872 66.1095 57.4833 65.4495 56.706C64.7895 55.9287 64.4595 54.9167 64.4595 53.67C64.4595 52.4233 64.7895 51.4113 65.4495 50.634C66.1095 49.8567 66.9748 49.468 68.0455 49.468C69.1162 49.468 69.9742 49.8567 70.6195 50.634C71.2795 51.3967 71.6095 52.4087 71.6095 53.67C71.6095 54.9313 71.2795 55.9507 70.6195 56.728C69.9742 57.4907 69.1162 57.872 68.0455 57.872ZM77.3295 49.6H79.0235L68.5075 65H66.8135L77.3295 49.6ZM68.0455 56.618C68.7202 56.618 69.2482 56.3613 69.6295 55.848C70.0108 55.32 70.2015 54.594 70.2015 53.67C70.2015 52.746 70.0108 52.0273 69.6295 51.514C69.2482 50.986 68.7202 50.722 68.0455 50.722C67.3855 50.722 66.8575 50.986 66.4615 51.514C66.0802 52.042 65.8895 52.7607 65.8895 53.67C65.8895 54.5793 66.0802 55.298 66.4615 55.826C66.8575 56.354 67.3855 56.618 68.0455 56.618ZM77.7915 65.132C76.7208 65.132 75.8555 64.7507 75.1955 63.988C74.5502 63.2107 74.2275 62.1913 74.2275 60.93C74.2275 59.6687 74.5502 58.6567 75.1955 57.894C75.8555 57.1167 76.7208 56.728 77.7915 56.728C78.8622 56.728 79.7275 57.1167 80.3875 57.894C81.0475 58.6713 81.3775 59.6833 81.3775 60.93C81.3775 62.1767 81.0475 63.1887 80.3875 63.966C79.7275 64.7433 78.8622 65.132 77.7915 65.132ZM77.7915 63.878C78.4515 63.878 78.9722 63.614 79.3535 63.086C79.7495 62.558 79.9475 61.8393 79.9475 60.93C79.9475 60.0207 79.7495 59.302 79.3535 58.774C78.9722 58.246 78.4515 57.982 77.7915 57.982C77.1168 57.982 76.5888 58.246 76.2075 58.774C75.8262 59.2873 75.6355 60.006 75.6355 60.93C75.6355 61.854 75.8262 62.58 76.2075 63.108C76.5888 63.6213 77.1168 63.878 77.7915 63.878Z" fill="black"/>
<mask id="path-2-inside-1" fill="white">
<path fill-rule="evenodd" clip-rule="evenodd" d="M3.99723 39.5467C2.05327 45.3434 1 51.5487 1 58C1 90.0325 26.9675 116 59 116C91.0325 116 117 90.0325 117 58C117 25.9675 91.0325 0 59 0C58.8332 0 58.6665 0.00070438 58.5 0.00211033V18C80.3152 18 98 35.6848 98 57.5C98 79.3152 80.3152 97 58.5 97C36.6848 97 19 79.3152 19 57.5C19 53.1148 19.7146 48.8965 21.0337 44.9551L3.99723 39.5467Z"/>
</mask>
<path fill-rule="evenodd" clip-rule="evenodd" d="M3.99723 39.5467C2.05327 45.3434 1 51.5487 1 58C1 90.0325 26.9675 116 59 116C91.0325 116 117 90.0325 117 58C117 25.9675 91.0325 0 59 0C58.8332 0 58.6665 0.00070438 58.5 0.00211033V18C80.3152 18 98 35.6848 98 57.5C98 79.3152 80.3152 97 58.5 97C36.6848 97 19 79.3152 19 57.5C19 53.1148 19.7146 48.8965 21.0337 44.9551L3.99723 39.5467Z" fill="#8D295B"/>
<path d="M3.99723 39.5467L4.29981 38.5936L3.36198 38.2959L3.04913 39.2288L3.99723 39.5467ZM58.5 0.00211033L58.4916 -0.997854L57.5 -0.989481V0.00211033H58.5ZM58.5 18H57.5V19H58.5V18ZM21.0337 44.9551L21.982 45.2725L22.3044 44.3093L21.3363 44.002L21.0337 44.9551ZM3.04913 39.2288C1.07124 45.1267 0 51.4392 0 58H2C2 51.6582 3.0353 45.5602 4.94534 39.8647L3.04913 39.2288ZM0 58C0 90.5848 26.4152 117 59 117V115C27.5198 115 2 89.4802 2 58H0ZM59 117C91.5848 117 118 90.5848 118 58H116C116 89.4802 90.4802 115 59 115V117ZM118 58C118 25.4152 91.5848 -1 59 -1V1C90.4802 1 116 26.5198 116 58H118ZM59 -1C58.8304 -1 58.6609 -0.999284 58.4916 -0.997854L58.5084 1.00207C58.6721 1.00069 58.836 1 59 1V-1ZM57.5 0.00211033V18H59.5V0.00211033H57.5ZM99 57.5C99 35.1325 80.8675 17 58.5 17V19C79.763 19 97 36.237 97 57.5H99ZM58.5 98C80.8675 98 99 79.8675 99 57.5H97C97 78.763 79.763 96 58.5 96V98ZM18 57.5C18 79.8675 36.1325 98 58.5 98V96C37.237 96 20 78.763 20 57.5H18ZM20.0854 44.6378C18.7325 48.6801 18 53.0055 18 57.5H20C20 53.224 20.6967 49.1128 21.982 45.2725L20.0854 44.6378ZM21.3363 44.002L4.29981 38.5936L3.69465 40.4999L20.7311 45.9083L21.3363 44.002Z" fill="#8D295B" mask="url(#path-2-inside-1)"/>
<mask id="path-4-inside-2" fill="white">
<path fill-rule="evenodd" clip-rule="evenodd" d="M58 116C90.0325 116 116 90.0325 116 58C116 25.9675 90.0325 0 58 0C25.9675 0 0 25.9675 0 58C0 90.0325 25.9675 116 58 116ZM57.5 97C79.3152 97 97 79.3152 97 57.5C97 35.6848 79.3152 18 57.5 18C35.6848 18 18 35.6848 18 57.5C18 79.3152 35.6848 97 57.5 97Z"/>
</mask>
<path d="M115 58C115 89.4802 89.4802 115 58 115V117C90.5848 117 117 90.5848 117 58H115ZM58 1C89.4802 1 115 26.5198 115 58H117C117 25.4152 90.5848 -1 58 -1V1ZM1 58C1 26.5198 26.5198 1 58 1V-1C25.4152 -1 -1 25.4152 -1 58H1ZM58 115C26.5198 115 1 89.4802 1 58H-1C-1 90.5848 25.4152 117 58 117V115ZM96 57.5C96 78.763 78.763 96 57.5 96V98C79.8675 98 98 79.8675 98 57.5H96ZM57.5 19C78.763 19 96 36.237 96 57.5H98C98 35.1325 79.8675 17 57.5 17V19ZM19 57.5C19 36.237 36.237 19 57.5 19V17C35.1325 17 17 35.1325 17 57.5H19ZM57.5 96C36.237 96 19 78.763 19 57.5H17C17 79.8675 35.1325 98 57.5 98V96Z" fill="#4A0227" mask="url(#path-4-inside-2)"/>
</svg>
