<svg width="116" height="116" viewBox="0 0 116 116" fill="none" xmlns="http://www.w3.org/2000/svg">
<mask id="path-1-inside-1" fill="white">
<path d="M116 58C116 90.0325 90.0325 116 58 116C25.9675 116 0 90.0325 0 58C0 25.9675 25.9675 0 58 0C90.0325 0 116 25.9675 116 58ZM14.5 58C14.5 82.0244 33.9756 101.5 58 101.5C82.0244 101.5 101.5 82.0244 101.5 58C101.5 33.9756 82.0244 14.5 58 14.5C33.9756 14.5 14.5 33.9756 14.5 58Z"/>
</mask>
<path d="M116 58C116 90.0325 90.0325 116 58 116C25.9675 116 0 90.0325 0 58C0 25.9675 25.9675 0 58 0C90.0325 0 116 25.9675 116 58ZM14.5 58C14.5 82.0244 33.9756 101.5 58 101.5C82.0244 101.5 101.5 82.0244 101.5 58C101.5 33.9756 82.0244 14.5 58 14.5C33.9756 14.5 14.5 33.9756 14.5 58Z" stroke="#915650" stroke-width="2" mask="url(#path-1-inside-1)"/>
<mask id="path-2-inside-2" fill="white">
<path d="M58 0C70.2484 1.46061e-07 82.1824 3.87759 92.0915 11.077C102.001 18.2764 109.376 28.4281 113.161 40.077C116.946 51.7259 116.946 64.2741 113.161 75.923C109.376 87.5719 102.001 97.7236 92.0915 104.923C82.1824 112.122 70.2484 116 58 116C45.7516 116 33.8176 112.122 23.9084 104.923C13.9993 97.7236 6.62368 87.5719 2.83872 75.923C-0.946242 64.2741 -0.94624 51.7259 2.83872 40.077L16.629 44.5578C13.7903 53.2944 13.7903 62.7055 16.629 71.4422C19.4678 80.1789 24.9995 87.7927 32.4313 93.1922C39.8632 98.5918 48.8137 101.5 58 101.5C67.1863 101.5 76.1368 98.5918 83.5687 93.1922C91.0005 87.7927 96.5322 80.1789 99.371 71.4422C102.21 62.7056 102.21 53.2945 99.371 44.5578C96.5322 35.8211 91.0005 28.2073 83.5687 22.8078C76.1368 17.4082 67.1863 14.5 58 14.5L58 0Z"/>
</mask>
<path d="M58 0C70.2484 1.46061e-07 82.1824 3.87759 92.0915 11.077C102.001 18.2764 109.376 28.4281 113.161 40.077C116.946 51.7259 116.946 64.2741 113.161 75.923C109.376 87.5719 102.001 97.7236 92.0915 104.923C82.1824 112.122 70.2484 116 58 116C45.7516 116 33.8176 112.122 23.9084 104.923C13.9993 97.7236 6.62368 87.5719 2.83872 75.923C-0.946242 64.2741 -0.94624 51.7259 2.83872 40.077L16.629 44.5578C13.7903 53.2944 13.7903 62.7055 16.629 71.4422C19.4678 80.1789 24.9995 87.7927 32.4313 93.1922C39.8632 98.5918 48.8137 101.5 58 101.5C67.1863 101.5 76.1368 98.5918 83.5687 93.1922C91.0005 87.7927 96.5322 80.1789 99.371 71.4422C102.21 62.7056 102.21 53.2945 99.371 44.5578C96.5322 35.8211 91.0005 28.2073 83.5687 22.8078C76.1368 17.4082 67.1863 14.5 58 14.5L58 0Z" fill="#915650" stroke="#915650" stroke-width="2" mask="url(#path-2-inside-2)"/>
<path d="M47.7681 56.9941C48.4881 57.2701 49.0401 57.6661 49.4241 58.1821C49.8081 58.6981 50.0001 59.3161 50.0001 60.0361C50.0001 60.7921 49.7961 61.4521 49.3881 62.0161C48.9801 62.5681 48.3981 62.9941 47.6421 63.2941C46.8861 63.5941 45.9981 63.7441 44.9781 63.7441C43.9701 63.7441 43.0881 63.5941 42.3321 63.2941C41.5881 62.9941 41.0121 62.5681 40.6041 62.0161C40.1961 61.4521 39.9921 60.7921 39.9921 60.0361C39.9921 59.3161 40.1781 58.6981 40.5501 58.1821C40.9341 57.6661 41.4861 57.2701 42.2061 56.9941C41.6301 56.7181 41.1921 56.3521 40.8921 55.8961C40.5921 55.4401 40.4421 54.9001 40.4421 54.2761C40.4421 53.5801 40.6281 52.9741 41.0001 52.4581C41.3841 51.9421 41.9181 51.5461 42.6021 51.2701C43.2861 50.9941 44.0781 50.8561 44.9781 50.8561C45.8901 50.8561 46.6881 50.9941 47.3721 51.2701C48.0681 51.5461 48.6021 51.9421 48.9741 52.4581C49.3581 52.9741 49.5501 53.5801 49.5501 54.2761C49.5501 54.8881 49.3941 55.4281 49.0821 55.8961C48.7821 56.3521 48.3441 56.7181 47.7681 56.9941ZM44.9781 52.3141C44.1261 52.3141 43.4541 52.5001 42.9621 52.8721C42.4701 53.2321 42.2241 53.7241 42.2241 54.3481C42.2241 54.9721 42.4641 55.4641 42.9441 55.8241C43.4361 56.1841 44.1141 56.3641 44.9781 56.3641C45.8541 56.3641 46.5381 56.1841 47.0301 55.8241C47.5341 55.4641 47.7861 54.9721 47.7861 54.3481C47.7861 53.7241 47.5281 53.2321 47.0121 52.8721C46.5081 52.5001 45.8301 52.3141 44.9781 52.3141ZM44.9781 62.2861C45.9741 62.2861 46.7601 62.0821 47.3361 61.6741C47.9121 61.2541 48.2001 60.6901 48.2001 59.9821C48.2001 59.2861 47.9121 58.7401 47.3361 58.3441C46.7601 57.9361 45.9741 57.7321 44.9781 57.7321C43.9821 57.7321 43.2021 57.9361 42.6381 58.3441C42.0741 58.7401 41.7921 59.2861 41.7921 59.9821C41.7921 60.6901 42.0741 61.2541 42.6381 61.6741C43.2021 62.0821 43.9821 62.2861 44.9781 62.2861ZM56.7961 63.7441C55.8001 63.7441 54.9121 63.4921 54.1321 62.9881C53.3641 62.4721 52.7581 61.7281 52.3141 60.7561C51.8701 59.7841 51.6481 58.6321 51.6481 57.3001C51.6481 55.9681 51.8701 54.8161 52.3141 53.8441C52.7581 52.8721 53.3641 52.1341 54.1321 51.6301C54.9121 51.1141 55.8001 50.8561 56.7961 50.8561C57.7801 50.8561 58.6561 51.1141 59.4241 51.6301C60.2041 52.1341 60.8161 52.8721 61.2601 53.8441C61.7041 54.8161 61.9261 55.9681 61.9261 57.3001C61.9261 58.6321 61.7041 59.7841 61.2601 60.7561C60.8161 61.7281 60.2041 62.4721 59.4241 62.9881C58.6561 63.4921 57.7801 63.7441 56.7961 63.7441ZM56.7961 62.1421C57.8041 62.1421 58.6081 61.7281 59.2081 60.9001C59.8201 60.0721 60.1261 58.8721 60.1261 57.3001C60.1261 55.7281 59.8201 54.5281 59.2081 53.7001C58.6081 52.8721 57.8041 52.4581 56.7961 52.4581C55.7761 52.4581 54.9601 52.8721 54.3481 53.7001C53.7481 54.5281 53.4481 55.7281 53.4481 57.3001C53.4481 58.8721 53.7481 60.0721 54.3481 60.9001C54.9601 61.7281 55.7761 62.1421 56.7961 62.1421ZM66.39 57.7681C65.514 57.7681 64.806 57.4501 64.266 56.8141C63.726 56.1781 63.456 55.3501 63.456 54.3301C63.456 53.3101 63.726 52.4821 64.266 51.8461C64.806 51.2101 65.514 50.8921 66.39 50.8921C67.266 50.8921 67.968 51.2101 68.496 51.8461C69.036 52.4701 69.306 53.2981 69.306 54.3301C69.306 55.3621 69.036 56.1961 68.496 56.8321C67.968 57.4561 67.266 57.7681 66.39 57.7681ZM73.986 51.0001H75.372L66.768 63.6001H65.382L73.986 51.0001ZM66.39 56.7421C66.942 56.7421 67.374 56.5321 67.686 56.1121C67.998 55.6801 68.154 55.0861 68.154 54.3301C68.154 53.5741 67.998 52.9861 67.686 52.5661C67.374 52.1341 66.942 51.9181 66.39 51.9181C65.85 51.9181 65.418 52.1341 65.094 52.5661C64.782 52.9981 64.626 53.5861 64.626 54.3301C64.626 55.0741 64.782 55.6621 65.094 56.0941C65.418 56.5261 65.85 56.7421 66.39 56.7421ZM74.364 63.7081C73.488 63.7081 72.78 63.3961 72.24 62.7721C71.712 62.1361 71.448 61.3021 71.448 60.2701C71.448 59.2381 71.712 58.4101 72.24 57.7861C72.78 57.1501 73.488 56.8321 74.364 56.8321C75.24 56.8321 75.948 57.1501 76.488 57.7861C77.028 58.4221 77.298 59.2501 77.298 60.2701C77.298 61.2901 77.028 62.1181 76.488 62.7541C75.948 63.3901 75.24 63.7081 74.364 63.7081ZM74.364 62.6821C74.904 62.6821 75.33 62.4661 75.642 62.0341C75.966 61.6021 76.128 61.0141 76.128 60.2701C76.128 59.5261 75.966 58.9381 75.642 58.5061C75.33 58.0741 74.904 57.8581 74.364 57.8581C73.812 57.8581 73.38 58.0741 73.068 58.5061C72.756 58.9261 72.6 59.5141 72.6 60.2701C72.6 61.0261 72.756 61.6201 73.068 62.0521C73.38 62.4721 73.812 62.6821 74.364 62.6821Z" fill="black"/>
</svg>
