<svg width="55" height="52" viewBox="0 0 55 52" fill="none" xmlns="http://www.w3.org/2000/svg">
<path d="M47.7555 19.293L28.0268 1.11621L5.8368 1.11621L9.00387 4.05804L21.0905 15.285M47.7555 19.293L53.7012 24.7709L34.5082 44.4032L28.0268 51.1002L5.83679 51.1002L12.0179 44.4032L22.3514 33.6565M47.7555 19.293L42.4358 24.7709M16.0804 51.1002L33.8069 33.6565M42.4358 24.7709L12.96 24.7709M42.4358 24.7709L33.3644 16.4563M42.4358 24.7709L33.8069 33.6565M16.0804 1.11621L33.3644 16.4563M12.96 24.7709L4.05134 16.4563M12.96 24.7709L7.58863 30.0084L2.21728 35.2458M33.3644 16.4563L22.3514 16.4563M4.05134 16.4563L22.3514 16.4563M4.05134 16.4563L2.79644 15.285L21.0905 15.285M22.3514 16.4563L21.0905 15.285M33.8069 33.6565L22.3514 33.6565M2.21728 35.2458L4.05134 33.6565L22.3514 33.6565M2.21728 35.2458L21.0905 35.2458L22.3514 33.6565" stroke="#98752E"/>
</svg>
