<svg width="52" height="54" viewBox="0 0 52 54" fill="none" xmlns="http://www.w3.org/2000/svg">
<path d="M32.7529 46.8922L50.9297 27.1635L50.9297 4.97352L47.9879 8.14059L36.7609 20.2272M32.7529 46.8922L27.275 52.8379L7.64274 33.6449L0.945671 27.1635L0.945673 4.97351L7.64275 11.1546L18.3894 21.4881M32.7529 46.8922L27.275 41.5725M0.945672 15.2171L18.3894 32.9436M27.275 41.5725L27.275 12.0967M27.275 41.5725L35.5896 32.5011M27.275 41.5725L18.3894 32.9436M50.9297 15.2171L35.5896 32.5011M27.275 12.0967L35.5896 3.18806M27.275 12.0967L22.0375 6.72535L16.8001 1.354M35.5896 32.5011L35.5896 21.4881M35.5896 3.18806L35.5896 21.4881M35.5896 3.18806L36.7609 1.93315L36.7609 20.2272M35.5896 21.4881L36.7609 20.2272M18.3894 32.9436L18.3894 21.4881M16.8001 1.354L18.3894 3.18806L18.3894 21.4881M16.8001 1.354L16.8001 20.2272L18.3894 21.4881" stroke="#98752E"/>
</svg>
