<svg width="466" height="98" viewBox="0 0 466 98" fill="none" xmlns="http://www.w3.org/2000/svg">
<path d="M430.534 3.4V4.624L425.44 16H423.532L428.518 4.966H422.758V7.216H421.03V3.4H430.534ZM439.5 9.394C440.22 9.67 440.772 10.066 441.156 10.582C441.54 11.098 441.732 11.716 441.732 12.436C441.732 13.192 441.528 13.852 441.12 14.416C440.712 14.968 440.13 15.394 439.374 15.694C438.618 15.994 437.73 16.144 436.71 16.144C435.702 16.144 434.82 15.994 434.064 15.694C433.32 15.394 432.744 14.968 432.336 14.416C431.928 13.852 431.724 13.192 431.724 12.436C431.724 11.716 431.91 11.098 432.282 10.582C432.666 10.066 433.218 9.67 433.938 9.394C433.362 9.118 432.924 8.752 432.624 8.296C432.324 7.84 432.174 7.3 432.174 6.676C432.174 5.98 432.36 5.374 432.732 4.858C433.116 4.342 433.65 3.946 434.334 3.67C435.018 3.394 435.81 3.256 436.71 3.256C437.622 3.256 438.42 3.394 439.104 3.67C439.8 3.946 440.334 4.342 440.706 4.858C441.09 5.374 441.282 5.98 441.282 6.676C441.282 7.288 441.126 7.828 440.814 8.296C440.514 8.752 440.076 9.118 439.5 9.394ZM436.71 4.714C435.858 4.714 435.186 4.9 434.694 5.272C434.202 5.632 433.956 6.124 433.956 6.748C433.956 7.372 434.196 7.864 434.676 8.224C435.168 8.584 435.846 8.764 436.71 8.764C437.586 8.764 438.27 8.584 438.762 8.224C439.266 7.864 439.518 7.372 439.518 6.748C439.518 6.124 439.26 5.632 438.744 5.272C438.24 4.9 437.562 4.714 436.71 4.714ZM436.71 14.686C437.706 14.686 438.492 14.482 439.068 14.074C439.644 13.654 439.932 13.09 439.932 12.382C439.932 11.686 439.644 11.14 439.068 10.744C438.492 10.336 437.706 10.132 436.71 10.132C435.714 10.132 434.934 10.336 434.37 10.744C433.806 11.14 433.524 11.686 433.524 12.382C433.524 13.09 433.806 13.654 434.37 14.074C434.934 14.482 435.714 14.686 436.71 14.686ZM445.94 10.168C445.064 10.168 444.356 9.85 443.816 9.214C443.276 8.578 443.006 7.75 443.006 6.73C443.006 5.71 443.276 4.882 443.816 4.246C444.356 3.61 445.064 3.292 445.94 3.292C446.816 3.292 447.518 3.61 448.046 4.246C448.586 4.87 448.856 5.698 448.856 6.73C448.856 7.762 448.586 8.596 448.046 9.232C447.518 9.856 446.816 10.168 445.94 10.168ZM453.536 3.4H454.922L446.318 16H444.932L453.536 3.4ZM445.94 9.142C446.492 9.142 446.924 8.932 447.236 8.512C447.548 8.08 447.704 7.486 447.704 6.73C447.704 5.974 447.548 5.386 447.236 4.966C446.924 4.534 446.492 4.318 445.94 4.318C445.4 4.318 444.968 4.534 444.644 4.966C444.332 5.398 444.176 5.986 444.176 6.73C444.176 7.474 444.332 8.062 444.644 8.494C444.968 8.926 445.4 9.142 445.94 9.142ZM453.914 16.108C453.038 16.108 452.33 15.796 451.79 15.172C451.262 14.536 450.998 13.702 450.998 12.67C450.998 11.638 451.262 10.81 451.79 10.186C452.33 9.55 453.038 9.232 453.914 9.232C454.79 9.232 455.498 9.55 456.038 10.186C456.578 10.822 456.848 11.65 456.848 12.67C456.848 13.69 456.578 14.518 456.038 15.154C455.498 15.79 454.79 16.108 453.914 16.108ZM453.914 15.082C454.454 15.082 454.88 14.866 455.192 14.434C455.516 14.002 455.678 13.414 455.678 12.67C455.678 11.926 455.516 11.338 455.192 10.906C454.88 10.474 454.454 10.258 453.914 10.258C453.362 10.258 452.93 10.474 452.618 10.906C452.306 11.326 452.15 11.914 452.15 12.67C452.15 13.426 452.306 14.02 452.618 14.452C452.93 14.872 453.362 15.082 453.914 15.082Z" fill="black"/>
<path d="M27.4036 2.4C29.0356 2.4 30.3196 2.79 31.2556 3.57C32.1916 4.35 32.6596 5.424 32.6596 6.792C32.6596 8.16 32.1916 9.234 31.2556 10.014C30.3196 10.794 29.0356 11.184 27.4036 11.184H24.2896V15H22.4896V2.4H27.4036ZM27.3496 9.618C28.4896 9.618 29.3596 9.378 29.9596 8.898C30.5596 8.406 30.8596 7.704 30.8596 6.792C30.8596 5.88 30.5596 5.184 29.9596 4.704C29.3596 4.212 28.4896 3.966 27.3496 3.966H24.2896V9.618H27.3496ZM38.4382 5.37C39.7582 5.37 40.7662 5.694 41.4622 6.342C42.1702 6.99 42.5242 7.956 42.5242 9.24V15H40.8862V13.74C40.5982 14.184 40.1842 14.526 39.6442 14.766C39.1162 14.994 38.4862 15.108 37.7542 15.108C36.6862 15.108 35.8282 14.85 35.1802 14.334C34.5442 13.818 34.2262 13.14 34.2262 12.3C34.2262 11.46 34.5322 10.788 35.1442 10.284C35.7562 9.768 36.7282 9.51 38.0602 9.51H40.7962V9.168C40.7962 8.424 40.5802 7.854 40.1482 7.458C39.7162 7.062 39.0802 6.864 38.2402 6.864C37.6762 6.864 37.1242 6.96 36.5842 7.152C36.0442 7.332 35.5882 7.578 35.2162 7.89L34.4962 6.594C34.9882 6.198 35.5762 5.898 36.2602 5.694C36.9442 5.478 37.6702 5.37 38.4382 5.37ZM38.0422 13.776C38.7022 13.776 39.2722 13.632 39.7522 13.344C40.2322 13.044 40.5802 12.624 40.7962 12.084V10.752H38.1322C36.6682 10.752 35.9362 11.244 35.9362 12.228C35.9362 12.708 36.1222 13.086 36.4942 13.362C36.8662 13.638 37.3822 13.776 38.0422 13.776ZM47.378 7.062C47.678 6.51 48.122 6.09 48.71 5.802C49.298 5.514 50.012 5.37 50.852 5.37V7.044C50.756 7.032 50.624 7.026 50.456 7.026C49.52 7.026 48.782 7.308 48.242 7.872C47.714 8.424 47.45 9.216 47.45 10.248V15H45.722V5.46H47.378V7.062ZM61.5159 10.284C61.5159 10.416 61.5039 10.59 61.4799 10.806H53.7399C53.8479 11.646 54.2139 12.324 54.8379 12.84C55.4739 13.344 56.2599 13.596 57.1959 13.596C58.3359 13.596 59.2539 13.212 59.9499 12.444L60.9039 13.56C60.4719 14.064 59.9319 14.448 59.2839 14.712C58.6479 14.976 57.9339 15.108 57.1419 15.108C56.1339 15.108 55.2399 14.904 54.4599 14.496C53.6799 14.076 53.0739 13.494 52.6419 12.75C52.2219 12.006 52.0119 11.166 52.0119 10.23C52.0119 9.306 52.2159 8.472 52.6239 7.728C53.0439 6.984 53.6139 6.408 54.3339 6C55.0659 5.58 55.8879 5.37 56.7999 5.37C57.7119 5.37 58.5219 5.58 59.2299 6C59.9499 6.408 60.5079 6.984 60.9039 7.728C61.3119 8.472 61.5159 9.324 61.5159 10.284ZM56.7999 6.828C55.9719 6.828 55.2759 7.08 54.7119 7.584C54.1599 8.088 53.8359 8.748 53.7399 9.564H59.8599C59.7639 8.76 59.4339 8.106 58.8699 7.602C58.3179 7.086 57.6279 6.828 56.7999 6.828ZM69.0093 5.37C70.2213 5.37 71.1813 5.724 71.8893 6.432C72.6093 7.128 72.9693 8.154 72.9693 9.51V15H71.2413V9.708C71.2413 8.784 71.0193 8.088 70.5753 7.62C70.1313 7.152 69.4953 6.918 68.6673 6.918C67.7313 6.918 66.9933 7.194 66.4533 7.746C65.9133 8.286 65.6433 9.066 65.6433 10.086V15H63.9153V5.46H65.5713V6.9C65.9193 6.408 66.3873 6.03 66.9753 5.766C67.5753 5.502 68.2533 5.37 69.0093 5.37ZM81.5313 14.442C81.2793 14.658 80.9673 14.826 80.5953 14.946C80.2233 15.054 79.8393 15.108 79.4433 15.108C78.4833 15.108 77.7393 14.85 77.2113 14.334C76.6833 13.818 76.4193 13.08 76.4193 12.12V6.882H74.7993V5.46H76.4193V3.372H78.1473V5.46H80.8833V6.882H78.1473V12.048C78.1473 12.564 78.2733 12.96 78.5253 13.236C78.7893 13.512 79.1613 13.65 79.6413 13.65C80.1693 13.65 80.6193 13.5 80.9913 13.2L81.5313 14.442ZM86.3564 15.108C85.5764 15.108 84.8264 15.006 84.1064 14.802C83.3864 14.586 82.8224 14.316 82.4144 13.992L83.1344 12.624C83.5544 12.924 84.0644 13.164 84.6644 13.344C85.2644 13.524 85.8704 13.614 86.4824 13.614C87.9944 13.614 88.7504 13.182 88.7504 12.318C88.7504 12.03 88.6484 11.802 88.4444 11.634C88.2404 11.466 87.9824 11.346 87.6704 11.274C87.3704 11.19 86.9384 11.1 86.3744 11.004C85.6064 10.884 84.9764 10.746 84.4844 10.59C84.0044 10.434 83.5904 10.17 83.2424 9.798C82.8944 9.426 82.7204 8.904 82.7204 8.232C82.7204 7.368 83.0804 6.678 83.8004 6.162C84.5204 5.634 85.4864 5.37 86.6984 5.37C87.3344 5.37 87.9704 5.448 88.6064 5.604C89.2424 5.76 89.7644 5.97 90.1724 6.234L89.4344 7.602C88.6544 7.098 87.7364 6.846 86.6804 6.846C85.9484 6.846 85.3904 6.966 85.0064 7.206C84.6224 7.446 84.4304 7.764 84.4304 8.16C84.4304 8.472 84.5384 8.718 84.7544 8.898C84.9704 9.078 85.2344 9.21 85.5464 9.294C85.8704 9.378 86.3204 9.474 86.8964 9.582C87.6644 9.714 88.2824 9.858 88.7504 10.014C89.2304 10.158 89.6384 10.41 89.9744 10.77C90.3104 11.13 90.4784 11.634 90.4784 12.282C90.4784 13.146 90.1064 13.836 89.3624 14.352C88.6304 14.856 87.6284 15.108 86.3564 15.108Z" fill="black"/>
<path d="M14.4096 43.966H10.0896V42.4H20.5116V43.966H16.1916V55H14.4096V43.966ZM29.8577 50.284C29.8577 50.416 29.8457 50.59 29.8217 50.806H22.0817C22.1897 51.646 22.5557 52.324 23.1797 52.84C23.8157 53.344 24.6017 53.596 25.5377 53.596C26.6777 53.596 27.5957 53.212 28.2917 52.444L29.2457 53.56C28.8137 54.064 28.2737 54.448 27.6257 54.712C26.9897 54.976 26.2757 55.108 25.4837 55.108C24.4757 55.108 23.5817 54.904 22.8017 54.496C22.0217 54.076 21.4157 53.494 20.9837 52.75C20.5637 52.006 20.3537 51.166 20.3537 50.23C20.3537 49.306 20.5577 48.472 20.9657 47.728C21.3857 46.984 21.9557 46.408 22.6757 46C23.4077 45.58 24.2297 45.37 25.1417 45.37C26.0537 45.37 26.8637 45.58 27.5717 46C28.2917 46.408 28.8497 46.984 29.2457 47.728C29.6537 48.472 29.8577 49.324 29.8577 50.284ZM25.1417 46.828C24.3137 46.828 23.6177 47.08 23.0537 47.584C22.5017 48.088 22.1777 48.748 22.0817 49.564H28.2017C28.1057 48.76 27.7757 48.106 27.2117 47.602C26.6597 47.086 25.9697 46.828 25.1417 46.828ZM35.4675 45.37C36.7875 45.37 37.7955 45.694 38.4915 46.342C39.1995 46.99 39.5535 47.956 39.5535 49.24V55H37.9155V53.74C37.6275 54.184 37.2135 54.526 36.6735 54.766C36.1455 54.994 35.5155 55.108 34.7835 55.108C33.7155 55.108 32.8575 54.85 32.2095 54.334C31.5735 53.818 31.2555 53.14 31.2555 52.3C31.2555 51.46 31.5615 50.788 32.1735 50.284C32.7855 49.768 33.7575 49.51 35.0895 49.51H37.8255V49.168C37.8255 48.424 37.6095 47.854 37.1775 47.458C36.7455 47.062 36.1095 46.864 35.2695 46.864C34.7055 46.864 34.1535 46.96 33.6135 47.152C33.0735 47.332 32.6175 47.578 32.2455 47.89L31.5255 46.594C32.0175 46.198 32.6055 45.898 33.2895 45.694C33.9735 45.478 34.6995 45.37 35.4675 45.37ZM35.0715 53.776C35.7315 53.776 36.3015 53.632 36.7815 53.344C37.2615 53.044 37.6095 52.624 37.8255 52.084V50.752H35.1615C33.6975 50.752 32.9655 51.244 32.9655 52.228C32.9655 52.708 33.1515 53.086 33.5235 53.362C33.8955 53.638 34.4115 53.776 35.0715 53.776ZM46.962 55.108C45.99 55.108 45.12 54.898 44.352 54.478C43.596 54.058 43.002 53.482 42.57 52.75C42.138 52.006 41.922 51.166 41.922 50.23C41.922 49.294 42.138 48.46 42.57 47.728C43.002 46.984 43.596 46.408 44.352 46C45.12 45.58 45.99 45.37 46.962 45.37C47.826 45.37 48.594 45.544 49.266 45.892C49.95 46.24 50.478 46.744 50.85 47.404L49.536 48.25C49.236 47.794 48.864 47.452 48.42 47.224C47.976 46.996 47.484 46.882 46.944 46.882C46.32 46.882 45.756 47.02 45.252 47.296C44.76 47.572 44.37 47.968 44.082 48.484C43.806 48.988 43.668 49.57 43.668 50.23C43.668 50.902 43.806 51.496 44.082 52.012C44.37 52.516 44.76 52.906 45.252 53.182C45.756 53.458 46.32 53.596 46.944 53.596C47.484 53.596 47.976 53.482 48.42 53.254C48.864 53.026 49.236 52.684 49.536 52.228L50.85 53.056C50.478 53.716 49.95 54.226 49.266 54.586C48.594 54.934 47.826 55.108 46.962 55.108ZM58.0582 45.37C59.2702 45.37 60.2302 45.724 60.9382 46.432C61.6582 47.128 62.0182 48.154 62.0182 49.51V55H60.2902V49.708C60.2902 48.784 60.0682 48.088 59.6242 47.62C59.1802 47.152 58.5442 46.918 57.7162 46.918C56.7802 46.918 56.0422 47.194 55.5022 47.746C54.9622 48.286 54.6922 49.066 54.6922 50.086V55H52.9642V41.644H54.6922V46.81C55.0522 46.354 55.5202 46 56.0962 45.748C56.6842 45.496 57.3382 45.37 58.0582 45.37ZM73.8909 50.284C73.8909 50.416 73.8789 50.59 73.8549 50.806H66.1149C66.2229 51.646 66.5889 52.324 67.2129 52.84C67.8489 53.344 68.6349 53.596 69.5709 53.596C70.7109 53.596 71.6289 53.212 72.3249 52.444L73.2789 53.56C72.8469 54.064 72.3069 54.448 71.6589 54.712C71.0229 54.976 70.3089 55.108 69.5169 55.108C68.5089 55.108 67.6149 54.904 66.8349 54.496C66.0549 54.076 65.4489 53.494 65.0169 52.75C64.5969 52.006 64.3869 51.166 64.3869 50.23C64.3869 49.306 64.5909 48.472 64.9989 47.728C65.4189 46.984 65.9889 46.408 66.7089 46C67.4409 45.58 68.2629 45.37 69.1749 45.37C70.0869 45.37 70.8969 45.58 71.6049 46C72.3249 46.408 72.8829 46.984 73.2789 47.728C73.6869 48.472 73.8909 49.324 73.8909 50.284ZM69.1749 46.828C68.3469 46.828 67.6509 47.08 67.0869 47.584C66.5349 48.088 66.2109 48.748 66.1149 49.564H72.2349C72.1389 48.76 71.8089 48.106 71.2449 47.602C70.6929 47.086 70.0029 46.828 69.1749 46.828ZM77.9463 47.062C78.2463 46.51 78.6903 46.09 79.2783 45.802C79.8663 45.514 80.5803 45.37 81.4203 45.37V47.044C81.3243 47.032 81.1923 47.026 81.0243 47.026C80.0883 47.026 79.3503 47.308 78.8103 47.872C78.2823 48.424 78.0183 49.216 78.0183 50.248V55H76.2903V45.46H77.9463V47.062ZM86.3564 55.108C85.5764 55.108 84.8264 55.006 84.1064 54.802C83.3864 54.586 82.8224 54.316 82.4144 53.992L83.1344 52.624C83.5544 52.924 84.0644 53.164 84.6644 53.344C85.2644 53.524 85.8704 53.614 86.4824 53.614C87.9944 53.614 88.7504 53.182 88.7504 52.318C88.7504 52.03 88.6484 51.802 88.4444 51.634C88.2404 51.466 87.9824 51.346 87.6704 51.274C87.3704 51.19 86.9384 51.1 86.3744 51.004C85.6064 50.884 84.9764 50.746 84.4844 50.59C84.0044 50.434 83.5904 50.17 83.2424 49.798C82.8944 49.426 82.7204 48.904 82.7204 48.232C82.7204 47.368 83.0804 46.678 83.8004 46.162C84.5204 45.634 85.4864 45.37 86.6984 45.37C87.3344 45.37 87.9704 45.448 88.6064 45.604C89.2424 45.76 89.7644 45.97 90.1724 46.234L89.4344 47.602C88.6544 47.098 87.7364 46.846 86.6804 46.846C85.9484 46.846 85.3904 46.966 85.0064 47.206C84.6224 47.446 84.4304 47.764 84.4304 48.16C84.4304 48.472 84.5384 48.718 84.7544 48.898C84.9704 49.078 85.2344 49.21 85.5464 49.294C85.8704 49.378 86.3204 49.474 86.8964 49.582C87.6644 49.714 88.2824 49.858 88.7504 50.014C89.2304 50.158 89.6384 50.41 89.9744 50.77C90.3104 51.13 90.4784 51.634 90.4784 52.282C90.4784 53.146 90.1064 53.836 89.3624 54.352C88.6304 54.856 87.6284 55.108 86.3564 55.108Z" fill="black"/>
<path d="M2.59117 82.4H4.39117V93.434H11.2132V95H2.59117V82.4ZM13.0267 85.46H14.7547V95H13.0267V85.46ZM13.8907 83.624C13.5547 83.624 13.2727 83.516 13.0447 83.3C12.8287 83.084 12.7207 82.82 12.7207 82.508C12.7207 82.196 12.8287 81.932 13.0447 81.716C13.2727 81.488 13.5547 81.374 13.8907 81.374C14.2267 81.374 14.5027 81.482 14.7187 81.698C14.9467 81.902 15.0607 82.16 15.0607 82.472C15.0607 82.796 14.9467 83.072 14.7187 83.3C14.5027 83.516 14.2267 83.624 13.8907 83.624ZM23.112 85.37C24.036 85.37 24.864 85.574 25.596 85.982C26.328 86.39 26.898 86.96 27.306 87.692C27.726 88.424 27.936 89.27 27.936 90.23C27.936 91.19 27.726 92.042 27.306 92.786C26.898 93.518 26.328 94.088 25.596 94.496C24.864 94.904 24.036 95.108 23.112 95.108C22.404 95.108 21.756 94.97 21.168 94.694C20.58 94.418 20.094 94.016 19.71 93.488V95H18.054V81.644H19.782V86.9C20.166 86.396 20.646 86.018 21.222 85.766C21.798 85.502 22.428 85.37 23.112 85.37ZM22.968 93.596C23.58 93.596 24.126 93.458 24.606 93.182C25.098 92.894 25.482 92.498 25.758 91.994C26.046 91.478 26.19 90.89 26.19 90.23C26.19 89.57 26.046 88.988 25.758 88.484C25.482 87.968 25.098 87.572 24.606 87.296C24.126 87.02 23.58 86.882 22.968 86.882C22.368 86.882 21.822 87.02 21.33 87.296C20.838 87.572 20.454 87.968 20.178 88.484C19.902 88.988 19.764 89.57 19.764 90.23C19.764 90.89 19.902 91.478 20.178 91.994C20.454 92.498 20.838 92.894 21.33 93.182C21.822 93.458 22.368 93.596 22.968 93.596ZM31.9795 87.062C32.2795 86.51 32.7235 86.09 33.3115 85.802C33.8995 85.514 34.6135 85.37 35.4535 85.37V87.044C35.3575 87.032 35.2255 87.026 35.0575 87.026C34.1215 87.026 33.3835 87.308 32.8435 87.872C32.3155 88.424 32.0515 89.216 32.0515 90.248V95H30.3235V85.46H31.9795V87.062ZM41.0397 85.37C42.3597 85.37 43.3677 85.694 44.0637 86.342C44.7717 86.99 45.1257 87.956 45.1257 89.24V95H43.4877V93.74C43.1997 94.184 42.7857 94.526 42.2457 94.766C41.7177 94.994 41.0877 95.108 40.3557 95.108C39.2877 95.108 38.4297 94.85 37.7817 94.334C37.1457 93.818 36.8277 93.14 36.8277 92.3C36.8277 91.46 37.1337 90.788 37.7457 90.284C38.3577 89.768 39.3297 89.51 40.6617 89.51H43.3977V89.168C43.3977 88.424 43.1817 87.854 42.7497 87.458C42.3177 87.062 41.6817 86.864 40.8417 86.864C40.2777 86.864 39.7257 86.96 39.1857 87.152C38.6457 87.332 38.1897 87.578 37.8177 87.89L37.0977 86.594C37.5897 86.198 38.1777 85.898 38.8617 85.694C39.5457 85.478 40.2717 85.37 41.0397 85.37ZM40.6437 93.776C41.3037 93.776 41.8737 93.632 42.3537 93.344C42.8337 93.044 43.1817 92.624 43.3977 92.084V90.752H40.7337C39.2697 90.752 38.5377 91.244 38.5377 92.228C38.5377 92.708 38.7237 93.086 39.0957 93.362C39.4677 93.638 39.9837 93.776 40.6437 93.776ZM49.9795 87.062C50.2795 86.51 50.7235 86.09 51.3115 85.802C51.8995 85.514 52.6135 85.37 53.4535 85.37V87.044C53.3575 87.032 53.2255 87.026 53.0575 87.026C52.1215 87.026 51.3835 87.308 50.8435 87.872C50.3155 88.424 50.0515 89.216 50.0515 90.248V95H48.3235V85.46H49.9795V87.062ZM55.5833 85.46H57.3113V95H55.5833V85.46ZM56.4473 83.624C56.1113 83.624 55.8293 83.516 55.6013 83.3C55.3853 83.084 55.2773 82.82 55.2773 82.508C55.2773 82.196 55.3853 81.932 55.6013 81.716C55.8293 81.488 56.1113 81.374 56.4473 81.374C56.7833 81.374 57.0593 81.482 57.2753 81.698C57.5033 81.902 57.6173 82.16 57.6173 82.472C57.6173 82.796 57.5033 83.072 57.2753 83.3C57.0593 83.516 56.7833 83.624 56.4473 83.624ZM64.0847 85.37C65.4047 85.37 66.4127 85.694 67.1087 86.342C67.8167 86.99 68.1707 87.956 68.1707 89.24V95H66.5327V93.74C66.2447 94.184 65.8307 94.526 65.2907 94.766C64.7627 94.994 64.1327 95.108 63.4007 95.108C62.3327 95.108 61.4747 94.85 60.8267 94.334C60.1907 93.818 59.8727 93.14 59.8727 92.3C59.8727 91.46 60.1787 90.788 60.7907 90.284C61.4027 89.768 62.3747 89.51 63.7067 89.51H66.4427V89.168C66.4427 88.424 66.2267 87.854 65.7947 87.458C65.3627 87.062 64.7267 86.864 63.8867 86.864C63.3227 86.864 62.7707 86.96 62.2307 87.152C61.6907 87.332 61.2347 87.578 60.8627 87.89L60.1427 86.594C60.6347 86.198 61.2227 85.898 61.9067 85.694C62.5907 85.478 63.3167 85.37 64.0847 85.37ZM63.6887 93.776C64.3487 93.776 64.9187 93.632 65.3987 93.344C65.8787 93.044 66.2267 92.624 66.4427 92.084V90.752H63.7787C62.3147 90.752 61.5827 91.244 61.5827 92.228C61.5827 92.708 61.7687 93.086 62.1407 93.362C62.5127 93.638 63.0287 93.776 63.6887 93.776ZM76.4625 85.37C77.6745 85.37 78.6345 85.724 79.3425 86.432C80.0625 87.128 80.4225 88.154 80.4225 89.51V95H78.6945V89.708C78.6945 88.784 78.4725 88.088 78.0285 87.62C77.5845 87.152 76.9485 86.918 76.1205 86.918C75.1845 86.918 74.4465 87.194 73.9065 87.746C73.3665 88.286 73.0965 89.066 73.0965 90.086V95H71.3685V85.46H73.0245V86.9C73.3725 86.408 73.8405 86.03 74.4285 85.766C75.0285 85.502 75.7065 85.37 76.4625 85.37ZM86.3564 95.108C85.5764 95.108 84.8264 95.006 84.1064 94.802C83.3864 94.586 82.8224 94.316 82.4144 93.992L83.1344 92.624C83.5544 92.924 84.0644 93.164 84.6644 93.344C85.2644 93.524 85.8704 93.614 86.4824 93.614C87.9944 93.614 88.7504 93.182 88.7504 92.318C88.7504 92.03 88.6484 91.802 88.4444 91.634C88.2404 91.466 87.9824 91.346 87.6704 91.274C87.3704 91.19 86.9384 91.1 86.3744 91.004C85.6064 90.884 84.9764 90.746 84.4844 90.59C84.0044 90.434 83.5904 90.17 83.2424 89.798C82.8944 89.426 82.7204 88.904 82.7204 88.232C82.7204 87.368 83.0804 86.678 83.8004 86.162C84.5204 85.634 85.4864 85.37 86.6984 85.37C87.3344 85.37 87.9704 85.448 88.6064 85.604C89.2424 85.76 89.7644 85.97 90.1724 86.234L89.4344 87.602C88.6544 87.098 87.7364 86.846 86.6804 86.846C85.9484 86.846 85.3904 86.966 85.0064 87.206C84.6224 87.446 84.4304 87.764 84.4304 88.16C84.4304 88.472 84.5384 88.718 84.7544 88.898C84.9704 89.078 85.2344 89.21 85.5464 89.294C85.8704 89.378 86.3204 89.474 86.8964 89.582C87.6644 89.714 88.2824 89.858 88.7504 90.014C89.2304 90.158 89.6384 90.41 89.9744 90.77C90.3104 91.13 90.4784 91.634 90.4784 92.282C90.4784 93.146 90.1064 93.836 89.3624 94.352C88.6304 94.856 87.6284 95.108 86.3564 95.108Z" fill="black"/>
<rect x="106" y="5" width="300" height="10" rx="5" fill="#D1D1D1"/>
<rect x="106" y="5" width="234" height="10" rx="5" fill="#915650"/>
<path d="M429.629 49.394C430.349 49.67 430.901 50.066 431.285 50.582C431.669 51.098 431.861 51.716 431.861 52.436C431.861 53.192 431.657 53.852 431.249 54.416C430.841 54.968 430.259 55.394 429.503 55.694C428.747 55.994 427.859 56.144 426.839 56.144C425.831 56.144 424.949 55.994 424.193 55.694C423.449 55.394 422.873 54.968 422.465 54.416C422.057 53.852 421.853 53.192 421.853 52.436C421.853 51.716 422.039 51.098 422.411 50.582C422.795 50.066 423.347 49.67 424.067 49.394C423.491 49.118 423.053 48.752 422.753 48.296C422.453 47.84 422.303 47.3 422.303 46.676C422.303 45.98 422.489 45.374 422.861 44.858C423.245 44.342 423.779 43.946 424.463 43.67C425.147 43.394 425.939 43.256 426.839 43.256C427.751 43.256 428.549 43.394 429.233 43.67C429.929 43.946 430.463 44.342 430.835 44.858C431.219 45.374 431.411 45.98 431.411 46.676C431.411 47.288 431.255 47.828 430.943 48.296C430.643 48.752 430.205 49.118 429.629 49.394ZM426.839 44.714C425.987 44.714 425.315 44.9 424.823 45.272C424.331 45.632 424.085 46.124 424.085 46.748C424.085 47.372 424.325 47.864 424.805 48.224C425.297 48.584 425.975 48.764 426.839 48.764C427.715 48.764 428.399 48.584 428.891 48.224C429.395 47.864 429.647 47.372 429.647 46.748C429.647 46.124 429.389 45.632 428.873 45.272C428.369 44.9 427.691 44.714 426.839 44.714ZM426.839 54.686C427.835 54.686 428.621 54.482 429.197 54.074C429.773 53.654 430.061 53.09 430.061 52.382C430.061 51.686 429.773 51.14 429.197 50.744C428.621 50.336 427.835 50.132 426.839 50.132C425.843 50.132 425.063 50.336 424.499 50.744C423.935 51.14 423.653 51.686 423.653 52.382C423.653 53.09 423.935 53.654 424.499 54.074C425.063 54.482 425.843 54.686 426.839 54.686ZM438.333 48.692C439.569 48.812 440.511 49.196 441.159 49.844C441.807 50.48 442.131 51.296 442.131 52.292C442.131 53.012 441.951 53.666 441.591 54.254C441.231 54.83 440.691 55.292 439.971 55.64C439.263 55.976 438.393 56.144 437.361 56.144C436.461 56.144 435.597 56.012 434.769 55.748C433.941 55.472 433.263 55.094 432.735 54.614L433.563 53.192C433.995 53.6 434.547 53.93 435.219 54.182C435.891 54.422 436.605 54.542 437.361 54.542C438.297 54.542 439.023 54.344 439.539 53.948C440.067 53.552 440.331 53.006 440.331 52.31C440.331 51.614 440.073 51.074 439.557 50.69C439.041 50.306 438.261 50.114 437.217 50.114H436.209V48.854L439.377 44.966H433.311V43.4H441.627V44.624L438.333 48.692ZM446.37 50.168C445.494 50.168 444.786 49.85 444.246 49.214C443.706 48.578 443.436 47.75 443.436 46.73C443.436 45.71 443.706 44.882 444.246 44.246C444.786 43.61 445.494 43.292 446.37 43.292C447.246 43.292 447.948 43.61 448.476 44.246C449.016 44.87 449.286 45.698 449.286 46.73C449.286 47.762 449.016 48.596 448.476 49.232C447.948 49.856 447.246 50.168 446.37 50.168ZM453.966 43.4H455.352L446.748 56H445.362L453.966 43.4ZM446.37 49.142C446.922 49.142 447.354 48.932 447.666 48.512C447.978 48.08 448.134 47.486 448.134 46.73C448.134 45.974 447.978 45.386 447.666 44.966C447.354 44.534 446.922 44.318 446.37 44.318C445.83 44.318 445.398 44.534 445.074 44.966C444.762 45.398 444.606 45.986 444.606 46.73C444.606 47.474 444.762 48.062 445.074 48.494C445.398 48.926 445.83 49.142 446.37 49.142ZM454.344 56.108C453.468 56.108 452.76 55.796 452.22 55.172C451.692 54.536 451.428 53.702 451.428 52.67C451.428 51.638 451.692 50.81 452.22 50.186C452.76 49.55 453.468 49.232 454.344 49.232C455.22 49.232 455.928 49.55 456.468 50.186C457.008 50.822 457.278 51.65 457.278 52.67C457.278 53.69 457.008 54.518 456.468 55.154C455.928 55.79 455.22 56.108 454.344 56.108ZM454.344 55.082C454.884 55.082 455.31 54.866 455.622 54.434C455.946 54.002 456.108 53.414 456.108 52.67C456.108 51.926 455.946 51.338 455.622 50.906C455.31 50.474 454.884 50.258 454.344 50.258C453.792 50.258 453.36 50.474 453.048 50.906C452.736 51.326 452.58 51.914 452.58 52.67C452.58 53.426 452.736 54.02 453.048 54.452C453.36 54.872 453.792 55.082 454.344 55.082Z" fill="black"/>
<rect x="106" y="45" width="300" height="10" rx="5" fill="#D1D1D1"/>
<rect x="106" y="45" width="249" height="10" rx="5" fill="#915650"/>
<path d="M429.312 89.394C430.032 89.67 430.584 90.066 430.968 90.582C431.352 91.098 431.544 91.716 431.544 92.436C431.544 93.192 431.34 93.852 430.932 94.416C430.524 94.968 429.942 95.394 429.186 95.694C428.43 95.994 427.542 96.144 426.522 96.144C425.514 96.144 424.632 95.994 423.876 95.694C423.132 95.394 422.556 94.968 422.148 94.416C421.74 93.852 421.536 93.192 421.536 92.436C421.536 91.716 421.722 91.098 422.094 90.582C422.478 90.066 423.03 89.67 423.75 89.394C423.174 89.118 422.736 88.752 422.436 88.296C422.136 87.84 421.986 87.3 421.986 86.676C421.986 85.98 422.172 85.374 422.544 84.858C422.928 84.342 423.462 83.946 424.146 83.67C424.83 83.394 425.622 83.256 426.522 83.256C427.434 83.256 428.232 83.394 428.916 83.67C429.612 83.946 430.146 84.342 430.518 84.858C430.902 85.374 431.094 85.98 431.094 86.676C431.094 87.288 430.938 87.828 430.626 88.296C430.326 88.752 429.888 89.118 429.312 89.394ZM426.522 84.714C425.67 84.714 424.998 84.9 424.506 85.272C424.014 85.632 423.768 86.124 423.768 86.748C423.768 87.372 424.008 87.864 424.488 88.224C424.98 88.584 425.658 88.764 426.522 88.764C427.398 88.764 428.082 88.584 428.574 88.224C429.078 87.864 429.33 87.372 429.33 86.748C429.33 86.124 429.072 85.632 428.556 85.272C428.052 84.9 427.374 84.714 426.522 84.714ZM426.522 94.686C427.518 94.686 428.304 94.482 428.88 94.074C429.456 93.654 429.744 93.09 429.744 92.382C429.744 91.686 429.456 91.14 428.88 90.744C428.304 90.336 427.518 90.132 426.522 90.132C425.526 90.132 424.746 90.336 424.182 90.744C423.618 91.14 423.336 91.686 423.336 92.382C423.336 93.09 423.618 93.654 424.182 94.074C424.746 94.482 425.526 94.686 426.522 94.686ZM438.628 88.35C439.456 88.35 440.194 88.506 440.842 88.818C441.502 89.13 442.018 89.58 442.39 90.168C442.762 90.744 442.948 91.41 442.948 92.166C442.948 92.958 442.75 93.654 442.354 94.254C441.97 94.854 441.436 95.322 440.752 95.658C440.08 95.982 439.324 96.144 438.484 96.144C436.792 96.144 435.484 95.598 434.56 94.506C433.648 93.414 433.192 91.866 433.192 89.862C433.192 88.458 433.438 87.264 433.93 86.28C434.434 85.284 435.13 84.534 436.018 84.03C436.918 83.514 437.962 83.256 439.15 83.256C439.762 83.256 440.338 83.322 440.878 83.454C441.418 83.574 441.886 83.754 442.282 83.994L441.598 85.398C440.998 85.002 440.194 84.804 439.186 84.804C437.878 84.804 436.852 85.212 436.108 86.028C435.364 86.832 434.992 88.008 434.992 89.556C434.992 89.748 434.998 89.898 435.01 90.006C435.37 89.466 435.862 89.058 436.486 88.782C437.122 88.494 437.836 88.35 438.628 88.35ZM438.412 94.686C439.24 94.686 439.912 94.464 440.428 94.02C440.944 93.576 441.202 92.982 441.202 92.238C441.202 91.494 440.938 90.906 440.41 90.474C439.894 90.03 439.198 89.808 438.322 89.808C437.758 89.808 437.254 89.916 436.81 90.132C436.378 90.348 436.036 90.642 435.784 91.014C435.544 91.386 435.424 91.8 435.424 92.256C435.424 92.7 435.538 93.108 435.766 93.48C436.006 93.84 436.348 94.134 436.792 94.362C437.248 94.578 437.788 94.686 438.412 94.686ZM446.686 90.168C445.81 90.168 445.102 89.85 444.562 89.214C444.022 88.578 443.752 87.75 443.752 86.73C443.752 85.71 444.022 84.882 444.562 84.246C445.102 83.61 445.81 83.292 446.686 83.292C447.562 83.292 448.264 83.61 448.792 84.246C449.332 84.87 449.602 85.698 449.602 86.73C449.602 87.762 449.332 88.596 448.792 89.232C448.264 89.856 447.562 90.168 446.686 90.168ZM454.282 83.4H455.668L447.064 96H445.678L454.282 83.4ZM446.686 89.142C447.238 89.142 447.67 88.932 447.982 88.512C448.294 88.08 448.45 87.486 448.45 86.73C448.45 85.974 448.294 85.386 447.982 84.966C447.67 84.534 447.238 84.318 446.686 84.318C446.146 84.318 445.714 84.534 445.39 84.966C445.078 85.398 444.922 85.986 444.922 86.73C444.922 87.474 445.078 88.062 445.39 88.494C445.714 88.926 446.146 89.142 446.686 89.142ZM454.66 96.108C453.784 96.108 453.076 95.796 452.536 95.172C452.008 94.536 451.744 93.702 451.744 92.67C451.744 91.638 452.008 90.81 452.536 90.186C453.076 89.55 453.784 89.232 454.66 89.232C455.536 89.232 456.244 89.55 456.784 90.186C457.324 90.822 457.594 91.65 457.594 92.67C457.594 93.69 457.324 94.518 456.784 95.154C456.244 95.79 455.536 96.108 454.66 96.108ZM454.66 95.082C455.2 95.082 455.626 94.866 455.938 94.434C456.262 94.002 456.424 93.414 456.424 92.67C456.424 91.926 456.262 91.338 455.938 90.906C455.626 90.474 455.2 90.258 454.66 90.258C454.108 90.258 453.676 90.474 453.364 90.906C453.052 91.326 452.896 91.914 452.896 92.67C452.896 93.426 453.052 94.02 453.364 94.452C453.676 94.872 454.108 95.082 454.66 95.082Z" fill="black"/>
<rect x="106" y="85" width="300" height="10" rx="5" fill="#D1D1D1"/>
<rect x="106" y="85" width="258" height="10" rx="5" fill="#915650"/>
</svg>
