<svg width="116" height="116" viewBox="0 0 116 116" fill="none" xmlns="http://www.w3.org/2000/svg">
<mask id="path-1-inside-1" fill="white">
<path d="M116 58C116 90.0325 90.0325 116 58 116C25.9675 116 0 90.0325 0 58C0 25.9675 25.9675 0 58 0C90.0325 0 116 25.9675 116 58ZM14.5 58C14.5 82.0244 33.9756 101.5 58 101.5C82.0244 101.5 101.5 82.0244 101.5 58C101.5 33.9756 82.0244 14.5 58 14.5C33.9756 14.5 14.5 33.9756 14.5 58Z"/>
</mask>
<path d="M116 58C116 90.0325 90.0325 116 58 116C25.9675 116 0 90.0325 0 58C0 25.9675 25.9675 0 58 0C90.0325 0 116 25.9675 116 58ZM14.5 58C14.5 82.0244 33.9756 101.5 58 101.5C82.0244 101.5 101.5 82.0244 101.5 58C101.5 33.9756 82.0244 14.5 58 14.5C33.9756 14.5 14.5 33.9756 14.5 58Z" stroke="#915650" stroke-width="2" mask="url(#path-1-inside-1)"/>
<mask id="path-2-inside-2" fill="white">
<path d="M58 0C67.4611 1.12822e-07 76.7785 2.31447 85.1399 6.74159C93.5013 11.1687 100.653 17.5741 105.971 25.3992C111.289 33.2242 114.612 42.2315 115.65 51.6354C116.688 61.0394 115.41 70.5545 111.927 79.3512C108.444 88.1479 102.862 95.9591 95.668 102.104C88.4737 108.248 79.8856 112.539 70.6523 114.603C61.4191 116.667 51.8211 116.441 42.6954 113.944C33.5696 111.448 25.1931 106.757 18.2963 100.28L28.2222 89.7101C33.3948 94.5676 39.6772 98.0859 46.5215 99.9583C53.3659 101.831 60.5643 102 67.4892 100.452C74.4142 98.9045 80.8553 95.686 86.251 91.0777C91.6467 86.4693 95.8331 80.6109 98.4453 74.0134C101.057 67.4159 102.016 60.2795 101.237 53.2266C100.459 46.1736 97.9664 39.4182 93.978 33.5494C89.9896 27.6806 84.626 22.8765 78.3549 19.5562C72.0839 16.2359 65.0958 14.5 58 14.5V0Z"/>
</mask>
<path d="M58 0C67.4611 1.12822e-07 76.7785 2.31447 85.1399 6.74159C93.5013 11.1687 100.653 17.5741 105.971 25.3992C111.289 33.2242 114.612 42.2315 115.65 51.6354C116.688 61.0394 115.41 70.5545 111.927 79.3512C108.444 88.1479 102.862 95.9591 95.668 102.104C88.4737 108.248 79.8856 112.539 70.6523 114.603C61.4191 116.667 51.8211 116.441 42.6954 113.944C33.5696 111.448 25.1931 106.757 18.2963 100.28L28.2222 89.7101C33.3948 94.5676 39.6772 98.0859 46.5215 99.9583C53.3659 101.831 60.5643 102 67.4892 100.452C74.4142 98.9045 80.8553 95.686 86.251 91.0777C91.6467 86.4693 95.8331 80.6109 98.4453 74.0134C101.057 67.4159 102.016 60.2795 101.237 53.2266C100.459 46.1736 97.9664 39.4182 93.978 33.5494C89.9896 27.6806 84.626 22.8765 78.3549 19.5562C72.0839 16.2359 65.0958 14.5 58 14.5V0Z" fill="#915650" stroke="#915650" stroke-width="2" mask="url(#path-2-inside-2)"/>
<path d="M46.4845 55.9501C47.3125 55.9501 48.0505 56.1061 48.6985 56.4181C49.3585 56.7301 49.8745 57.1801 50.2465 57.7681C50.6185 58.3441 50.8045 59.0101 50.8045 59.7661C50.8045 60.5581 50.6065 61.2541 50.2105 61.8541C49.8265 62.4541 49.2925 62.9221 48.6085 63.2581C47.9365 63.5821 47.1805 63.7441 46.3405 63.7441C44.6485 63.7441 43.3405 63.1981 42.4165 62.1061C41.5045 61.0141 41.0485 59.4661 41.0485 57.4621C41.0485 56.0581 41.2945 54.8641 41.7865 53.8801C42.2905 52.8841 42.9865 52.1341 43.8745 51.6301C44.7745 51.1141 45.8185 50.8561 47.0065 50.8561C47.6185 50.8561 48.1945 50.9221 48.7345 51.0541C49.2745 51.1741 49.7425 51.3541 50.1385 51.5941L49.4545 52.9981C48.8545 52.6021 48.0505 52.4041 47.0425 52.4041C45.7345 52.4041 44.7085 52.8121 43.9645 53.6281C43.2205 54.4321 42.8485 55.6081 42.8485 57.1561C42.8485 57.3481 42.8545 57.4981 42.8665 57.6061C43.2265 57.0661 43.7185 56.6581 44.3425 56.3821C44.9785 56.0941 45.6925 55.9501 46.4845 55.9501ZM46.2685 62.2861C47.0965 62.2861 47.7685 62.0641 48.2845 61.6201C48.8005 61.1761 49.0585 60.5821 49.0585 59.8381C49.0585 59.0941 48.7945 58.5061 48.2665 58.0741C47.7505 57.6301 47.0545 57.4081 46.1785 57.4081C45.6145 57.4081 45.1105 57.5161 44.6665 57.7321C44.2345 57.9481 43.8925 58.2421 43.6405 58.6141C43.4005 58.9861 43.2805 59.4001 43.2805 59.8561C43.2805 60.3001 43.3945 60.7081 43.6225 61.0801C43.8625 61.4401 44.2045 61.7341 44.6485 61.9621C45.1045 62.1781 45.6445 62.2861 46.2685 62.2861ZM61.0139 62.0341V63.6001H51.9599V62.3761L57.0899 57.4261C57.7139 56.8261 58.1339 56.3101 58.3499 55.8781C58.5659 55.4341 58.6739 54.9901 58.6739 54.5461C58.6739 53.8861 58.4399 53.3761 57.9719 53.0161C57.5159 52.6441 56.8559 52.4581 55.9919 52.4581C54.5999 52.4581 53.5259 52.9141 52.7699 53.8261L51.5459 52.7641C52.0379 52.1641 52.6799 51.6961 53.4719 51.3601C54.2759 51.0241 55.1699 50.8561 56.1539 50.8561C57.4739 50.8561 58.5239 51.1741 59.3039 51.8101C60.0839 52.4341 60.4739 53.2861 60.4739 54.3661C60.4739 55.0381 60.3299 55.6741 60.0419 56.2741C59.7539 56.8741 59.2079 57.5581 58.4039 58.3261L54.5519 62.0341H61.0139ZM65.4056 57.7681C64.5296 57.7681 63.8216 57.4501 63.2816 56.8141C62.7416 56.1781 62.4716 55.3501 62.4716 54.3301C62.4716 53.3101 62.7416 52.4821 63.2816 51.8461C63.8216 51.2101 64.5296 50.8921 65.4056 50.8921C66.2816 50.8921 66.9836 51.2101 67.5116 51.8461C68.0516 52.4701 68.3216 53.2981 68.3216 54.3301C68.3216 55.3621 68.0516 56.1961 67.5116 56.8321C66.9836 57.4561 66.2816 57.7681 65.4056 57.7681ZM73.0016 51.0001H74.3876L65.7836 63.6001H64.3976L73.0016 51.0001ZM65.4056 56.7421C65.9576 56.7421 66.3896 56.5321 66.7016 56.1121C67.0136 55.6801 67.1696 55.0861 67.1696 54.3301C67.1696 53.5741 67.0136 52.9861 66.7016 52.5661C66.3896 52.1341 65.9576 51.9181 65.4056 51.9181C64.8656 51.9181 64.4336 52.1341 64.1096 52.5661C63.7976 52.9981 63.6416 53.5861 63.6416 54.3301C63.6416 55.0741 63.7976 55.6621 64.1096 56.0941C64.4336 56.5261 64.8656 56.7421 65.4056 56.7421ZM73.3796 63.7081C72.5036 63.7081 71.7956 63.3961 71.2556 62.7721C70.7276 62.1361 70.4636 61.3021 70.4636 60.2701C70.4636 59.2381 70.7276 58.4101 71.2556 57.7861C71.7956 57.1501 72.5036 56.8321 73.3796 56.8321C74.2556 56.8321 74.9636 57.1501 75.5036 57.7861C76.0436 58.4221 76.3136 59.2501 76.3136 60.2701C76.3136 61.2901 76.0436 62.1181 75.5036 62.7541C74.9636 63.3901 74.2556 63.7081 73.3796 63.7081ZM73.3796 62.6821C73.9196 62.6821 74.3456 62.4661 74.6576 62.0341C74.9816 61.6021 75.1436 61.0141 75.1436 60.2701C75.1436 59.5261 74.9816 58.9381 74.6576 58.5061C74.3456 58.0741 73.9196 57.8581 73.3796 57.8581C72.8276 57.8581 72.3956 58.0741 72.0836 58.5061C71.7716 58.9261 71.6156 59.5141 71.6156 60.2701C71.6156 61.0261 71.7716 61.6201 72.0836 62.0521C72.3956 62.4721 72.8276 62.6821 73.3796 62.6821Z" fill="black"/>
</svg>
