<svg width="116" height="116" viewBox="0 0 116 116" fill="none" xmlns="http://www.w3.org/2000/svg">
<mask id="path-1-inside-1" fill="white">
<path d="M116 58C116 90.0325 90.0325 116 58 116C25.9675 116 0 90.0325 0 58C0 25.9675 25.9675 0 58 0C90.0325 0 116 25.9675 116 58ZM14.5 58C14.5 82.0244 33.9756 101.5 58 101.5C82.0244 101.5 101.5 82.0244 101.5 58C101.5 33.9756 82.0244 14.5 58 14.5C33.9756 14.5 14.5 33.9756 14.5 58Z"/>
</mask>
<path d="M116 58C116 90.0325 90.0325 116 58 116C25.9675 116 0 90.0325 0 58C0 25.9675 25.9675 0 58 0C90.0325 0 116 25.9675 116 58ZM14.5 58C14.5 82.0244 33.9756 101.5 58 101.5C82.0244 101.5 101.5 82.0244 101.5 58C101.5 33.9756 82.0244 14.5 58 14.5C33.9756 14.5 14.5 33.9756 14.5 58Z" stroke="#915650" stroke-width="2" mask="url(#path-1-inside-1)"/>
<mask id="path-2-inside-2" fill="white">
<path d="M58 0C69.6265 1.38645e-07 80.9847 3.49424 90.6008 10.0293C100.217 16.5644 107.647 25.8387 111.927 36.6488C116.207 47.4589 117.139 59.3058 114.603 70.6523C112.067 81.9988 106.179 92.3213 97.7037 100.28L87.7778 89.7101C94.1343 83.7409 98.5502 75.9991 100.452 67.4892C102.355 58.9793 101.655 50.0942 98.4453 41.9866C95.2353 33.879 89.6627 26.9233 82.4506 22.022C75.2386 17.1207 66.7199 14.5 58 14.5V0Z"/>
</mask>
<path d="M58 0C69.6265 1.38645e-07 80.9847 3.49424 90.6008 10.0293C100.217 16.5644 107.647 25.8387 111.927 36.6488C116.207 47.4589 117.139 59.3058 114.603 70.6523C112.067 81.9988 106.179 92.3213 97.7037 100.28L87.7778 89.7101C94.1343 83.7409 98.5502 75.9991 100.452 67.4892C102.355 58.9793 101.655 50.0942 98.4453 41.9866C95.2353 33.879 89.6627 26.9233 82.4506 22.022C75.2386 17.1207 66.7199 14.5 58 14.5V0Z" fill="#915650" stroke="#915650" stroke-width="2" mask="url(#path-2-inside-2)"/>
<path d="M45.8286 56.2921C47.0646 56.4121 48.0066 56.7961 48.6546 57.4441C49.3026 58.0801 49.6266 58.8961 49.6266 59.8921C49.6266 60.6121 49.4466 61.2661 49.0866 61.8541C48.7266 62.4301 48.1866 62.8921 47.4666 63.2401C46.7586 63.5761 45.8886 63.7441 44.8566 63.7441C43.9566 63.7441 43.0926 63.6121 42.2646 63.3481C41.4366 63.0721 40.7586 62.6941 40.2306 62.2141L41.0586 60.7921C41.4906 61.2001 42.0426 61.5301 42.7146 61.7821C43.3866 62.0221 44.1006 62.1421 44.8566 62.1421C45.7926 62.1421 46.5186 61.9441 47.0346 61.5481C47.5626 61.1521 47.8266 60.6061 47.8266 59.9101C47.8266 59.2141 47.5686 58.6741 47.0526 58.2901C46.5366 57.9061 45.7566 57.7141 44.7126 57.7141H43.7046V56.4541L46.8726 52.5661H40.8066V51.0001H49.1226V52.2241L45.8286 56.2921ZM59.0093 56.9941C59.7293 57.2701 60.2813 57.6661 60.6653 58.1821C61.0493 58.6981 61.2413 59.3161 61.2413 60.0361C61.2413 60.7921 61.0373 61.4521 60.6293 62.0161C60.2213 62.5681 59.6393 62.9941 58.8833 63.2941C58.1273 63.5941 57.2393 63.7441 56.2193 63.7441C55.2113 63.7441 54.3293 63.5941 53.5733 63.2941C52.8293 62.9941 52.2533 62.5681 51.8453 62.0161C51.4373 61.4521 51.2333 60.7921 51.2333 60.0361C51.2333 59.3161 51.4193 58.6981 51.7913 58.1821C52.1753 57.6661 52.7273 57.2701 53.4473 56.9941C52.8713 56.7181 52.4333 56.3521 52.1333 55.8961C51.8333 55.4401 51.6833 54.9001 51.6833 54.2761C51.6833 53.5801 51.8693 52.9741 52.2413 52.4581C52.6253 51.9421 53.1593 51.5461 53.8433 51.2701C54.5273 50.9941 55.3193 50.8561 56.2193 50.8561C57.1313 50.8561 57.9293 50.9941 58.6133 51.2701C59.3093 51.5461 59.8433 51.9421 60.2153 52.4581C60.5993 52.9741 60.7913 53.5801 60.7913 54.2761C60.7913 54.8881 60.6353 55.4281 60.3233 55.8961C60.0233 56.3521 59.5853 56.7181 59.0093 56.9941ZM56.2193 52.3141C55.3673 52.3141 54.6953 52.5001 54.2033 52.8721C53.7113 53.2321 53.4653 53.7241 53.4653 54.3481C53.4653 54.9721 53.7053 55.4641 54.1853 55.8241C54.6773 56.1841 55.3553 56.3641 56.2193 56.3641C57.0953 56.3641 57.7793 56.1841 58.2713 55.8241C58.7753 55.4641 59.0273 54.9721 59.0273 54.3481C59.0273 53.7241 58.7693 53.2321 58.2533 52.8721C57.7493 52.5001 57.0713 52.3141 56.2193 52.3141ZM56.2193 62.2861C57.2153 62.2861 58.0013 62.0821 58.5773 61.6741C59.1533 61.2541 59.4413 60.6901 59.4413 59.9821C59.4413 59.2861 59.1533 58.7401 58.5773 58.3441C58.0013 57.9361 57.2153 57.7321 56.2193 57.7321C55.2233 57.7321 54.4433 57.9361 53.8793 58.3441C53.3153 58.7401 53.0333 59.2861 53.0333 59.9821C53.0333 60.6901 53.3153 61.2541 53.8793 61.6741C54.4433 62.0821 55.2233 62.2861 56.2193 62.2861ZM65.4495 57.7681C64.5735 57.7681 63.8655 57.4501 63.3255 56.8141C62.7855 56.1781 62.5155 55.3501 62.5155 54.3301C62.5155 53.3101 62.7855 52.4821 63.3255 51.8461C63.8655 51.2101 64.5735 50.8921 65.4495 50.8921C66.3255 50.8921 67.0275 51.2101 67.5555 51.8461C68.0955 52.4701 68.3655 53.2981 68.3655 54.3301C68.3655 55.3621 68.0955 56.1961 67.5555 56.8321C67.0275 57.4561 66.3255 57.7681 65.4495 57.7681ZM73.0455 51.0001H74.4315L65.8275 63.6001H64.4415L73.0455 51.0001ZM65.4495 56.7421C66.0015 56.7421 66.4335 56.5321 66.7455 56.1121C67.0575 55.6801 67.2135 55.0861 67.2135 54.3301C67.2135 53.5741 67.0575 52.9861 66.7455 52.5661C66.4335 52.1341 66.0015 51.9181 65.4495 51.9181C64.9095 51.9181 64.4775 52.1341 64.1535 52.5661C63.8415 52.9981 63.6855 53.5861 63.6855 54.3301C63.6855 55.0741 63.8415 55.6621 64.1535 56.0941C64.4775 56.5261 64.9095 56.7421 65.4495 56.7421ZM73.4235 63.7081C72.5475 63.7081 71.8395 63.3961 71.2995 62.7721C70.7715 62.1361 70.5075 61.3021 70.5075 60.2701C70.5075 59.2381 70.7715 58.4101 71.2995 57.7861C71.8395 57.1501 72.5475 56.8321 73.4235 56.8321C74.2995 56.8321 75.0075 57.1501 75.5475 57.7861C76.0875 58.4221 76.3575 59.2501 76.3575 60.2701C76.3575 61.2901 76.0875 62.1181 75.5475 62.7541C75.0075 63.3901 74.2995 63.7081 73.4235 63.7081ZM73.4235 62.6821C73.9635 62.6821 74.3895 62.4661 74.7015 62.0341C75.0255 61.6021 75.1875 61.0141 75.1875 60.2701C75.1875 59.5261 75.0255 58.9381 74.7015 58.5061C74.3895 58.0741 73.9635 57.8581 73.4235 57.8581C72.8715 57.8581 72.4395 58.0741 72.1275 58.5061C71.8155 58.9261 71.6595 59.5141 71.6595 60.2701C71.6595 61.0261 71.8155 61.6201 72.1275 62.0521C72.4395 62.4721 72.8715 62.6821 73.4235 62.6821Z" fill="black"/>
</svg>
