<svg width="116" height="116" viewBox="0 0 116 116" fill="none" xmlns="http://www.w3.org/2000/svg">
<mask id="path-1-inside-1" fill="white">
<path d="M116 58C116 90.0325 90.0325 116 58 116C25.9675 116 0 90.0325 0 58C0 25.9675 25.9675 0 58 0C90.0325 0 116 25.9675 116 58ZM14.5 58C14.5 82.0244 33.9756 101.5 58 101.5C82.0244 101.5 101.5 82.0244 101.5 58C101.5 33.9756 82.0244 14.5 58 14.5C33.9756 14.5 14.5 33.9756 14.5 58Z"/>
</mask>
<path d="M116 58C116 90.0325 90.0325 116 58 116C25.9675 116 0 90.0325 0 58C0 25.9675 25.9675 0 58 0C90.0325 0 116 25.9675 116 58ZM14.5 58C14.5 82.0244 33.9756 101.5 58 101.5C82.0244 101.5 101.5 82.0244 101.5 58C101.5 33.9756 82.0244 14.5 58 14.5C33.9756 14.5 14.5 33.9756 14.5 58Z" stroke="#915650" stroke-width="2" mask="url(#path-1-inside-1)"/>
<mask id="path-2-inside-2" fill="white">
<path d="M58 0C70.7158 1.51634e-07 83.0792 4.17878 93.1876 11.8932C103.296 19.6077 110.589 30.4303 113.944 42.6954C117.3 54.9605 116.531 67.9884 111.758 79.7741C106.984 91.5598 98.4694 101.45 87.5244 107.923C76.5794 114.396 63.8105 117.093 51.1828 115.598C38.5552 114.103 26.7686 108.5 17.6371 99.6513C8.5055 90.8022 2.53507 79.1975 0.644581 66.623C-1.2459 54.0485 1.04833 41.2012 7.17422 30.0583L19.8807 37.0437C15.2863 45.4009 13.5656 55.0364 14.9834 64.4672C16.4013 73.8981 20.8791 82.6017 27.7278 89.2385C34.5764 95.8753 43.4164 100.078 52.8871 101.198C62.3579 102.319 71.9345 100.297 80.1433 95.4423C88.3521 90.5876 94.738 83.1699 98.3183 74.3306C101.899 65.4913 102.475 55.7204 99.9583 46.5215C97.4417 37.3227 91.9719 29.2058 84.3907 23.4199C76.8094 17.6341 67.5368 14.5 58 14.5V0Z"/>
</mask>
<path d="M58 0C70.7158 1.51634e-07 83.0792 4.17878 93.1876 11.8932C103.296 19.6077 110.589 30.4303 113.944 42.6954C117.3 54.9605 116.531 67.9884 111.758 79.7741C106.984 91.5598 98.4694 101.45 87.5244 107.923C76.5794 114.396 63.8105 117.093 51.1828 115.598C38.5552 114.103 26.7686 108.5 17.6371 99.6513C8.5055 90.8022 2.53507 79.1975 0.644581 66.623C-1.2459 54.0485 1.04833 41.2012 7.17422 30.0583L19.8807 37.0437C15.2863 45.4009 13.5656 55.0364 14.9834 64.4672C16.4013 73.8981 20.8791 82.6017 27.7278 89.2385C34.5764 95.8753 43.4164 100.078 52.8871 101.198C62.3579 102.319 71.9345 100.297 80.1433 95.4423C88.3521 90.5876 94.738 83.1699 98.3183 74.3306C101.899 65.4913 102.475 55.7204 99.9583 46.5215C97.4417 37.3227 91.9719 29.2058 84.3907 23.4199C76.8094 17.6341 67.5368 14.5 58 14.5V0Z" fill="#915650" stroke="#915650" stroke-width="2" mask="url(#path-2-inside-2)"/>
<path d="M48.7086 56.9941C49.4286 57.2701 49.9806 57.6661 50.3646 58.1821C50.7486 58.6981 50.9406 59.3161 50.9406 60.0361C50.9406 60.7921 50.7366 61.4521 50.3286 62.0161C49.9206 62.5681 49.3386 62.9941 48.5826 63.2941C47.8266 63.5941 46.9386 63.7441 45.9186 63.7441C44.9106 63.7441 44.0286 63.5941 43.2726 63.2941C42.5286 62.9941 41.9526 62.5681 41.5446 62.0161C41.1366 61.4521 40.9326 60.7921 40.9326 60.0361C40.9326 59.3161 41.1186 58.6981 41.4906 58.1821C41.8746 57.6661 42.4266 57.2701 43.1466 56.9941C42.5706 56.7181 42.1326 56.3521 41.8326 55.8961C41.5326 55.4401 41.3826 54.9001 41.3826 54.2761C41.3826 53.5801 41.5686 52.9741 41.9406 52.4581C42.3246 51.9421 42.8586 51.5461 43.5426 51.2701C44.2266 50.9941 45.0186 50.8561 45.9186 50.8561C46.8306 50.8561 47.6286 50.9941 48.3126 51.2701C49.0086 51.5461 49.5426 51.9421 49.9146 52.4581C50.2986 52.9741 50.4906 53.5801 50.4906 54.2761C50.4906 54.8881 50.3346 55.4281 50.0226 55.8961C49.7226 56.3521 49.2846 56.7181 48.7086 56.9941ZM45.9186 52.3141C45.0666 52.3141 44.3946 52.5001 43.9026 52.8721C43.4106 53.2321 43.1646 53.7241 43.1646 54.3481C43.1646 54.9721 43.4046 55.4641 43.8846 55.8241C44.3766 56.1841 45.0546 56.3641 45.9186 56.3641C46.7946 56.3641 47.4786 56.1841 47.9706 55.8241C48.4746 55.4641 48.7266 54.9721 48.7266 54.3481C48.7266 53.7241 48.4686 53.2321 47.9526 52.8721C47.4486 52.5001 46.7706 52.3141 45.9186 52.3141ZM45.9186 62.2861C46.9146 62.2861 47.7006 62.0821 48.2766 61.6741C48.8526 61.2541 49.1406 60.6901 49.1406 59.9821C49.1406 59.2861 48.8526 58.7401 48.2766 58.3441C47.7006 57.9361 46.9146 57.7321 45.9186 57.7321C44.9226 57.7321 44.1426 57.9361 43.5786 58.3441C43.0146 58.7401 42.7326 59.2861 42.7326 59.9821C42.7326 60.6901 43.0146 61.2541 43.5786 61.6741C44.1426 62.0821 44.9226 62.2861 45.9186 62.2861ZM57.4125 56.2921C58.6485 56.4121 59.5905 56.7961 60.2385 57.4441C60.8865 58.0801 61.2105 58.8961 61.2105 59.8921C61.2105 60.6121 61.0305 61.2661 60.6705 61.8541C60.3105 62.4301 59.7705 62.8921 59.0505 63.2401C58.3425 63.5761 57.4725 63.7441 56.4405 63.7441C55.5405 63.7441 54.6765 63.6121 53.8485 63.3481C53.0205 63.0721 52.3425 62.6941 51.8145 62.2141L52.6425 60.7921C53.0745 61.2001 53.6265 61.5301 54.2985 61.7821C54.9705 62.0221 55.6845 62.1421 56.4405 62.1421C57.3765 62.1421 58.1025 61.9441 58.6185 61.5481C59.1465 61.1521 59.4105 60.6061 59.4105 59.9101C59.4105 59.2141 59.1525 58.6741 58.6365 58.2901C58.1205 57.9061 57.3405 57.7141 56.2965 57.7141H55.2885V56.4541L58.4565 52.5661H52.3905V51.0001H60.7065V52.2241L57.4125 56.2921ZM65.4495 57.7681C64.5735 57.7681 63.8655 57.4501 63.3255 56.8141C62.7855 56.1781 62.5155 55.3501 62.5155 54.3301C62.5155 53.3101 62.7855 52.4821 63.3255 51.8461C63.8655 51.2101 64.5735 50.8921 65.4495 50.8921C66.3255 50.8921 67.0275 51.2101 67.5555 51.8461C68.0955 52.4701 68.3655 53.2981 68.3655 54.3301C68.3655 55.3621 68.0955 56.1961 67.5555 56.8321C67.0275 57.4561 66.3255 57.7681 65.4495 57.7681ZM73.0455 51.0001H74.4315L65.8275 63.6001H64.4415L73.0455 51.0001ZM65.4495 56.7421C66.0015 56.7421 66.4335 56.5321 66.7455 56.1121C67.0575 55.6801 67.2135 55.0861 67.2135 54.3301C67.2135 53.5741 67.0575 52.9861 66.7455 52.5661C66.4335 52.1341 66.0015 51.9181 65.4495 51.9181C64.9095 51.9181 64.4775 52.1341 64.1535 52.5661C63.8415 52.9981 63.6855 53.5861 63.6855 54.3301C63.6855 55.0741 63.8415 55.6621 64.1535 56.0941C64.4775 56.5261 64.9095 56.7421 65.4495 56.7421ZM73.4235 63.7081C72.5475 63.7081 71.8395 63.3961 71.2995 62.7721C70.7715 62.1361 70.5075 61.3021 70.5075 60.2701C70.5075 59.2381 70.7715 58.4101 71.2995 57.7861C71.8395 57.1501 72.5475 56.8321 73.4235 56.8321C74.2995 56.8321 75.0075 57.1501 75.5475 57.7861C76.0875 58.4221 76.3575 59.2501 76.3575 60.2701C76.3575 61.2901 76.0875 62.1181 75.5475 62.7541C75.0075 63.3901 74.2995 63.7081 73.4235 63.7081ZM73.4235 62.6821C73.9635 62.6821 74.3895 62.4661 74.7015 62.0341C75.0255 61.6021 75.1875 61.0141 75.1875 60.2701C75.1875 59.5261 75.0255 58.9381 74.7015 58.5061C74.3895 58.0741 73.9635 57.8581 73.4235 57.8581C72.8715 57.8581 72.4395 58.0741 72.1275 58.5061C71.8155 58.9261 71.6595 59.5141 71.6595 60.2701C71.6595 61.0261 71.8155 61.6201 72.1275 62.0521C72.4395 62.4721 72.8715 62.6821 73.4235 62.6821Z" fill="black"/>
</svg>
