<svg width="116" height="116" viewBox="0 0 116 116" fill="none" xmlns="http://www.w3.org/2000/svg">
<mask id="path-1-inside-1" fill="white">
<path d="M116 58C116 90.0325 90.0325 116 58 116C25.9675 116 0 90.0325 0 58C0 25.9675 25.9675 0 58 0C90.0325 0 116 25.9675 116 58ZM14.5 58C14.5 82.0244 33.9756 101.5 58 101.5C82.0244 101.5 101.5 82.0244 101.5 58C101.5 33.9756 82.0244 14.5 58 14.5C33.9756 14.5 14.5 33.9756 14.5 58Z"/>
</mask>
<path d="M116 58C116 90.0325 90.0325 116 58 116C25.9675 116 0 90.0325 0 58C0 25.9675 25.9675 0 58 0C90.0325 0 116 25.9675 116 58ZM14.5 58C14.5 82.0244 33.9756 101.5 58 101.5C82.0244 101.5 101.5 82.0244 101.5 58C101.5 33.9756 82.0244 14.5 58 14.5C33.9756 14.5 14.5 33.9756 14.5 58Z" stroke="#806328" stroke-width="2" mask="url(#path-1-inside-1)"/>
<mask id="path-2-inside-2" fill="white">
<path d="M58 0C68.0782 1.20181e-07 77.9824 2.62606 86.7366 7.61937C95.4908 12.6127 102.793 19.8009 107.923 28.4756C113.053 37.1503 115.835 47.0121 115.993 57.089C116.151 67.1659 113.681 77.1101 108.826 85.9417L96.1193 78.9563C99.7607 72.3326 101.613 64.8744 101.495 57.3167C101.376 49.759 99.2899 42.3627 95.4423 35.8567C91.5946 29.3507 86.1181 23.9595 79.5525 20.2145C72.9868 16.4695 65.5586 14.5 58 14.5L58 0Z"/>
</mask>
<path d="M58 0C68.0782 1.20181e-07 77.9824 2.62606 86.7366 7.61937C95.4908 12.6127 102.793 19.8009 107.923 28.4756C113.053 37.1503 115.835 47.0121 115.993 57.089C116.151 67.1659 113.681 77.1101 108.826 85.9417L96.1193 78.9563C99.7607 72.3326 101.613 64.8744 101.495 57.3167C101.376 49.759 99.2899 42.3627 95.4423 35.8567C91.5946 29.3507 86.1181 23.9595 79.5525 20.2145C72.9868 16.4695 65.5586 14.5 58 14.5L58 0Z" fill="#806328" stroke="#806328" stroke-width="2" mask="url(#path-2-inside-2)"/>
<path d="M46.5141 56.2921C47.7501 56.4121 48.6921 56.7961 49.3401 57.4441C49.9881 58.0801 50.3121 58.8961 50.3121 59.8921C50.3121 60.6121 50.1321 61.2661 49.7721 61.8541C49.4121 62.4301 48.8721 62.8921 48.1521 63.2401C47.4441 63.5761 46.5741 63.7441 45.5421 63.7441C44.6421 63.7441 43.7781 63.6121 42.9501 63.3481C42.1221 63.0721 41.4441 62.6941 40.9161 62.2141L41.7441 60.7921C42.1761 61.2001 42.7281 61.5301 43.4001 61.7821C44.0721 62.0221 44.7861 62.1421 45.5421 62.1421C46.4781 62.1421 47.2041 61.9441 47.7201 61.5481C48.2481 61.1521 48.5121 60.6061 48.5121 59.9101C48.5121 59.2141 48.2541 58.6741 47.7381 58.2901C47.2221 57.9061 46.4421 57.7141 45.3981 57.7141H44.3901V56.4541L47.5581 52.5661H41.4921V51.0001H49.8081V52.2241L46.5141 56.2921ZM56.727 56.2921C57.963 56.4121 58.905 56.7961 59.553 57.4441C60.201 58.0801 60.525 58.8961 60.525 59.8921C60.525 60.6121 60.345 61.2661 59.985 61.8541C59.625 62.4301 59.085 62.8921 58.365 63.2401C57.657 63.5761 56.787 63.7441 55.755 63.7441C54.855 63.7441 53.991 63.6121 53.163 63.3481C52.335 63.0721 51.657 62.6941 51.129 62.2141L51.957 60.7921C52.389 61.2001 52.941 61.5301 53.613 61.7821C54.285 62.0221 54.999 62.1421 55.755 62.1421C56.691 62.1421 57.417 61.9441 57.933 61.5481C58.461 61.1521 58.725 60.6061 58.725 59.9101C58.725 59.2141 58.467 58.6741 57.951 58.2901C57.435 57.9061 56.655 57.7141 55.611 57.7141H54.603V56.4541L57.771 52.5661H51.705V51.0001H60.021V52.2241L56.727 56.2921ZM64.764 57.7681C63.888 57.7681 63.18 57.4501 62.64 56.8141C62.1 56.1781 61.83 55.3501 61.83 54.3301C61.83 53.3101 62.1 52.4821 62.64 51.8461C63.18 51.2101 63.888 50.8921 64.764 50.8921C65.64 50.8921 66.342 51.2101 66.87 51.8461C67.41 52.4701 67.68 53.2981 67.68 54.3301C67.68 55.3621 67.41 56.1961 66.87 56.8321C66.342 57.4561 65.64 57.7681 64.764 57.7681ZM72.36 51.0001H73.746L65.142 63.6001H63.756L72.36 51.0001ZM64.764 56.7421C65.316 56.7421 65.748 56.5321 66.06 56.1121C66.372 55.6801 66.528 55.0861 66.528 54.3301C66.528 53.5741 66.372 52.9861 66.06 52.5661C65.748 52.1341 65.316 51.9181 64.764 51.9181C64.224 51.9181 63.792 52.1341 63.468 52.5661C63.156 52.9981 63 53.5861 63 54.3301C63 55.0741 63.156 55.6621 63.468 56.0941C63.792 56.5261 64.224 56.7421 64.764 56.7421ZM72.738 63.7081C71.862 63.7081 71.154 63.3961 70.614 62.7721C70.086 62.1361 69.822 61.3021 69.822 60.2701C69.822 59.2381 70.086 58.4101 70.614 57.7861C71.154 57.1501 71.862 56.8321 72.738 56.8321C73.614 56.8321 74.322 57.1501 74.862 57.7861C75.402 58.4221 75.672 59.2501 75.672 60.2701C75.672 61.2901 75.402 62.1181 74.862 62.7541C74.322 63.3901 73.614 63.7081 72.738 63.7081ZM72.738 62.6821C73.278 62.6821 73.704 62.4661 74.016 62.0341C74.34 61.6021 74.502 61.0141 74.502 60.2701C74.502 59.5261 74.34 58.9381 74.016 58.5061C73.704 58.0741 73.278 57.8581 72.738 57.8581C72.186 57.8581 71.754 58.0741 71.442 58.5061C71.13 58.9261 70.974 59.5141 70.974 60.2701C70.974 61.0261 71.13 61.6201 71.442 62.0521C71.754 62.4721 72.186 62.6821 72.738 62.6821Z" fill="black"/>
</svg>
