<svg width="116" height="116" viewBox="0 0 116 116" fill="none" xmlns="http://www.w3.org/2000/svg">
<mask id="path-1-inside-1" fill="white">
<path d="M116 58C116 90.0325 90.0325 116 58 116C25.9675 116 0 90.0325 0 58C0 25.9675 25.9675 0 58 0C90.0325 0 116 25.9675 116 58ZM14.5 58C14.5 82.0244 33.9756 101.5 58 101.5C82.0244 101.5 101.5 82.0244 101.5 58C101.5 33.9756 82.0244 14.5 58 14.5C33.9756 14.5 14.5 33.9756 14.5 58Z"/>
</mask>
<path d="M116 58C116 90.0325 90.0325 116 58 116C25.9675 116 0 90.0325 0 58C0 25.9675 25.9675 0 58 0C90.0325 0 116 25.9675 116 58ZM14.5 58C14.5 82.0244 33.9756 101.5 58 101.5C82.0244 101.5 101.5 82.0244 101.5 58C101.5 33.9756 82.0244 14.5 58 14.5C33.9756 14.5 14.5 33.9756 14.5 58Z" stroke="#915650" stroke-width="2" mask="url(#path-1-inside-1)"/>
<mask id="path-2-inside-2" fill="white">
<path d="M116 58C116 90.0325 90.0325 116 58 116C25.9675 116 0 90.0325 0 58C0 25.9675 25.9675 0 58 0C90.0325 0 116 25.9675 116 58ZM14.5 58C14.5 82.0244 33.9756 101.5 58 101.5C82.0244 101.5 101.5 82.0244 101.5 58C101.5 33.9756 82.0244 14.5 58 14.5C33.9756 14.5 14.5 33.9756 14.5 58Z"/>
</mask>
<path d="M116 58C116 90.0325 90.0325 116 58 116C25.9675 116 0 90.0325 0 58C0 25.9675 25.9675 0 58 0C90.0325 0 116 25.9675 116 58ZM14.5 58C14.5 82.0244 33.9756 101.5 58 101.5C82.0244 101.5 101.5 82.0244 101.5 58C101.5 33.9756 82.0244 14.5 58 14.5C33.9756 14.5 14.5 33.9756 14.5 58Z" fill="#915650" stroke="#915650" stroke-width="2" mask="url(#path-2-inside-2)"/>
<path d="M40.4281 51.0001V63.6001H38.6461V52.5661H35.8021V51.0001H40.4281ZM48.3322 63.7441C47.3362 63.7441 46.4482 63.4921 45.6682 62.9881C44.9002 62.4721 44.2942 61.7281 43.8502 60.7561C43.4062 59.7841 43.1842 58.6321 43.1842 57.3001C43.1842 55.9681 43.4062 54.8161 43.8502 53.8441C44.2942 52.8721 44.9002 52.1341 45.6682 51.6301C46.4482 51.1141 47.3362 50.8561 48.3322 50.8561C49.3162 50.8561 50.1922 51.1141 50.9602 51.6301C51.7402 52.1341 52.3522 52.8721 52.7962 53.8441C53.2402 54.8161 53.4622 55.9681 53.4622 57.3001C53.4622 58.6321 53.2402 59.7841 52.7962 60.7561C52.3522 61.7281 51.7402 62.4721 50.9602 62.9881C50.1922 63.4921 49.3162 63.7441 48.3322 63.7441ZM48.3322 62.1421C49.3402 62.1421 50.1442 61.7281 50.7442 60.9001C51.3562 60.0721 51.6622 58.8721 51.6622 57.3001C51.6622 55.7281 51.3562 54.5281 50.7442 53.7001C50.1442 52.8721 49.3402 52.4581 48.3322 52.4581C47.3122 52.4581 46.4962 52.8721 45.8842 53.7001C45.2842 54.5281 44.9842 55.7281 44.9842 57.3001C44.9842 58.8721 45.2842 60.0721 45.8842 60.9001C46.4962 61.7281 47.3122 62.1421 48.3322 62.1421ZM60.3381 63.7441C59.3421 63.7441 58.4541 63.4921 57.6741 62.9881C56.9061 62.4721 56.3001 61.7281 55.8561 60.7561C55.4121 59.7841 55.1901 58.6321 55.1901 57.3001C55.1901 55.9681 55.4121 54.8161 55.8561 53.8441C56.3001 52.8721 56.9061 52.1341 57.6741 51.6301C58.4541 51.1141 59.3421 50.8561 60.3381 50.8561C61.3221 50.8561 62.1981 51.1141 62.9661 51.6301C63.7461 52.1341 64.3581 52.8721 64.8021 53.8441C65.2461 54.8161 65.4681 55.9681 65.4681 57.3001C65.4681 58.6321 65.2461 59.7841 64.8021 60.7561C64.3581 61.7281 63.7461 62.4721 62.9661 62.9881C62.1981 63.4921 61.3221 63.7441 60.3381 63.7441ZM60.3381 62.1421C61.3461 62.1421 62.1501 61.7281 62.7501 60.9001C63.3621 60.0721 63.6681 58.8721 63.6681 57.3001C63.6681 55.7281 63.3621 54.5281 62.7501 53.7001C62.1501 52.8721 61.3461 52.4581 60.3381 52.4581C59.3181 52.4581 58.5021 52.8721 57.8901 53.7001C57.2901 54.5281 56.9901 55.7281 56.9901 57.3001C56.9901 58.8721 57.2901 60.0721 57.8901 60.9001C58.5021 61.7281 59.3181 62.1421 60.3381 62.1421ZM69.932 57.7681C69.056 57.7681 68.348 57.4501 67.808 56.8141C67.268 56.1781 66.998 55.3501 66.998 54.3301C66.998 53.3101 67.268 52.4821 67.808 51.8461C68.348 51.2101 69.056 50.8921 69.932 50.8921C70.808 50.8921 71.51 51.2101 72.038 51.8461C72.578 52.4701 72.848 53.2981 72.848 54.3301C72.848 55.3621 72.578 56.1961 72.038 56.8321C71.51 57.4561 70.808 57.7681 69.932 57.7681ZM77.528 51.0001H78.914L70.31 63.6001H68.924L77.528 51.0001ZM69.932 56.7421C70.484 56.7421 70.916 56.5321 71.228 56.1121C71.54 55.6801 71.696 55.0861 71.696 54.3301C71.696 53.5741 71.54 52.9861 71.228 52.5661C70.916 52.1341 70.484 51.9181 69.932 51.9181C69.392 51.9181 68.96 52.1341 68.636 52.5661C68.324 52.9981 68.168 53.5861 68.168 54.3301C68.168 55.0741 68.324 55.6621 68.636 56.0941C68.96 56.5261 69.392 56.7421 69.932 56.7421ZM77.906 63.7081C77.03 63.7081 76.322 63.3961 75.782 62.7721C75.254 62.1361 74.99 61.3021 74.99 60.2701C74.99 59.2381 75.254 58.4101 75.782 57.7861C76.322 57.1501 77.03 56.8321 77.906 56.8321C78.782 56.8321 79.49 57.1501 80.03 57.7861C80.57 58.4221 80.84 59.2501 80.84 60.2701C80.84 61.2901 80.57 62.1181 80.03 62.7541C79.49 63.3901 78.782 63.7081 77.906 63.7081ZM77.906 62.6821C78.446 62.6821 78.872 62.4661 79.184 62.0341C79.508 61.6021 79.67 61.0141 79.67 60.2701C79.67 59.5261 79.508 58.9381 79.184 58.5061C78.872 58.0741 78.446 57.8581 77.906 57.8581C77.354 57.8581 76.922 58.0741 76.61 58.5061C76.298 58.9261 76.142 59.5141 76.142 60.2701C76.142 61.0261 76.298 61.6201 76.61 62.0521C76.922 62.4721 77.354 62.6821 77.906 62.6821Z" fill="black"/>
</svg>
