<svg width="116" height="116" viewBox="0 0 116 116" fill="none" xmlns="http://www.w3.org/2000/svg">
<mask id="path-1-inside-1" fill="white">
<path d="M116 58C116 90.0325 90.0325 116 58 116C25.9675 116 0 90.0325 0 58C0 25.9675 25.9675 0 58 0C90.0325 0 116 25.9675 116 58ZM14.5 58C14.5 82.0244 33.9756 101.5 58 101.5C82.0244 101.5 101.5 82.0244 101.5 58C101.5 33.9756 82.0244 14.5 58 14.5C33.9756 14.5 14.5 33.9756 14.5 58Z"/>
</mask>
<path d="M116 58C116 90.0325 90.0325 116 58 116C25.9675 116 0 90.0325 0 58C0 25.9675 25.9675 0 58 0C90.0325 0 116 25.9675 116 58ZM14.5 58C14.5 82.0244 33.9756 101.5 58 101.5C82.0244 101.5 101.5 82.0244 101.5 58C101.5 33.9756 82.0244 14.5 58 14.5C33.9756 14.5 14.5 33.9756 14.5 58Z" stroke="#915650" stroke-width="2" mask="url(#path-1-inside-1)"/>
<mask id="path-2-inside-2" fill="white">
<path d="M58 0C65.6167 9.08279e-08 73.1588 1.50021 80.1956 4.41499C87.2325 7.32976 93.6264 11.602 99.0122 16.9878C104.398 22.3736 108.67 28.7675 111.585 35.8044C114.5 42.8413 116 50.3833 116 58C116 65.6167 114.5 73.1588 111.585 80.1956C108.67 87.2325 104.398 93.6264 99.0122 99.0122C93.6264 104.398 87.2325 108.67 80.1956 111.585C73.1587 114.5 65.6167 116 58 116L58 101.5C63.7125 101.5 69.3691 100.375 74.6467 98.1888C79.9244 96.0027 84.7198 92.7985 88.7591 88.7592C92.7985 84.7198 96.0027 79.9244 98.1888 74.6467C100.375 69.3691 101.5 63.7125 101.5 58C101.5 52.2875 100.375 46.6309 98.1888 41.3533C96.0027 36.0756 92.7985 31.2802 88.7591 27.2409C84.7198 23.2015 79.9244 19.9973 74.6467 17.8112C69.3691 15.6252 63.7125 14.5 58 14.5V0Z"/>
</mask>
<path d="M58 0C65.6167 9.08279e-08 73.1588 1.50021 80.1956 4.41499C87.2325 7.32976 93.6264 11.602 99.0122 16.9878C104.398 22.3736 108.67 28.7675 111.585 35.8044C114.5 42.8413 116 50.3833 116 58C116 65.6167 114.5 73.1588 111.585 80.1956C108.67 87.2325 104.398 93.6264 99.0122 99.0122C93.6264 104.398 87.2325 108.67 80.1956 111.585C73.1587 114.5 65.6167 116 58 116L58 101.5C63.7125 101.5 69.3691 100.375 74.6467 98.1888C79.9244 96.0027 84.7198 92.7985 88.7591 88.7592C92.7985 84.7198 96.0027 79.9244 98.1888 74.6467C100.375 69.3691 101.5 63.7125 101.5 58C101.5 52.2875 100.375 46.6309 98.1888 41.3533C96.0027 36.0756 92.7985 31.2802 88.7591 27.2409C84.7198 23.2015 79.9244 19.9973 74.6467 17.8112C69.3691 15.6252 63.7125 14.5 58 14.5V0Z" fill="#915650" stroke="#915650" stroke-width="2" mask="url(#path-2-inside-2)"/>
<path d="M44.2882 56.0221C46.0882 56.0221 47.4082 56.3641 48.2482 57.0481C49.1002 57.7201 49.5262 58.6441 49.5262 59.8201C49.5262 60.5641 49.3462 61.2361 48.9862 61.8361C48.6382 62.4241 48.1042 62.8921 47.3842 63.2401C46.6762 63.5761 45.8002 63.7441 44.7562 63.7441C43.8682 63.7441 43.0102 63.6121 42.1822 63.3481C41.3542 63.0721 40.6702 62.6941 40.1302 62.2141L40.9582 60.7921C41.3902 61.2001 41.9422 61.5301 42.6142 61.7821C43.2862 62.0221 43.9942 62.1421 44.7382 62.1421C45.6862 62.1421 46.4182 61.9441 46.9342 61.5481C47.4622 61.1401 47.7262 60.5881 47.7262 59.8921C47.7262 59.1361 47.4382 58.5661 46.8622 58.1821C46.2862 57.7861 45.3022 57.5881 43.9102 57.5881H41.0482L41.7142 51.0001H48.8242V52.5661H43.2262L42.8842 56.0221H44.2882ZM56.1721 63.7441C55.1761 63.7441 54.2881 63.4921 53.5081 62.9881C52.7401 62.4721 52.1341 61.7281 51.6901 60.7561C51.2461 59.7841 51.0241 58.6321 51.0241 57.3001C51.0241 55.9681 51.2461 54.8161 51.6901 53.8441C52.1341 52.8721 52.7401 52.1341 53.5081 51.6301C54.2881 51.1141 55.1761 50.8561 56.1721 50.8561C57.1561 50.8561 58.0321 51.1141 58.8001 51.6301C59.5801 52.1341 60.1921 52.8721 60.6361 53.8441C61.0801 54.8161 61.3021 55.9681 61.3021 57.3001C61.3021 58.6321 61.0801 59.7841 60.6361 60.7561C60.1921 61.7281 59.5801 62.4721 58.8001 62.9881C58.0321 63.4921 57.1561 63.7441 56.1721 63.7441ZM56.1721 62.1421C57.1801 62.1421 57.9841 61.7281 58.5841 60.9001C59.1961 60.0721 59.5021 58.8721 59.5021 57.3001C59.5021 55.7281 59.1961 54.5281 58.5841 53.7001C57.9841 52.8721 57.1801 52.4581 56.1721 52.4581C55.1521 52.4581 54.3361 52.8721 53.7241 53.7001C53.1241 54.5281 52.8241 55.7281 52.8241 57.3001C52.8241 58.8721 53.1241 60.0721 53.7241 60.9001C54.3361 61.7281 55.1521 62.1421 56.1721 62.1421ZM65.7659 57.7681C64.8899 57.7681 64.1819 57.4501 63.6419 56.8141C63.1019 56.1781 62.8319 55.3501 62.8319 54.3301C62.8319 53.3101 63.1019 52.4821 63.6419 51.8461C64.1819 51.2101 64.8899 50.8921 65.7659 50.8921C66.6419 50.8921 67.3439 51.2101 67.8719 51.8461C68.4119 52.4701 68.6819 53.2981 68.6819 54.3301C68.6819 55.3621 68.4119 56.1961 67.8719 56.8321C67.3439 57.4561 66.6419 57.7681 65.7659 57.7681ZM73.3619 51.0001H74.7479L66.1439 63.6001H64.7579L73.3619 51.0001ZM65.7659 56.7421C66.3179 56.7421 66.7499 56.5321 67.0619 56.1121C67.3739 55.6801 67.5299 55.0861 67.5299 54.3301C67.5299 53.5741 67.3739 52.9861 67.0619 52.5661C66.7499 52.1341 66.3179 51.9181 65.7659 51.9181C65.2259 51.9181 64.7939 52.1341 64.4699 52.5661C64.1579 52.9981 64.0019 53.5861 64.0019 54.3301C64.0019 55.0741 64.1579 55.6621 64.4699 56.0941C64.7939 56.5261 65.2259 56.7421 65.7659 56.7421ZM73.7399 63.7081C72.8639 63.7081 72.1559 63.3961 71.6159 62.7721C71.0879 62.1361 70.8239 61.3021 70.8239 60.2701C70.8239 59.2381 71.0879 58.4101 71.6159 57.7861C72.1559 57.1501 72.8639 56.8321 73.7399 56.8321C74.6159 56.8321 75.3239 57.1501 75.8639 57.7861C76.4039 58.4221 76.6739 59.2501 76.6739 60.2701C76.6739 61.2901 76.4039 62.1181 75.8639 62.7541C75.3239 63.3901 74.6159 63.7081 73.7399 63.7081ZM73.7399 62.6821C74.2799 62.6821 74.7059 62.4661 75.0179 62.0341C75.3419 61.6021 75.5039 61.0141 75.5039 60.2701C75.5039 59.5261 75.3419 58.9381 75.0179 58.5061C74.7059 58.0741 74.2799 57.8581 73.7399 57.8581C73.1879 57.8581 72.7559 58.0741 72.4439 58.5061C72.1319 58.9261 71.9759 59.5141 71.9759 60.2701C71.9759 61.0261 72.1319 61.6201 72.4439 62.0521C72.7559 62.4721 73.1879 62.6821 73.7399 62.6821Z" fill="black"/>
</svg>
