<svg width="732" height="780" viewBox="0 0 732 780" fill="none" xmlns="http://www.w3.org/2000/svg">
<path fill-rule="evenodd" clip-rule="evenodd" d="M731.73 0.688253H723.497L723.183 0.488373L722.894 0.688253H4.20655H0.869141L3.65665 2.52348L194.614 128.246L81.1203 210.382L3.62027 266.469L4.79282 268.089L81.7199 212.417L204.473 297.235L81.3836 385.982H4.20655V387.982H81.3686L204.551 481.965L86.9349 570.547L88.1381 572.144L206.79 482.783L206.808 482.769L236.29 461.605L281.528 429.13H368.22L369.538 525.936L193.174 647.367L4.78775 512.818L3.62534 514.446L191.421 648.573L3.63945 777.865L0.990789 779.688H4.20655H731.73V775.753L549.512 649.369L659.491 572.167L659.495 572.164L731.73 521.917V519.48L658.926 570.123L534.753 481.961L664.533 387.618L731.73 387.454V385.454L664.529 385.618L535.452 292.487L664.193 205.365L731.73 253.385V250.931L664.786 203.333L664.778 203.327L664.769 203.321L548.247 124.01L723.23 2.88814L731.73 8.29069V5.92085L726.644 2.68825H731.73V0.688253ZM657.186 571.341L547.761 648.155L371.538 525.929L370.22 429.13H456.888L657.186 571.341ZM546.016 649.379L371.572 528.386L372.244 577.766L510.667 674.193L546.016 649.379ZM194.905 648.603L369.571 528.342L370.244 577.774L230.831 674.262L194.905 648.603ZM232.56 675.498L370.213 580.227L368.217 681.979L305.204 727.381L232.56 675.498ZM305.826 729.397L369.214 683.726L503.042 777.688H244.59L305.791 729.423L305.826 729.397ZM655.735 777.688H506.523L436.625 728.612L510.671 676.634L655.735 777.688ZM508.924 675.417L434.884 727.39L370.217 681.986L372.214 580.182L508.924 675.417ZM547.767 650.593L512.414 675.41L659.234 777.688H731.01L547.767 650.593ZM303.541 728.652L241.36 777.688H84.9086L230.813 676.707L303.541 728.652ZM229.083 675.472L81.3943 777.688H7.42233L193.152 649.81L229.083 675.472ZM503.188 459.55L458.939 428.134L516.024 387.981L596.522 387.784L503.188 459.55ZM595.652 385.786L516.032 385.981L458.944 344.262L496.557 318.808L595.652 385.786ZM495.997 316.773L456.9 343.231H370.22L371.542 244.731L372.157 245.136L372.721 245.507L373.276 245.123L546.484 125.23L662.426 204.146L533.146 291.633L495.997 316.773ZM369.559 243.426L368.22 343.231H281.478L236.244 316.757L206.775 296.395L83.4383 211.173L196.401 129.422L369.559 243.426ZM235.751 318.786L279.457 344.366L228.351 385.982H138.415L235.751 318.786ZM138.257 387.982H228.361L279.541 428.095L235.713 459.557L138.257 387.982ZM369.207 427.13H281.552L230.309 386.967L281.562 345.231H369.207H456.88L513.99 386.966L456.89 427.13H369.207ZM134.879 387.982L234.005 460.784L206.225 480.726L84.6658 387.982H134.879ZM134.895 385.982H84.8034L206.219 298.442L233.947 317.601L134.895 385.982ZM369.591 241.052L198.133 128.168L238.439 98.9987L370.334 185.69L369.591 241.052ZM370.366 183.317L240.172 97.7445L314.714 43.7978L371.7 83.9633L370.366 183.317ZM238.384 96.5694L312.986 42.5797L256.39 2.68825H95.5486L238.384 96.5694ZM315.283 41.7516L259.861 2.68825H497.856L432.183 45.7249L432.158 45.7404L372.744 82.2527L315.283 41.7516ZM434.507 46.5926L501.505 2.68825H649.369L507.37 96.1869L434.507 46.5926ZM720.005 2.68825H653.006L509.158 97.404L546.475 122.804L720.005 2.68825ZM432.679 47.7676L505.563 97.3765L372.706 184.855L372.349 184.62L373.699 84.0134L432.679 47.7676ZM372.707 187.249L372.317 186.993L371.574 242.357L372.693 243.094L544.712 124.024L507.351 98.5936L373.256 186.887L372.707 187.249ZM236.651 97.8237L91.9073 2.68825H7.54395L196.347 126.992L236.651 97.8237ZM661.12 387.626L533.032 480.739L504.894 460.761L599.814 387.776L661.12 387.626ZM661.122 385.626L599.211 385.778L498.342 317.601L533.688 293.681L661.122 385.626Z" fill="#F0EBEC"/>
</svg>
