<svg width="1449" height="663" viewBox="0 0 1449 663" fill="none" xmlns="http://www.w3.org/2000/svg">
<path d="M257.034 1.49536L315.034 36.4307M373.034 71.3661L369.534 294.222M373.034 71.3661L315.034 36.4307M373.034 71.3661L433.034 39.8557M501.534 1.49536L433.034 39.8557M92.5343 1.49536L373.034 159.047L653.034 1.49536M369.534 294.222H457.534M369.534 294.222H281.534M457.534 294.222L516.034 330.755M457.534 294.222L496.885 271.465M516.034 330.755L457.534 365.919M516.034 330.755L734.534 330.299M457.534 365.919L659.248 488.307M457.534 365.919H369.534M281.534 365.919L229.034 330.755M281.534 365.919L236.034 393.832M281.534 365.919H369.534M229.034 330.755L281.534 294.222M229.034 330.755H135.534M281.534 294.222L236.034 271.465M315.034 36.4307L82.0343 180.531M4.52344 219.927L82.0343 180.531M433.034 39.8557L664.534 174.511M734.534 217.044L664.534 174.511M734.534 217.044V330.299M734.534 217.044L800.034 179.508M734.534 443.553L659.248 488.307M734.534 443.553V330.299M734.534 443.553L1044.27 623.025M435.212 622.702L659.248 488.307M664.534 174.511L534.034 249.981M82.0343 180.531L206.534 254.046M4.53433 330.755H82.0343M87.8643 488.307L206.534 411.93M236.034 271.465L135.534 330.755M236.034 271.465L206.534 254.046M135.534 330.755L236.034 393.832M135.534 330.755H82.0343M236.034 393.832L206.534 411.93M206.534 254.046L82.0343 330.755M82.0343 330.755L206.534 411.93M496.885 271.465L599.534 330.755L503.539 393.832M496.885 271.465L534.034 249.981M534.034 249.981L664.534 330.445L533.367 411.93M734.534 330.299L796.784 330.429M4.53433 438.986L305.534 622.702M305.534 622.702L244.409 661.385M305.534 622.702L369.534 583.294M369.534 583.294L371.579 494.244M369.534 583.294L501.534 661.385M369.534 365.919L370.873 449.947M370.873 449.947L734.534 661.385L1097.1 443.553M370.873 449.947L4.53433 661.385H1444.53L1097.1 443.553M370.873 449.947L371.579 494.244M82.0343 661.385L371.579 494.244M371.579 494.244L653.034 661.385M811.034 1.49536L1101.03 163.157L1377.51 1.49536M976.034 1.49536L1040.53 39.3991M1101.03 72.7361L1040.53 39.3991M1101.03 72.7361L1143.03 43.1112M1101.03 72.7361V297.418M1200.05 1.49536L1143.03 43.1112M1040.53 39.3991L800.034 179.508M1143.03 43.1112L1377.51 179.508M1442.86 219.927L1377.51 179.508M1101.03 297.418H1185.03M1101.03 297.418L1005.03 298.332M1185.03 297.418L1237.53 330.755M1185.03 297.418L1227.4 271.465M1237.53 330.755L1185.03 365.919M1237.53 330.755H1443.28M1185.03 365.919L1375.14 482.54M1185.03 365.919H1095.03M1005.03 365.919L952.534 330.755M1005.03 365.919L932.102 411.93M1005.03 365.919H1095.03M952.534 330.755L1005.03 298.332M952.534 330.755L859.034 330.559M1005.03 298.332L952.534 267.901M800.034 179.508L926.645 252.895M1377.51 179.508L1257.71 252.895M952.534 267.901L859.034 330.559M952.534 267.901L926.645 252.895M859.034 330.559L961.034 393.832M859.034 330.559L796.784 330.429M811.034 488.307L932.102 411.93M932.102 411.93L796.784 330.429M796.784 330.429L926.645 252.895M1227.4 271.465L1325.03 330.755L1230.62 393.832M1227.4 271.465L1257.71 252.895M1257.71 252.895L1393.03 330.755L1260.18 411.93M1443.69 438.986L1154.03 623.025M1218.37 661.385L1097.1 590.145M1097.1 590.145L976.034 661.385M1097.1 590.145V492.874M1095.03 365.919L1097.1 443.553M1097.1 443.553V492.874M1377.51 661.577L1097.1 492.874M1097.1 492.874L811.034 661.385M4.53433 1.49536L373.034 208.824L723.534 1.49536L1101.03 206.541L1442.03 1.49536H4.53433Z" stroke="#F0EBEC" stroke-width="2"/>
</svg>
