<svg width="50" height="50" viewBox="0 0 50 50" fill="none" xmlns="http://www.w3.org/2000/svg">
<path fill-rule="evenodd" clip-rule="evenodd" d="M32.8313 49.0458C42.8026 45.7595 50 36.3687 50 25.2969C50 11.4898 38.8071 0.296875 25 0.296875C11.1929 0.296875 0 11.4898 0 25.2969C0 37.2368 8.37032 47.2218 19.5632 49.704C19.563 49.7001 19.563 49.6961 19.5631 49.6921C19.5865 49.1081 19.8031 47.3893 20.0018 45.8126C20.117 44.8988 20.2262 44.0328 20.2882 43.463C19.1505 43.7397 16.875 44.0535 16.0448 43.9242C15.1471 43.7844 12.3628 42.395 11.8935 41.2227C11.6711 40.6671 11.2419 39.9421 10.8641 39.304C10.5602 38.7907 10.2896 38.3336 10.1867 38.0663C10.0982 37.836 9.68294 37.5376 9.23122 37.213C8.5069 36.6925 7.68874 36.1046 7.97283 35.6216C8.43408 34.8375 11.1839 36.1132 11.8935 36.6823C12.2424 36.9622 12.5144 37.4519 12.817 37.9967C13.5303 39.2808 14.4137 40.8711 16.875 40.7416C19.2658 40.6157 19.9053 40.8693 20.1233 40.6675C20.2249 40.5734 20.235 40.3803 20.2882 40.0035C20.4175 39.0881 20.8933 38.2693 21.2402 37.6724C21.5642 37.1149 21.7757 36.7509 21.4876 36.6823C12.9544 34.6526 11.6166 32.2545 10.4174 26.7194C9.53999 22.6699 11.5265 19.9536 12.5115 18.6067C12.8729 18.1126 13.0995 17.8027 13.0004 17.6789C12.6315 17.2178 12.2624 12.5589 13.3694 11.2214C14.033 10.4197 16.1219 11.6058 17.8479 12.5858C19.0013 13.2407 19.9926 13.8036 20.2882 13.6198C22.3642 12.3288 32.1766 13.0847 32.7882 13.6198C32.8805 13.7005 33.5806 13.3246 34.4974 12.8324C36.3426 11.8416 39.0654 10.3797 39.4764 11.2214C40.8481 14.0309 40.1376 15.5581 39.6819 16.5375C39.4562 17.0227 39.2931 17.3734 39.4764 17.6789C39.5806 17.8526 39.7539 17.9858 39.9633 18.1467C40.8659 18.8406 42.4372 20.0484 42.0134 27.2268C41.5003 35.9176 32.6869 36.5508 31.2688 36.6527C31.0828 36.666 31.024 36.6703 31.1278 36.6823C32.2862 36.8169 32.9698 44.7968 32.8313 49.0458Z" fill="white"/>
</svg>
