<svg width="51" height="50" viewBox="0 0 51 50" fill="none" xmlns="http://www.w3.org/2000/svg">
<path fill-rule="evenodd" clip-rule="evenodd" d="M32.9876 49.0458C42.9588 45.7595 50.1562 36.3687 50.1562 25.2969C50.1562 11.4898 38.9634 0.296875 25.1562 0.296875C11.3491 0.296875 0.15625 11.4898 0.15625 25.2969C0.15625 37.2368 8.52657 47.2218 19.7194 49.704C19.7192 49.7001 19.7192 49.6961 19.7194 49.6921C19.7427 49.1081 19.9594 47.3893 20.1581 45.8126C20.2733 44.8988 20.3824 44.0328 20.4445 43.463C19.3067 43.7397 17.0313 44.0535 16.201 43.9242C15.3033 43.7844 12.519 42.395 12.0497 41.2227C11.8274 40.6671 11.3981 39.9421 11.0203 39.304C10.7164 38.7907 10.4458 38.3336 10.343 38.0663C10.2544 37.836 9.83919 37.5376 9.38747 37.213C8.66315 36.6925 7.84499 36.1046 8.12908 35.6216C8.59033 34.8375 11.3401 36.1132 12.0497 36.6823C12.3987 36.9622 12.6707 37.4519 12.9733 37.9967C13.6866 39.2808 14.5699 40.8711 17.0313 40.7416C19.4221 40.6157 20.0615 40.8693 20.2795 40.6675C20.3812 40.5734 20.3912 40.3803 20.4445 40.0035C20.5738 39.0881 21.0496 38.2693 21.3965 37.6724C21.7204 37.1149 21.932 36.7509 21.6438 36.6823C13.1106 34.6526 11.7729 32.2545 10.5736 26.7194C9.69624 22.6699 11.6827 19.9536 12.6678 18.6067C13.0291 18.1126 13.2557 17.8027 13.1567 17.6789C12.7878 17.2178 12.4186 12.5589 13.5256 11.2214C14.1892 10.4197 16.2782 11.6058 18.0042 12.5858C19.1576 13.2407 20.1489 13.8036 20.4445 13.6198C22.5204 12.3288 32.3328 13.0847 32.9445 13.6198C33.0368 13.7005 33.7369 13.3246 34.6537 12.8324C36.4989 11.8416 39.2217 10.3797 39.6327 11.2214C41.0043 14.0309 40.2938 15.5581 39.8382 16.5375C39.6125 17.0227 39.4493 17.3734 39.6327 17.6789C39.7368 17.8526 39.9102 17.9858 40.1195 18.1467C41.0221 18.8406 42.5934 20.0484 42.1696 27.2268C41.6565 35.9176 32.8432 36.5508 31.425 36.6527C31.239 36.666 31.1803 36.6703 31.2841 36.6823C32.4425 36.8169 33.1261 44.7968 32.9876 49.0458Z" fill="#FFF9F3"/>
</svg>
