<svg width="680" height="409" viewBox="0 0 680 409" fill="none" xmlns="http://www.w3.org/2000/svg">
<rect width="150" height="320" fill="#8D295B"/>
<path d="M59.3828 63.458C60.4228 63.8567 61.2202 64.4287 61.7748 65.174C62.3295 65.9193 62.6068 66.812 62.6068 67.852C62.6068 68.944 62.3122 69.8973 61.7228 70.712C61.1335 71.5093 60.2928 72.1247 59.2008 72.558C58.1088 72.9913 56.8262 73.208 55.3528 73.208C53.8968 73.208 52.6228 72.9913 51.5308 72.558C50.4562 72.1247 49.6242 71.5093 49.0348 70.712C48.4455 69.8973 48.1508 68.944 48.1508 67.852C48.1508 66.812 48.4195 65.9193 48.9568 65.174C49.5115 64.4287 50.3088 63.8567 51.3488 63.458C50.5168 63.0593 49.8842 62.5307 49.4508 61.872C49.0175 61.2133 48.8008 60.4333 48.8008 59.532C48.8008 58.5267 49.0695 57.6513 49.6068 56.906C50.1615 56.1607 50.9328 55.5887 51.9208 55.19C52.9088 54.7913 54.0528 54.592 55.3528 54.592C56.6702 54.592 57.8228 54.7913 58.8108 55.19C59.8162 55.5887 60.5875 56.1607 61.1248 56.906C61.6795 57.6513 61.9568 58.5267 61.9568 59.532C61.9568 60.416 61.7315 61.196 61.2808 61.872C60.8475 62.5307 60.2148 63.0593 59.3828 63.458ZM55.3528 56.698C54.1222 56.698 53.1515 56.9667 52.4408 57.504C51.7302 58.024 51.3748 58.7347 51.3748 59.636C51.3748 60.5373 51.7215 61.248 52.4148 61.768C53.1255 62.288 54.1048 62.548 55.3528 62.548C56.6182 62.548 57.6062 62.288 58.3168 61.768C59.0448 61.248 59.4088 60.5373 59.4088 59.636C59.4088 58.7347 59.0362 58.024 58.2908 57.504C57.5628 56.9667 56.5835 56.698 55.3528 56.698ZM55.3528 71.102C56.7915 71.102 57.9268 70.8073 58.7588 70.218C59.5908 69.6113 60.0068 68.7967 60.0068 67.774C60.0068 66.7687 59.5908 65.98 58.7588 65.408C57.9268 64.8187 56.7915 64.524 55.3528 64.524C53.9142 64.524 52.7875 64.8187 51.9728 65.408C51.1582 65.98 50.7508 66.7687 50.7508 67.774C50.7508 68.7967 51.1582 69.6113 51.9728 70.218C52.7875 70.8073 53.9142 71.102 55.3528 71.102ZM72.4233 73.208C70.9846 73.208 69.7019 72.844 68.5753 72.116C67.4659 71.3707 66.5906 70.296 65.9493 68.892C65.3079 67.488 64.9873 65.824 64.9873 63.9C64.9873 61.976 65.3079 60.312 65.9493 58.908C66.5906 57.504 67.4659 56.438 68.5753 55.71C69.7019 54.9647 70.9846 54.592 72.4233 54.592C73.8446 54.592 75.1099 54.9647 76.2193 55.71C77.3459 56.438 78.2299 57.504 78.8713 58.908C79.5126 60.312 79.8333 61.976 79.8333 63.9C79.8333 65.824 79.5126 67.488 78.8713 68.892C78.2299 70.296 77.3459 71.3707 76.2193 72.116C75.1099 72.844 73.8446 73.208 72.4233 73.208ZM72.4233 70.894C73.8793 70.894 75.0406 70.296 75.9073 69.1C76.7913 67.904 77.2333 66.1707 77.2333 63.9C77.2333 61.6293 76.7913 59.896 75.9073 58.7C75.0406 57.504 73.8793 56.906 72.4233 56.906C70.9499 56.906 69.7713 57.504 68.8873 58.7C68.0206 59.896 67.5873 61.6293 67.5873 63.9C67.5873 66.1707 68.0206 67.904 68.8873 69.1C69.7713 70.296 70.9499 70.894 72.4233 70.894ZM86.2811 64.576C85.0157 64.576 83.9931 64.1167 83.2131 63.198C82.4331 62.2793 82.0431 61.0833 82.0431 59.61C82.0431 58.1367 82.4331 56.9407 83.2131 56.022C83.9931 55.1033 85.0157 54.644 86.2811 54.644C87.5464 54.644 88.5604 55.1033 89.3231 56.022C90.1031 56.9233 90.4931 58.1193 90.4931 59.61C90.4931 61.1007 90.1031 62.3053 89.3231 63.224C88.5604 64.1253 87.5464 64.576 86.2811 64.576ZM97.2531 54.8H99.2551L86.8271 73H84.8251L97.2531 54.8ZM86.2811 63.094C87.0784 63.094 87.7024 62.7907 88.1531 62.184C88.6037 61.56 88.8291 60.702 88.8291 59.61C88.8291 58.518 88.6037 57.6687 88.1531 57.062C87.7024 56.438 87.0784 56.126 86.2811 56.126C85.5011 56.126 84.8771 56.438 84.4091 57.062C83.9584 57.686 83.7331 58.5353 83.7331 59.61C83.7331 60.6847 83.9584 61.534 84.4091 62.158C84.8771 62.782 85.5011 63.094 86.2811 63.094ZM97.7991 73.156C96.5337 73.156 95.5111 72.7053 94.7311 71.804C93.9684 70.8853 93.5871 69.6807 93.5871 68.19C93.5871 66.6993 93.9684 65.5033 94.7311 64.602C95.5111 63.6833 96.5337 63.224 97.7991 63.224C99.0644 63.224 100.087 63.6833 100.867 64.602C101.647 65.5207 102.037 66.7167 102.037 68.19C102.037 69.6633 101.647 70.8593 100.867 71.778C100.087 72.6967 99.0644 73.156 97.7991 73.156ZM97.7991 71.674C98.5791 71.674 99.1944 71.362 99.6451 70.738C100.113 70.114 100.347 69.2647 100.347 68.19C100.347 67.1153 100.113 66.266 99.6451 65.642C99.1944 65.018 98.5791 64.706 97.7991 64.706C97.0017 64.706 96.3777 65.018 95.9271 65.642C95.4764 66.2487 95.2511 67.098 95.2511 68.19C95.2511 69.282 95.4764 70.14 95.9271 70.764C96.3777 71.3707 97.0017 71.674 97.7991 71.674Z" fill="white"/>
<rect x="177" y="108" width="150" height="212" fill="#8D295B"/>
<path d="M232.778 170.054C235.378 170.054 237.285 170.548 238.498 171.536C239.729 172.507 240.344 173.841 240.344 175.54C240.344 176.615 240.084 177.585 239.564 178.452C239.061 179.301 238.29 179.977 237.25 180.48C236.227 180.965 234.962 181.208 233.454 181.208C232.171 181.208 230.932 181.017 229.736 180.636C228.54 180.237 227.552 179.691 226.772 178.998L227.968 176.944C228.592 177.533 229.389 178.01 230.36 178.374C231.331 178.721 232.353 178.894 233.428 178.894C234.797 178.894 235.855 178.608 236.6 178.036C237.363 177.447 237.744 176.649 237.744 175.644C237.744 174.552 237.328 173.729 236.496 173.174C235.664 172.602 234.243 172.316 232.232 172.316H228.098L229.06 162.8H239.33V165.062H231.244L230.75 170.054H232.778ZM249.349 170.444C251.134 170.617 252.495 171.172 253.431 172.108C254.367 173.027 254.835 174.205 254.835 175.644C254.835 176.684 254.575 177.629 254.055 178.478C253.535 179.31 252.755 179.977 251.715 180.48C250.692 180.965 249.435 181.208 247.945 181.208C246.645 181.208 245.397 181.017 244.201 180.636C243.005 180.237 242.025 179.691 241.263 178.998L242.459 176.944C243.083 177.533 243.88 178.01 244.851 178.374C245.821 178.721 246.853 178.894 247.945 178.894C249.297 178.894 250.345 178.608 251.091 178.036C251.853 177.464 252.235 176.675 252.235 175.67C252.235 174.665 251.862 173.885 251.117 173.33C250.371 172.775 249.245 172.498 247.737 172.498H246.281V170.678L250.857 165.062H242.095V162.8H254.107V164.568L249.349 170.444ZM260.958 172.576C259.692 172.576 258.67 172.117 257.89 171.198C257.11 170.279 256.72 169.083 256.72 167.61C256.72 166.137 257.11 164.941 257.89 164.022C258.67 163.103 259.692 162.644 260.958 162.644C262.223 162.644 263.237 163.103 264 164.022C264.78 164.923 265.17 166.119 265.17 167.61C265.17 169.101 264.78 170.305 264 171.224C263.237 172.125 262.223 172.576 260.958 172.576ZM271.93 162.8H273.932L261.504 181H259.502L271.93 162.8ZM260.958 171.094C261.755 171.094 262.379 170.791 262.83 170.184C263.28 169.56 263.506 168.702 263.506 167.61C263.506 166.518 263.28 165.669 262.83 165.062C262.379 164.438 261.755 164.126 260.958 164.126C260.178 164.126 259.554 164.438 259.086 165.062C258.635 165.686 258.41 166.535 258.41 167.61C258.41 168.685 258.635 169.534 259.086 170.158C259.554 170.782 260.178 171.094 260.958 171.094ZM272.476 181.156C271.21 181.156 270.188 180.705 269.408 179.804C268.645 178.885 268.264 177.681 268.264 176.19C268.264 174.699 268.645 173.503 269.408 172.602C270.188 171.683 271.21 171.224 272.476 171.224C273.741 171.224 274.764 171.683 275.544 172.602C276.324 173.521 276.714 174.717 276.714 176.19C276.714 177.663 276.324 178.859 275.544 179.778C274.764 180.697 273.741 181.156 272.476 181.156ZM272.476 179.674C273.256 179.674 273.871 179.362 274.322 178.738C274.79 178.114 275.024 177.265 275.024 176.19C275.024 175.115 274.79 174.266 274.322 173.642C273.871 173.018 273.256 172.706 272.476 172.706C271.678 172.706 271.054 173.018 270.604 173.642C270.153 174.249 269.928 175.098 269.928 176.19C269.928 177.282 270.153 178.14 270.604 178.764C271.054 179.371 271.678 179.674 272.476 179.674Z" fill="white"/>
<rect x="353" y="160" width="150" height="160" fill="#8D295B"/>
<path d="M416.759 228.528H413.301V233H410.779V228.528H400.665V226.708L409.973 214.8H412.781L403.863 226.292H410.857V222.34H413.301V226.292H416.759V228.528ZM425.753 233.208C424.315 233.208 423.032 232.844 421.905 232.116C420.796 231.371 419.921 230.296 419.279 228.892C418.638 227.488 418.317 225.824 418.317 223.9C418.317 221.976 418.638 220.312 419.279 218.908C419.921 217.504 420.796 216.438 421.905 215.71C423.032 214.965 424.315 214.592 425.753 214.592C427.175 214.592 428.44 214.965 429.549 215.71C430.676 216.438 431.56 217.504 432.201 218.908C432.843 220.312 433.163 221.976 433.163 223.9C433.163 225.824 432.843 227.488 432.201 228.892C431.56 230.296 430.676 231.371 429.549 232.116C428.44 232.844 427.175 233.208 425.753 233.208ZM425.753 230.894C427.209 230.894 428.371 230.296 429.237 229.1C430.121 227.904 430.563 226.171 430.563 223.9C430.563 221.629 430.121 219.896 429.237 218.7C428.371 217.504 427.209 216.906 425.753 216.906C424.28 216.906 423.101 217.504 422.217 218.7C421.351 219.896 420.917 221.629 420.917 223.9C420.917 226.171 421.351 227.904 422.217 229.1C423.101 230.296 424.28 230.894 425.753 230.894ZM439.611 224.576C438.346 224.576 437.323 224.117 436.543 223.198C435.763 222.279 435.373 221.083 435.373 219.61C435.373 218.137 435.763 216.941 436.543 216.022C437.323 215.103 438.346 214.644 439.611 214.644C440.876 214.644 441.89 215.103 442.653 216.022C443.433 216.923 443.823 218.119 443.823 219.61C443.823 221.101 443.433 222.305 442.653 223.224C441.89 224.125 440.876 224.576 439.611 224.576ZM450.583 214.8H452.585L440.157 233H438.155L450.583 214.8ZM439.611 223.094C440.408 223.094 441.032 222.791 441.483 222.184C441.934 221.56 442.159 220.702 442.159 219.61C442.159 218.518 441.934 217.669 441.483 217.062C441.032 216.438 440.408 216.126 439.611 216.126C438.831 216.126 438.207 216.438 437.739 217.062C437.288 217.686 437.063 218.535 437.063 219.61C437.063 220.685 437.288 221.534 437.739 222.158C438.207 222.782 438.831 223.094 439.611 223.094ZM451.129 233.156C449.864 233.156 448.841 232.705 448.061 231.804C447.298 230.885 446.917 229.681 446.917 228.19C446.917 226.699 447.298 225.503 448.061 224.602C448.841 223.683 449.864 223.224 451.129 223.224C452.394 223.224 453.417 223.683 454.197 224.602C454.977 225.521 455.367 226.717 455.367 228.19C455.367 229.663 454.977 230.859 454.197 231.778C453.417 232.697 452.394 233.156 451.129 233.156ZM451.129 231.674C451.909 231.674 452.524 231.362 452.975 230.738C453.443 230.114 453.677 229.265 453.677 228.19C453.677 227.115 453.443 226.266 452.975 225.642C452.524 225.018 451.909 224.706 451.129 224.706C450.332 224.706 449.708 225.018 449.257 225.642C448.806 226.249 448.581 227.098 448.581 228.19C448.581 229.282 448.806 230.14 449.257 230.764C449.708 231.371 450.332 231.674 451.129 231.674Z" fill="white"/>
<rect x="530" y="188" width="150" height="132" fill="#8D295B"/>
<path d="M587.571 254.444C589.357 254.617 590.717 255.172 591.653 256.108C592.589 257.027 593.057 258.205 593.057 259.644C593.057 260.684 592.797 261.629 592.277 262.478C591.757 263.31 590.977 263.977 589.937 264.48C588.915 264.965 587.658 265.208 586.167 265.208C584.867 265.208 583.619 265.017 582.423 264.636C581.227 264.237 580.248 263.691 579.485 262.998L580.681 260.944C581.305 261.533 582.103 262.01 583.073 262.374C584.044 262.721 585.075 262.894 586.167 262.894C587.519 262.894 588.568 262.608 589.313 262.036C590.076 261.464 590.457 260.675 590.457 259.67C590.457 258.665 590.085 257.885 589.339 257.33C588.594 256.775 587.467 256.498 585.959 256.498H584.503V254.678L589.079 249.062H580.317V246.8H592.329V248.568L587.571 254.444ZM602.323 254.444C604.109 254.617 605.469 255.172 606.405 256.108C607.341 257.027 607.809 258.205 607.809 259.644C607.809 260.684 607.549 261.629 607.029 262.478C606.509 263.31 605.729 263.977 604.689 264.48C603.667 264.965 602.41 265.208 600.919 265.208C599.619 265.208 598.371 265.017 597.175 264.636C595.979 264.237 595 263.691 594.237 262.998L595.433 260.944C596.057 261.533 596.855 262.01 597.825 262.374C598.796 262.721 599.827 262.894 600.919 262.894C602.271 262.894 603.32 262.608 604.065 262.036C604.828 261.464 605.209 260.675 605.209 259.67C605.209 258.665 604.837 257.885 604.091 257.33C603.346 256.775 602.219 256.498 600.711 256.498H599.255V254.678L603.831 249.062H595.069V246.8H607.081V248.568L602.323 254.444ZM613.932 256.576C612.667 256.576 611.644 256.117 610.864 255.198C610.084 254.279 609.694 253.083 609.694 251.61C609.694 250.137 610.084 248.941 610.864 248.022C611.644 247.103 612.667 246.644 613.932 246.644C615.198 246.644 616.212 247.103 616.974 248.022C617.754 248.923 618.144 250.119 618.144 251.61C618.144 253.101 617.754 254.305 616.974 255.224C616.212 256.125 615.198 256.576 613.932 256.576ZM624.904 246.8H626.906L614.478 265H612.476L624.904 246.8ZM613.932 255.094C614.73 255.094 615.354 254.791 615.804 254.184C616.255 253.56 616.48 252.702 616.48 251.61C616.48 250.518 616.255 249.669 615.804 249.062C615.354 248.438 614.73 248.126 613.932 248.126C613.152 248.126 612.528 248.438 612.06 249.062C611.61 249.686 611.384 250.535 611.384 251.61C611.384 252.685 611.61 253.534 612.06 254.158C612.528 254.782 613.152 255.094 613.932 255.094ZM625.45 265.156C624.185 265.156 623.162 264.705 622.382 263.804C621.62 262.885 621.238 261.681 621.238 260.19C621.238 258.699 621.62 257.503 622.382 256.602C623.162 255.683 624.185 255.224 625.45 255.224C626.716 255.224 627.738 255.683 628.518 256.602C629.298 257.521 629.688 258.717 629.688 260.19C629.688 261.663 629.298 262.859 628.518 263.778C627.738 264.697 626.716 265.156 625.45 265.156ZM625.45 263.674C626.23 263.674 626.846 263.362 627.296 262.738C627.764 262.114 627.998 261.265 627.998 260.19C627.998 259.115 627.764 258.266 627.296 257.642C626.846 257.018 626.23 256.706 625.45 256.706C624.653 256.706 624.029 257.018 623.578 257.642C623.128 258.249 622.902 259.098 622.902 260.19C622.902 261.282 623.128 262.14 623.578 262.764C624.029 263.371 624.653 263.674 625.45 263.674Z" fill="white"/>
<path d="M23.79 370.48C24.6167 370.48 25.3033 370.32 25.85 370C26.3967 369.68 26.83 369.267 27.15 368.76C27.4833 368.24 27.7167 367.653 27.85 367C27.9833 366.333 28.05 365.66 28.05 364.98V357.8H29.85V364.98C29.85 365.94 29.7367 366.853 29.51 367.72C29.2967 368.573 28.95 369.327 28.47 369.98C27.99 370.633 27.3633 371.153 26.59 371.54C25.83 371.913 24.9033 372.1 23.81 372.1C22.6767 372.1 21.7233 371.9 20.95 371.5C20.1767 371.1 19.55 370.573 19.07 369.92C18.6033 369.253 18.2633 368.493 18.05 367.64C17.85 366.773 17.75 365.887 17.75 364.98V357.8H19.55V364.98C19.55 365.687 19.6167 366.373 19.75 367.04C19.8967 367.693 20.13 368.273 20.45 368.78C20.7833 369.287 21.2167 369.7 21.75 370.02C22.2967 370.327 22.9767 370.48 23.79 370.48ZM38.2314 372.2C37.3647 372.2 36.5981 371.987 35.9314 371.56C35.2781 371.133 34.7581 370.593 34.3714 369.94V376.26H32.6114V361.56H34.1714V363.52C34.5847 362.88 35.1181 362.367 35.7714 361.98C36.4381 361.58 37.1714 361.38 37.9714 361.38C38.6914 361.38 39.3514 361.527 39.9514 361.82C40.5514 362.113 41.0714 362.513 41.5114 363.02C41.9514 363.513 42.2914 364.087 42.5314 364.74C42.7847 365.393 42.9114 366.073 42.9114 366.78C42.9114 367.527 42.7981 368.233 42.5714 368.9C42.3447 369.553 42.0247 370.127 41.6114 370.62C41.1981 371.1 40.7047 371.487 40.1314 371.78C39.5581 372.06 38.9247 372.2 38.2314 372.2ZM37.6914 370.68C38.2114 370.68 38.6781 370.573 39.0914 370.36C39.5181 370.133 39.8781 369.84 40.1714 369.48C40.4781 369.107 40.7114 368.687 40.8714 368.22C41.0314 367.753 41.1114 367.273 41.1114 366.78C41.1114 366.26 41.0181 365.767 40.8314 365.3C40.6447 364.82 40.3914 364.407 40.0714 364.06C39.7514 363.7 39.3714 363.42 38.9314 363.22C38.5047 363.007 38.0381 362.9 37.5314 362.9C37.2114 362.9 36.8781 362.967 36.5314 363.1C36.1981 363.22 35.8781 363.387 35.5714 363.6C35.2781 363.8 35.0181 364.047 34.7914 364.34C34.5781 364.62 34.4381 364.92 34.3714 365.24V368.22C34.5181 368.567 34.7047 368.893 34.9314 369.2C35.1581 369.493 35.4181 369.753 35.7114 369.98C36.0047 370.193 36.3181 370.367 36.6514 370.5C36.9847 370.62 37.3314 370.68 37.6914 370.68ZM45.1123 357.4H46.8723V369.3C46.8723 369.687 46.9723 369.993 47.1723 370.22C47.3857 370.433 47.679 370.54 48.0523 370.54C48.199 370.54 48.3723 370.52 48.5723 370.48C48.7723 370.427 48.959 370.367 49.1323 370.3L49.4123 371.72C49.119 371.84 48.7723 371.94 48.3723 372.02C47.9723 372.1 47.619 372.14 47.3123 372.14C46.6323 372.14 46.0923 371.947 45.6923 371.56C45.3057 371.173 45.1123 370.633 45.1123 369.94V357.4ZM55.355 372.2C54.5683 372.2 53.8483 372.053 53.195 371.76C52.555 371.467 52.0017 371.073 51.535 370.58C51.0817 370.087 50.7283 369.513 50.475 368.86C50.2217 368.207 50.095 367.52 50.095 366.8C50.095 366.067 50.2217 365.373 50.475 364.72C50.7417 364.067 51.1017 363.493 51.555 363C52.0217 362.507 52.575 362.113 53.215 361.82C53.8683 361.527 54.5817 361.38 55.355 361.38C56.1283 361.38 56.8417 361.527 57.495 361.82C58.1483 362.113 58.7017 362.507 59.155 363C59.6217 363.493 59.9817 364.067 60.235 364.72C60.5017 365.373 60.635 366.067 60.635 366.8C60.635 367.52 60.5083 368.207 60.255 368.86C60.0017 369.513 59.6417 370.087 59.175 370.58C58.7083 371.073 58.1483 371.467 57.495 371.76C56.855 372.053 56.1417 372.2 55.355 372.2ZM51.895 366.82C51.895 367.367 51.9817 367.873 52.155 368.34C52.3417 368.807 52.5883 369.213 52.895 369.56C53.215 369.907 53.5817 370.18 53.995 370.38C54.4217 370.58 54.875 370.68 55.355 370.68C55.835 370.68 56.2817 370.58 56.695 370.38C57.1217 370.18 57.495 369.907 57.815 369.56C58.135 369.2 58.3817 368.787 58.555 368.32C58.7417 367.84 58.835 367.327 58.835 366.78C58.835 366.247 58.7417 365.747 58.555 365.28C58.3817 364.8 58.135 364.387 57.815 364.04C57.495 363.68 57.1217 363.4 56.695 363.2C56.2817 363 55.835 362.9 55.355 362.9C54.875 362.9 54.4217 363.007 53.995 363.22C53.5817 363.42 53.215 363.7 52.895 364.06C52.5883 364.407 52.3417 364.82 52.155 365.3C51.9817 365.767 51.895 366.273 51.895 366.82ZM65.4477 372.2C64.9543 372.2 64.4943 372.12 64.0677 371.96C63.641 371.787 63.2677 371.553 62.9477 371.26C62.641 370.967 62.3943 370.627 62.2077 370.24C62.0343 369.84 61.9477 369.407 61.9477 368.94C61.9477 368.46 62.0543 368.027 62.2677 367.64C62.481 367.24 62.781 366.9 63.1677 366.62C63.5677 366.34 64.0343 366.12 64.5677 365.96C65.1143 365.8 65.7077 365.72 66.3477 365.72C66.8543 365.72 67.3677 365.767 67.8877 365.86C68.4077 365.953 68.8677 366.08 69.2677 366.24V365.4C69.2677 364.547 69.0277 363.88 68.5477 363.4C68.0677 362.907 67.3877 362.66 66.5077 362.66C65.4543 362.66 64.3477 363.067 63.1877 363.88L62.6077 362.74C63.9543 361.833 65.3077 361.38 66.6677 361.38C68.041 361.38 69.1077 361.747 69.8677 362.48C70.641 363.213 71.0277 364.247 71.0277 365.58V369.84C71.0277 370.253 71.2143 370.467 71.5877 370.48V372C71.401 372.027 71.2477 372.047 71.1277 372.06C71.0077 372.073 70.881 372.08 70.7477 372.08C70.401 372.08 70.121 371.98 69.9077 371.78C69.7077 371.567 69.5877 371.313 69.5477 371.02L69.5077 370.28C69.041 370.907 68.4477 371.387 67.7277 371.72C67.021 372.04 66.261 372.2 65.4477 372.2ZM65.9077 370.88C66.5343 370.88 67.1143 370.767 67.6477 370.54C68.1943 370.3 68.6077 369.987 68.8877 369.6C69.141 369.347 69.2677 369.087 69.2677 368.82V367.28C68.4143 366.947 67.5277 366.78 66.6077 366.78C65.7277 366.78 65.0077 366.967 64.4477 367.34C63.901 367.713 63.6277 368.2 63.6277 368.8C63.6277 369.093 63.681 369.367 63.7877 369.62C63.9077 369.873 64.0677 370.093 64.2677 370.28C64.481 370.467 64.7277 370.613 65.0077 370.72C65.2877 370.827 65.5877 370.88 65.9077 370.88ZM78.1419 372.2C77.4219 372.2 76.7552 372.053 76.1419 371.76C75.5285 371.467 75.0019 371.073 74.5619 370.58C74.1219 370.087 73.7752 369.513 73.5219 368.86C73.2819 368.207 73.1619 367.52 73.1619 366.8C73.1619 366.067 73.2752 365.373 73.5019 364.72C73.7419 364.053 74.0685 363.473 74.4819 362.98C74.9085 362.487 75.4085 362.1 75.9819 361.82C76.5685 361.527 77.2085 361.38 77.9019 361.38C78.7419 361.38 79.4885 361.6 80.1419 362.04C80.8085 362.48 81.3352 363.013 81.7219 363.64V357.4H83.4819V369.84C83.4819 370.253 83.6685 370.467 84.0419 370.48V372C83.8552 372.027 83.7019 372.047 83.5819 372.06C83.4752 372.073 83.3685 372.08 83.2619 372.08C82.9152 372.08 82.6085 371.967 82.3419 371.74C82.0885 371.5 81.9619 371.227 81.9619 370.92V370.04C81.5485 370.72 80.9952 371.253 80.3019 371.64C79.6219 372.013 78.9019 372.2 78.1419 372.2ZM78.5619 370.68C78.8819 370.68 79.2085 370.62 79.5419 370.5C79.8885 370.38 80.2085 370.213 80.5019 370C80.8085 369.787 81.0685 369.54 81.2819 369.26C81.5085 368.967 81.6552 368.66 81.7219 368.34V365.34C81.6019 365.007 81.4219 364.693 81.1819 364.4C80.9419 364.093 80.6685 363.833 80.3619 363.62C80.0685 363.393 79.7485 363.22 79.4019 363.1C79.0685 362.967 78.7352 362.9 78.4019 362.9C77.8819 362.9 77.4085 363.013 76.9819 363.24C76.5685 363.453 76.2085 363.747 75.9019 364.12C75.6085 364.48 75.3819 364.9 75.2219 365.38C75.0619 365.847 74.9819 366.327 74.9819 366.82C74.9819 367.34 75.0752 367.84 75.2619 368.32C75.4485 368.787 75.7019 369.193 76.0219 369.54C76.3419 369.887 76.7152 370.167 77.1419 370.38C77.5819 370.58 78.0552 370.68 78.5619 370.68ZM91.7586 372V357.8H101.139V359.4H93.5586V364.14H99.9386V365.64H93.5586V372H91.7586ZM103.139 372V361.56H104.899V372H103.139ZM103.139 359.6V357.4H104.899V359.6H103.139ZM107.788 357.4H109.548V369.3C109.548 369.687 109.648 369.993 109.848 370.22C110.061 370.433 110.355 370.54 110.728 370.54C110.875 370.54 111.048 370.52 111.248 370.48C111.448 370.427 111.635 370.367 111.808 370.3L112.088 371.72C111.795 371.84 111.448 371.94 111.048 372.02C110.648 372.1 110.295 372.14 109.988 372.14C109.308 372.14 108.768 371.947 108.368 371.56C107.981 371.173 107.788 370.633 107.788 369.94V357.4ZM118.091 372.2C117.304 372.2 116.584 372.06 115.931 371.78C115.277 371.487 114.717 371.093 114.251 370.6C113.784 370.107 113.417 369.533 113.151 368.88C112.897 368.213 112.771 367.513 112.771 366.78C112.771 366.047 112.897 365.353 113.151 364.7C113.417 364.047 113.784 363.473 114.251 362.98C114.731 362.487 115.297 362.1 115.951 361.82C116.604 361.527 117.324 361.38 118.111 361.38C118.897 361.38 119.611 361.527 120.251 361.82C120.904 362.113 121.457 362.507 121.911 363C122.364 363.48 122.711 364.047 122.951 364.7C123.204 365.34 123.331 366.007 123.331 366.7C123.331 366.847 123.324 366.98 123.311 367.1C123.311 367.22 123.304 367.313 123.291 367.38H114.631C114.671 367.9 114.791 368.373 114.991 368.8C115.191 369.227 115.451 369.593 115.771 369.9C116.091 370.207 116.451 370.447 116.851 370.62C117.264 370.793 117.697 370.88 118.151 370.88C118.471 370.88 118.784 370.84 119.091 370.76C119.397 370.667 119.684 370.547 119.951 370.4C120.217 370.253 120.451 370.073 120.651 369.86C120.864 369.647 121.024 369.407 121.131 369.14L122.651 369.56C122.477 369.947 122.237 370.3 121.931 370.62C121.637 370.94 121.291 371.22 120.891 371.46C120.504 371.687 120.071 371.867 119.591 372C119.111 372.133 118.611 372.2 118.091 372.2ZM121.671 366.08C121.631 365.587 121.504 365.133 121.291 364.72C121.091 364.293 120.831 363.933 120.511 363.64C120.204 363.347 119.844 363.12 119.431 362.96C119.017 362.787 118.577 362.7 118.111 362.7C117.644 362.7 117.204 362.787 116.791 362.96C116.377 363.12 116.011 363.353 115.691 363.66C115.384 363.953 115.131 364.307 114.931 364.72C114.744 365.133 114.631 365.587 114.591 366.08H121.671ZM128.947 372.2C128.107 372.2 127.281 372.073 126.467 371.82C125.654 371.553 124.954 371.173 124.367 370.68L125.127 369.5C125.741 369.967 126.354 370.32 126.967 370.56C127.581 370.787 128.227 370.9 128.907 370.9C129.667 370.9 130.267 370.753 130.707 370.46C131.161 370.153 131.387 369.727 131.387 369.18C131.387 368.927 131.327 368.713 131.207 368.54C131.087 368.353 130.907 368.193 130.667 368.06C130.427 367.927 130.121 367.807 129.747 367.7C129.374 367.593 128.941 367.48 128.447 367.36C127.821 367.2 127.281 367.047 126.827 366.9C126.374 366.753 126.001 366.58 125.707 366.38C125.414 366.18 125.201 365.94 125.067 365.66C124.934 365.38 124.867 365.033 124.867 364.62C124.867 364.1 124.967 363.64 125.167 363.24C125.381 362.827 125.667 362.487 126.027 362.22C126.387 361.94 126.807 361.733 127.287 361.6C127.781 361.453 128.307 361.38 128.867 361.38C129.654 361.38 130.387 361.507 131.067 361.76C131.747 362.013 132.321 362.347 132.787 362.76L131.987 363.82C131.547 363.433 131.054 363.147 130.507 362.96C129.961 362.76 129.401 362.66 128.827 362.66C128.187 362.66 127.641 362.8 127.187 363.08C126.747 363.347 126.527 363.78 126.527 364.38C126.527 364.62 126.567 364.82 126.647 364.98C126.741 365.14 126.887 365.28 127.087 365.4C127.287 365.52 127.541 365.627 127.847 365.72C128.167 365.813 128.547 365.913 128.987 366.02C129.681 366.18 130.281 366.347 130.787 366.52C131.307 366.68 131.734 366.873 132.067 367.1C132.414 367.327 132.667 367.593 132.827 367.9C133.001 368.207 133.087 368.58 133.087 369.02C133.087 369.993 132.714 370.767 131.967 371.34C131.221 371.913 130.214 372.2 128.947 372.2Z" fill="black"/>
<path d="M217.761 357.1C216.761 357.1 215.847 356.9 215.021 356.5C214.207 356.087 213.507 355.547 212.921 354.88C212.334 354.2 211.881 353.427 211.561 352.56C211.241 351.693 211.081 350.807 211.081 349.9C211.081 348.953 211.247 348.047 211.581 347.18C211.927 346.313 212.401 345.547 213.001 344.88C213.601 344.213 214.307 343.687 215.121 343.3C215.947 342.9 216.841 342.7 217.801 342.7C218.801 342.7 219.707 342.913 220.521 343.34C221.334 343.753 222.034 344.3 222.621 344.98C223.207 345.66 223.661 346.433 223.981 347.3C224.301 348.153 224.461 349.027 224.461 349.92C224.461 350.867 224.287 351.773 223.941 352.64C223.607 353.507 223.141 354.273 222.541 354.94C221.954 355.593 221.247 356.12 220.421 356.52C219.607 356.907 218.721 357.1 217.761 357.1ZM212.901 349.9C212.901 350.62 213.014 351.32 213.241 352C213.481 352.667 213.814 353.26 214.241 353.78C214.667 354.3 215.181 354.713 215.781 355.02C216.381 355.327 217.047 355.48 217.781 355.48C218.541 355.48 219.221 355.32 219.821 355C220.421 354.667 220.927 354.24 221.341 353.72C221.767 353.187 222.087 352.587 222.301 351.92C222.527 351.253 222.641 350.58 222.641 349.9C222.641 349.18 222.521 348.487 222.281 347.82C222.054 347.14 221.721 346.547 221.281 346.04C220.854 345.52 220.341 345.107 219.741 344.8C219.154 344.493 218.501 344.34 217.781 344.34C217.021 344.34 216.341 344.5 215.741 344.82C215.141 345.14 214.627 345.56 214.201 346.08C213.787 346.6 213.467 347.193 213.241 347.86C213.014 348.527 212.901 349.207 212.901 349.9ZM232.104 348.1C231.224 348.127 230.444 348.353 229.764 348.78C229.097 349.207 228.624 349.8 228.344 350.56V357H226.584V346.56H228.224V348.98C228.584 348.26 229.057 347.68 229.644 347.24C230.231 346.787 230.857 346.533 231.524 346.48C231.657 346.48 231.771 346.48 231.864 346.48C231.957 346.48 232.037 346.487 232.104 346.5V348.1ZM237.834 357.12C237.127 357.12 236.474 356.973 235.874 356.68C235.287 356.387 234.781 355.993 234.354 355.5C233.927 355.007 233.594 354.44 233.354 353.8C233.127 353.16 233.014 352.493 233.014 351.8C233.014 351.067 233.127 350.373 233.354 349.72C233.594 349.053 233.927 348.473 234.354 347.98C234.781 347.487 235.287 347.1 235.874 346.82C236.474 346.527 237.134 346.38 237.854 346.38C238.734 346.38 239.494 346.593 240.134 347.02C240.774 347.447 241.314 347.987 241.754 348.64V346.56H243.314V356.88C243.314 357.627 243.174 358.28 242.894 358.84C242.614 359.413 242.234 359.893 241.754 360.28C241.274 360.667 240.707 360.96 240.054 361.16C239.414 361.36 238.727 361.46 237.994 361.46C236.807 361.46 235.841 361.253 235.094 360.84C234.361 360.44 233.747 359.88 233.254 359.16L234.274 358.26C234.687 358.873 235.221 359.333 235.874 359.64C236.527 359.947 237.234 360.1 237.994 360.1C238.474 360.1 238.927 360.033 239.354 359.9C239.794 359.767 240.174 359.567 240.494 359.3C240.814 359.033 241.067 358.7 241.254 358.3C241.454 357.9 241.554 357.427 241.554 356.88V355.04C241.354 355.36 241.114 355.653 240.834 355.92C240.567 356.173 240.274 356.393 239.954 356.58C239.634 356.753 239.294 356.887 238.934 356.98C238.574 357.073 238.207 357.12 237.834 357.12ZM238.374 355.68C238.747 355.68 239.107 355.613 239.454 355.48C239.801 355.347 240.121 355.173 240.414 354.96C240.707 354.733 240.954 354.48 241.154 354.2C241.354 353.92 241.487 353.633 241.554 353.34V350.34C241.407 349.98 241.214 349.653 240.974 349.36C240.747 349.067 240.487 348.813 240.194 348.6C239.901 348.373 239.581 348.2 239.234 348.08C238.901 347.96 238.561 347.9 238.214 347.9C237.681 347.9 237.201 348.013 236.774 348.24C236.361 348.467 236.007 348.767 235.714 349.14C235.421 349.513 235.194 349.94 235.034 350.42C234.874 350.887 234.794 351.36 234.794 351.84C234.794 352.36 234.887 352.853 235.074 353.32C235.261 353.787 235.514 354.193 235.834 354.54C236.154 354.887 236.527 355.167 236.954 355.38C237.394 355.58 237.867 355.68 238.374 355.68ZM248.834 357.2C248.341 357.2 247.881 357.12 247.454 356.96C247.028 356.787 246.654 356.553 246.334 356.26C246.028 355.967 245.781 355.627 245.594 355.24C245.421 354.84 245.334 354.407 245.334 353.94C245.334 353.46 245.441 353.027 245.654 352.64C245.868 352.24 246.168 351.9 246.554 351.62C246.954 351.34 247.421 351.12 247.954 350.96C248.501 350.8 249.094 350.72 249.734 350.72C250.241 350.72 250.754 350.767 251.274 350.86C251.794 350.953 252.254 351.08 252.654 351.24V350.4C252.654 349.547 252.414 348.88 251.934 348.4C251.454 347.907 250.774 347.66 249.894 347.66C248.841 347.66 247.734 348.067 246.574 348.88L245.994 347.74C247.341 346.833 248.694 346.38 250.054 346.38C251.428 346.38 252.494 346.747 253.254 347.48C254.028 348.213 254.414 349.247 254.414 350.58V354.84C254.414 355.253 254.601 355.467 254.974 355.48V357C254.788 357.027 254.634 357.047 254.514 357.06C254.394 357.073 254.268 357.08 254.134 357.08C253.788 357.08 253.508 356.98 253.294 356.78C253.094 356.567 252.974 356.313 252.934 356.02L252.894 355.28C252.428 355.907 251.834 356.387 251.114 356.72C250.408 357.04 249.648 357.2 248.834 357.2ZM249.294 355.88C249.921 355.88 250.501 355.767 251.034 355.54C251.581 355.3 251.994 354.987 252.274 354.6C252.528 354.347 252.654 354.087 252.654 353.82V352.28C251.801 351.947 250.914 351.78 249.994 351.78C249.114 351.78 248.394 351.967 247.834 352.34C247.288 352.713 247.014 353.2 247.014 353.8C247.014 354.093 247.068 354.367 247.174 354.62C247.294 354.873 247.454 355.093 247.654 355.28C247.868 355.467 248.114 355.613 248.394 355.72C248.674 355.827 248.974 355.88 249.294 355.88ZM266.289 357H264.529V351.16C264.529 350.04 264.355 349.227 264.009 348.72C263.675 348.213 263.162 347.96 262.469 347.96C262.109 347.96 261.749 348.033 261.389 348.18C261.029 348.313 260.689 348.5 260.369 348.74C260.049 348.98 259.769 349.267 259.529 349.6C259.289 349.933 259.109 350.3 258.989 350.7V357H257.229V346.56H258.829V348.8C259.242 348.067 259.835 347.48 260.609 347.04C261.395 346.6 262.249 346.38 263.169 346.38C263.769 346.38 264.269 346.493 264.669 346.72C265.069 346.933 265.389 347.24 265.629 347.64C265.869 348.027 266.035 348.487 266.129 349.02C266.235 349.553 266.289 350.133 266.289 350.76V357ZM269.025 357V346.56H270.785V357H269.025ZM269.025 344.6V342.4H270.785V344.6H269.025ZM272.815 355.86L279.495 347.84H272.995V346.56H281.375V347.7L274.735 355.72H281.395V357H272.815V355.86ZM287.923 357.2C287.136 357.2 286.416 357.06 285.763 356.78C285.109 356.487 284.549 356.093 284.083 355.6C283.616 355.107 283.249 354.533 282.983 353.88C282.729 353.213 282.603 352.513 282.603 351.78C282.603 351.047 282.729 350.353 282.983 349.7C283.249 349.047 283.616 348.473 284.083 347.98C284.563 347.487 285.129 347.1 285.783 346.82C286.436 346.527 287.156 346.38 287.943 346.38C288.729 346.38 289.443 346.527 290.083 346.82C290.736 347.113 291.289 347.507 291.743 348C292.196 348.48 292.543 349.047 292.783 349.7C293.036 350.34 293.163 351.007 293.163 351.7C293.163 351.847 293.156 351.98 293.143 352.1C293.143 352.22 293.136 352.313 293.123 352.38H284.463C284.503 352.9 284.623 353.373 284.823 353.8C285.023 354.227 285.283 354.593 285.603 354.9C285.923 355.207 286.283 355.447 286.683 355.62C287.096 355.793 287.529 355.88 287.983 355.88C288.303 355.88 288.616 355.84 288.923 355.76C289.229 355.667 289.516 355.547 289.783 355.4C290.049 355.253 290.283 355.073 290.483 354.86C290.696 354.647 290.856 354.407 290.963 354.14L292.483 354.56C292.309 354.947 292.069 355.3 291.763 355.62C291.469 355.94 291.123 356.22 290.723 356.46C290.336 356.687 289.903 356.867 289.423 357C288.943 357.133 288.443 357.2 287.923 357.2ZM291.503 351.08C291.463 350.587 291.336 350.133 291.123 349.72C290.923 349.293 290.663 348.933 290.343 348.64C290.036 348.347 289.676 348.12 289.263 347.96C288.849 347.787 288.409 347.7 287.943 347.7C287.476 347.7 287.036 347.787 286.623 347.96C286.209 348.12 285.843 348.353 285.523 348.66C285.216 348.953 284.963 349.307 284.763 349.72C284.576 350.133 284.463 350.587 284.423 351.08H291.503ZM215.407 379.8C215.407 378.947 215.554 378.1 215.847 377.26C216.154 376.407 216.594 375.647 217.167 374.98C217.754 374.3 218.467 373.753 219.307 373.34C220.147 372.927 221.1 372.72 222.167 372.72C223.434 372.72 224.52 373.007 225.427 373.58C226.334 374.153 227.007 374.9 227.447 375.82L226.027 376.74C225.814 376.287 225.554 375.907 225.247 375.6C224.954 375.293 224.627 375.047 224.267 374.86C223.92 374.673 223.56 374.54 223.187 374.46C222.814 374.38 222.447 374.34 222.087 374.34C221.3 374.34 220.6 374.507 219.987 374.84C219.387 375.16 218.88 375.587 218.467 376.12C218.054 376.64 217.74 377.233 217.527 377.9C217.327 378.553 217.227 379.213 217.227 379.88C217.227 380.627 217.347 381.34 217.587 382.02C217.84 382.687 218.187 383.28 218.627 383.8C219.067 384.32 219.587 384.733 220.187 385.04C220.787 385.347 221.44 385.5 222.147 385.5C222.52 385.5 222.9 385.453 223.287 385.36C223.687 385.267 224.067 385.12 224.427 384.92C224.787 384.707 225.12 384.447 225.427 384.14C225.747 383.82 226.007 383.44 226.207 383L227.707 383.82C227.48 384.353 227.16 384.827 226.747 385.24C226.347 385.64 225.887 385.98 225.367 386.26C224.86 386.54 224.32 386.753 223.747 386.9C223.174 387.047 222.614 387.12 222.067 387.12C221.094 387.12 220.2 386.907 219.387 386.48C218.574 386.053 217.867 385.5 217.267 384.82C216.68 384.127 216.22 383.347 215.887 382.48C215.567 381.6 215.407 380.707 215.407 379.8ZM234.24 387.2C233.453 387.2 232.733 387.053 232.08 386.76C231.44 386.467 230.886 386.073 230.42 385.58C229.966 385.087 229.613 384.513 229.36 383.86C229.106 383.207 228.98 382.52 228.98 381.8C228.98 381.067 229.106 380.373 229.36 379.72C229.626 379.067 229.986 378.493 230.44 378C230.906 377.507 231.46 377.113 232.1 376.82C232.753 376.527 233.466 376.38 234.24 376.38C235.013 376.38 235.726 376.527 236.38 376.82C237.033 377.113 237.586 377.507 238.04 378C238.506 378.493 238.866 379.067 239.12 379.72C239.386 380.373 239.52 381.067 239.52 381.8C239.52 382.52 239.393 383.207 239.14 383.86C238.886 384.513 238.526 385.087 238.06 385.58C237.593 386.073 237.033 386.467 236.38 386.76C235.74 387.053 235.026 387.2 234.24 387.2ZM230.78 381.82C230.78 382.367 230.866 382.873 231.04 383.34C231.226 383.807 231.473 384.213 231.78 384.56C232.1 384.907 232.466 385.18 232.88 385.38C233.306 385.58 233.76 385.68 234.24 385.68C234.72 385.68 235.166 385.58 235.58 385.38C236.006 385.18 236.38 384.907 236.7 384.56C237.02 384.2 237.266 383.787 237.44 383.32C237.626 382.84 237.72 382.327 237.72 381.78C237.72 381.247 237.626 380.747 237.44 380.28C237.266 379.8 237.02 379.387 236.7 379.04C236.38 378.68 236.006 378.4 235.58 378.2C235.166 378 234.72 377.9 234.24 377.9C233.76 377.9 233.306 378.007 232.88 378.22C232.466 378.42 232.1 378.7 231.78 379.06C231.473 379.407 231.226 379.82 231.04 380.3C230.866 380.767 230.78 381.273 230.78 381.82ZM250.712 387H248.952V381.16C248.952 380.04 248.779 379.227 248.432 378.72C248.099 378.213 247.586 377.96 246.892 377.96C246.532 377.96 246.172 378.033 245.812 378.18C245.452 378.313 245.112 378.5 244.792 378.74C244.472 378.98 244.192 379.267 243.952 379.6C243.712 379.933 243.532 380.3 243.412 380.7V387H241.652V376.56H243.252V378.8C243.666 378.067 244.259 377.48 245.032 377.04C245.819 376.6 246.672 376.38 247.592 376.38C248.192 376.38 248.692 376.493 249.092 376.72C249.492 376.933 249.812 377.24 250.052 377.64C250.292 378.027 250.459 378.487 250.552 379.02C250.659 379.553 250.712 380.133 250.712 380.76V387ZM258.752 386.48C258.645 386.533 258.505 386.6 258.332 386.68C258.158 386.747 257.958 386.82 257.732 386.9C257.518 386.967 257.278 387.02 257.012 387.06C256.758 387.113 256.492 387.14 256.212 387.14C255.572 387.14 255.018 386.967 254.552 386.62C254.085 386.26 253.852 385.707 253.852 384.96V377.94H252.432V376.56H253.852V373.08H255.612V376.56H257.952V377.94H255.612V384.42C255.638 384.807 255.765 385.087 255.992 385.26C256.218 385.433 256.485 385.52 256.792 385.52C257.138 385.52 257.452 385.467 257.732 385.36C258.025 385.24 258.225 385.147 258.332 385.08L258.752 386.48ZM264.866 387.2C264.08 387.2 263.36 387.06 262.706 386.78C262.053 386.487 261.493 386.093 261.026 385.6C260.56 385.107 260.193 384.533 259.926 383.88C259.673 383.213 259.546 382.513 259.546 381.78C259.546 381.047 259.673 380.353 259.926 379.7C260.193 379.047 260.56 378.473 261.026 377.98C261.506 377.487 262.073 377.1 262.726 376.82C263.38 376.527 264.1 376.38 264.886 376.38C265.673 376.38 266.386 376.527 267.026 376.82C267.68 377.113 268.233 377.507 268.686 378C269.14 378.48 269.486 379.047 269.726 379.7C269.98 380.34 270.106 381.007 270.106 381.7C270.106 381.847 270.1 381.98 270.086 382.1C270.086 382.22 270.08 382.313 270.066 382.38H261.406C261.446 382.9 261.566 383.373 261.766 383.8C261.966 384.227 262.226 384.593 262.546 384.9C262.866 385.207 263.226 385.447 263.626 385.62C264.04 385.793 264.473 385.88 264.926 385.88C265.246 385.88 265.56 385.84 265.866 385.76C266.173 385.667 266.46 385.547 266.726 385.4C266.993 385.253 267.226 385.073 267.426 384.86C267.64 384.647 267.8 384.407 267.906 384.14L269.426 384.56C269.253 384.947 269.013 385.3 268.706 385.62C268.413 385.94 268.066 386.22 267.666 386.46C267.28 386.687 266.846 386.867 266.366 387C265.886 387.133 265.386 387.2 264.866 387.2ZM268.446 381.08C268.406 380.587 268.28 380.133 268.066 379.72C267.866 379.293 267.606 378.933 267.286 378.64C266.98 378.347 266.62 378.12 266.206 377.96C265.793 377.787 265.353 377.7 264.886 377.7C264.42 377.7 263.98 377.787 263.566 377.96C263.153 378.12 262.786 378.353 262.466 378.66C262.16 378.953 261.906 379.307 261.706 379.72C261.52 380.133 261.406 380.587 261.366 381.08H268.446ZM281.123 387H279.363V381.16C279.363 380.04 279.189 379.227 278.843 378.72C278.509 378.213 277.996 377.96 277.303 377.96C276.943 377.96 276.583 378.033 276.223 378.18C275.863 378.313 275.523 378.5 275.203 378.74C274.883 378.98 274.603 379.267 274.363 379.6C274.123 379.933 273.943 380.3 273.823 380.7V387H272.063V376.56H273.663V378.8C274.076 378.067 274.669 377.48 275.443 377.04C276.229 376.6 277.083 376.38 278.003 376.38C278.603 376.38 279.103 376.493 279.503 376.72C279.903 376.933 280.223 377.24 280.463 377.64C280.703 378.027 280.869 378.487 280.963 379.02C281.069 379.553 281.123 380.133 281.123 380.76V387ZM289.162 386.48C289.055 386.533 288.915 386.6 288.742 386.68C288.568 386.747 288.368 386.82 288.142 386.9C287.928 386.967 287.688 387.02 287.422 387.06C287.168 387.113 286.902 387.14 286.622 387.14C285.982 387.14 285.428 386.967 284.962 386.62C284.495 386.26 284.262 385.707 284.262 384.96V377.94H282.842V376.56H284.262V373.08H286.022V376.56H288.362V377.94H286.022V384.42C286.048 384.807 286.175 385.087 286.402 385.26C286.628 385.433 286.895 385.52 287.202 385.52C287.548 385.52 287.862 385.467 288.142 385.36C288.435 385.24 288.635 385.147 288.742 385.08L289.162 386.48Z" fill="black"/>
<path d="M388.558 360.78C388.398 360.593 388.184 360.413 387.918 360.24C387.651 360.067 387.351 359.913 387.018 359.78C386.684 359.633 386.318 359.52 385.918 359.44C385.531 359.347 385.124 359.3 384.698 359.3C383.591 359.3 382.778 359.507 382.258 359.92C381.751 360.333 381.498 360.9 381.498 361.62C381.498 362.007 381.571 362.327 381.718 362.58C381.864 362.833 382.091 363.053 382.398 363.24C382.718 363.413 383.111 363.567 383.578 363.7C384.044 363.833 384.598 363.973 385.238 364.12C385.971 364.28 386.631 364.467 387.218 364.68C387.818 364.88 388.324 365.133 388.738 365.44C389.164 365.747 389.484 366.12 389.698 366.56C389.924 367 390.038 367.54 390.038 368.18C390.038 368.86 389.904 369.453 389.638 369.96C389.371 370.453 389.004 370.867 388.538 371.2C388.084 371.52 387.544 371.76 386.918 371.92C386.291 372.067 385.611 372.14 384.878 372.14C383.784 372.14 382.744 371.973 381.758 371.64C380.784 371.293 379.898 370.793 379.098 370.14L379.958 368.62C380.171 368.847 380.444 369.073 380.778 369.3C381.124 369.527 381.511 369.733 381.938 369.92C382.378 370.093 382.844 370.24 383.338 370.36C383.844 370.467 384.371 370.52 384.918 370.52C385.931 370.52 386.718 370.34 387.278 369.98C387.838 369.62 388.118 369.08 388.118 368.36C388.118 367.96 388.024 367.627 387.838 367.36C387.664 367.08 387.404 366.84 387.058 366.64C386.711 366.44 386.278 366.267 385.758 366.12C385.251 365.96 384.671 365.8 384.018 365.64C383.298 365.467 382.664 365.28 382.118 365.08C381.571 364.88 381.111 364.64 380.738 364.36C380.378 364.08 380.104 363.74 379.918 363.34C379.731 362.94 379.638 362.46 379.638 361.9C379.638 361.22 379.764 360.62 380.018 360.1C380.271 359.58 380.624 359.14 381.078 358.78C381.531 358.42 382.071 358.153 382.698 357.98C383.324 357.793 384.004 357.7 384.738 357.7C385.698 357.7 386.564 357.847 387.338 358.14C388.111 358.433 388.798 358.827 389.398 359.32L388.558 360.78ZM394.805 372.2C394.312 372.2 393.852 372.12 393.425 371.96C392.998 371.787 392.625 371.553 392.305 371.26C391.998 370.967 391.752 370.627 391.565 370.24C391.392 369.84 391.305 369.407 391.305 368.94C391.305 368.46 391.412 368.027 391.625 367.64C391.838 367.24 392.138 366.9 392.525 366.62C392.925 366.34 393.392 366.12 393.925 365.96C394.472 365.8 395.065 365.72 395.705 365.72C396.212 365.72 396.725 365.767 397.245 365.86C397.765 365.953 398.225 366.08 398.625 366.24V365.4C398.625 364.547 398.385 363.88 397.905 363.4C397.425 362.907 396.745 362.66 395.865 362.66C394.812 362.66 393.705 363.067 392.545 363.88L391.965 362.74C393.312 361.833 394.665 361.38 396.025 361.38C397.398 361.38 398.465 361.747 399.225 362.48C399.998 363.213 400.385 364.247 400.385 365.58V369.84C400.385 370.253 400.572 370.467 400.945 370.48V372C400.758 372.027 400.605 372.047 400.485 372.06C400.365 372.073 400.238 372.08 400.105 372.08C399.758 372.08 399.478 371.98 399.265 371.78C399.065 371.567 398.945 371.313 398.905 371.02L398.865 370.28C398.398 370.907 397.805 371.387 397.085 371.72C396.378 372.04 395.618 372.2 394.805 372.2ZM395.265 370.88C395.892 370.88 396.472 370.767 397.005 370.54C397.552 370.3 397.965 369.987 398.245 369.6C398.498 369.347 398.625 369.087 398.625 368.82V367.28C397.772 366.947 396.885 366.78 395.965 366.78C395.085 366.78 394.365 366.967 393.805 367.34C393.258 367.713 392.985 368.2 392.985 368.8C392.985 369.093 393.038 369.367 393.145 369.62C393.265 369.873 393.425 370.093 393.625 370.28C393.838 370.467 394.085 370.613 394.365 370.72C394.645 370.827 394.945 370.88 395.265 370.88ZM405.887 372L401.767 361.56H403.587L406.887 370.46L410.207 361.56H411.887L407.767 372H405.887ZM417.897 372.2C417.111 372.2 416.391 372.06 415.737 371.78C415.084 371.487 414.524 371.093 414.057 370.6C413.591 370.107 413.224 369.533 412.957 368.88C412.704 368.213 412.577 367.513 412.577 366.78C412.577 366.047 412.704 365.353 412.957 364.7C413.224 364.047 413.591 363.473 414.057 362.98C414.537 362.487 415.104 362.1 415.757 361.82C416.411 361.527 417.131 361.38 417.917 361.38C418.704 361.38 419.417 361.527 420.057 361.82C420.711 362.113 421.264 362.507 421.717 363C422.171 363.48 422.517 364.047 422.757 364.7C423.011 365.34 423.137 366.007 423.137 366.7C423.137 366.847 423.131 366.98 423.117 367.1C423.117 367.22 423.111 367.313 423.097 367.38H414.437C414.477 367.9 414.597 368.373 414.797 368.8C414.997 369.227 415.257 369.593 415.577 369.9C415.897 370.207 416.257 370.447 416.657 370.62C417.071 370.793 417.504 370.88 417.957 370.88C418.277 370.88 418.591 370.84 418.897 370.76C419.204 370.667 419.491 370.547 419.757 370.4C420.024 370.253 420.257 370.073 420.457 369.86C420.671 369.647 420.831 369.407 420.937 369.14L422.457 369.56C422.284 369.947 422.044 370.3 421.737 370.62C421.444 370.94 421.097 371.22 420.697 371.46C420.311 371.687 419.877 371.867 419.397 372C418.917 372.133 418.417 372.2 417.897 372.2ZM421.477 366.08C421.437 365.587 421.311 365.133 421.097 364.72C420.897 364.293 420.637 363.933 420.317 363.64C420.011 363.347 419.651 363.12 419.237 362.96C418.824 362.787 418.384 362.7 417.917 362.7C417.451 362.7 417.011 362.787 416.597 362.96C416.184 363.12 415.817 363.353 415.497 363.66C415.191 363.953 414.937 364.307 414.737 364.72C414.551 365.133 414.437 365.587 414.397 366.08H421.477ZM430.432 372V357.8H432.232V370.4H440.152V372H430.432ZM441.832 372V361.56H443.592V372H441.832ZM441.832 359.6V357.4H443.592V359.6H441.832ZM455.501 372H453.741V366.16C453.741 365.04 453.568 364.227 453.221 363.72C452.888 363.213 452.375 362.96 451.681 362.96C451.321 362.96 450.961 363.033 450.601 363.18C450.241 363.313 449.901 363.5 449.581 363.74C449.261 363.98 448.981 364.267 448.741 364.6C448.501 364.933 448.321 365.3 448.201 365.7V372H446.441V361.56H448.041V363.8C448.455 363.067 449.048 362.48 449.821 362.04C450.608 361.6 451.461 361.38 452.381 361.38C452.981 361.38 453.481 361.493 453.881 361.72C454.281 361.933 454.601 362.24 454.841 362.64C455.081 363.027 455.248 363.487 455.341 364.02C455.448 364.553 455.501 365.133 455.501 365.76V372ZM465.598 372L461.998 366.9L459.998 368.78V372H458.238V357.4H459.998V367L465.358 361.58H467.298L463.138 365.9L467.498 372H465.598ZM472.68 372.2C471.84 372.2 471.013 372.073 470.2 371.82C469.386 371.553 468.686 371.173 468.1 370.68L468.86 369.5C469.473 369.967 470.086 370.32 470.7 370.56C471.313 370.787 471.96 370.9 472.64 370.9C473.4 370.9 474 370.753 474.44 370.46C474.893 370.153 475.12 369.727 475.12 369.18C475.12 368.927 475.06 368.713 474.94 368.54C474.82 368.353 474.64 368.193 474.4 368.06C474.16 367.927 473.853 367.807 473.48 367.7C473.106 367.593 472.673 367.48 472.18 367.36C471.553 367.2 471.013 367.047 470.56 366.9C470.106 366.753 469.733 366.58 469.44 366.38C469.146 366.18 468.933 365.94 468.8 365.66C468.666 365.38 468.6 365.033 468.6 364.62C468.6 364.1 468.7 363.64 468.9 363.24C469.113 362.827 469.4 362.487 469.76 362.22C470.12 361.94 470.54 361.733 471.02 361.6C471.513 361.453 472.04 361.38 472.6 361.38C473.386 361.38 474.12 361.507 474.8 361.76C475.48 362.013 476.053 362.347 476.52 362.76L475.72 363.82C475.28 363.433 474.786 363.147 474.24 362.96C473.693 362.76 473.133 362.66 472.56 362.66C471.92 362.66 471.373 362.8 470.92 363.08C470.48 363.347 470.26 363.78 470.26 364.38C470.26 364.62 470.3 364.82 470.38 364.98C470.473 365.14 470.62 365.28 470.82 365.4C471.02 365.52 471.273 365.627 471.58 365.72C471.9 365.813 472.28 365.913 472.72 366.02C473.413 366.18 474.013 366.347 474.52 366.52C475.04 366.68 475.466 366.873 475.8 367.1C476.146 367.327 476.4 367.593 476.56 367.9C476.733 368.207 476.82 368.58 476.82 369.02C476.82 369.993 476.446 370.767 475.7 371.34C474.953 371.913 473.946 372.2 472.68 372.2Z" fill="black"/>
<path d="M550.848 348.8C550.848 347.947 550.995 347.1 551.288 346.26C551.595 345.407 552.035 344.647 552.608 343.98C553.195 343.3 553.908 342.753 554.748 342.34C555.588 341.927 556.542 341.72 557.608 341.72C558.875 341.72 559.962 342.007 560.868 342.58C561.775 343.153 562.448 343.9 562.888 344.82L561.468 345.74C561.255 345.287 560.995 344.907 560.688 344.6C560.395 344.293 560.068 344.047 559.708 343.86C559.362 343.673 559.002 343.54 558.628 343.46C558.255 343.38 557.888 343.34 557.528 343.34C556.742 343.34 556.042 343.507 555.428 343.84C554.828 344.16 554.322 344.587 553.908 345.12C553.495 345.64 553.182 346.233 552.968 346.9C552.768 347.553 552.668 348.213 552.668 348.88C552.668 349.627 552.788 350.34 553.028 351.02C553.282 351.687 553.628 352.28 554.068 352.8C554.508 353.32 555.028 353.733 555.628 354.04C556.228 354.347 556.882 354.5 557.588 354.5C557.962 354.5 558.342 354.453 558.728 354.36C559.128 354.267 559.508 354.12 559.868 353.92C560.228 353.707 560.562 353.447 560.868 353.14C561.188 352.82 561.448 352.44 561.648 352L563.148 352.82C562.922 353.353 562.602 353.827 562.188 354.24C561.788 354.64 561.328 354.98 560.808 355.26C560.302 355.54 559.762 355.753 559.188 355.9C558.615 356.047 558.055 356.12 557.508 356.12C556.535 356.12 555.642 355.907 554.828 355.48C554.015 355.053 553.308 354.5 552.708 353.82C552.122 353.127 551.662 352.347 551.328 351.48C551.008 350.6 550.848 349.707 550.848 348.8ZM570.641 347.1C569.761 347.127 568.981 347.353 568.301 347.78C567.635 348.207 567.161 348.8 566.881 349.56V356H565.121V345.56H566.761V347.98C567.121 347.26 567.595 346.68 568.181 346.24C568.768 345.787 569.395 345.533 570.061 345.48C570.195 345.48 570.308 345.48 570.401 345.48C570.495 345.48 570.575 345.487 570.641 345.5V347.1ZM576.772 356.2C575.986 356.2 575.266 356.06 574.612 355.78C573.959 355.487 573.399 355.093 572.932 354.6C572.466 354.107 572.099 353.533 571.832 352.88C571.579 352.213 571.452 351.513 571.452 350.78C571.452 350.047 571.579 349.353 571.832 348.7C572.099 348.047 572.466 347.473 572.932 346.98C573.412 346.487 573.979 346.1 574.632 345.82C575.286 345.527 576.006 345.38 576.792 345.38C577.579 345.38 578.292 345.527 578.932 345.82C579.586 346.113 580.139 346.507 580.592 347C581.046 347.48 581.392 348.047 581.632 348.7C581.886 349.34 582.012 350.007 582.012 350.7C582.012 350.847 582.006 350.98 581.992 351.1C581.992 351.22 581.986 351.313 581.972 351.38H573.312C573.352 351.9 573.472 352.373 573.672 352.8C573.872 353.227 574.132 353.593 574.452 353.9C574.772 354.207 575.132 354.447 575.532 354.62C575.946 354.793 576.379 354.88 576.832 354.88C577.152 354.88 577.466 354.84 577.772 354.76C578.079 354.667 578.366 354.547 578.632 354.4C578.899 354.253 579.132 354.073 579.332 353.86C579.546 353.647 579.706 353.407 579.812 353.14L581.332 353.56C581.159 353.947 580.919 354.3 580.612 354.62C580.319 354.94 579.972 355.22 579.572 355.46C579.186 355.687 578.752 355.867 578.272 356C577.792 356.133 577.292 356.2 576.772 356.2ZM580.352 350.08C580.312 349.587 580.186 349.133 579.972 348.72C579.772 348.293 579.512 347.933 579.192 347.64C578.886 347.347 578.526 347.12 578.112 346.96C577.699 346.787 577.259 346.7 576.792 346.7C576.326 346.7 575.886 346.787 575.472 346.96C575.059 347.12 574.692 347.353 574.372 347.66C574.066 347.953 573.812 348.307 573.612 348.72C573.426 349.133 573.312 349.587 573.272 350.08H580.352ZM586.649 356.2C586.155 356.2 585.695 356.12 585.269 355.96C584.842 355.787 584.469 355.553 584.149 355.26C583.842 354.967 583.595 354.627 583.409 354.24C583.235 353.84 583.149 353.407 583.149 352.94C583.149 352.46 583.255 352.027 583.469 351.64C583.682 351.24 583.982 350.9 584.369 350.62C584.769 350.34 585.235 350.12 585.769 349.96C586.315 349.8 586.909 349.72 587.549 349.72C588.055 349.72 588.569 349.767 589.089 349.86C589.609 349.953 590.069 350.08 590.469 350.24V349.4C590.469 348.547 590.229 347.88 589.749 347.4C589.269 346.907 588.589 346.66 587.709 346.66C586.655 346.66 585.549 347.067 584.389 347.88L583.809 346.74C585.155 345.833 586.509 345.38 587.869 345.38C589.242 345.38 590.309 345.747 591.069 346.48C591.842 347.213 592.229 348.247 592.229 349.58V353.84C592.229 354.253 592.415 354.467 592.789 354.48V356C592.602 356.027 592.449 356.047 592.329 356.06C592.209 356.073 592.082 356.08 591.949 356.08C591.602 356.08 591.322 355.98 591.109 355.78C590.909 355.567 590.789 355.313 590.749 355.02L590.709 354.28C590.242 354.907 589.649 355.387 588.929 355.72C588.222 356.04 587.462 356.2 586.649 356.2ZM587.109 354.88C587.735 354.88 588.315 354.767 588.849 354.54C589.395 354.3 589.809 353.987 590.089 353.6C590.342 353.347 590.469 353.087 590.469 352.82V351.28C589.615 350.947 588.729 350.78 587.809 350.78C586.929 350.78 586.209 350.967 585.649 351.34C585.102 351.713 584.829 352.2 584.829 352.8C584.829 353.093 584.882 353.367 584.989 353.62C585.109 353.873 585.269 354.093 585.469 354.28C585.682 354.467 585.929 354.613 586.209 354.72C586.489 354.827 586.789 354.88 587.109 354.88ZM600.365 355.48C600.258 355.533 600.118 355.6 599.945 355.68C599.772 355.747 599.572 355.82 599.345 355.9C599.132 355.967 598.892 356.02 598.625 356.06C598.372 356.113 598.105 356.14 597.825 356.14C597.185 356.14 596.632 355.967 596.165 355.62C595.698 355.26 595.465 354.707 595.465 353.96V346.94H594.045V345.56H595.465V342.08H597.225V345.56H599.565V346.94H597.225V353.42C597.252 353.807 597.378 354.087 597.605 354.26C597.832 354.433 598.098 354.52 598.405 354.52C598.752 354.52 599.065 354.467 599.345 354.36C599.638 354.24 599.838 354.147 599.945 354.08L600.365 355.48ZM606.479 356.2C605.693 356.2 604.973 356.06 604.319 355.78C603.666 355.487 603.106 355.093 602.639 354.6C602.173 354.107 601.806 353.533 601.539 352.88C601.286 352.213 601.159 351.513 601.159 350.78C601.159 350.047 601.286 349.353 601.539 348.7C601.806 348.047 602.173 347.473 602.639 346.98C603.119 346.487 603.686 346.1 604.339 345.82C604.993 345.527 605.713 345.38 606.499 345.38C607.286 345.38 607.999 345.527 608.639 345.82C609.293 346.113 609.846 346.507 610.299 347C610.753 347.48 611.099 348.047 611.339 348.7C611.593 349.34 611.719 350.007 611.719 350.7C611.719 350.847 611.713 350.98 611.699 351.1C611.699 351.22 611.693 351.313 611.679 351.38H603.019C603.059 351.9 603.179 352.373 603.379 352.8C603.579 353.227 603.839 353.593 604.159 353.9C604.479 354.207 604.839 354.447 605.239 354.62C605.653 354.793 606.086 354.88 606.539 354.88C606.859 354.88 607.173 354.84 607.479 354.76C607.786 354.667 608.073 354.547 608.339 354.4C608.606 354.253 608.839 354.073 609.039 353.86C609.253 353.647 609.413 353.407 609.519 353.14L611.039 353.56C610.866 353.947 610.626 354.3 610.319 354.62C610.026 354.94 609.679 355.22 609.279 355.46C608.893 355.687 608.459 355.867 607.979 356C607.499 356.133 606.999 356.2 606.479 356.2ZM610.059 350.08C610.019 349.587 609.893 349.133 609.679 348.72C609.479 348.293 609.219 347.933 608.899 347.64C608.593 347.347 608.233 347.12 607.819 346.96C607.406 346.787 606.966 346.7 606.499 346.7C606.033 346.7 605.593 346.787 605.179 346.96C604.766 347.12 604.399 347.353 604.079 347.66C603.773 347.953 603.519 348.307 603.319 348.72C603.133 349.133 603.019 349.587 602.979 350.08H610.059ZM620.814 345.16V356H619.014V341.8H620.414L629.214 352.86V341.82H631.014V356H629.494L620.814 345.16ZM638.569 356.2C637.783 356.2 637.063 356.06 636.409 355.78C635.756 355.487 635.196 355.093 634.729 354.6C634.263 354.107 633.896 353.533 633.629 352.88C633.376 352.213 633.249 351.513 633.249 350.78C633.249 350.047 633.376 349.353 633.629 348.7C633.896 348.047 634.263 347.473 634.729 346.98C635.209 346.487 635.776 346.1 636.429 345.82C637.083 345.527 637.803 345.38 638.589 345.38C639.376 345.38 640.089 345.527 640.729 345.82C641.383 346.113 641.936 346.507 642.389 347C642.843 347.48 643.189 348.047 643.429 348.7C643.683 349.34 643.809 350.007 643.809 350.7C643.809 350.847 643.803 350.98 643.789 351.1C643.789 351.22 643.783 351.313 643.769 351.38H635.109C635.149 351.9 635.269 352.373 635.469 352.8C635.669 353.227 635.929 353.593 636.249 353.9C636.569 354.207 636.929 354.447 637.329 354.62C637.743 354.793 638.176 354.88 638.629 354.88C638.949 354.88 639.263 354.84 639.569 354.76C639.876 354.667 640.163 354.547 640.429 354.4C640.696 354.253 640.929 354.073 641.129 353.86C641.343 353.647 641.503 353.407 641.609 353.14L643.129 353.56C642.956 353.947 642.716 354.3 642.409 354.62C642.116 354.94 641.769 355.22 641.369 355.46C640.983 355.687 640.549 355.867 640.069 356C639.589 356.133 639.089 356.2 638.569 356.2ZM642.149 350.08C642.109 349.587 641.983 349.133 641.769 348.72C641.569 348.293 641.309 347.933 640.989 347.64C640.683 347.347 640.323 347.12 639.909 346.96C639.496 346.787 639.056 346.7 638.589 346.7C638.123 346.7 637.683 346.787 637.269 346.96C636.856 347.12 636.489 347.353 636.169 347.66C635.863 347.953 635.609 348.307 635.409 348.72C635.223 349.133 635.109 349.587 635.069 350.08H642.149ZM658.572 345.56H660.272L655.832 356H654.372L652.272 350.9L650.192 356H648.732L644.292 345.56H645.972L649.572 354.26L651.332 349.92L649.532 345.58H650.992L652.272 348.92L653.552 345.58H655.012L653.232 349.92L654.992 354.26L658.572 345.56ZM568.407 378.8C568.407 377.947 568.554 377.1 568.847 376.26C569.154 375.407 569.594 374.647 570.167 373.98C570.754 373.3 571.467 372.753 572.307 372.34C573.147 371.927 574.1 371.72 575.167 371.72C576.434 371.72 577.52 372.007 578.427 372.58C579.334 373.153 580.007 373.9 580.447 374.82L579.027 375.74C578.814 375.287 578.554 374.907 578.247 374.6C577.954 374.293 577.627 374.047 577.267 373.86C576.92 373.673 576.56 373.54 576.187 373.46C575.814 373.38 575.447 373.34 575.087 373.34C574.3 373.34 573.6 373.507 572.987 373.84C572.387 374.16 571.88 374.587 571.467 375.12C571.054 375.64 570.74 376.233 570.527 376.9C570.327 377.553 570.227 378.213 570.227 378.88C570.227 379.627 570.347 380.34 570.587 381.02C570.84 381.687 571.187 382.28 571.627 382.8C572.067 383.32 572.587 383.733 573.187 384.04C573.787 384.347 574.44 384.5 575.147 384.5C575.52 384.5 575.9 384.453 576.287 384.36C576.687 384.267 577.067 384.12 577.427 383.92C577.787 383.707 578.12 383.447 578.427 383.14C578.747 382.82 579.007 382.44 579.207 382L580.707 382.82C580.48 383.353 580.16 383.827 579.747 384.24C579.347 384.64 578.887 384.98 578.367 385.26C577.86 385.54 577.32 385.753 576.747 385.9C576.174 386.047 575.614 386.12 575.067 386.12C574.094 386.12 573.2 385.907 572.387 385.48C571.574 385.053 570.867 384.5 570.267 383.82C569.68 383.127 569.22 382.347 568.887 381.48C568.567 380.6 568.407 379.707 568.407 378.8ZM587.24 386.2C586.453 386.2 585.733 386.053 585.08 385.76C584.44 385.467 583.886 385.073 583.42 384.58C582.966 384.087 582.613 383.513 582.36 382.86C582.106 382.207 581.98 381.52 581.98 380.8C581.98 380.067 582.106 379.373 582.36 378.72C582.626 378.067 582.986 377.493 583.44 377C583.906 376.507 584.46 376.113 585.1 375.82C585.753 375.527 586.466 375.38 587.24 375.38C588.013 375.38 588.726 375.527 589.38 375.82C590.033 376.113 590.586 376.507 591.04 377C591.506 377.493 591.866 378.067 592.12 378.72C592.386 379.373 592.52 380.067 592.52 380.8C592.52 381.52 592.393 382.207 592.14 382.86C591.886 383.513 591.526 384.087 591.06 384.58C590.593 385.073 590.033 385.467 589.38 385.76C588.74 386.053 588.026 386.2 587.24 386.2ZM583.78 380.82C583.78 381.367 583.866 381.873 584.04 382.34C584.226 382.807 584.473 383.213 584.78 383.56C585.1 383.907 585.466 384.18 585.88 384.38C586.306 384.58 586.76 384.68 587.24 384.68C587.72 384.68 588.166 384.58 588.58 384.38C589.006 384.18 589.38 383.907 589.7 383.56C590.02 383.2 590.266 382.787 590.44 382.32C590.626 381.84 590.72 381.327 590.72 380.78C590.72 380.247 590.626 379.747 590.44 379.28C590.266 378.8 590.02 378.387 589.7 378.04C589.38 377.68 589.006 377.4 588.58 377.2C588.166 377 587.72 376.9 587.24 376.9C586.76 376.9 586.306 377.007 585.88 377.22C585.466 377.42 585.1 377.7 584.78 378.06C584.473 378.407 584.226 378.82 584.04 379.3C583.866 379.767 583.78 380.273 583.78 380.82ZM603.712 386H601.952V380.16C601.952 379.04 601.779 378.227 601.432 377.72C601.099 377.213 600.586 376.96 599.892 376.96C599.532 376.96 599.172 377.033 598.812 377.18C598.452 377.313 598.112 377.5 597.792 377.74C597.472 377.98 597.192 378.267 596.952 378.6C596.712 378.933 596.532 379.3 596.412 379.7V386H594.652V375.56H596.252V377.8C596.666 377.067 597.259 376.48 598.032 376.04C598.819 375.6 599.672 375.38 600.592 375.38C601.192 375.38 601.692 375.493 602.092 375.72C602.492 375.933 602.812 376.24 603.052 376.64C603.292 377.027 603.459 377.487 603.552 378.02C603.659 378.553 603.712 379.133 603.712 379.76V386ZM611.752 385.48C611.645 385.533 611.505 385.6 611.332 385.68C611.158 385.747 610.958 385.82 610.732 385.9C610.518 385.967 610.278 386.02 610.012 386.06C609.758 386.113 609.492 386.14 609.212 386.14C608.572 386.14 608.018 385.967 607.552 385.62C607.085 385.26 606.852 384.707 606.852 383.96V376.94H605.432V375.56H606.852V372.08H608.612V375.56H610.952V376.94H608.612V383.42C608.638 383.807 608.765 384.087 608.992 384.26C609.218 384.433 609.485 384.52 609.792 384.52C610.138 384.52 610.452 384.467 610.732 384.36C611.025 384.24 611.225 384.147 611.332 384.08L611.752 385.48ZM617.866 386.2C617.08 386.2 616.36 386.06 615.706 385.78C615.053 385.487 614.493 385.093 614.026 384.6C613.56 384.107 613.193 383.533 612.926 382.88C612.673 382.213 612.546 381.513 612.546 380.78C612.546 380.047 612.673 379.353 612.926 378.7C613.193 378.047 613.56 377.473 614.026 376.98C614.506 376.487 615.073 376.1 615.726 375.82C616.38 375.527 617.1 375.38 617.886 375.38C618.673 375.38 619.386 375.527 620.026 375.82C620.68 376.113 621.233 376.507 621.686 377C622.14 377.48 622.486 378.047 622.726 378.7C622.98 379.34 623.106 380.007 623.106 380.7C623.106 380.847 623.1 380.98 623.086 381.1C623.086 381.22 623.08 381.313 623.066 381.38H614.406C614.446 381.9 614.566 382.373 614.766 382.8C614.966 383.227 615.226 383.593 615.546 383.9C615.866 384.207 616.226 384.447 616.626 384.62C617.04 384.793 617.473 384.88 617.926 384.88C618.246 384.88 618.56 384.84 618.866 384.76C619.173 384.667 619.46 384.547 619.726 384.4C619.993 384.253 620.226 384.073 620.426 383.86C620.64 383.647 620.8 383.407 620.906 383.14L622.426 383.56C622.253 383.947 622.013 384.3 621.706 384.62C621.413 384.94 621.066 385.22 620.666 385.46C620.28 385.687 619.846 385.867 619.366 386C618.886 386.133 618.386 386.2 617.866 386.2ZM621.446 380.08C621.406 379.587 621.28 379.133 621.066 378.72C620.866 378.293 620.606 377.933 620.286 377.64C619.98 377.347 619.62 377.12 619.206 376.96C618.793 376.787 618.353 376.7 617.886 376.7C617.42 376.7 616.98 376.787 616.566 376.96C616.153 377.12 615.786 377.353 615.466 377.66C615.16 377.953 614.906 378.307 614.706 378.72C614.52 379.133 614.406 379.587 614.366 380.08H621.446ZM634.123 386H632.363V380.16C632.363 379.04 632.189 378.227 631.843 377.72C631.509 377.213 630.996 376.96 630.303 376.96C629.943 376.96 629.583 377.033 629.223 377.18C628.863 377.313 628.523 377.5 628.203 377.74C627.883 377.98 627.603 378.267 627.363 378.6C627.123 378.933 626.943 379.3 626.823 379.7V386H625.063V375.56H626.663V377.8C627.076 377.067 627.669 376.48 628.443 376.04C629.229 375.6 630.083 375.38 631.003 375.38C631.603 375.38 632.103 375.493 632.503 375.72C632.903 375.933 633.223 376.24 633.463 376.64C633.703 377.027 633.869 377.487 633.963 378.02C634.069 378.553 634.123 379.133 634.123 379.76V386ZM642.162 385.48C642.055 385.533 641.915 385.6 641.742 385.68C641.568 385.747 641.368 385.82 641.142 385.9C640.928 385.967 640.688 386.02 640.422 386.06C640.168 386.113 639.902 386.14 639.622 386.14C638.982 386.14 638.428 385.967 637.962 385.62C637.495 385.26 637.262 384.707 637.262 383.96V376.94H635.842V375.56H637.262V372.08H639.022V375.56H641.362V376.94H639.022V383.42C639.048 383.807 639.175 384.087 639.402 384.26C639.628 384.433 639.895 384.52 640.202 384.52C640.548 384.52 640.862 384.467 641.142 384.36C641.435 384.24 641.635 384.147 641.742 384.08L642.162 385.48Z" fill="black"/>
</svg>
