<svg width="681" height="410" viewBox="0 0 681 410" fill="none" xmlns="http://www.w3.org/2000/svg">
<rect x="0.484375" y="0.560547" width="150" height="320" fill="#98752E"/>
<path d="M149.895 57.3249L142.073 70.1819M134.251 83.0388L84.3559 82.263M134.251 83.0388L142.073 70.1819M134.251 83.0388L141.306 96.3392M149.895 111.524L141.306 96.3392M149.895 20.8599L114.62 83.0388L149.895 145.107M149.895 1.35278L103.476 83.0388L149.895 160.735L103.987 244.416L149.895 320.006M84.3559 82.263L84.3559 101.77M84.3559 82.263L84.3559 62.7559M84.3559 101.77L76.1763 114.738M84.3559 101.77L89.4509 110.493M76.1763 114.738L68.3035 101.77M76.1763 114.738L76.2786 163.173M68.3035 101.77L40.902 146.484M68.3035 101.77L68.3035 82.263M68.3035 62.7559L76.1763 51.1181M68.3035 62.7559L62.054 52.6698M68.3035 62.7559L68.3035 82.263M76.1763 51.1181L84.3559 62.7559M76.1763 51.1181L76.1763 30.3918M84.3559 62.7559L89.4509 52.6698M142.073 70.1819L109.81 18.5323M99.0791 1.35278L109.81 18.5323M141.306 96.3392L111.158 147.656M101.635 163.173L111.158 147.656M101.635 163.173L76.2786 163.173M101.635 163.173L110.039 177.693M50.9219 163.173L40.902 146.484M50.9219 163.173L76.2786 163.173M50.9219 163.173L10.7399 231.834M10.8123 96.8219L40.902 146.484M111.158 147.656L94.261 118.728M109.81 18.5323L93.3509 46.1305M76.1763 1.35278L76.1763 18.5323M40.902 19.8247L58.0022 46.1305M89.4509 52.6698L76.1763 30.3918M89.4509 52.6698L93.3509 46.1305M76.1763 30.3918L62.054 52.6698M76.1763 30.3918L76.1763 18.5323M62.054 52.6698L58.0022 46.1305M93.3509 46.1305L76.1763 18.5323M76.1763 18.5323L58.0022 46.1305M89.4509 110.493L76.1763 133.248L62.054 111.968M89.4509 110.493L94.261 118.728M94.261 118.728L76.2458 147.656L58.0022 118.58M76.2786 163.173L76.2494 176.972M51.9444 1.35278L10.8123 68.076M10.8123 68.076L1.23116 53.9998M10.8123 68.076L19.6352 82.263M19.6352 82.263L39.5728 82.7162M19.6352 82.263L1.23115 112.632M68.3035 82.263L49.4905 82.5598M49.4905 82.5598L1.23115 163.173L50.9219 243.545M49.4905 82.5598L1.23116 1.35278M49.4905 82.5598L39.5728 82.7162M1.23116 18.5323L39.5728 82.7162M39.5728 82.7162L1.23115 146.484M149.895 180.131L113.7 244.416L149.895 304.822M149.895 216.707L141.408 231.005M133.944 244.416L141.408 231.005M133.944 244.416L140.577 253.726M133.944 244.416L83.6401 244.416M149.895 266.805L140.577 253.726M141.408 231.005L110.039 177.693M140.577 253.726L110.039 305.702M101.635 320.006L110.039 305.702M83.6401 244.416L83.6401 263.036M83.6401 244.416L83.4357 223.135M83.6401 263.036L76.1763 274.674M83.6401 263.036L89.4509 272.428M76.1763 274.674L68.3035 263.036M76.1763 274.674L76.2785 320.006M68.3035 263.036L41.9191 305.702M68.3035 263.036L68.3035 243.086M68.3035 223.135L76.1763 211.498M68.3035 223.135L58.0022 206.968M68.3035 223.135L68.3035 243.086M76.1763 211.498L83.4357 223.135M76.1763 211.498L76.2202 190.771M83.4357 223.135L90.2487 211.498M110.039 177.693L93.6085 205.759M110.039 305.702L93.6085 279.147M90.2487 211.498L76.2202 190.771M90.2487 211.498L93.6085 205.759M76.2202 190.771L62.054 213.382M76.2202 190.771L76.2494 176.972M40.902 180.131L58.0022 206.968M58.0022 206.968L76.2494 176.972M76.2494 176.972L93.6085 205.759M89.4509 272.428L76.1763 294.07L62.054 273.142M89.4509 272.428L93.6085 279.147M93.6085 279.147L76.1763 309.144L58.0022 279.695M50.9219 320.006L10.7399 256.165M1.23115 272.428L18.1015 243.545M18.1015 243.545L1.23115 216.707M18.1015 243.545L39.8795 243.545M68.3035 243.086L50.9219 243.545M50.9219 243.545L2.15135 320.56M50.9219 243.545L39.8795 243.545M1.23115 307.038L39.8795 243.545M39.8795 243.545L1.23115 181.683" stroke="#806328"/>
<path d="M59.8672 64.0185C60.9072 64.4172 61.7045 64.9892 62.2592 65.7345C62.8139 66.4799 63.0912 67.3725 63.0912 68.4125C63.0912 69.5045 62.7965 70.4579 62.2072 71.2725C61.6179 72.0699 60.7772 72.6852 59.6852 73.1185C58.5932 73.5519 57.3105 73.7685 55.8372 73.7685C54.3812 73.7685 53.1072 73.5519 52.0152 73.1185C50.9405 72.6852 50.1085 72.0699 49.5192 71.2725C48.9299 70.4579 48.6352 69.5045 48.6352 68.4125C48.6352 67.3725 48.9039 66.4799 49.4412 65.7345C49.9959 64.9892 50.7932 64.4172 51.8332 64.0185C51.0012 63.6199 50.3685 63.0912 49.9352 62.4325C49.5019 61.7739 49.2852 60.9939 49.2852 60.0925C49.2852 59.0872 49.5539 58.2119 50.0912 57.4665C50.6459 56.7212 51.4172 56.1492 52.4052 55.7505C53.3932 55.3519 54.5372 55.1525 55.8372 55.1525C57.1545 55.1525 58.3072 55.3519 59.2952 55.7505C60.3005 56.1492 61.0719 56.7212 61.6092 57.4665C62.1639 58.2119 62.4412 59.0872 62.4412 60.0925C62.4412 60.9765 62.2159 61.7565 61.7652 62.4325C61.3319 63.0912 60.6992 63.6199 59.8672 64.0185ZM55.8372 57.2585C54.6065 57.2585 53.6359 57.5272 52.9252 58.0645C52.2145 58.5845 51.8592 59.2952 51.8592 60.1965C51.8592 61.0979 52.2059 61.8085 52.8992 62.3285C53.6099 62.8485 54.5892 63.1085 55.8372 63.1085C57.1025 63.1085 58.0905 62.8485 58.8012 62.3285C59.5292 61.8085 59.8932 61.0979 59.8932 60.1965C59.8932 59.2952 59.5205 58.5845 58.7752 58.0645C58.0472 57.5272 57.0679 57.2585 55.8372 57.2585ZM55.8372 71.6625C57.2759 71.6625 58.4112 71.3679 59.2432 70.7785C60.0752 70.1719 60.4912 69.3572 60.4912 68.3345C60.4912 67.3292 60.0752 66.5405 59.2432 65.9685C58.4112 65.3792 57.2759 65.0845 55.8372 65.0845C54.3985 65.0845 53.2719 65.3792 52.4572 65.9685C51.6425 66.5405 51.2352 67.3292 51.2352 68.3345C51.2352 69.3572 51.6425 70.1719 52.4572 70.7785C53.2719 71.3679 54.3985 71.6625 55.8372 71.6625ZM72.9076 73.7685C71.469 73.7685 70.1863 73.4045 69.0596 72.6765C67.9503 71.9312 67.075 70.8565 66.4336 69.4525C65.7923 68.0485 65.4716 66.3845 65.4716 64.4605C65.4716 62.5365 65.7923 60.8725 66.4336 59.4685C67.075 58.0645 67.9503 56.9985 69.0596 56.2705C70.1863 55.5252 71.469 55.1525 72.9076 55.1525C74.329 55.1525 75.5943 55.5252 76.7036 56.2705C77.8303 56.9985 78.7143 58.0645 79.3556 59.4685C79.997 60.8725 80.3176 62.5365 80.3176 64.4605C80.3176 66.3845 79.997 68.0485 79.3556 69.4525C78.7143 70.8565 77.8303 71.9312 76.7036 72.6765C75.5943 73.4045 74.329 73.7685 72.9076 73.7685ZM72.9076 71.4545C74.3636 71.4545 75.525 70.8565 76.3916 69.6605C77.2756 68.4645 77.7176 66.7312 77.7176 64.4605C77.7176 62.1899 77.2756 60.4565 76.3916 59.2605C75.525 58.0645 74.3636 57.4665 72.9076 57.4665C71.4343 57.4665 70.2556 58.0645 69.3716 59.2605C68.505 60.4565 68.0716 62.1899 68.0716 64.4605C68.0716 66.7312 68.505 68.4645 69.3716 69.6605C70.2556 70.8565 71.4343 71.4545 72.9076 71.4545ZM86.7654 65.1365C85.5001 65.1365 84.4774 64.6772 83.6974 63.7585C82.9174 62.8399 82.5274 61.6439 82.5274 60.1705C82.5274 58.6972 82.9174 57.5012 83.6974 56.5825C84.4774 55.6639 85.5001 55.2045 86.7654 55.2045C88.0308 55.2045 89.0448 55.6639 89.8074 56.5825C90.5874 57.4839 90.9774 58.6799 90.9774 60.1705C90.9774 61.6612 90.5874 62.8659 89.8074 63.7845C89.0448 64.6859 88.0308 65.1365 86.7654 65.1365ZM97.7374 55.3605H99.7394L87.3114 73.5605H85.3094L97.7374 55.3605ZM86.7654 63.6545C87.5628 63.6545 88.1868 63.3512 88.6374 62.7445C89.0881 62.1205 89.3134 61.2625 89.3134 60.1705C89.3134 59.0785 89.0881 58.2292 88.6374 57.6225C88.1868 56.9985 87.5628 56.6865 86.7654 56.6865C85.9854 56.6865 85.3614 56.9985 84.8934 57.6225C84.4428 58.2465 84.2174 59.0959 84.2174 60.1705C84.2174 61.2452 84.4428 62.0945 84.8934 62.7185C85.3614 63.3425 85.9854 63.6545 86.7654 63.6545ZM98.2834 73.7165C97.0181 73.7165 95.9954 73.2659 95.2154 72.3645C94.4528 71.4459 94.0714 70.2412 94.0714 68.7505C94.0714 67.2599 94.4528 66.0639 95.2154 65.1625C95.9954 64.2439 97.0181 63.7845 98.2834 63.7845C99.5488 63.7845 100.571 64.2439 101.351 65.1625C102.131 66.0812 102.521 67.2772 102.521 68.7505C102.521 70.2239 102.131 71.4199 101.351 72.3385C100.571 73.2572 99.5488 73.7165 98.2834 73.7165ZM98.2834 72.2345C99.0634 72.2345 99.6788 71.9225 100.129 71.2985C100.597 70.6745 100.831 69.8252 100.831 68.7505C100.831 67.6759 100.597 66.8265 100.129 66.2025C99.6788 65.5785 99.0634 65.2665 98.2834 65.2665C97.4861 65.2665 96.8621 65.5785 96.4114 66.2025C95.9608 66.8092 95.7354 67.6585 95.7354 68.7505C95.7354 69.8425 95.9608 70.7005 96.4114 71.3245C96.8621 71.9312 97.4861 72.2345 98.2834 72.2345Z" fill="#FAF2E4"/>
<rect x="177.484" y="108.561" width="150" height="212" fill="#98752E"/>
<path fill-rule="evenodd" clip-rule="evenodd" d="M179.631 108.561L177.636 111.857L178.491 112.375L180.8 108.561H179.631ZM194.511 108.561L197.263 113.109L177.635 145.795L178.492 146.31L197.848 114.076L202.251 121.353L177.634 162.526L177.479 162.787L177.638 163.046L203.038 204.181L198.137 212.566L178.488 181.074L177.639 181.603L197.567 213.542L187.568 230.649L178.487 216.184L177.64 216.716L194.37 243.363L177.632 272.057L178.495 272.561L187.595 256.962L197.917 273.384L177.636 306.746L178.491 307.265L198.512 274.331L203.058 281.562L178.562 320.294L179.407 320.828L203.648 282.5L227.39 320.271L228.237 319.739L219.389 305.664L234.902 280.546L252.673 309.379L252.677 309.385L252.701 320.006L253.701 320.004L253.676 309.117L270.565 280.018L286.418 305.673L278.156 319.752L279.019 320.258L287.433 305.919L302.353 280.492L326.477 320.265L327.332 319.746L302.928 279.512L307.023 272.533L326.476 305.04L327.334 304.526L307.6 271.55L317.617 254.48L326.497 266.962L327.312 266.382L317.984 253.271L311.526 244.195L318.838 231.038L318.845 231.026L327.335 216.705L326.475 216.195L318.41 229.799L308.672 213.228L327.341 180.028L326.469 179.538L308.086 212.23L303.406 204.267L327.343 160.579L327.481 160.328L327.334 160.082L304.053 121.064L308.565 113.373L326.47 144.919L327.34 144.425L309.149 112.377L311.389 108.561H310.229L308.579 111.373L306.983 108.561H305.833L307.995 112.369L303.468 120.084L296.592 108.561H295.428L302.891 121.068L288.123 146.237L271.637 117.976L266.821 109.72L266.144 108.561H264.987L265.81 109.972L253.633 130.871L253.599 114.371L257.259 108.561H256.077L253.106 113.277L250.247 108.561H249.078L252.599 114.368L252.634 131.178L239.552 111.44L241.314 108.561H240.142L217.784 145.091L203.418 121.35L211.065 108.561H209.9L202.832 120.381L198.431 113.107L201.161 108.561H199.994L197.845 112.139L195.679 108.561H194.511ZM324.95 108.561L326.469 111.251L327.34 110.759L326.098 108.561H324.95ZM238.976 112.381L252.638 132.993L252.664 145.482L235.491 118.076L238.976 112.381ZM253.638 132.851L253.664 145.483L270.621 118.219L266.389 110.965L253.638 132.851ZM234.908 119.029L252.668 147.372L252.7 162.283H228.097L218.366 146.055L234.908 119.029ZM253.668 147.37L253.7 162.283H278.308L287.539 147.221L271.191 119.196L253.668 147.37ZM253.7 163.283H278.299L286.423 177.337L270.545 204.495L253.672 176.478L253.7 163.283ZM270.983 205.727L287.003 178.327L302.257 204.285L280.646 243.728H261.066L260.868 223.027L267.619 211.48L270.983 205.727ZM326.329 160.349L302.816 203.263L287.435 177.088L287.433 177.085L279.17 162.791L288.548 147.489L288.553 147.481L303.475 122.048L326.329 160.349ZM281.786 243.728L302.847 205.289L307.519 213.239L290.374 243.728H281.786ZM291.522 243.728L308.105 214.237L317.832 230.79L310.641 243.728H291.522ZM291.549 244.728H310.678L316.981 253.587L307.015 270.572L291.549 244.728ZM290.383 244.728L306.438 271.555L302.339 278.54L281.83 244.728H290.383ZM280.661 244.728L301.764 279.52L286.991 304.697L270.977 278.782L266.814 272.046L261.071 262.752L261.071 244.728H280.661ZM260.071 244.23L260.071 262.748L253.087 273.651L245.716 262.741L245.716 242.894V223.047L253.081 212.146L259.868 223.039L260.071 244.228V244.23ZM245.235 263.815L252.599 274.714L252.639 292.428L239.554 273.013L245.235 263.815ZM238.978 273.947L252.643 294.224L252.672 307.473L235.49 279.594L238.978 273.947ZM253.642 294.075L253.672 307.132L269.969 279.053L266.391 273.263L253.642 294.075ZM253.638 292.167L265.802 272.31L260.564 263.833L253.599 274.707L253.638 292.167ZM244.716 243.408L244.716 262.752L218.796 304.721L204.24 281.564L228.094 243.847L244.716 243.408ZM226.906 243.854L203.65 280.625L199.093 273.375L217.039 243.854H226.906ZM215.869 243.854L198.498 272.429L188.163 255.988L195.241 243.854H215.869ZM215.857 242.854H195.231L188.168 231.605L198.165 214.5L215.857 242.854ZM217.036 242.854L198.736 213.525L203.633 205.145L226.917 242.854H217.036ZM228.088 242.847L204.205 204.167L217.85 180.821L234.481 206.955L244.716 223.04V242.407L228.088 242.847ZM234.893 205.74L218.417 179.85L228.101 163.283H252.7L252.672 176.476L234.893 205.74ZM217.354 146.312L227.233 162.786L203.61 203.204L178.649 162.779L202.837 122.321L217.353 146.31L217.354 146.312ZM235.491 206.681L252.668 178.409L252.643 190.306L238.973 212.152L235.491 206.681ZM239.568 213.087L252.639 192.197L252.599 211.074L245.229 221.983L239.568 213.087ZM260.353 221.927L253.599 211.085L253.639 192.077L266.597 211.247L260.353 221.927ZM267.157 210.289L253.643 190.297L253.668 178.409L269.97 205.478L267.157 210.289Z" fill="#806328"/>
<path d="M233.262 170.615C235.862 170.615 237.769 171.109 238.982 172.097C240.213 173.067 240.828 174.402 240.828 176.101C240.828 177.175 240.568 178.146 240.048 179.013C239.546 179.862 238.774 180.538 237.734 181.041C236.712 181.526 235.446 181.769 233.938 181.769C232.656 181.769 231.416 181.578 230.22 181.197C229.024 180.798 228.036 180.252 227.256 179.559L228.452 177.505C229.076 178.094 229.874 178.571 230.844 178.935C231.815 179.281 232.838 179.455 233.912 179.455C235.282 179.455 236.339 179.169 237.084 178.597C237.847 178.007 238.228 177.21 238.228 176.205C238.228 175.113 237.812 174.289 236.98 173.735C236.148 173.163 234.727 172.877 232.716 172.877H228.582L229.544 163.361H239.814V165.623H231.728L231.234 170.615H233.262ZM249.833 171.005C251.619 171.178 252.979 171.733 253.915 172.669C254.851 173.587 255.319 174.766 255.319 176.205C255.319 177.245 255.059 178.189 254.539 179.039C254.019 179.871 253.239 180.538 252.199 181.041C251.177 181.526 249.92 181.769 248.429 181.769C247.129 181.769 245.881 181.578 244.685 181.197C243.489 180.798 242.51 180.252 241.747 179.559L242.943 177.505C243.567 178.094 244.365 178.571 245.335 178.935C246.306 179.281 247.337 179.455 248.429 179.455C249.781 179.455 250.83 179.169 251.575 178.597C252.338 178.025 252.719 177.236 252.719 176.231C252.719 175.225 252.347 174.445 251.601 173.891C250.856 173.336 249.729 173.059 248.221 173.059H246.765V171.239L251.341 165.623H242.579V163.361H254.591V165.129L249.833 171.005ZM261.442 173.137C260.177 173.137 259.154 172.677 258.374 171.759C257.594 170.84 257.204 169.644 257.204 168.171C257.204 166.697 257.594 165.501 258.374 164.583C259.154 163.664 260.177 163.205 261.442 163.205C262.708 163.205 263.722 163.664 264.484 164.583C265.264 165.484 265.654 166.68 265.654 168.171C265.654 169.661 265.264 170.866 264.484 171.785C263.722 172.686 262.708 173.137 261.442 173.137ZM272.414 163.361H274.416L261.988 181.561H259.986L272.414 163.361ZM261.442 171.655C262.24 171.655 262.864 171.351 263.314 170.745C263.765 170.121 263.99 169.263 263.99 168.171C263.99 167.079 263.765 166.229 263.314 165.623C262.864 164.999 262.24 164.687 261.442 164.687C260.662 164.687 260.038 164.999 259.57 165.623C259.12 166.247 258.894 167.096 258.894 168.171C258.894 169.245 259.12 170.095 259.57 170.719C260.038 171.343 260.662 171.655 261.442 171.655ZM272.96 181.717C271.695 181.717 270.672 181.266 269.892 180.365C269.13 179.446 268.748 178.241 268.748 176.751C268.748 175.26 269.13 174.064 269.892 173.163C270.672 172.244 271.695 171.785 272.96 171.785C274.226 171.785 275.248 172.244 276.028 173.163C276.808 174.081 277.198 175.277 277.198 176.751C277.198 178.224 276.808 179.42 276.028 180.339C275.248 181.257 274.226 181.717 272.96 181.717ZM272.96 180.235C273.74 180.235 274.356 179.923 274.806 179.299C275.274 178.675 275.508 177.825 275.508 176.751C275.508 175.676 275.274 174.827 274.806 174.203C274.356 173.579 273.74 173.267 272.96 173.267C272.163 173.267 271.539 173.579 271.088 174.203C270.638 174.809 270.412 175.659 270.412 176.751C270.412 177.843 270.638 178.701 271.088 179.325C271.539 179.931 272.163 180.235 272.96 180.235Z" fill="#FAF2E4"/>
<rect x="353.484" y="160.561" width="150" height="160" fill="#98752E"/>
<path fill-rule="evenodd" clip-rule="evenodd" d="M354.81 160.293L353.634 162.259L353.479 162.519L353.638 162.778L379.038 203.914L374.137 212.298L354.488 180.806L353.639 181.335L373.567 213.274L363.568 230.381L354.487 215.916L353.64 216.448L370.37 243.096L353.632 271.789L354.495 272.293L363.595 256.694L373.917 273.116L353.636 306.478L354.491 306.997L374.512 274.063L379.058 281.294L354.562 320.026L355.407 320.56L379.648 282.232L403.39 320.004L404.237 319.471L395.389 305.396L410.902 280.278L428.673 309.111L428.677 309.118L428.701 319.739L429.701 319.736L429.676 308.849L446.565 279.75L462.418 305.405L454.156 319.484L455.019 319.99L463.433 305.651L478.353 280.224L502.477 319.997L503.332 319.478L478.928 279.244L483.023 272.266L502.476 304.772L503.334 304.258L483.6 271.282L493.617 254.212L502.497 266.694L503.312 266.114L493.984 253.003L487.526 243.927L494.838 230.77L494.845 230.758L503.335 216.437L502.475 215.927L494.41 229.532L484.672 212.96L503.341 179.76L502.469 179.27L484.086 211.962L479.406 204L503.343 160.311L503.353 160.293H502.213L478.816 202.995L463.435 176.821L463.433 176.817L455.17 162.523L456.536 160.293H455.363L454.308 162.015H429.7L429.696 160.293H428.696L428.7 162.015H404.097L403.064 160.293H401.898L403.233 162.518L379.61 202.936L354.649 162.511L355.975 160.293H354.81ZM454.299 163.015H429.7L429.672 176.21L446.545 204.227L462.423 177.069L454.299 163.015ZM463.003 178.059L446.983 205.459L443.619 211.212L436.868 222.76L437.066 243.46H456.646L478.257 204.017L463.003 178.059ZM478.847 205.021L457.786 243.46H466.374L483.519 212.971L478.847 205.021ZM484.105 213.969L467.522 243.46H486.641L493.832 230.522L484.105 213.969ZM486.678 244.46H467.549L483.015 270.304L492.981 253.319L486.678 244.46ZM482.438 271.287L466.383 244.46H457.83L478.339 278.272L482.438 271.287ZM477.764 279.252L456.661 244.46H437.071L437.071 262.484L442.814 271.778L446.977 278.514L462.991 304.429L477.764 279.252ZM436.071 262.48L436.071 243.962V243.96L435.868 222.772L429.081 211.878L421.716 222.779V242.626L421.716 262.473L429.087 273.383L436.071 262.48ZM428.599 274.447L421.235 263.547L415.554 272.746L428.639 292.161L428.599 274.447ZM428.643 293.956L414.978 273.679L411.49 279.326L428.672 307.205L428.643 293.956ZM429.672 306.865L429.642 293.807L442.391 272.995L445.969 278.785L429.672 306.865ZM441.802 272.042L429.638 291.899L429.599 274.439L436.564 263.565L441.802 272.042ZM420.716 262.484L420.716 243.14L404.094 243.579L380.24 281.296L394.796 304.453L420.716 262.484ZM379.65 280.357L402.906 243.586H393.039L375.093 273.107L379.65 280.357ZM374.498 272.161L391.869 243.586H371.241L364.163 255.72L374.498 272.161ZM371.231 242.586H391.857L374.165 214.232L364.168 231.337L371.231 242.586ZM374.736 213.257L393.036 242.586H402.917L379.633 204.877L374.736 213.257ZM380.205 203.899L404.088 242.579L420.716 242.139V222.772L410.481 206.688L393.85 180.553L380.205 203.899ZM394.417 179.583L410.893 205.472L428.672 176.208L428.7 163.015H404.101L394.417 179.583ZM428.668 178.141L411.491 206.413L414.973 211.884L428.643 190.038L428.668 178.141ZM428.639 191.929L415.568 212.819L421.229 221.715L428.599 210.806L428.639 191.929ZM429.599 210.817L436.353 221.659L442.597 210.979L429.639 191.809L429.599 210.817ZM429.643 190.029L443.157 210.021L445.97 205.21L429.668 178.142L429.643 190.029Z" fill="#806328"/>
<path d="M417.243 229.089H413.785V233.561H411.263V229.089H401.149V227.269L410.457 215.361H413.265L404.347 226.853H411.341V222.901H413.785V226.853H417.243V229.089ZM426.238 233.769C424.799 233.769 423.516 233.405 422.39 232.677C421.28 231.931 420.405 230.857 419.764 229.453C419.122 228.049 418.802 226.385 418.802 224.461C418.802 222.537 419.122 220.873 419.764 219.469C420.405 218.065 421.28 216.999 422.39 216.271C423.516 215.525 424.799 215.153 426.238 215.153C427.659 215.153 428.924 215.525 430.034 216.271C431.16 216.999 432.044 218.065 432.686 219.469C433.327 220.873 433.648 222.537 433.648 224.461C433.648 226.385 433.327 228.049 432.686 229.453C432.044 230.857 431.16 231.931 430.034 232.677C428.924 233.405 427.659 233.769 426.238 233.769ZM426.238 231.455C427.694 231.455 428.855 230.857 429.722 229.661C430.606 228.465 431.048 226.731 431.048 224.461C431.048 222.19 430.606 220.457 429.722 219.261C428.855 218.065 427.694 217.467 426.238 217.467C424.764 217.467 423.586 218.065 422.702 219.261C421.835 220.457 421.402 222.19 421.402 224.461C421.402 226.731 421.835 228.465 422.702 229.661C423.586 230.857 424.764 231.455 426.238 231.455ZM440.096 225.137C438.83 225.137 437.808 224.677 437.028 223.759C436.248 222.84 435.858 221.644 435.858 220.171C435.858 218.697 436.248 217.501 437.028 216.583C437.808 215.664 438.83 215.205 440.096 215.205C441.361 215.205 442.375 215.664 443.138 216.583C443.918 217.484 444.308 218.68 444.308 220.171C444.308 221.661 443.918 222.866 443.138 223.785C442.375 224.686 441.361 225.137 440.096 225.137ZM451.068 215.361H453.07L440.642 233.561H438.64L451.068 215.361ZM440.096 223.655C440.893 223.655 441.517 223.351 441.968 222.745C442.418 222.121 442.644 221.263 442.644 220.171C442.644 219.079 442.418 218.229 441.968 217.623C441.517 216.999 440.893 216.687 440.096 216.687C439.316 216.687 438.692 216.999 438.224 217.623C437.773 218.247 437.548 219.096 437.548 220.171C437.548 221.245 437.773 222.095 438.224 222.719C438.692 223.343 439.316 223.655 440.096 223.655ZM451.614 233.717C450.348 233.717 449.326 233.266 448.546 232.365C447.783 231.446 447.402 230.241 447.402 228.751C447.402 227.26 447.783 226.064 448.546 225.163C449.326 224.244 450.348 223.785 451.614 223.785C452.879 223.785 453.902 224.244 454.682 225.163C455.462 226.081 455.852 227.277 455.852 228.751C455.852 230.224 455.462 231.42 454.682 232.339C453.902 233.257 452.879 233.717 451.614 233.717ZM451.614 232.235C452.394 232.235 453.009 231.923 453.46 231.299C453.928 230.675 454.162 229.825 454.162 228.751C454.162 227.676 453.928 226.827 453.46 226.203C453.009 225.579 452.394 225.267 451.614 225.267C450.816 225.267 450.192 225.579 449.742 226.203C449.291 226.809 449.066 227.659 449.066 228.751C449.066 229.843 449.291 230.701 449.742 231.325C450.192 231.931 450.816 232.235 451.614 232.235Z" fill="#FAF2E4"/>
<rect x="530.484" y="188.561" width="150" height="132" fill="#98752E"/>
<path fill-rule="evenodd" clip-rule="evenodd" d="M535.444 188.561L550.697 213.006L540.698 230.114L531.617 215.649L530.77 216.18L547.5 242.828L530.762 271.522L531.626 272.026L540.725 256.427L551.047 272.849L530.766 306.21L531.621 306.73L551.642 273.795L556.188 281.027L531.692 319.758L532.537 320.293L556.778 281.965L580.521 319.736L581.367 319.204L572.519 305.129L588.032 280.011L605.803 308.844L605.807 308.85L605.831 319.471L606.831 319.469L606.806 308.582L623.695 279.483L639.548 305.138L631.286 319.217L632.149 319.723L640.563 305.384L655.483 279.957L679.607 319.729L680.462 319.211L656.058 278.977L660.153 271.998L679.606 304.505L680.464 303.991L660.73 271.015L670.747 253.945L679.627 266.427L680.442 265.847L671.114 252.736L664.656 243.66L671.968 230.503L671.975 230.491L680.465 216.169L679.605 215.66L671.54 229.264L661.802 212.693L675.372 188.561H674.225L661.216 211.695L656.536 203.732L664.849 188.561H663.709L655.946 202.728L647.621 188.561H646.461L655.387 203.749L633.776 243.192H614.196L613.998 222.492L620.749 210.945L624.113 205.191L633.837 188.561H632.678L623.675 203.959L614.401 188.561H613.234L623.1 204.943L620.287 209.754L606.773 189.762L606.775 188.561H605.775L605.773 189.771L592.103 211.617L588.621 206.146L599.305 188.561H598.135L588.023 205.205L577.431 188.561H576.245L587.611 206.42L597.846 222.505V241.872L581.218 242.311L557.335 203.632L566.144 188.561H564.986L556.74 202.668L548.029 188.561H546.853L556.168 203.646L551.268 212.031L536.623 188.561H535.444ZM634.916 243.192L655.977 204.754L660.649 212.704L643.505 243.192H634.916ZM644.652 243.192L661.235 213.701L670.962 230.255L663.771 243.192H644.652ZM644.679 244.192H663.808L670.111 253.052L660.145 270.037L644.679 244.192ZM643.514 244.192L659.568 271.02L655.469 278.005L634.96 244.192H643.514ZM633.791 244.192L654.894 278.985L640.121 304.162L624.107 278.247L619.944 271.511L614.201 262.217L614.201 244.192H633.791ZM613.201 243.695L613.201 262.213L606.217 273.116L598.846 262.206L598.846 242.359V222.512L606.211 211.611L612.998 222.504L613.201 243.692V243.695ZM598.365 263.28L605.729 274.179L605.769 291.893L592.684 272.478L598.365 263.28ZM592.108 273.412L605.773 293.689L605.803 306.937L588.62 279.059L592.108 273.412ZM606.772 293.539L606.802 306.597L623.099 278.518L619.521 272.728L606.772 293.539ZM606.768 291.632L618.932 271.775L613.694 263.298L606.729 274.172L606.768 291.632ZM597.846 242.872L597.846 262.217L571.927 304.185L557.37 281.028L581.224 243.312L597.846 242.872ZM580.036 243.319L556.78 280.09L552.223 272.84L570.169 243.319H580.036ZM568.999 243.319L551.628 271.894L541.293 255.452L548.371 243.319H568.999ZM568.987 242.319H548.361L541.298 231.069L551.295 213.965L568.987 242.319ZM570.166 242.319L551.866 212.99L556.763 204.61L580.047 242.319H570.166ZM592.698 212.551L605.769 191.662L605.729 210.539L598.359 221.447L592.698 212.551ZM613.483 221.392L606.729 210.55L606.769 191.542L619.727 210.712L613.483 221.392Z" fill="#806328"/>
<path d="M588.056 255.005C589.841 255.178 591.202 255.733 592.138 256.669C593.074 257.587 593.542 258.766 593.542 260.205C593.542 261.245 593.282 262.189 592.762 263.039C592.242 263.871 591.462 264.538 590.422 265.041C589.399 265.526 588.143 265.769 586.652 265.769C585.352 265.769 584.104 265.578 582.908 265.197C581.712 264.798 580.733 264.252 579.97 263.559L581.166 261.505C581.79 262.094 582.587 262.571 583.558 262.935C584.529 263.281 585.56 263.455 586.652 263.455C588.004 263.455 589.053 263.169 589.798 262.597C590.561 262.025 590.942 261.236 590.942 260.231C590.942 259.225 590.569 258.445 589.824 257.891C589.079 257.336 587.952 257.059 586.444 257.059H584.988V255.239L589.564 249.623H580.802V247.361H592.814V249.129L588.056 255.005ZM602.808 255.005C604.593 255.178 605.954 255.733 606.89 256.669C607.826 257.587 608.294 258.766 608.294 260.205C608.294 261.245 608.034 262.189 607.514 263.039C606.994 263.871 606.214 264.538 605.174 265.041C604.151 265.526 602.894 265.769 601.404 265.769C600.104 265.769 598.856 265.578 597.66 265.197C596.464 264.798 595.484 264.252 594.722 263.559L595.918 261.505C596.542 262.094 597.339 262.571 598.31 262.935C599.28 263.281 600.312 263.455 601.404 263.455C602.756 263.455 603.804 263.169 604.55 262.597C605.312 262.025 605.694 261.236 605.694 260.231C605.694 259.225 605.321 258.445 604.576 257.891C603.83 257.336 602.704 257.059 601.196 257.059H599.74V255.239L604.316 249.623H595.554V247.361H607.566V249.129L602.808 255.005ZM614.417 257.137C613.151 257.137 612.129 256.677 611.349 255.759C610.569 254.84 610.179 253.644 610.179 252.171C610.179 250.697 610.569 249.501 611.349 248.583C612.129 247.664 613.151 247.205 614.417 247.205C615.682 247.205 616.696 247.664 617.459 248.583C618.239 249.484 618.629 250.68 618.629 252.171C618.629 253.661 618.239 254.866 617.459 255.785C616.696 256.686 615.682 257.137 614.417 257.137ZM625.389 247.361H627.391L614.963 265.561H612.961L625.389 247.361ZM614.417 255.655C615.214 255.655 615.838 255.351 616.289 254.745C616.739 254.121 616.965 253.263 616.965 252.171C616.965 251.079 616.739 250.229 616.289 249.623C615.838 248.999 615.214 248.687 614.417 248.687C613.637 248.687 613.013 248.999 612.545 249.623C612.094 250.247 611.869 251.096 611.869 252.171C611.869 253.245 612.094 254.095 612.545 254.719C613.013 255.343 613.637 255.655 614.417 255.655ZM625.935 265.717C624.669 265.717 623.647 265.266 622.867 264.365C622.104 263.446 621.723 262.241 621.723 260.751C621.723 259.26 622.104 258.064 622.867 257.163C623.647 256.244 624.669 255.785 625.935 255.785C627.2 255.785 628.223 256.244 629.003 257.163C629.783 258.081 630.173 259.277 630.173 260.751C630.173 262.224 629.783 263.42 629.003 264.339C628.223 265.257 627.2 265.717 625.935 265.717ZM625.935 264.235C626.715 264.235 627.33 263.923 627.781 263.299C628.249 262.675 628.483 261.825 628.483 260.751C628.483 259.676 628.249 258.827 627.781 258.203C627.33 257.579 626.715 257.267 625.935 257.267C625.137 257.267 624.513 257.579 624.063 258.203C623.612 258.809 623.387 259.659 623.387 260.751C623.387 261.843 623.612 262.701 624.063 263.325C624.513 263.931 625.137 264.235 625.935 264.235Z" fill="#FAF2E4"/>
<path d="M21.0895 372.72C19.2228 372.72 17.7695 372.187 16.7295 371.12C15.6895 370.054 15.1695 368.52 15.1695 366.52V358.56H17.1695V366.44C17.1695 369.44 18.4828 370.94 21.1095 370.94C22.3895 370.94 23.3695 370.574 24.0495 369.84C24.7295 369.094 25.0695 367.96 25.0695 366.44V358.56H27.0095V366.52C27.0095 368.534 26.4895 370.074 25.4495 371.14C24.4095 372.194 22.9561 372.72 21.0895 372.72ZM36.4498 361.86C37.4764 361.86 38.3964 362.087 39.2098 362.54C40.0231 362.994 40.6564 363.627 41.1098 364.44C41.5764 365.254 41.8098 366.194 41.8098 367.26C41.8098 368.327 41.5764 369.274 41.1098 370.1C40.6564 370.914 40.0231 371.547 39.2098 372C38.3964 372.454 37.4764 372.68 36.4498 372.68C35.6898 372.68 34.9898 372.534 34.3498 372.24C33.7231 371.947 33.1898 371.52 32.7498 370.96V376.44H30.8298V361.96H32.6698V363.64C33.0964 363.054 33.6364 362.614 34.2898 362.32C34.9431 362.014 35.6631 361.86 36.4498 361.86ZM36.2898 371C36.9698 371 37.5764 370.847 38.1098 370.54C38.6564 370.22 39.0831 369.78 39.3898 369.22C39.7098 368.647 39.8698 367.994 39.8698 367.26C39.8698 366.527 39.7098 365.88 39.3898 365.32C39.0831 364.747 38.6564 364.307 38.1098 364C37.5764 363.694 36.9698 363.54 36.2898 363.54C35.6231 363.54 35.0164 363.7 34.4698 364.02C33.9364 364.327 33.5098 364.76 33.1898 365.32C32.8831 365.88 32.7298 366.527 32.7298 367.26C32.7298 367.994 32.8831 368.647 33.1898 369.22C33.4964 369.78 33.9231 370.22 34.4698 370.54C35.0164 370.847 35.6231 371 36.2898 371ZM44.4626 357.72H46.3826V372.56H44.4626V357.72ZM54.5885 372.68C53.5352 372.68 52.5885 372.447 51.7485 371.98C50.9085 371.514 50.2485 370.874 49.7685 370.06C49.3018 369.234 49.0685 368.3 49.0685 367.26C49.0685 366.22 49.3018 365.294 49.7685 364.48C50.2485 363.654 50.9085 363.014 51.7485 362.56C52.5885 362.094 53.5352 361.86 54.5885 361.86C55.6418 361.86 56.5818 362.094 57.4085 362.56C58.2485 363.014 58.9018 363.654 59.3685 364.48C59.8485 365.294 60.0885 366.22 60.0885 367.26C60.0885 368.3 59.8485 369.234 59.3685 370.06C58.9018 370.874 58.2485 371.514 57.4085 371.98C56.5818 372.447 55.6418 372.68 54.5885 372.68ZM54.5885 371C55.2685 371 55.8752 370.847 56.4085 370.54C56.9552 370.22 57.3818 369.78 57.6885 369.22C57.9952 368.647 58.1485 367.994 58.1485 367.26C58.1485 366.527 57.9952 365.88 57.6885 365.32C57.3818 364.747 56.9552 364.307 56.4085 364C55.8752 363.694 55.2685 363.54 54.5885 363.54C53.9085 363.54 53.2952 363.694 52.7485 364C52.2152 364.307 51.7885 364.747 51.4685 365.32C51.1618 365.88 51.0085 366.527 51.0085 367.26C51.0085 367.994 51.1618 368.647 51.4685 369.22C51.7885 369.78 52.2152 370.22 52.7485 370.54C53.2952 370.847 53.9085 371 54.5885 371ZM66.5062 361.86C67.9728 361.86 69.0928 362.22 69.8662 362.94C70.6528 363.66 71.0462 364.734 71.0462 366.16V372.56H69.2262V371.16C68.9062 371.654 68.4462 372.034 67.8462 372.3C67.2595 372.554 66.5595 372.68 65.7462 372.68C64.5595 372.68 63.6062 372.394 62.8862 371.82C62.1795 371.247 61.8262 370.494 61.8262 369.56C61.8262 368.627 62.1662 367.88 62.8462 367.32C63.5262 366.747 64.6062 366.46 66.0862 366.46H69.1262V366.08C69.1262 365.254 68.8862 364.62 68.4062 364.18C67.9262 363.74 67.2195 363.52 66.2862 363.52C65.6595 363.52 65.0462 363.627 64.4462 363.84C63.8462 364.04 63.3395 364.314 62.9262 364.66L62.1262 363.22C62.6728 362.78 63.3262 362.447 64.0862 362.22C64.8462 361.98 65.6528 361.86 66.5062 361.86ZM66.0662 371.2C66.7995 371.2 67.4328 371.04 67.9662 370.72C68.4995 370.387 68.8862 369.92 69.1262 369.32V367.84H66.1662C64.5395 367.84 63.7262 368.387 63.7262 369.48C63.7262 370.014 63.9328 370.434 64.3462 370.74C64.7595 371.047 65.3328 371.2 66.0662 371.2ZM84.6579 357.72V372.56H82.8179V370.88C82.3912 371.467 81.8512 371.914 81.1979 372.22C80.5446 372.527 79.8246 372.68 79.0379 372.68C78.0112 372.68 77.0912 372.454 76.2779 372C75.4646 371.547 74.8246 370.914 74.3579 370.1C73.9046 369.274 73.6779 368.327 73.6779 367.26C73.6779 366.194 73.9046 365.254 74.3579 364.44C74.8246 363.627 75.4646 362.994 76.2779 362.54C77.0912 362.087 78.0112 361.86 79.0379 361.86C79.7979 361.86 80.4979 362.007 81.1379 362.3C81.7779 362.58 82.3112 363 82.7379 363.56V357.72H84.6579ZM79.1979 371C79.8646 371 80.4712 370.847 81.0179 370.54C81.5646 370.22 81.9912 369.78 82.2979 369.22C82.6046 368.647 82.7579 367.994 82.7579 367.26C82.7579 366.527 82.6046 365.88 82.2979 365.32C81.9912 364.747 81.5646 364.307 81.0179 364C80.4712 363.694 79.8646 363.54 79.1979 363.54C78.5179 363.54 77.9046 363.694 77.3579 364C76.8246 364.307 76.3979 364.747 76.0779 365.32C75.7712 365.88 75.6179 366.527 75.6179 367.26C75.6179 367.994 75.7712 368.647 76.0779 369.22C76.3979 369.78 76.8246 370.22 77.3579 370.54C77.9046 370.847 78.5179 371 79.1979 371ZM95.9418 360.3V365.18H102.962V366.9H95.9418V372.56H93.9418V358.56H103.822V360.3H95.9418ZM106.162 361.96H108.082V372.56H106.162V361.96ZM107.122 359.92C106.748 359.92 106.435 359.8 106.182 359.56C105.942 359.32 105.822 359.027 105.822 358.68C105.822 358.334 105.942 358.04 106.182 357.8C106.435 357.547 106.748 357.42 107.122 357.42C107.495 357.42 107.802 357.54 108.042 357.78C108.295 358.007 108.422 358.294 108.422 358.64C108.422 359 108.295 359.307 108.042 359.56C107.802 359.8 107.495 359.92 107.122 359.92ZM111.748 357.72H113.668V372.56H111.748V357.72ZM126.914 367.32C126.914 367.467 126.9 367.66 126.874 367.9H118.274C118.394 368.834 118.8 369.587 119.494 370.16C120.2 370.72 121.074 371 122.114 371C123.38 371 124.4 370.574 125.174 369.72L126.234 370.96C125.754 371.52 125.154 371.947 124.434 372.24C123.727 372.534 122.934 372.68 122.054 372.68C120.934 372.68 119.94 372.454 119.074 372C118.207 371.534 117.534 370.887 117.054 370.06C116.587 369.234 116.354 368.3 116.354 367.26C116.354 366.234 116.58 365.307 117.034 364.48C117.5 363.654 118.134 363.014 118.934 362.56C119.747 362.094 120.66 361.86 121.674 361.86C122.687 361.86 123.587 362.094 124.374 362.56C125.174 363.014 125.794 363.654 126.234 364.48C126.687 365.307 126.914 366.254 126.914 367.32ZM121.674 363.48C120.754 363.48 119.98 363.76 119.354 364.32C118.74 364.88 118.38 365.614 118.274 366.52H125.074C124.967 365.627 124.6 364.9 123.974 364.34C123.36 363.767 122.594 363.48 121.674 363.48ZM132.62 372.68C131.753 372.68 130.92 372.567 130.12 372.34C129.32 372.1 128.693 371.8 128.24 371.44L129.04 369.92C129.506 370.254 130.073 370.52 130.74 370.72C131.406 370.92 132.08 371.02 132.76 371.02C134.44 371.02 135.28 370.54 135.28 369.58C135.28 369.26 135.166 369.007 134.94 368.82C134.713 368.634 134.426 368.5 134.08 368.42C133.746 368.327 133.266 368.227 132.64 368.12C131.786 367.987 131.086 367.834 130.54 367.66C130.006 367.487 129.546 367.194 129.16 366.78C128.773 366.367 128.58 365.787 128.58 365.04C128.58 364.08 128.98 363.314 129.78 362.74C130.58 362.154 131.653 361.86 133 361.86C133.706 361.86 134.413 361.947 135.12 362.12C135.826 362.294 136.406 362.527 136.86 362.82L136.04 364.34C135.173 363.78 134.153 363.5 132.98 363.5C132.166 363.5 131.546 363.634 131.12 363.9C130.693 364.167 130.48 364.52 130.48 364.96C130.48 365.307 130.6 365.58 130.84 365.78C131.08 365.98 131.373 366.127 131.72 366.22C132.08 366.314 132.58 366.42 133.22 366.54C134.073 366.687 134.76 366.847 135.28 367.02C135.813 367.18 136.266 367.46 136.64 367.86C137.013 368.26 137.2 368.82 137.2 369.54C137.2 370.5 136.786 371.267 135.96 371.84C135.146 372.4 134.033 372.68 132.62 372.68Z" fill="black"/>
<path d="M214.781 356.72C213.368 356.72 212.095 356.414 210.961 355.8C209.828 355.174 208.935 354.314 208.281 353.22C207.641 352.127 207.321 350.907 207.321 349.56C207.321 348.214 207.641 346.994 208.281 345.9C208.935 344.807 209.828 343.954 210.961 343.34C212.095 342.714 213.368 342.4 214.781 342.4C216.181 342.4 217.448 342.714 218.581 343.34C219.715 343.954 220.601 344.807 221.241 345.9C221.881 346.98 222.201 348.2 222.201 349.56C222.201 350.92 221.881 352.147 221.241 353.24C220.601 354.32 219.715 355.174 218.581 355.8C217.448 356.414 216.181 356.72 214.781 356.72ZM214.781 354.94C215.808 354.94 216.728 354.707 217.541 354.24C218.368 353.774 219.015 353.134 219.481 352.32C219.961 351.494 220.201 350.574 220.201 349.56C220.201 348.547 219.961 347.634 219.481 346.82C219.015 345.994 218.368 345.347 217.541 344.88C216.728 344.414 215.808 344.18 214.781 344.18C213.755 344.18 212.821 344.414 211.981 344.88C211.155 345.347 210.501 345.994 210.021 346.82C209.555 347.634 209.321 348.547 209.321 349.56C209.321 350.574 209.555 351.494 210.021 352.32C210.501 353.134 211.155 353.774 211.981 354.24C212.821 354.707 213.755 354.94 214.781 354.94ZM226.818 347.74C227.152 347.127 227.645 346.66 228.298 346.34C228.952 346.02 229.745 345.86 230.678 345.86V347.72C230.572 347.707 230.425 347.7 230.238 347.7C229.198 347.7 228.378 348.014 227.778 348.64C227.192 349.254 226.898 350.134 226.898 351.28V356.56H224.978V345.96H226.818V347.74ZM243.087 345.96V355.12C243.087 356.974 242.627 358.34 241.707 359.22C240.787 360.114 239.414 360.56 237.587 360.56C236.587 360.56 235.634 360.42 234.727 360.14C233.82 359.874 233.087 359.487 232.527 358.98L233.447 357.5C233.94 357.927 234.547 358.26 235.267 358.5C236 358.754 236.754 358.88 237.527 358.88C238.767 358.88 239.68 358.587 240.267 358C240.867 357.414 241.167 356.52 241.167 355.32V354.48C240.714 355.027 240.154 355.44 239.487 355.72C238.834 355.987 238.12 356.12 237.347 356.12C236.334 356.12 235.414 355.907 234.587 355.48C233.774 355.04 233.134 354.434 232.667 353.66C232.2 352.874 231.967 351.98 231.967 350.98C231.967 349.98 232.2 349.094 232.667 348.32C233.134 347.534 233.774 346.927 234.587 346.5C235.414 346.074 236.334 345.86 237.347 345.86C238.147 345.86 238.887 346.007 239.567 346.3C240.26 346.594 240.827 347.027 241.267 347.6V345.96H243.087ZM237.567 354.44C238.26 354.44 238.88 354.294 239.427 354C239.987 353.707 240.42 353.3 240.727 352.78C241.047 352.247 241.207 351.647 241.207 350.98C241.207 349.954 240.867 349.127 240.187 348.5C239.507 347.86 238.634 347.54 237.567 347.54C236.487 347.54 235.607 347.86 234.927 348.5C234.247 349.127 233.907 349.954 233.907 350.98C233.907 351.647 234.06 352.247 234.367 352.78C234.687 353.3 235.12 353.707 235.667 354C236.227 354.294 236.86 354.44 237.567 354.44ZM250.616 345.86C252.082 345.86 253.202 346.22 253.976 346.94C254.762 347.66 255.156 348.734 255.156 350.16V356.56H253.336V355.16C253.016 355.654 252.556 356.034 251.956 356.3C251.369 356.554 250.669 356.68 249.856 356.68C248.669 356.68 247.716 356.394 246.996 355.82C246.289 355.247 245.936 354.494 245.936 353.56C245.936 352.627 246.276 351.88 246.956 351.32C247.636 350.747 248.716 350.46 250.196 350.46H253.236V350.08C253.236 349.254 252.996 348.62 252.516 348.18C252.036 347.74 251.329 347.52 250.396 347.52C249.769 347.52 249.156 347.627 248.556 347.84C247.956 348.04 247.449 348.314 247.036 348.66L246.236 347.22C246.782 346.78 247.436 346.447 248.196 346.22C248.956 345.98 249.762 345.86 250.616 345.86ZM250.176 355.2C250.909 355.2 251.542 355.04 252.076 354.72C252.609 354.387 252.996 353.92 253.236 353.32V351.84H250.276C248.649 351.84 247.836 352.387 247.836 353.48C247.836 354.014 248.042 354.434 248.456 354.74C248.869 355.047 249.442 355.2 250.176 355.2ZM264.369 345.86C265.715 345.86 266.782 346.254 267.569 347.04C268.369 347.814 268.769 348.954 268.769 350.46V356.56H266.849V350.68C266.849 349.654 266.602 348.88 266.109 348.36C265.615 347.84 264.909 347.58 263.989 347.58C262.949 347.58 262.129 347.887 261.529 348.5C260.929 349.1 260.629 349.967 260.629 351.1V356.56H258.709V345.96H260.549V347.56C260.935 347.014 261.455 346.594 262.109 346.3C262.775 346.007 263.529 345.86 264.369 345.86ZM272.322 345.96H274.242V356.56H272.322V345.96ZM273.282 343.92C272.909 343.92 272.595 343.8 272.342 343.56C272.102 343.32 271.982 343.027 271.982 342.68C271.982 342.334 272.102 342.04 272.342 341.8C272.595 341.547 272.909 341.42 273.282 341.42C273.655 341.42 273.962 341.54 274.202 341.78C274.455 342.007 274.582 342.294 274.582 342.64C274.582 343 274.455 343.307 274.202 343.56C273.962 343.8 273.655 343.92 273.282 343.92ZM285.768 354.98V356.56H276.888V355.32L283.148 347.54H277.008V345.96H285.608V347.22L279.348 354.98H285.768ZM297.761 351.32C297.761 351.467 297.748 351.66 297.721 351.9H289.121C289.241 352.834 289.648 353.587 290.341 354.16C291.048 354.72 291.921 355 292.961 355C294.228 355 295.248 354.574 296.021 353.72L297.081 354.96C296.601 355.52 296.001 355.947 295.281 356.24C294.575 356.534 293.781 356.68 292.901 356.68C291.781 356.68 290.788 356.454 289.921 356C289.055 355.534 288.381 354.887 287.901 354.06C287.435 353.234 287.201 352.3 287.201 351.26C287.201 350.234 287.428 349.307 287.881 348.48C288.348 347.654 288.981 347.014 289.781 346.56C290.595 346.094 291.508 345.86 292.521 345.86C293.535 345.86 294.435 346.094 295.221 346.56C296.021 347.014 296.641 347.654 297.081 348.48C297.535 349.307 297.761 350.254 297.761 351.32ZM292.521 347.48C291.601 347.48 290.828 347.76 290.201 348.32C289.588 348.88 289.228 349.614 289.121 350.52H295.921C295.815 349.627 295.448 348.9 294.821 348.34C294.208 347.767 293.441 347.48 292.521 347.48ZM219.653 388.72C218.253 388.72 216.986 388.414 215.853 387.8C214.733 387.174 213.853 386.32 213.213 385.24C212.573 384.147 212.253 382.92 212.253 381.56C212.253 380.2 212.573 378.98 213.213 377.9C213.853 376.807 214.74 375.954 215.873 375.34C217.006 374.714 218.273 374.4 219.673 374.4C220.766 374.4 221.766 374.587 222.673 374.96C223.58 375.32 224.353 375.86 224.993 376.58L223.693 377.84C222.64 376.734 221.326 376.18 219.753 376.18C218.713 376.18 217.773 376.414 216.933 376.88C216.093 377.347 215.433 377.994 214.953 378.82C214.486 379.634 214.253 380.547 214.253 381.56C214.253 382.574 214.486 383.494 214.953 384.32C215.433 385.134 216.093 385.774 216.933 386.24C217.773 386.707 218.713 386.94 219.753 386.94C221.313 386.94 222.626 386.38 223.693 385.26L224.993 386.52C224.353 387.24 223.573 387.787 222.653 388.16C221.746 388.534 220.746 388.72 219.653 388.72ZM231.657 388.68C230.604 388.68 229.657 388.447 228.817 387.98C227.977 387.514 227.317 386.874 226.837 386.06C226.37 385.234 226.137 384.3 226.137 383.26C226.137 382.22 226.37 381.294 226.837 380.48C227.317 379.654 227.977 379.014 228.817 378.56C229.657 378.094 230.604 377.86 231.657 377.86C232.71 377.86 233.65 378.094 234.477 378.56C235.317 379.014 235.97 379.654 236.437 380.48C236.917 381.294 237.157 382.22 237.157 383.26C237.157 384.3 236.917 385.234 236.437 386.06C235.97 386.874 235.317 387.514 234.477 387.98C233.65 388.447 232.71 388.68 231.657 388.68ZM231.657 387C232.337 387 232.944 386.847 233.477 386.54C234.024 386.22 234.45 385.78 234.757 385.22C235.064 384.647 235.217 383.994 235.217 383.26C235.217 382.527 235.064 381.88 234.757 381.32C234.45 380.747 234.024 380.307 233.477 380C232.944 379.694 232.337 379.54 231.657 379.54C230.977 379.54 230.364 379.694 229.817 380C229.284 380.307 228.857 380.747 228.537 381.32C228.23 381.88 228.077 382.527 228.077 383.26C228.077 383.994 228.23 384.647 228.537 385.22C228.857 385.78 229.284 386.22 229.817 386.54C230.364 386.847 230.977 387 231.657 387ZM245.472 377.86C246.819 377.86 247.886 378.254 248.672 379.04C249.472 379.814 249.872 380.954 249.872 382.46V388.56H247.952V382.68C247.952 381.654 247.706 380.88 247.212 380.36C246.719 379.84 246.012 379.58 245.092 379.58C244.052 379.58 243.232 379.887 242.632 380.5C242.032 381.1 241.732 381.967 241.732 383.1V388.56H239.812V377.96H241.652V379.56C242.039 379.014 242.559 378.594 243.212 378.3C243.879 378.007 244.632 377.86 245.472 377.86ZM259.385 387.94C259.105 388.18 258.759 388.367 258.345 388.5C257.932 388.62 257.505 388.68 257.065 388.68C255.999 388.68 255.172 388.394 254.585 387.82C253.999 387.247 253.705 386.427 253.705 385.36V379.54H251.905V377.96H253.705V375.64H255.625V377.96H258.665V379.54H255.625V385.28C255.625 385.854 255.765 386.294 256.045 386.6C256.339 386.907 256.752 387.06 257.285 387.06C257.872 387.06 258.372 386.894 258.785 386.56L259.385 387.94ZM270.935 383.32C270.935 383.467 270.922 383.66 270.895 383.9H262.295C262.415 384.834 262.822 385.587 263.515 386.16C264.222 386.72 265.095 387 266.135 387C267.402 387 268.422 386.574 269.195 385.72L270.255 386.96C269.775 387.52 269.175 387.947 268.455 388.24C267.748 388.534 266.955 388.68 266.075 388.68C264.955 388.68 263.962 388.454 263.095 388C262.228 387.534 261.555 386.887 261.075 386.06C260.608 385.234 260.375 384.3 260.375 383.26C260.375 382.234 260.602 381.307 261.055 380.48C261.522 379.654 262.155 379.014 262.955 378.56C263.768 378.094 264.682 377.86 265.695 377.86C266.708 377.86 267.608 378.094 268.395 378.56C269.195 379.014 269.815 379.654 270.255 380.48C270.708 381.307 270.935 382.254 270.935 383.32ZM265.695 379.48C264.775 379.48 264.002 379.76 263.375 380.32C262.762 380.88 262.402 381.614 262.295 382.52H269.095C268.988 381.627 268.622 380.9 267.995 380.34C267.382 379.767 266.615 379.48 265.695 379.48ZM279.261 377.86C280.608 377.86 281.675 378.254 282.461 379.04C283.261 379.814 283.661 380.954 283.661 382.46V388.56H281.741V382.68C281.741 381.654 281.495 380.88 281.001 380.36C280.508 379.84 279.801 379.58 278.881 379.58C277.841 379.58 277.021 379.887 276.421 380.5C275.821 381.1 275.521 381.967 275.521 383.1V388.56H273.601V377.96H275.441V379.56C275.828 379.014 276.348 378.594 277.001 378.3C277.668 378.007 278.421 377.86 279.261 377.86ZM293.175 387.94C292.895 388.18 292.548 388.367 292.135 388.5C291.721 388.62 291.295 388.68 290.855 388.68C289.788 388.68 288.961 388.394 288.375 387.82C287.788 387.247 287.495 386.427 287.495 385.36V379.54H285.695V377.96H287.495V375.64H289.415V377.96H292.455V379.54H289.415V385.28C289.415 385.854 289.555 386.294 289.835 386.6C290.128 386.907 290.541 387.06 291.075 387.06C291.661 387.06 292.161 386.894 292.575 386.56L293.175 387.94Z" fill="black"/>
<path d="M381.784 372.72C380.73 372.72 379.71 372.56 378.724 372.24C377.75 371.907 376.984 371.48 376.424 370.96L377.164 369.4C377.697 369.88 378.377 370.274 379.204 370.58C380.044 370.874 380.904 371.02 381.784 371.02C382.944 371.02 383.81 370.827 384.384 370.44C384.957 370.04 385.244 369.514 385.244 368.86C385.244 368.38 385.084 367.994 384.764 367.7C384.457 367.394 384.07 367.16 383.604 367C383.15 366.84 382.504 366.66 381.664 366.46C380.61 366.207 379.757 365.954 379.104 365.7C378.464 365.447 377.91 365.06 377.444 364.54C376.99 364.007 376.764 363.294 376.764 362.4C376.764 361.654 376.957 360.98 377.344 360.38C377.744 359.78 378.344 359.3 379.144 358.94C379.944 358.58 380.937 358.4 382.124 358.4C382.95 358.4 383.764 358.507 384.564 358.72C385.364 358.934 386.05 359.24 386.624 359.64L385.964 361.24C385.377 360.867 384.75 360.587 384.084 360.4C383.417 360.2 382.764 360.1 382.124 360.1C380.99 360.1 380.137 360.307 379.564 360.72C379.004 361.134 378.724 361.667 378.724 362.32C378.724 362.8 378.884 363.194 379.204 363.5C379.524 363.794 379.917 364.027 380.384 364.2C380.864 364.36 381.51 364.534 382.324 364.72C383.377 364.974 384.224 365.227 384.864 365.48C385.504 365.734 386.05 366.12 386.504 366.64C386.97 367.16 387.204 367.86 387.204 368.74C387.204 369.474 387.004 370.147 386.604 370.76C386.204 371.36 385.597 371.84 384.784 372.2C383.97 372.547 382.97 372.72 381.784 372.72ZM393.705 361.86C395.172 361.86 396.292 362.22 397.065 362.94C397.852 363.66 398.245 364.734 398.245 366.16V372.56H396.425V371.16C396.105 371.654 395.645 372.034 395.045 372.3C394.459 372.554 393.759 372.68 392.945 372.68C391.759 372.68 390.805 372.394 390.085 371.82C389.379 371.247 389.025 370.494 389.025 369.56C389.025 368.627 389.365 367.88 390.045 367.32C390.725 366.747 391.805 366.46 393.285 366.46H396.325V366.08C396.325 365.254 396.085 364.62 395.605 364.18C395.125 363.74 394.419 363.52 393.485 363.52C392.859 363.52 392.245 363.627 391.645 363.84C391.045 364.04 390.539 364.314 390.125 364.66L389.325 363.22C389.872 362.78 390.525 362.447 391.285 362.22C392.045 361.98 392.852 361.86 393.705 361.86ZM393.265 371.2C393.999 371.2 394.632 371.04 395.165 370.72C395.699 370.387 396.085 369.92 396.325 369.32V367.84H393.365C391.739 367.84 390.925 368.387 390.925 369.48C390.925 370.014 391.132 370.434 391.545 370.74C391.959 371.047 392.532 371.2 393.265 371.2ZM410.983 361.96L406.343 372.56H404.383L399.743 361.96H401.743L405.383 370.46L409.103 361.96H410.983ZM422.062 367.32C422.062 367.467 422.049 367.66 422.022 367.9H413.422C413.542 368.834 413.949 369.587 414.642 370.16C415.349 370.72 416.222 371 417.262 371C418.529 371 419.549 370.574 420.322 369.72L421.382 370.96C420.902 371.52 420.302 371.947 419.582 372.24C418.875 372.534 418.082 372.68 417.202 372.68C416.082 372.68 415.089 372.454 414.222 372C413.355 371.534 412.682 370.887 412.202 370.06C411.735 369.234 411.502 368.3 411.502 367.26C411.502 366.234 411.729 365.307 412.182 364.48C412.649 363.654 413.282 363.014 414.082 362.56C414.895 362.094 415.809 361.86 416.822 361.86C417.835 361.86 418.735 362.094 419.522 362.56C420.322 363.014 420.942 363.654 421.382 364.48C421.835 365.307 422.062 366.254 422.062 367.32ZM416.822 363.48C415.902 363.48 415.129 363.76 414.502 364.32C413.889 364.88 413.529 365.614 413.422 366.52H420.222C420.115 365.627 419.749 364.9 419.122 364.34C418.509 363.767 417.742 363.48 416.822 363.48ZM430.379 358.56H432.379V370.82H439.959V372.56H430.379V358.56ZM441.974 361.96H443.894V372.56H441.974V361.96ZM442.934 359.92C442.561 359.92 442.248 359.8 441.994 359.56C441.754 359.32 441.634 359.027 441.634 358.68C441.634 358.334 441.754 358.04 441.994 357.8C442.248 357.547 442.561 357.42 442.934 357.42C443.308 357.42 443.614 357.54 443.854 357.78C444.108 358.007 444.234 358.294 444.234 358.64C444.234 359 444.108 359.307 443.854 359.56C443.614 359.8 443.308 359.92 442.934 359.92ZM453.22 361.86C454.567 361.86 455.634 362.254 456.42 363.04C457.22 363.814 457.62 364.954 457.62 366.46V372.56H455.7V366.68C455.7 365.654 455.454 364.88 454.96 364.36C454.467 363.84 453.76 363.58 452.84 363.58C451.8 363.58 450.98 363.887 450.38 364.5C449.78 365.1 449.48 365.967 449.48 367.1V372.56H447.56V361.96H449.4V363.56C449.787 363.014 450.307 362.594 450.96 362.3C451.627 362.007 452.38 361.86 453.22 361.86ZM465.294 367.62L463.094 369.66V372.56H461.174V357.72H463.094V367.24L468.874 361.96H471.194L466.734 366.34L471.634 372.56H469.274L465.294 367.62ZM476.206 372.68C475.339 372.68 474.506 372.567 473.706 372.34C472.906 372.1 472.279 371.8 471.826 371.44L472.626 369.92C473.092 370.254 473.659 370.52 474.326 370.72C474.992 370.92 475.666 371.02 476.346 371.02C478.026 371.02 478.866 370.54 478.866 369.58C478.866 369.26 478.752 369.007 478.526 368.82C478.299 368.634 478.012 368.5 477.666 368.42C477.332 368.327 476.852 368.227 476.226 368.12C475.372 367.987 474.672 367.834 474.126 367.66C473.592 367.487 473.132 367.194 472.746 366.78C472.359 366.367 472.166 365.787 472.166 365.04C472.166 364.08 472.566 363.314 473.366 362.74C474.166 362.154 475.239 361.86 476.586 361.86C477.292 361.86 477.999 361.947 478.706 362.12C479.412 362.294 479.992 362.527 480.446 362.82L479.626 364.34C478.759 363.78 477.739 363.5 476.566 363.5C475.752 363.5 475.132 363.634 474.706 363.9C474.279 364.167 474.066 364.52 474.066 364.96C474.066 365.307 474.186 365.58 474.426 365.78C474.666 365.98 474.959 366.127 475.306 366.22C475.666 366.314 476.166 366.42 476.806 366.54C477.659 366.687 478.346 366.847 478.866 367.02C479.399 367.18 479.852 367.46 480.226 367.86C480.599 368.26 480.786 368.82 480.786 369.54C480.786 370.5 480.372 371.267 479.546 371.84C478.732 372.4 477.619 372.68 476.206 372.68Z" fill="black"/>
<path d="M554.772 355.72C553.372 355.72 552.105 355.414 550.972 354.8C549.852 354.174 548.972 353.32 548.332 352.24C547.692 351.147 547.372 349.92 547.372 348.56C547.372 347.2 547.692 345.98 548.332 344.9C548.972 343.807 549.859 342.954 550.992 342.34C552.125 341.714 553.392 341.4 554.792 341.4C555.885 341.4 556.885 341.587 557.792 341.96C558.699 342.32 559.472 342.86 560.112 343.58L558.812 344.84C557.759 343.734 556.445 343.18 554.872 343.18C553.832 343.18 552.892 343.414 552.052 343.88C551.212 344.347 550.552 344.994 550.072 345.82C549.605 346.634 549.372 347.547 549.372 348.56C549.372 349.574 549.605 350.494 550.072 351.32C550.552 352.134 551.212 352.774 552.052 353.24C552.892 353.707 553.832 353.94 554.872 353.94C556.432 353.94 557.745 353.38 558.812 352.26L560.112 353.52C559.472 354.24 558.692 354.787 557.772 355.16C556.865 355.534 555.865 355.72 554.772 355.72ZM564.525 346.74C564.859 346.127 565.352 345.66 566.005 345.34C566.659 345.02 567.452 344.86 568.385 344.86V346.72C568.279 346.707 568.132 346.7 567.945 346.7C566.905 346.7 566.085 347.014 565.485 347.64C564.899 348.254 564.605 349.134 564.605 350.28V355.56H562.685V344.96H564.525V346.74ZM580.234 350.32C580.234 350.467 580.221 350.66 580.194 350.9H571.594C571.714 351.834 572.121 352.587 572.814 353.16C573.521 353.72 574.394 354 575.434 354C576.701 354 577.721 353.574 578.494 352.72L579.554 353.96C579.074 354.52 578.474 354.947 577.754 355.24C577.047 355.534 576.254 355.68 575.374 355.68C574.254 355.68 573.261 355.454 572.394 355C571.527 354.534 570.854 353.887 570.374 353.06C569.907 352.234 569.674 351.3 569.674 350.26C569.674 349.234 569.901 348.307 570.354 347.48C570.821 346.654 571.454 346.014 572.254 345.56C573.067 345.094 573.981 344.86 574.994 344.86C576.007 344.86 576.907 345.094 577.694 345.56C578.494 346.014 579.114 346.654 579.554 347.48C580.007 348.307 580.234 349.254 580.234 350.32ZM574.994 346.48C574.074 346.48 573.301 346.76 572.674 347.32C572.061 347.88 571.701 348.614 571.594 349.52H578.394C578.287 348.627 577.921 347.9 577.294 347.34C576.681 346.767 575.914 346.48 574.994 346.48ZM586.467 344.86C587.934 344.86 589.054 345.22 589.827 345.94C590.614 346.66 591.007 347.734 591.007 349.16V355.56H589.187V354.16C588.867 354.654 588.407 355.034 587.807 355.3C587.22 355.554 586.52 355.68 585.707 355.68C584.52 355.68 583.567 355.394 582.847 354.82C582.14 354.247 581.787 353.494 581.787 352.56C581.787 351.627 582.127 350.88 582.807 350.32C583.487 349.747 584.567 349.46 586.047 349.46H589.087V349.08C589.087 348.254 588.847 347.62 588.367 347.18C587.887 346.74 587.18 346.52 586.247 346.52C585.62 346.52 585.007 346.627 584.407 346.84C583.807 347.04 583.3 347.314 582.887 347.66L582.087 346.22C582.634 345.78 583.287 345.447 584.047 345.22C584.807 344.98 585.614 344.86 586.467 344.86ZM586.027 354.2C586.76 354.2 587.394 354.04 587.927 353.72C588.46 353.387 588.847 352.92 589.087 352.32V350.84H586.127C584.5 350.84 583.687 351.387 583.687 352.48C583.687 353.014 583.894 353.434 584.307 353.74C584.72 354.047 585.294 354.2 586.027 354.2ZM600.52 354.94C600.24 355.18 599.894 355.367 599.48 355.5C599.067 355.62 598.64 355.68 598.2 355.68C597.134 355.68 596.307 355.394 595.72 354.82C595.134 354.247 594.84 353.427 594.84 352.36V346.54H593.04V344.96H594.84V342.64H596.76V344.96H599.8V346.54H596.76V352.28C596.76 352.854 596.9 353.294 597.18 353.6C597.474 353.907 597.887 354.06 598.42 354.06C599.007 354.06 599.507 353.894 599.92 353.56L600.52 354.94ZM612.07 350.32C612.07 350.467 612.057 350.66 612.03 350.9H603.43C603.55 351.834 603.957 352.587 604.65 353.16C605.357 353.72 606.23 354 607.27 354C608.537 354 609.557 353.574 610.33 352.72L611.39 353.96C610.91 354.52 610.31 354.947 609.59 355.24C608.883 355.534 608.09 355.68 607.21 355.68C606.09 355.68 605.097 355.454 604.23 355C603.363 354.534 602.69 353.887 602.21 353.06C601.743 352.234 601.51 351.3 601.51 350.26C601.51 349.234 601.737 348.307 602.19 347.48C602.657 346.654 603.29 346.014 604.09 345.56C604.903 345.094 605.817 344.86 606.83 344.86C607.843 344.86 608.743 345.094 609.53 345.56C610.33 346.014 610.95 346.654 611.39 347.48C611.843 348.307 612.07 349.254 612.07 350.32ZM606.83 346.48C605.91 346.48 605.137 346.76 604.51 347.32C603.897 347.88 603.537 348.614 603.43 349.52H610.23C610.123 348.627 609.757 347.9 609.13 347.34C608.517 346.767 607.75 346.48 606.83 346.48ZM632.427 341.56V355.56H630.787L622.387 345.12V355.56H620.387V341.56H622.027L630.427 352V341.56H632.427ZM645.918 350.32C645.918 350.467 645.904 350.66 645.878 350.9H637.278C637.398 351.834 637.804 352.587 638.498 353.16C639.204 353.72 640.078 354 641.118 354C642.384 354 643.404 353.574 644.178 352.72L645.238 353.96C644.758 354.52 644.158 354.947 643.438 355.24C642.731 355.534 641.938 355.68 641.058 355.68C639.938 355.68 638.944 355.454 638.078 355C637.211 354.534 636.538 353.887 636.058 353.06C635.591 352.234 635.358 351.3 635.358 350.26C635.358 349.234 635.584 348.307 636.038 347.48C636.504 346.654 637.138 346.014 637.938 345.56C638.751 345.094 639.664 344.86 640.678 344.86C641.691 344.86 642.591 345.094 643.378 345.56C644.178 346.014 644.798 346.654 645.238 347.48C645.691 348.307 645.918 349.254 645.918 350.32ZM640.678 346.48C639.758 346.48 638.984 346.76 638.358 347.32C637.744 347.88 637.384 348.614 637.278 349.52H644.078C643.971 348.627 643.604 347.9 642.978 347.34C642.364 346.767 641.598 346.48 640.678 346.48ZM664.428 344.96L660.468 355.56H658.628L655.568 347.52L652.468 355.56H650.628L646.688 344.96H648.508L651.588 353.4L654.788 344.96H656.408L659.548 353.44L662.708 344.96H664.428ZM572.653 387.72C571.253 387.72 569.986 387.414 568.853 386.8C567.733 386.174 566.853 385.32 566.213 384.24C565.573 383.147 565.253 381.92 565.253 380.56C565.253 379.2 565.573 377.98 566.213 376.9C566.853 375.807 567.74 374.954 568.873 374.34C570.006 373.714 571.273 373.4 572.673 373.4C573.766 373.4 574.766 373.587 575.673 373.96C576.58 374.32 577.353 374.86 577.993 375.58L576.693 376.84C575.64 375.734 574.326 375.18 572.753 375.18C571.713 375.18 570.773 375.414 569.933 375.88C569.093 376.347 568.433 376.994 567.953 377.82C567.486 378.634 567.253 379.547 567.253 380.56C567.253 381.574 567.486 382.494 567.953 383.32C568.433 384.134 569.093 384.774 569.933 385.24C570.773 385.707 571.713 385.94 572.753 385.94C574.313 385.94 575.626 385.38 576.693 384.26L577.993 385.52C577.353 386.24 576.573 386.787 575.653 387.16C574.746 387.534 573.746 387.72 572.653 387.72ZM584.657 387.68C583.604 387.68 582.657 387.447 581.817 386.98C580.977 386.514 580.317 385.874 579.837 385.06C579.37 384.234 579.137 383.3 579.137 382.26C579.137 381.22 579.37 380.294 579.837 379.48C580.317 378.654 580.977 378.014 581.817 377.56C582.657 377.094 583.604 376.86 584.657 376.86C585.71 376.86 586.65 377.094 587.477 377.56C588.317 378.014 588.97 378.654 589.437 379.48C589.917 380.294 590.157 381.22 590.157 382.26C590.157 383.3 589.917 384.234 589.437 385.06C588.97 385.874 588.317 386.514 587.477 386.98C586.65 387.447 585.71 387.68 584.657 387.68ZM584.657 386C585.337 386 585.944 385.847 586.477 385.54C587.024 385.22 587.45 384.78 587.757 384.22C588.064 383.647 588.217 382.994 588.217 382.26C588.217 381.527 588.064 380.88 587.757 380.32C587.45 379.747 587.024 379.307 586.477 379C585.944 378.694 585.337 378.54 584.657 378.54C583.977 378.54 583.364 378.694 582.817 379C582.284 379.307 581.857 379.747 581.537 380.32C581.23 380.88 581.077 381.527 581.077 382.26C581.077 382.994 581.23 383.647 581.537 384.22C581.857 384.78 582.284 385.22 582.817 385.54C583.364 385.847 583.977 386 584.657 386ZM598.472 376.86C599.819 376.86 600.886 377.254 601.672 378.04C602.472 378.814 602.872 379.954 602.872 381.46V387.56H600.952V381.68C600.952 380.654 600.706 379.88 600.212 379.36C599.719 378.84 599.012 378.58 598.092 378.58C597.052 378.58 596.232 378.887 595.632 379.5C595.032 380.1 594.732 380.967 594.732 382.1V387.56H592.812V376.96H594.652V378.56C595.039 378.014 595.559 377.594 596.212 377.3C596.879 377.007 597.632 376.86 598.472 376.86ZM612.385 386.94C612.105 387.18 611.759 387.367 611.345 387.5C610.932 387.62 610.505 387.68 610.065 387.68C608.999 387.68 608.172 387.394 607.585 386.82C606.999 386.247 606.705 385.427 606.705 384.36V378.54H604.905V376.96H606.705V374.64H608.625V376.96H611.665V378.54H608.625V384.28C608.625 384.854 608.765 385.294 609.045 385.6C609.339 385.907 609.752 386.06 610.285 386.06C610.872 386.06 611.372 385.894 611.785 385.56L612.385 386.94ZM623.935 382.32C623.935 382.467 623.922 382.66 623.895 382.9H615.295C615.415 383.834 615.822 384.587 616.515 385.16C617.222 385.72 618.095 386 619.135 386C620.402 386 621.422 385.574 622.195 384.72L623.255 385.96C622.775 386.52 622.175 386.947 621.455 387.24C620.748 387.534 619.955 387.68 619.075 387.68C617.955 387.68 616.962 387.454 616.095 387C615.228 386.534 614.555 385.887 614.075 385.06C613.608 384.234 613.375 383.3 613.375 382.26C613.375 381.234 613.602 380.307 614.055 379.48C614.522 378.654 615.155 378.014 615.955 377.56C616.768 377.094 617.682 376.86 618.695 376.86C619.708 376.86 620.608 377.094 621.395 377.56C622.195 378.014 622.815 378.654 623.255 379.48C623.708 380.307 623.935 381.254 623.935 382.32ZM618.695 378.48C617.775 378.48 617.002 378.76 616.375 379.32C615.762 379.88 615.402 380.614 615.295 381.52H622.095C621.988 380.627 621.622 379.9 620.995 379.34C620.382 378.767 619.615 378.48 618.695 378.48ZM632.261 376.86C633.608 376.86 634.675 377.254 635.461 378.04C636.261 378.814 636.661 379.954 636.661 381.46V387.56H634.741V381.68C634.741 380.654 634.495 379.88 634.001 379.36C633.508 378.84 632.801 378.58 631.881 378.58C630.841 378.58 630.021 378.887 629.421 379.5C628.821 380.1 628.521 380.967 628.521 382.1V387.56H626.601V376.96H628.441V378.56C628.828 378.014 629.348 377.594 630.001 377.3C630.668 377.007 631.421 376.86 632.261 376.86ZM646.175 386.94C645.895 387.18 645.548 387.367 645.135 387.5C644.721 387.62 644.295 387.68 643.855 387.68C642.788 387.68 641.961 387.394 641.375 386.82C640.788 386.247 640.495 385.427 640.495 384.36V378.54H638.695V376.96H640.495V374.64H642.415V376.96H645.455V378.54H642.415V384.28C642.415 384.854 642.555 385.294 642.835 385.6C643.128 385.907 643.541 386.06 644.075 386.06C644.661 386.06 645.161 385.894 645.575 385.56L646.175 386.94Z" fill="black"/>
</svg>
