<svg width="563" height="138" viewBox="0 0 563 138" fill="none" xmlns="http://www.w3.org/2000/svg">
<path d="M525.188 9.394C525.908 9.67 526.46 10.066 526.844 10.582C527.228 11.098 527.42 11.716 527.42 12.436C527.42 13.192 527.216 13.852 526.808 14.416C526.4 14.968 525.818 15.394 525.062 15.694C524.306 15.994 523.418 16.144 522.398 16.144C521.39 16.144 520.508 15.994 519.752 15.694C519.008 15.394 518.432 14.968 518.024 14.416C517.616 13.852 517.412 13.192 517.412 12.436C517.412 11.716 517.598 11.098 517.97 10.582C518.354 10.066 518.906 9.67 519.626 9.394C519.05 9.118 518.612 8.752 518.312 8.296C518.012 7.84 517.862 7.3 517.862 6.676C517.862 5.98 518.048 5.374 518.42 4.858C518.804 4.342 519.338 3.946 520.022 3.67C520.706 3.394 521.498 3.256 522.398 3.256C523.31 3.256 524.108 3.394 524.792 3.67C525.488 3.946 526.022 4.342 526.394 4.858C526.778 5.374 526.97 5.98 526.97 6.676C526.97 7.288 526.814 7.828 526.502 8.296C526.202 8.752 525.764 9.118 525.188 9.394ZM522.398 4.714C521.546 4.714 520.874 4.9 520.382 5.272C519.89 5.632 519.644 6.124 519.644 6.748C519.644 7.372 519.884 7.864 520.364 8.224C520.856 8.584 521.534 8.764 522.398 8.764C523.274 8.764 523.958 8.584 524.45 8.224C524.954 7.864 525.206 7.372 525.206 6.748C525.206 6.124 524.948 5.632 524.432 5.272C523.928 4.9 523.25 4.714 522.398 4.714ZM522.398 14.686C523.394 14.686 524.18 14.482 524.756 14.074C525.332 13.654 525.62 13.09 525.62 12.382C525.62 11.686 525.332 11.14 524.756 10.744C524.18 10.336 523.394 10.132 522.398 10.132C521.402 10.132 520.622 10.336 520.058 10.744C519.494 11.14 519.212 11.686 519.212 12.382C519.212 13.09 519.494 13.654 520.058 14.074C520.622 14.482 521.402 14.686 522.398 14.686ZM534.216 16.144C533.22 16.144 532.332 15.892 531.552 15.388C530.784 14.872 530.178 14.128 529.734 13.156C529.29 12.184 529.068 11.032 529.068 9.7C529.068 8.368 529.29 7.216 529.734 6.244C530.178 5.272 530.784 4.534 531.552 4.03C532.332 3.514 533.22 3.256 534.216 3.256C535.2 3.256 536.076 3.514 536.844 4.03C537.624 4.534 538.236 5.272 538.68 6.244C539.124 7.216 539.346 8.368 539.346 9.7C539.346 11.032 539.124 12.184 538.68 13.156C538.236 14.128 537.624 14.872 536.844 15.388C536.076 15.892 535.2 16.144 534.216 16.144ZM534.216 14.542C535.224 14.542 536.028 14.128 536.628 13.3C537.24 12.472 537.546 11.272 537.546 9.7C537.546 8.128 537.24 6.928 536.628 6.1C536.028 5.272 535.224 4.858 534.216 4.858C533.196 4.858 532.38 5.272 531.768 6.1C531.168 6.928 530.868 8.128 530.868 9.7C530.868 11.272 531.168 12.472 531.768 13.3C532.38 14.128 533.196 14.542 534.216 14.542ZM543.81 10.168C542.934 10.168 542.226 9.85 541.686 9.214C541.146 8.578 540.876 7.75 540.876 6.73C540.876 5.71 541.146 4.882 541.686 4.246C542.226 3.61 542.934 3.292 543.81 3.292C544.686 3.292 545.388 3.61 545.916 4.246C546.456 4.87 546.726 5.698 546.726 6.73C546.726 7.762 546.456 8.596 545.916 9.232C545.388 9.856 544.686 10.168 543.81 10.168ZM551.406 3.4H552.792L544.188 16H542.802L551.406 3.4ZM543.81 9.142C544.362 9.142 544.794 8.932 545.106 8.512C545.418 8.08 545.574 7.486 545.574 6.73C545.574 5.974 545.418 5.386 545.106 4.966C544.794 4.534 544.362 4.318 543.81 4.318C543.27 4.318 542.838 4.534 542.514 4.966C542.202 5.398 542.046 5.986 542.046 6.73C542.046 7.474 542.202 8.062 542.514 8.494C542.838 8.926 543.27 9.142 543.81 9.142ZM551.784 16.108C550.908 16.108 550.2 15.796 549.66 15.172C549.132 14.536 548.868 13.702 548.868 12.67C548.868 11.638 549.132 10.81 549.66 10.186C550.2 9.55 550.908 9.232 551.784 9.232C552.66 9.232 553.368 9.55 553.908 10.186C554.448 10.822 554.718 11.65 554.718 12.67C554.718 13.69 554.448 14.518 553.908 15.154C553.368 15.79 552.66 16.108 551.784 16.108ZM551.784 15.082C552.324 15.082 552.75 14.866 553.062 14.434C553.386 14.002 553.548 13.414 553.548 12.67C553.548 11.926 553.386 11.338 553.062 10.906C552.75 10.474 552.324 10.258 551.784 10.258C551.232 10.258 550.8 10.474 550.488 10.906C550.176 11.326 550.02 11.914 550.02 12.67C550.02 13.426 550.176 14.02 550.488 14.452C550.8 14.872 551.232 15.082 551.784 15.082Z" fill="black"/>
<path d="M82.9791 15.144C81.2991 15.144 79.9911 14.664 79.0551 13.704C78.1191 12.744 77.6511 11.364 77.6511 9.564V2.4H79.4511V9.492C79.4511 12.192 80.6331 13.542 82.9971 13.542C84.1491 13.542 85.0311 13.212 85.6431 12.552C86.2551 11.88 86.5611 10.86 86.5611 9.492V2.4H88.3071V9.564C88.3071 11.376 87.8391 12.762 86.9031 13.722C85.9671 14.67 84.6591 15.144 82.9791 15.144ZM96.8034 5.37C97.7274 5.37 98.5554 5.574 99.2874 5.982C100.019 6.39 100.589 6.96 100.997 7.692C101.417 8.424 101.627 9.27 101.627 10.23C101.627 11.19 101.417 12.042 100.997 12.786C100.589 13.518 100.019 14.088 99.2874 14.496C98.5554 14.904 97.7274 15.108 96.8034 15.108C96.1194 15.108 95.4894 14.976 94.9134 14.712C94.3494 14.448 93.8694 14.064 93.4734 13.56V18.492H91.7454V5.46H93.4014V6.972C93.7854 6.444 94.2714 6.048 94.8594 5.784C95.4474 5.508 96.0954 5.37 96.8034 5.37ZM96.6594 13.596C97.2714 13.596 97.8174 13.458 98.2974 13.182C98.7894 12.894 99.1734 12.498 99.4494 11.994C99.7374 11.478 99.8814 10.89 99.8814 10.23C99.8814 9.57 99.7374 8.988 99.4494 8.484C99.1734 7.968 98.7894 7.572 98.2974 7.296C97.8174 7.02 97.2714 6.882 96.6594 6.882C96.0594 6.882 95.5134 7.026 95.0214 7.314C94.5414 7.59 94.1574 7.98 93.8694 8.484C93.5934 8.988 93.4554 9.57 93.4554 10.23C93.4554 10.89 93.5934 11.478 93.8694 11.994C94.1454 12.498 94.5294 12.894 95.0214 13.182C95.5134 13.458 96.0594 13.596 96.6594 13.596ZM104.015 1.644H105.743V15H104.015V1.644ZM113.128 15.108C112.18 15.108 111.328 14.898 110.572 14.478C109.816 14.058 109.222 13.482 108.79 12.75C108.37 12.006 108.16 11.166 108.16 10.23C108.16 9.294 108.37 8.46 108.79 7.728C109.222 6.984 109.816 6.408 110.572 6C111.328 5.58 112.18 5.37 113.128 5.37C114.076 5.37 114.922 5.58 115.666 6C116.422 6.408 117.01 6.984 117.43 7.728C117.862 8.46 118.078 9.294 118.078 10.23C118.078 11.166 117.862 12.006 117.43 12.75C117.01 13.482 116.422 14.058 115.666 14.478C114.922 14.898 114.076 15.108 113.128 15.108ZM113.128 13.596C113.74 13.596 114.286 13.458 114.766 13.182C115.258 12.894 115.642 12.498 115.918 11.994C116.194 11.478 116.332 10.89 116.332 10.23C116.332 9.57 116.194 8.988 115.918 8.484C115.642 7.968 115.258 7.572 114.766 7.296C114.286 7.02 113.74 6.882 113.128 6.882C112.516 6.882 111.964 7.02 111.472 7.296C110.992 7.572 110.608 7.968 110.32 8.484C110.044 8.988 109.906 9.57 109.906 10.23C109.906 10.89 110.044 11.478 110.32 11.994C110.608 12.498 110.992 12.894 111.472 13.182C111.964 13.458 112.516 13.596 113.128 13.596ZM123.854 5.37C125.174 5.37 126.182 5.694 126.878 6.342C127.586 6.99 127.94 7.956 127.94 9.24V15H126.302V13.74C126.014 14.184 125.6 14.526 125.06 14.766C124.532 14.994 123.902 15.108 123.17 15.108C122.102 15.108 121.244 14.85 120.596 14.334C119.96 13.818 119.642 13.14 119.642 12.3C119.642 11.46 119.948 10.788 120.56 10.284C121.172 9.768 122.144 9.51 123.476 9.51H126.212V9.168C126.212 8.424 125.996 7.854 125.564 7.458C125.132 7.062 124.496 6.864 123.656 6.864C123.092 6.864 122.54 6.96 122 7.152C121.46 7.332 121.004 7.578 120.632 7.89L119.912 6.594C120.404 6.198 120.992 5.898 121.676 5.694C122.36 5.478 123.086 5.37 123.854 5.37ZM123.458 13.776C124.118 13.776 124.688 13.632 125.168 13.344C125.648 13.044 125.996 12.624 126.212 12.084V10.752H123.548C122.084 10.752 121.352 11.244 121.352 12.228C121.352 12.708 121.538 13.086 121.91 13.362C122.282 13.638 122.798 13.776 123.458 13.776ZM140.191 1.644V15H138.535V13.488C138.151 14.016 137.665 14.418 137.077 14.694C136.489 14.97 135.841 15.108 135.133 15.108C134.209 15.108 133.381 14.904 132.649 14.496C131.917 14.088 131.341 13.518 130.921 12.786C130.513 12.042 130.309 11.19 130.309 10.23C130.309 9.27 130.513 8.424 130.921 7.692C131.341 6.96 131.917 6.39 132.649 5.982C133.381 5.574 134.209 5.37 135.133 5.37C135.817 5.37 136.447 5.502 137.023 5.766C137.599 6.018 138.079 6.396 138.463 6.9V1.644H140.191ZM135.277 13.596C135.877 13.596 136.423 13.458 136.915 13.182C137.407 12.894 137.791 12.498 138.067 11.994C138.343 11.478 138.481 10.89 138.481 10.23C138.481 9.57 138.343 8.988 138.067 8.484C137.791 7.968 137.407 7.572 136.915 7.296C136.423 7.02 135.877 6.882 135.277 6.882C134.665 6.882 134.113 7.02 133.621 7.296C133.141 7.572 132.757 7.968 132.469 8.484C132.193 8.988 132.055 9.57 132.055 10.23C132.055 10.89 132.193 11.478 132.469 11.994C132.757 12.498 133.141 12.894 133.621 13.182C134.113 13.458 134.665 13.596 135.277 13.596ZM150.346 3.966V8.358H156.664V9.906H150.346V15H148.546V2.4H157.438V3.966H150.346ZM159.544 5.46H161.272V15H159.544V5.46ZM160.408 3.624C160.072 3.624 159.79 3.516 159.562 3.3C159.346 3.084 159.238 2.82 159.238 2.508C159.238 2.196 159.346 1.932 159.562 1.716C159.79 1.488 160.072 1.374 160.408 1.374C160.744 1.374 161.02 1.482 161.236 1.698C161.464 1.902 161.578 2.16 161.578 2.472C161.578 2.796 161.464 3.072 161.236 3.3C161.02 3.516 160.744 3.624 160.408 3.624ZM164.572 1.644H166.3V15H164.572V1.644ZM178.221 10.284C178.221 10.416 178.209 10.59 178.185 10.806H170.445C170.553 11.646 170.919 12.324 171.543 12.84C172.179 13.344 172.965 13.596 173.901 13.596C175.041 13.596 175.959 13.212 176.655 12.444L177.609 13.56C177.177 14.064 176.637 14.448 175.989 14.712C175.353 14.976 174.639 15.108 173.847 15.108C172.839 15.108 171.945 14.904 171.165 14.496C170.385 14.076 169.779 13.494 169.347 12.75C168.927 12.006 168.717 11.166 168.717 10.23C168.717 9.306 168.921 8.472 169.329 7.728C169.749 6.984 170.319 6.408 171.039 6C171.771 5.58 172.593 5.37 173.505 5.37C174.417 5.37 175.227 5.58 175.935 6C176.655 6.408 177.213 6.984 177.609 7.728C178.017 8.472 178.221 9.324 178.221 10.284ZM173.505 6.828C172.677 6.828 171.981 7.08 171.417 7.584C170.865 8.088 170.541 8.748 170.445 9.564H176.565C176.469 8.76 176.139 8.106 175.575 7.602C175.023 7.086 174.333 6.828 173.505 6.828ZM183.356 15.108C182.576 15.108 181.826 15.006 181.106 14.802C180.386 14.586 179.822 14.316 179.414 13.992L180.134 12.624C180.554 12.924 181.064 13.164 181.664 13.344C182.264 13.524 182.87 13.614 183.482 13.614C184.994 13.614 185.75 13.182 185.75 12.318C185.75 12.03 185.648 11.802 185.444 11.634C185.24 11.466 184.982 11.346 184.67 11.274C184.37 11.19 183.938 11.1 183.374 11.004C182.606 10.884 181.976 10.746 181.484 10.59C181.004 10.434 180.59 10.17 180.242 9.798C179.894 9.426 179.72 8.904 179.72 8.232C179.72 7.368 180.08 6.678 180.8 6.162C181.52 5.634 182.486 5.37 183.698 5.37C184.334 5.37 184.97 5.448 185.606 5.604C186.242 5.76 186.764 5.97 187.172 6.234L186.434 7.602C185.654 7.098 184.736 6.846 183.68 6.846C182.948 6.846 182.39 6.966 182.006 7.206C181.622 7.446 181.43 7.764 181.43 8.16C181.43 8.472 181.538 8.718 181.754 8.898C181.97 9.078 182.234 9.21 182.546 9.294C182.87 9.378 183.32 9.474 183.896 9.582C184.664 9.714 185.282 9.858 185.75 10.014C186.23 10.158 186.638 10.41 186.974 10.77C187.31 11.13 187.478 11.634 187.478 12.282C187.478 13.146 187.106 13.836 186.362 14.352C185.63 14.856 184.628 15.108 183.356 15.108Z" fill="black"/>
<path d="M33.578 55.144C32.306 55.144 31.16 54.868 30.14 54.316C29.12 53.752 28.316 52.978 27.728 51.994C27.152 51.01 26.864 49.912 26.864 48.7C26.864 47.488 27.152 46.39 27.728 45.406C28.316 44.422 29.12 43.654 30.14 43.102C31.16 42.538 32.306 42.256 33.578 42.256C34.838 42.256 35.978 42.538 36.998 43.102C38.018 43.654 38.816 44.422 39.392 45.406C39.968 46.378 40.256 47.476 40.256 48.7C40.256 49.924 39.968 51.028 39.392 52.012C38.816 52.984 38.018 53.752 36.998 54.316C35.978 54.868 34.838 55.144 33.578 55.144ZM33.578 53.542C34.502 53.542 35.33 53.332 36.062 52.912C36.806 52.492 37.388 51.916 37.808 51.184C38.24 50.44 38.456 49.612 38.456 48.7C38.456 47.788 38.24 46.966 37.808 46.234C37.388 45.49 36.806 44.908 36.062 44.488C35.33 44.068 34.502 43.858 33.578 43.858C32.654 43.858 31.814 44.068 31.058 44.488C30.314 44.908 29.726 45.49 29.294 46.234C28.874 46.966 28.664 47.788 28.664 48.7C28.664 49.612 28.874 50.44 29.294 51.184C29.726 51.916 30.314 52.492 31.058 52.912C31.814 53.332 32.654 53.542 33.578 53.542ZM44.4112 47.062C44.7112 46.51 45.1552 46.09 45.7432 45.802C46.3312 45.514 47.0452 45.37 47.8852 45.37V47.044C47.7892 47.032 47.6572 47.026 47.4892 47.026C46.5532 47.026 45.8152 47.308 45.2752 47.872C44.7472 48.424 44.4832 49.216 44.4832 50.248V55H42.7552V45.46H44.4112V47.062ZM59.0531 45.46V53.704C59.0531 55.372 58.6391 56.602 57.8111 57.394C56.9831 58.198 55.7471 58.6 54.1031 58.6C53.2031 58.6 52.3451 58.474 51.5291 58.222C50.7131 57.982 50.0531 57.634 49.5491 57.178L50.3771 55.846C50.8211 56.23 51.3671 56.53 52.0151 56.746C52.6751 56.974 53.3531 57.088 54.0491 57.088C55.1651 57.088 55.9871 56.824 56.5151 56.296C57.0551 55.768 57.3251 54.964 57.3251 53.884V53.128C56.9171 53.62 56.4131 53.992 55.8131 54.244C55.2251 54.484 54.5831 54.604 53.8871 54.604C52.9751 54.604 52.1471 54.412 51.4031 54.028C50.6711 53.632 50.0951 53.086 49.6751 52.39C49.2551 51.682 49.0451 50.878 49.0451 49.978C49.0451 49.078 49.2551 48.28 49.6751 47.584C50.0951 46.876 50.6711 46.33 51.4031 45.946C52.1471 45.562 52.9751 45.37 53.8871 45.37C54.6071 45.37 55.2731 45.502 55.8851 45.766C56.5091 46.03 57.0191 46.42 57.4151 46.936V45.46H59.0531ZM54.0851 53.092C54.7091 53.092 55.2671 52.96 55.7591 52.696C56.2631 52.432 56.6531 52.066 56.9291 51.598C57.2171 51.118 57.3611 50.578 57.3611 49.978C57.3611 49.054 57.0551 48.31 56.4431 47.746C55.8311 47.17 55.0451 46.882 54.0851 46.882C53.1131 46.882 52.3211 47.17 51.7091 47.746C51.0971 48.31 50.7911 49.054 50.7911 49.978C50.7911 50.578 50.9291 51.118 51.2051 51.598C51.4931 52.066 51.8831 52.432 52.3751 52.696C52.8791 52.96 53.4491 53.092 54.0851 53.092ZM65.8288 45.37C67.1488 45.37 68.1568 45.694 68.8528 46.342C69.5608 46.99 69.9148 47.956 69.9148 49.24V55H68.2768V53.74C67.9888 54.184 67.5748 54.526 67.0348 54.766C66.5068 54.994 65.8768 55.108 65.1448 55.108C64.0768 55.108 63.2188 54.85 62.5708 54.334C61.9348 53.818 61.6168 53.14 61.6168 52.3C61.6168 51.46 61.9228 50.788 62.5348 50.284C63.1468 49.768 64.1188 49.51 65.4508 49.51H68.1868V49.168C68.1868 48.424 67.9708 47.854 67.5388 47.458C67.1068 47.062 66.4708 46.864 65.6308 46.864C65.0668 46.864 64.5148 46.96 63.9748 47.152C63.4348 47.332 62.9788 47.578 62.6068 47.89L61.8868 46.594C62.3788 46.198 62.9668 45.898 63.6508 45.694C64.3348 45.478 65.0608 45.37 65.8288 45.37ZM65.4328 53.776C66.0928 53.776 66.6628 53.632 67.1428 53.344C67.6228 53.044 67.9708 52.624 68.1868 52.084V50.752H65.5228C64.0588 50.752 63.3268 51.244 63.3268 52.228C63.3268 52.708 63.5128 53.086 63.8848 53.362C64.2568 53.638 64.7728 53.776 65.4328 53.776ZM78.2066 45.37C79.4186 45.37 80.3786 45.724 81.0866 46.432C81.8066 47.128 82.1666 48.154 82.1666 49.51V55H80.4386V49.708C80.4386 48.784 80.2166 48.088 79.7726 47.62C79.3286 47.152 78.6926 46.918 77.8646 46.918C76.9286 46.918 76.1906 47.194 75.6506 47.746C75.1106 48.286 74.8406 49.066 74.8406 50.086V55H73.1126V45.46H74.7686V46.9C75.1166 46.408 75.5846 46.03 76.1726 45.766C76.7726 45.502 77.4506 45.37 78.2066 45.37ZM85.3646 45.46H87.0926V55H85.3646V45.46ZM86.2286 43.624C85.8926 43.624 85.6106 43.516 85.3826 43.3C85.1666 43.084 85.0586 42.82 85.0586 42.508C85.0586 42.196 85.1666 41.932 85.3826 41.716C85.6106 41.488 85.8926 41.374 86.2286 41.374C86.5646 41.374 86.8406 41.482 87.0566 41.698C87.2846 41.902 87.3986 42.16 87.3986 42.472C87.3986 42.796 87.2846 43.072 87.0566 43.3C86.8406 43.516 86.5646 43.624 86.2286 43.624ZM97.4659 53.578V55H89.4739V53.884L95.1079 46.882H89.5819V45.46H97.3219V46.594L91.6879 53.578H97.4659ZM108.26 50.284C108.26 50.416 108.248 50.59 108.224 50.806H100.484C100.592 51.646 100.958 52.324 101.582 52.84C102.218 53.344 103.004 53.596 103.94 53.596C105.08 53.596 105.998 53.212 106.694 52.444L107.648 53.56C107.216 54.064 106.676 54.448 106.028 54.712C105.392 54.976 104.678 55.108 103.886 55.108C102.878 55.108 101.984 54.904 101.204 54.496C100.424 54.076 99.818 53.494 99.386 52.75C98.966 52.006 98.756 51.166 98.756 50.23C98.756 49.306 98.96 48.472 99.368 47.728C99.788 46.984 100.358 46.408 101.078 46C101.81 45.58 102.632 45.37 103.544 45.37C104.456 45.37 105.266 45.58 105.974 46C106.694 46.408 107.252 46.984 107.648 47.728C108.056 48.472 108.26 49.324 108.26 50.284ZM103.544 46.828C102.716 46.828 102.02 47.08 101.456 47.584C100.904 48.088 100.58 48.748 100.484 49.564H106.604C106.508 48.76 106.178 48.106 105.614 47.602C105.062 47.086 104.372 46.828 103.544 46.828ZM121.379 55.144C120.119 55.144 118.979 54.868 117.959 54.316C116.951 53.752 116.159 52.984 115.583 52.012C115.007 51.028 114.719 49.924 114.719 48.7C114.719 47.476 115.007 46.378 115.583 45.406C116.159 44.422 116.957 43.654 117.977 43.102C118.997 42.538 120.137 42.256 121.397 42.256C122.381 42.256 123.281 42.424 124.097 42.76C124.913 43.084 125.609 43.57 126.185 44.218L125.015 45.352C124.067 44.356 122.885 43.858 121.469 43.858C120.533 43.858 119.687 44.068 118.931 44.488C118.175 44.908 117.581 45.49 117.149 46.234C116.729 46.966 116.519 47.788 116.519 48.7C116.519 49.612 116.729 50.44 117.149 51.184C117.581 51.916 118.175 52.492 118.931 52.912C119.687 53.332 120.533 53.542 121.469 53.542C122.873 53.542 124.055 53.038 125.015 52.03L126.185 53.164C125.609 53.812 124.907 54.304 124.079 54.64C123.263 54.976 122.363 55.144 121.379 55.144ZM132.183 55.108C131.235 55.108 130.383 54.898 129.627 54.478C128.871 54.058 128.277 53.482 127.845 52.75C127.425 52.006 127.215 51.166 127.215 50.23C127.215 49.294 127.425 48.46 127.845 47.728C128.277 46.984 128.871 46.408 129.627 46C130.383 45.58 131.235 45.37 132.183 45.37C133.131 45.37 133.977 45.58 134.721 46C135.477 46.408 136.065 46.984 136.485 47.728C136.917 48.46 137.133 49.294 137.133 50.23C137.133 51.166 136.917 52.006 136.485 52.75C136.065 53.482 135.477 54.058 134.721 54.478C133.977 54.898 133.131 55.108 132.183 55.108ZM132.183 53.596C132.795 53.596 133.341 53.458 133.821 53.182C134.313 52.894 134.697 52.498 134.973 51.994C135.249 51.478 135.387 50.89 135.387 50.23C135.387 49.57 135.249 48.988 134.973 48.484C134.697 47.968 134.313 47.572 133.821 47.296C133.341 47.02 132.795 46.882 132.183 46.882C131.571 46.882 131.019 47.02 130.527 47.296C130.047 47.572 129.663 47.968 129.375 48.484C129.099 48.988 128.961 49.57 128.961 50.23C128.961 50.89 129.099 51.478 129.375 51.994C129.663 52.498 130.047 52.894 130.527 53.182C131.019 53.458 131.571 53.596 132.183 53.596ZM144.617 45.37C145.829 45.37 146.789 45.724 147.497 46.432C148.217 47.128 148.577 48.154 148.577 49.51V55H146.849V49.708C146.849 48.784 146.627 48.088 146.183 47.62C145.739 47.152 145.103 46.918 144.275 46.918C143.339 46.918 142.601 47.194 142.061 47.746C141.521 48.286 141.251 49.066 141.251 50.086V55H139.523V45.46H141.179V46.9C141.527 46.408 141.995 46.03 142.583 45.766C143.183 45.502 143.861 45.37 144.617 45.37ZM157.139 54.442C156.887 54.658 156.575 54.826 156.203 54.946C155.831 55.054 155.447 55.108 155.051 55.108C154.091 55.108 153.347 54.85 152.819 54.334C152.291 53.818 152.027 53.08 152.027 52.12V46.882H150.407V45.46H152.027V43.372H153.755V45.46H156.491V46.882H153.755V52.048C153.755 52.564 153.881 52.96 154.133 53.236C154.397 53.512 154.769 53.65 155.249 53.65C155.777 53.65 156.227 53.5 156.599 53.2L157.139 54.442ZM167.533 50.284C167.533 50.416 167.521 50.59 167.497 50.806H159.757C159.865 51.646 160.231 52.324 160.855 52.84C161.491 53.344 162.277 53.596 163.213 53.596C164.353 53.596 165.271 53.212 165.967 52.444L166.921 53.56C166.489 54.064 165.949 54.448 165.301 54.712C164.665 54.976 163.951 55.108 163.159 55.108C162.151 55.108 161.257 54.904 160.477 54.496C159.697 54.076 159.091 53.494 158.659 52.75C158.239 52.006 158.029 51.166 158.029 50.23C158.029 49.306 158.233 48.472 158.641 47.728C159.061 46.984 159.631 46.408 160.351 46C161.083 45.58 161.905 45.37 162.817 45.37C163.729 45.37 164.539 45.58 165.247 46C165.967 46.408 166.525 46.984 166.921 47.728C167.329 48.472 167.533 49.324 167.533 50.284ZM162.817 46.828C161.989 46.828 161.293 47.08 160.729 47.584C160.177 48.088 159.853 48.748 159.757 49.564H165.877C165.781 48.76 165.451 48.106 164.887 47.602C164.335 47.086 163.645 46.828 162.817 46.828ZM175.027 45.37C176.239 45.37 177.199 45.724 177.907 46.432C178.627 47.128 178.987 48.154 178.987 49.51V55H177.259V49.708C177.259 48.784 177.037 48.088 176.593 47.62C176.149 47.152 175.513 46.918 174.685 46.918C173.749 46.918 173.011 47.194 172.471 47.746C171.931 48.286 171.661 49.066 171.661 50.086V55H169.933V45.46H171.589V46.9C171.937 46.408 172.405 46.03 172.993 45.766C173.593 45.502 174.271 45.37 175.027 45.37ZM187.549 54.442C187.297 54.658 186.985 54.826 186.613 54.946C186.241 55.054 185.857 55.108 185.461 55.108C184.501 55.108 183.757 54.85 183.229 54.334C182.701 53.818 182.437 53.08 182.437 52.12V46.882H180.817V45.46H182.437V43.372H184.165V45.46H186.901V46.882H184.165V52.048C184.165 52.564 184.291 52.96 184.543 53.236C184.807 53.512 185.179 53.65 185.659 53.65C186.187 53.65 186.637 53.5 187.009 53.2L187.549 54.442Z" fill="black"/>
<path d="M98.3765 95.144C97.4285 95.144 96.5105 95 95.6225 94.712C94.7465 94.412 94.0565 94.028 93.5525 93.56L94.2185 92.156C94.6985 92.588 95.3105 92.942 96.0545 93.218C96.8105 93.482 97.5845 93.614 98.3765 93.614C99.4205 93.614 100.2 93.44 100.716 93.092C101.232 92.732 101.49 92.258 101.49 91.67C101.49 91.238 101.346 90.89 101.058 90.626C100.782 90.35 100.434 90.14 100.014 89.996C99.6065 89.852 99.0245 89.69 98.2685 89.51C97.3205 89.282 96.5525 89.054 95.9645 88.826C95.3885 88.598 94.8905 88.25 94.4705 87.782C94.0625 87.302 93.8585 86.66 93.8585 85.856C93.8585 85.184 94.0325 84.578 94.3805 84.038C94.7405 83.498 95.2805 83.066 96.0005 82.742C96.7205 82.418 97.6145 82.256 98.6825 82.256C99.4265 82.256 100.158 82.352 100.878 82.544C101.598 82.736 102.216 83.012 102.732 83.372L102.138 84.812C101.61 84.476 101.046 84.224 100.446 84.056C99.8465 83.876 99.2585 83.786 98.6825 83.786C97.6625 83.786 96.8945 83.972 96.3785 84.344C95.8745 84.716 95.6225 85.196 95.6225 85.784C95.6225 86.216 95.7665 86.57 96.0545 86.846C96.3425 87.11 96.6965 87.32 97.1165 87.476C97.5485 87.62 98.1305 87.776 98.8625 87.944C99.8105 88.172 100.572 88.4 101.148 88.628C101.724 88.856 102.216 89.204 102.624 89.672C103.044 90.14 103.254 90.77 103.254 91.562C103.254 92.222 103.074 92.828 102.714 93.38C102.354 93.92 101.808 94.352 101.076 94.676C100.344 94.988 99.4445 95.144 98.3765 95.144ZM109.106 85.37C110.426 85.37 111.434 85.694 112.13 86.342C112.838 86.99 113.192 87.956 113.192 89.24V95H111.554V93.74C111.266 94.184 110.852 94.526 110.312 94.766C109.784 94.994 109.154 95.108 108.422 95.108C107.354 95.108 106.496 94.85 105.848 94.334C105.212 93.818 104.894 93.14 104.894 92.3C104.894 91.46 105.2 90.788 105.812 90.284C106.424 89.768 107.396 89.51 108.728 89.51H111.464V89.168C111.464 88.424 111.248 87.854 110.816 87.458C110.384 87.062 109.748 86.864 108.908 86.864C108.344 86.864 107.792 86.96 107.252 87.152C106.712 87.332 106.256 87.578 105.884 87.89L105.164 86.594C105.656 86.198 106.244 85.898 106.928 85.694C107.612 85.478 108.338 85.37 109.106 85.37ZM108.71 93.776C109.37 93.776 109.94 93.632 110.42 93.344C110.9 93.044 111.248 92.624 111.464 92.084V90.752H108.8C107.336 90.752 106.604 91.244 106.604 92.228C106.604 92.708 106.79 93.086 107.162 93.362C107.534 93.638 108.05 93.776 108.71 93.776ZM124.656 85.46L120.48 95H118.716L114.54 85.46H116.34L119.616 93.11L122.964 85.46H124.656ZM134.627 90.284C134.627 90.416 134.615 90.59 134.591 90.806H126.851C126.959 91.646 127.325 92.324 127.949 92.84C128.585 93.344 129.371 93.596 130.307 93.596C131.447 93.596 132.365 93.212 133.061 92.444L134.015 93.56C133.583 94.064 133.043 94.448 132.395 94.712C131.759 94.976 131.045 95.108 130.253 95.108C129.245 95.108 128.351 94.904 127.571 94.496C126.791 94.076 126.185 93.494 125.753 92.75C125.333 92.006 125.123 91.166 125.123 90.23C125.123 89.306 125.327 88.472 125.735 87.728C126.155 86.984 126.725 86.408 127.445 86C128.177 85.58 128.999 85.37 129.911 85.37C130.823 85.37 131.633 85.58 132.341 86C133.061 86.408 133.619 86.984 134.015 87.728C134.423 88.472 134.627 89.324 134.627 90.284ZM129.911 86.828C129.083 86.828 128.387 87.08 127.823 87.584C127.271 88.088 126.947 88.748 126.851 89.564H132.971C132.875 88.76 132.545 88.106 131.981 87.602C131.429 87.086 130.739 86.828 129.911 86.828ZM142.113 82.4H143.913V93.434H150.735V95H142.113V82.4ZM152.548 85.46H154.276V95H152.548V85.46ZM153.412 83.624C153.076 83.624 152.794 83.516 152.566 83.3C152.35 83.084 152.242 82.82 152.242 82.508C152.242 82.196 152.35 81.932 152.566 81.716C152.794 81.488 153.076 81.374 153.412 81.374C153.748 81.374 154.024 81.482 154.24 81.698C154.468 81.902 154.582 82.16 154.582 82.472C154.582 82.796 154.468 83.072 154.24 83.3C154.024 83.516 153.748 83.624 153.412 83.624ZM162.67 85.37C163.882 85.37 164.842 85.724 165.55 86.432C166.27 87.128 166.63 88.154 166.63 89.51V95H164.902V89.708C164.902 88.784 164.68 88.088 164.236 87.62C163.792 87.152 163.156 86.918 162.328 86.918C161.392 86.918 160.654 87.194 160.114 87.746C159.574 88.286 159.304 89.066 159.304 90.086V95H157.576V85.46H159.232V86.9C159.58 86.408 160.048 86.03 160.636 85.766C161.236 85.502 161.914 85.37 162.67 85.37ZM173.535 90.554L171.555 92.39V95H169.827V81.644H171.555V90.212L176.757 85.46H178.845L174.831 89.402L179.241 95H177.117L173.535 90.554ZM183.356 95.108C182.576 95.108 181.826 95.006 181.106 94.802C180.386 94.586 179.822 94.316 179.414 93.992L180.134 92.624C180.554 92.924 181.064 93.164 181.664 93.344C182.264 93.524 182.87 93.614 183.482 93.614C184.994 93.614 185.75 93.182 185.75 92.318C185.75 92.03 185.648 91.802 185.444 91.634C185.24 91.466 184.982 91.346 184.67 91.274C184.37 91.19 183.938 91.1 183.374 91.004C182.606 90.884 181.976 90.746 181.484 90.59C181.004 90.434 180.59 90.17 180.242 89.798C179.894 89.426 179.72 88.904 179.72 88.232C179.72 87.368 180.08 86.678 180.8 86.162C181.52 85.634 182.486 85.37 183.698 85.37C184.334 85.37 184.97 85.448 185.606 85.604C186.242 85.76 186.764 85.97 187.172 86.234L186.434 87.602C185.654 87.098 184.736 86.846 183.68 86.846C182.948 86.846 182.39 86.966 182.006 87.206C181.622 87.446 181.43 87.764 181.43 88.16C181.43 88.472 181.538 88.718 181.754 88.898C181.97 89.078 182.234 89.21 182.546 89.294C182.87 89.378 183.32 89.474 183.896 89.582C184.664 89.714 185.282 89.858 185.75 90.014C186.23 90.158 186.638 90.41 186.974 90.77C187.31 91.13 187.478 91.634 187.478 92.282C187.478 93.146 187.106 93.836 186.362 94.352C185.63 94.856 184.628 95.108 183.356 95.108Z" fill="black"/>
<rect x="203" y="5" width="300" height="10" rx="5" fill="#D1D1D1"/>
<rect x="203" y="5" width="240" height="10" rx="5" fill="#915650"/>
<path d="M522.656 48.422C524.456 48.422 525.776 48.764 526.616 49.448C527.468 50.12 527.894 51.044 527.894 52.22C527.894 52.964 527.714 53.636 527.354 54.236C527.006 54.824 526.472 55.292 525.752 55.64C525.044 55.976 524.168 56.144 523.124 56.144C522.236 56.144 521.378 56.012 520.55 55.748C519.722 55.472 519.038 55.094 518.498 54.614L519.326 53.192C519.758 53.6 520.31 53.93 520.982 54.182C521.654 54.422 522.362 54.542 523.106 54.542C524.054 54.542 524.786 54.344 525.302 53.948C525.83 53.54 526.094 52.988 526.094 52.292C526.094 51.536 525.806 50.966 525.23 50.582C524.654 50.186 523.67 49.988 522.278 49.988H519.416L520.082 43.4H527.192V44.966H521.594L521.252 48.422H522.656ZM533.478 43.256C535.17 43.256 536.472 43.802 537.384 44.894C538.308 45.986 538.77 47.534 538.77 49.538C538.77 50.942 538.518 52.142 538.014 53.138C537.522 54.122 536.826 54.872 535.926 55.388C535.038 55.892 534 56.144 532.812 56.144C532.2 56.144 531.624 56.084 531.084 55.964C530.544 55.832 530.076 55.646 529.68 55.406L530.364 54.002C530.976 54.398 531.786 54.596 532.794 54.596C534.102 54.596 535.122 54.194 535.854 53.39C536.598 52.574 536.97 51.392 536.97 49.844V49.394C536.61 49.934 536.112 50.348 535.476 50.636C534.84 50.912 534.126 51.05 533.334 51.05C532.506 51.05 531.762 50.894 531.102 50.582C530.454 50.27 529.944 49.826 529.572 49.25C529.212 48.662 529.032 47.99 529.032 47.234C529.032 46.442 529.224 45.746 529.608 45.146C530.004 44.546 530.538 44.084 531.21 43.76C531.882 43.424 532.638 43.256 533.478 43.256ZM533.64 49.592C534.204 49.592 534.708 49.484 535.152 49.268C535.596 49.052 535.938 48.758 536.178 48.386C536.43 48.014 536.556 47.6 536.556 47.144C536.556 46.7 536.436 46.298 536.196 45.938C535.968 45.566 535.626 45.272 535.17 45.056C534.726 44.828 534.186 44.714 533.55 44.714C532.722 44.714 532.05 44.936 531.534 45.38C531.03 45.824 530.778 46.418 530.778 47.162C530.778 47.906 531.036 48.5 531.552 48.944C532.068 49.376 532.764 49.592 533.64 49.592ZM543.238 50.168C542.362 50.168 541.654 49.85 541.114 49.214C540.574 48.578 540.304 47.75 540.304 46.73C540.304 45.71 540.574 44.882 541.114 44.246C541.654 43.61 542.362 43.292 543.238 43.292C544.114 43.292 544.816 43.61 545.344 44.246C545.884 44.87 546.154 45.698 546.154 46.73C546.154 47.762 545.884 48.596 545.344 49.232C544.816 49.856 544.114 50.168 543.238 50.168ZM550.834 43.4H552.22L543.616 56H542.23L550.834 43.4ZM543.238 49.142C543.79 49.142 544.222 48.932 544.534 48.512C544.846 48.08 545.002 47.486 545.002 46.73C545.002 45.974 544.846 45.386 544.534 44.966C544.222 44.534 543.79 44.318 543.238 44.318C542.698 44.318 542.266 44.534 541.942 44.966C541.63 45.398 541.474 45.986 541.474 46.73C541.474 47.474 541.63 48.062 541.942 48.494C542.266 48.926 542.698 49.142 543.238 49.142ZM551.212 56.108C550.336 56.108 549.628 55.796 549.088 55.172C548.56 54.536 548.296 53.702 548.296 52.67C548.296 51.638 548.56 50.81 549.088 50.186C549.628 49.55 550.336 49.232 551.212 49.232C552.088 49.232 552.796 49.55 553.336 50.186C553.876 50.822 554.146 51.65 554.146 52.67C554.146 53.69 553.876 54.518 553.336 55.154C552.796 55.79 552.088 56.108 551.212 56.108ZM551.212 55.082C551.752 55.082 552.178 54.866 552.49 54.434C552.814 54.002 552.976 53.414 552.976 52.67C552.976 51.926 552.814 51.338 552.49 50.906C552.178 50.474 551.752 50.258 551.212 50.258C550.66 50.258 550.228 50.474 549.916 50.906C549.604 51.326 549.448 51.914 549.448 52.67C549.448 53.426 549.604 54.02 549.916 54.452C550.228 54.872 550.66 55.082 551.212 55.082Z" fill="black"/>
<rect x="203" y="45" width="300" height="10" rx="5" fill="#D1D1D1"/>
<rect x="203" y="45" width="159" height="10" rx="5" fill="#915650"/>
<path d="M528.718 92.904H526.324V96H524.578V92.904H517.576V91.644L524.02 83.4H525.964L519.79 91.356H524.632V88.62H526.324V91.356H528.718V92.904ZM534.945 96.144C533.949 96.144 533.061 95.892 532.281 95.388C531.513 94.872 530.907 94.128 530.463 93.156C530.019 92.184 529.797 91.032 529.797 89.7C529.797 88.368 530.019 87.216 530.463 86.244C530.907 85.272 531.513 84.534 532.281 84.03C533.061 83.514 533.949 83.256 534.945 83.256C535.929 83.256 536.805 83.514 537.573 84.03C538.353 84.534 538.965 85.272 539.409 86.244C539.853 87.216 540.075 88.368 540.075 89.7C540.075 91.032 539.853 92.184 539.409 93.156C538.965 94.128 538.353 94.872 537.573 95.388C536.805 95.892 535.929 96.144 534.945 96.144ZM534.945 94.542C535.953 94.542 536.757 94.128 537.357 93.3C537.969 92.472 538.275 91.272 538.275 89.7C538.275 88.128 537.969 86.928 537.357 86.1C536.757 85.272 535.953 84.858 534.945 84.858C533.925 84.858 533.109 85.272 532.497 86.1C531.897 86.928 531.597 88.128 531.597 89.7C531.597 91.272 531.897 92.472 532.497 93.3C533.109 94.128 533.925 94.542 534.945 94.542ZM544.538 90.168C543.662 90.168 542.954 89.85 542.414 89.214C541.874 88.578 541.604 87.75 541.604 86.73C541.604 85.71 541.874 84.882 542.414 84.246C542.954 83.61 543.662 83.292 544.538 83.292C545.414 83.292 546.116 83.61 546.644 84.246C547.184 84.87 547.454 85.698 547.454 86.73C547.454 87.762 547.184 88.596 546.644 89.232C546.116 89.856 545.414 90.168 544.538 90.168ZM552.134 83.4H553.52L544.916 96H543.53L552.134 83.4ZM544.538 89.142C545.09 89.142 545.522 88.932 545.834 88.512C546.146 88.08 546.302 87.486 546.302 86.73C546.302 85.974 546.146 85.386 545.834 84.966C545.522 84.534 545.09 84.318 544.538 84.318C543.998 84.318 543.566 84.534 543.242 84.966C542.93 85.398 542.774 85.986 542.774 86.73C542.774 87.474 542.93 88.062 543.242 88.494C543.566 88.926 543.998 89.142 544.538 89.142ZM552.512 96.108C551.636 96.108 550.928 95.796 550.388 95.172C549.86 94.536 549.596 93.702 549.596 92.67C549.596 91.638 549.86 90.81 550.388 90.186C550.928 89.55 551.636 89.232 552.512 89.232C553.388 89.232 554.096 89.55 554.636 90.186C555.176 90.822 555.446 91.65 555.446 92.67C555.446 93.69 555.176 94.518 554.636 95.154C554.096 95.79 553.388 96.108 552.512 96.108ZM552.512 95.082C553.052 95.082 553.478 94.866 553.79 94.434C554.114 94.002 554.276 93.414 554.276 92.67C554.276 91.926 554.114 91.338 553.79 90.906C553.478 90.474 553.052 90.258 552.512 90.258C551.96 90.258 551.528 90.474 551.216 90.906C550.904 91.326 550.748 91.914 550.748 92.67C550.748 93.426 550.904 94.02 551.216 94.452C551.528 94.872 551.96 95.082 552.512 95.082Z" fill="black"/>
<rect x="203" y="85" width="300" height="10" rx="5" fill="#D1D1D1"/>
<rect x="203" y="85" width="120" height="10" rx="5" fill="#915650"/>
<path d="M10.2154 135.144C8.95541 135.144 7.81541 134.868 6.79541 134.316C5.78741 133.752 4.99541 132.984 4.41941 132.012C3.84341 131.028 3.55541 129.924 3.55541 128.7C3.55541 127.476 3.84341 126.378 4.41941 125.406C4.99541 124.422 5.79341 123.654 6.81341 123.102C7.83341 122.538 8.97341 122.256 10.2334 122.256C11.2174 122.256 12.1174 122.424 12.9334 122.76C13.7494 123.084 14.4454 123.57 15.0214 124.218L13.8514 125.352C12.9034 124.356 11.7214 123.858 10.3054 123.858C9.36941 123.858 8.52341 124.068 7.76741 124.488C7.01141 124.908 6.41741 125.49 5.98541 126.234C5.56541 126.966 5.35541 127.788 5.35541 128.7C5.35541 129.612 5.56541 130.44 5.98541 131.184C6.41741 131.916 7.01141 132.492 7.76741 132.912C8.52341 133.332 9.36941 133.542 10.3054 133.542C11.7094 133.542 12.8914 133.038 13.8514 132.03L15.0214 133.164C14.4454 133.812 13.7434 134.304 12.9154 134.64C12.0994 134.976 11.1994 135.144 10.2154 135.144ZM18.9932 127.062C19.2932 126.51 19.7372 126.09 20.3252 125.802C20.9132 125.514 21.6272 125.37 22.4672 125.37V127.044C22.3712 127.032 22.2392 127.026 22.0712 127.026C21.1352 127.026 20.3972 127.308 19.8572 127.872C19.3292 128.424 19.0652 129.216 19.0652 130.248V135H17.3372V125.46H18.9932V127.062ZM33.1311 130.284C33.1311 130.416 33.1191 130.59 33.0951 130.806H25.3551C25.4631 131.646 25.8291 132.324 26.4531 132.84C27.0891 133.344 27.8751 133.596 28.8111 133.596C29.9511 133.596 30.8691 133.212 31.5651 132.444L32.5191 133.56C32.0871 134.064 31.5471 134.448 30.8991 134.712C30.2631 134.976 29.5491 135.108 28.7571 135.108C27.7491 135.108 26.8551 134.904 26.0751 134.496C25.2951 134.076 24.6891 133.494 24.2571 132.75C23.8371 132.006 23.6271 131.166 23.6271 130.23C23.6271 129.306 23.8311 128.472 24.2391 127.728C24.6591 126.984 25.2291 126.408 25.9491 126C26.6811 125.58 27.5031 125.37 28.4151 125.37C29.3271 125.37 30.1371 125.58 30.8451 126C31.5651 126.408 32.1231 126.984 32.5191 127.728C32.9271 128.472 33.1311 129.324 33.1311 130.284ZM28.4151 126.828C27.5871 126.828 26.8911 127.08 26.3271 127.584C25.7751 128.088 25.4511 128.748 25.3551 129.564H31.4751C31.3791 128.76 31.0491 128.106 30.4851 127.602C29.9331 127.086 29.2431 126.828 28.4151 126.828ZM38.7409 125.37C40.0609 125.37 41.0689 125.694 41.7649 126.342C42.4729 126.99 42.8269 127.956 42.8269 129.24V135H41.1889V133.74C40.9009 134.184 40.4869 134.526 39.9469 134.766C39.4189 134.994 38.7889 135.108 38.0569 135.108C36.9889 135.108 36.1309 134.85 35.4829 134.334C34.8469 133.818 34.5289 133.14 34.5289 132.3C34.5289 131.46 34.8349 130.788 35.4469 130.284C36.0589 129.768 37.0309 129.51 38.3629 129.51H41.0989V129.168C41.0989 128.424 40.8829 127.854 40.4509 127.458C40.0189 127.062 39.3829 126.864 38.5429 126.864C37.9789 126.864 37.4269 126.96 36.8869 127.152C36.3469 127.332 35.8909 127.578 35.5189 127.89L34.7989 126.594C35.2909 126.198 35.8789 125.898 36.5629 125.694C37.2469 125.478 37.9729 125.37 38.7409 125.37ZM38.3449 133.776C39.0049 133.776 39.5749 133.632 40.0549 133.344C40.5349 133.044 40.8829 132.624 41.0989 132.084V130.752H38.4349C36.9709 130.752 36.2389 131.244 36.2389 132.228C36.2389 132.708 36.4249 133.086 36.7969 133.362C37.1689 133.638 37.6849 133.776 38.3449 133.776ZM51.3887 134.442C51.1367 134.658 50.8247 134.826 50.4527 134.946C50.0807 135.054 49.6967 135.108 49.3007 135.108C48.3407 135.108 47.5967 134.85 47.0687 134.334C46.5407 133.818 46.2767 133.08 46.2767 132.12V126.882H44.6567V125.46H46.2767V123.372H48.0047V125.46H50.7407V126.882H48.0047V132.048C48.0047 132.564 48.1307 132.96 48.3827 133.236C48.6467 133.512 49.0187 133.65 49.4987 133.65C50.0267 133.65 50.4767 133.5 50.8487 133.2L51.3887 134.442ZM61.7834 130.284C61.7834 130.416 61.7714 130.59 61.7474 130.806H54.0074C54.1154 131.646 54.4814 132.324 55.1054 132.84C55.7414 133.344 56.5274 133.596 57.4634 133.596C58.6034 133.596 59.5214 133.212 60.2174 132.444L61.1714 133.56C60.7394 134.064 60.1994 134.448 59.5514 134.712C58.9154 134.976 58.2014 135.108 57.4094 135.108C56.4014 135.108 55.5074 134.904 54.7274 134.496C53.9474 134.076 53.3414 133.494 52.9094 132.75C52.4894 132.006 52.2794 131.166 52.2794 130.23C52.2794 129.306 52.4834 128.472 52.8914 127.728C53.3114 126.984 53.8814 126.408 54.6014 126C55.3334 125.58 56.1554 125.37 57.0674 125.37C57.9794 125.37 58.7894 125.58 59.4974 126C60.2174 126.408 60.7754 126.984 61.1714 127.728C61.5794 128.472 61.7834 129.324 61.7834 130.284ZM57.0674 126.828C56.2394 126.828 55.5434 127.08 54.9794 127.584C54.4274 128.088 54.1034 128.748 54.0074 129.564H60.1274C60.0314 128.76 59.7014 128.106 59.1374 127.602C58.5854 127.086 57.8954 126.828 57.0674 126.828ZM80.1049 122.4V135H78.6289L71.0689 125.604V135H69.2689V122.4H70.7449L78.3049 131.796V122.4H80.1049ZM92.2463 130.284C92.2463 130.416 92.2343 130.59 92.2103 130.806H84.4703C84.5783 131.646 84.9443 132.324 85.5683 132.84C86.2043 133.344 86.9903 133.596 87.9263 133.596C89.0663 133.596 89.9843 133.212 90.6803 132.444L91.6343 133.56C91.2023 134.064 90.6623 134.448 90.0143 134.712C89.3783 134.976 88.6643 135.108 87.8723 135.108C86.8643 135.108 85.9703 134.904 85.1903 134.496C84.4103 134.076 83.8043 133.494 83.3723 132.75C82.9523 132.006 82.7423 131.166 82.7423 130.23C82.7423 129.306 82.9463 128.472 83.3543 127.728C83.7743 126.984 84.3443 126.408 85.0643 126C85.7963 125.58 86.6183 125.37 87.5303 125.37C88.4423 125.37 89.2523 125.58 89.9603 126C90.6803 126.408 91.2383 126.984 91.6343 127.728C92.0423 128.472 92.2463 129.324 92.2463 130.284ZM87.5303 126.828C86.7023 126.828 86.0063 127.08 85.4423 127.584C84.8903 128.088 84.5663 128.748 84.4703 129.564H90.5903C90.4943 128.76 90.1643 128.106 89.6003 127.602C89.0483 127.086 88.3583 126.828 87.5303 126.828ZM108.906 125.46L105.342 135H103.686L100.932 127.764L98.142 135H96.486L92.94 125.46H94.578L97.35 133.056L100.23 125.46H101.688L104.514 133.092L107.358 125.46H108.906ZM121.379 135.144C120.119 135.144 118.979 134.868 117.959 134.316C116.951 133.752 116.159 132.984 115.583 132.012C115.007 131.028 114.719 129.924 114.719 128.7C114.719 127.476 115.007 126.378 115.583 125.406C116.159 124.422 116.957 123.654 117.977 123.102C118.997 122.538 120.137 122.256 121.397 122.256C122.381 122.256 123.281 122.424 124.097 122.76C124.913 123.084 125.609 123.57 126.185 124.218L125.015 125.352C124.067 124.356 122.885 123.858 121.469 123.858C120.533 123.858 119.687 124.068 118.931 124.488C118.175 124.908 117.581 125.49 117.149 126.234C116.729 126.966 116.519 127.788 116.519 128.7C116.519 129.612 116.729 130.44 117.149 131.184C117.581 131.916 118.175 132.492 118.931 132.912C119.687 133.332 120.533 133.542 121.469 133.542C122.873 133.542 124.055 133.038 125.015 132.03L126.185 133.164C125.609 133.812 124.907 134.304 124.079 134.64C123.263 134.976 122.363 135.144 121.379 135.144ZM132.183 135.108C131.235 135.108 130.383 134.898 129.627 134.478C128.871 134.058 128.277 133.482 127.845 132.75C127.425 132.006 127.215 131.166 127.215 130.23C127.215 129.294 127.425 128.46 127.845 127.728C128.277 126.984 128.871 126.408 129.627 126C130.383 125.58 131.235 125.37 132.183 125.37C133.131 125.37 133.977 125.58 134.721 126C135.477 126.408 136.065 126.984 136.485 127.728C136.917 128.46 137.133 129.294 137.133 130.23C137.133 131.166 136.917 132.006 136.485 132.75C136.065 133.482 135.477 134.058 134.721 134.478C133.977 134.898 133.131 135.108 132.183 135.108ZM132.183 133.596C132.795 133.596 133.341 133.458 133.821 133.182C134.313 132.894 134.697 132.498 134.973 131.994C135.249 131.478 135.387 130.89 135.387 130.23C135.387 129.57 135.249 128.988 134.973 128.484C134.697 127.968 134.313 127.572 133.821 127.296C133.341 127.02 132.795 126.882 132.183 126.882C131.571 126.882 131.019 127.02 130.527 127.296C130.047 127.572 129.663 127.968 129.375 128.484C129.099 128.988 128.961 129.57 128.961 130.23C128.961 130.89 129.099 131.478 129.375 131.994C129.663 132.498 130.047 132.894 130.527 133.182C131.019 133.458 131.571 133.596 132.183 133.596ZM144.617 125.37C145.829 125.37 146.789 125.724 147.497 126.432C148.217 127.128 148.577 128.154 148.577 129.51V135H146.849V129.708C146.849 128.784 146.627 128.088 146.183 127.62C145.739 127.152 145.103 126.918 144.275 126.918C143.339 126.918 142.601 127.194 142.061 127.746C141.521 128.286 141.251 129.066 141.251 130.086V135H139.523V125.46H141.179V126.9C141.527 126.408 141.995 126.03 142.583 125.766C143.183 125.502 143.861 125.37 144.617 125.37ZM157.139 134.442C156.887 134.658 156.575 134.826 156.203 134.946C155.831 135.054 155.447 135.108 155.051 135.108C154.091 135.108 153.347 134.85 152.819 134.334C152.291 133.818 152.027 133.08 152.027 132.12V126.882H150.407V125.46H152.027V123.372H153.755V125.46H156.491V126.882H153.755V132.048C153.755 132.564 153.881 132.96 154.133 133.236C154.397 133.512 154.769 133.65 155.249 133.65C155.777 133.65 156.227 133.5 156.599 133.2L157.139 134.442ZM167.533 130.284C167.533 130.416 167.521 130.59 167.497 130.806H159.757C159.865 131.646 160.231 132.324 160.855 132.84C161.491 133.344 162.277 133.596 163.213 133.596C164.353 133.596 165.271 133.212 165.967 132.444L166.921 133.56C166.489 134.064 165.949 134.448 165.301 134.712C164.665 134.976 163.951 135.108 163.159 135.108C162.151 135.108 161.257 134.904 160.477 134.496C159.697 134.076 159.091 133.494 158.659 132.75C158.239 132.006 158.029 131.166 158.029 130.23C158.029 129.306 158.233 128.472 158.641 127.728C159.061 126.984 159.631 126.408 160.351 126C161.083 125.58 161.905 125.37 162.817 125.37C163.729 125.37 164.539 125.58 165.247 126C165.967 126.408 166.525 126.984 166.921 127.728C167.329 128.472 167.533 129.324 167.533 130.284ZM162.817 126.828C161.989 126.828 161.293 127.08 160.729 127.584C160.177 128.088 159.853 128.748 159.757 129.564H165.877C165.781 128.76 165.451 128.106 164.887 127.602C164.335 127.086 163.645 126.828 162.817 126.828ZM175.027 125.37C176.239 125.37 177.199 125.724 177.907 126.432C178.627 127.128 178.987 128.154 178.987 129.51V135H177.259V129.708C177.259 128.784 177.037 128.088 176.593 127.62C176.149 127.152 175.513 126.918 174.685 126.918C173.749 126.918 173.011 127.194 172.471 127.746C171.931 128.286 171.661 129.066 171.661 130.086V135H169.933V125.46H171.589V126.9C171.937 126.408 172.405 126.03 172.993 125.766C173.593 125.502 174.271 125.37 175.027 125.37ZM187.549 134.442C187.297 134.658 186.985 134.826 186.613 134.946C186.241 135.054 185.857 135.108 185.461 135.108C184.501 135.108 183.757 134.85 183.229 134.334C182.701 133.818 182.437 133.08 182.437 132.12V126.882H180.817V125.46H182.437V123.372H184.165V125.46H186.901V126.882H184.165V132.048C184.165 132.564 184.291 132.96 184.543 133.236C184.807 133.512 185.179 133.65 185.659 133.65C186.187 133.65 186.637 133.5 187.009 133.2L187.549 134.442Z" fill="black"/>
<path d="M524.434 128.692C525.67 128.812 526.612 129.196 527.26 129.844C527.908 130.48 528.232 131.296 528.232 132.292C528.232 133.012 528.052 133.666 527.692 134.254C527.332 134.83 526.792 135.292 526.072 135.64C525.364 135.976 524.494 136.144 523.462 136.144C522.562 136.144 521.698 136.012 520.87 135.748C520.042 135.472 519.364 135.094 518.836 134.614L519.664 133.192C520.096 133.6 520.648 133.93 521.32 134.182C521.992 134.422 522.706 134.542 523.462 134.542C524.398 134.542 525.124 134.344 525.64 133.948C526.168 133.552 526.432 133.006 526.432 132.31C526.432 131.614 526.174 131.074 525.658 130.69C525.142 130.306 524.362 130.114 523.318 130.114H522.31V128.854L525.478 124.966H519.412V123.4H527.728V124.624L524.434 128.692ZM534.647 128.692C535.883 128.812 536.825 129.196 537.473 129.844C538.121 130.48 538.445 131.296 538.445 132.292C538.445 133.012 538.265 133.666 537.905 134.254C537.545 134.83 537.005 135.292 536.285 135.64C535.577 135.976 534.707 136.144 533.675 136.144C532.775 136.144 531.911 136.012 531.083 135.748C530.255 135.472 529.577 135.094 529.049 134.614L529.877 133.192C530.309 133.6 530.861 133.93 531.533 134.182C532.205 134.422 532.919 134.542 533.675 134.542C534.611 134.542 535.337 134.344 535.853 133.948C536.381 133.552 536.645 133.006 536.645 132.31C536.645 131.614 536.387 131.074 535.871 130.69C535.355 130.306 534.575 130.114 533.531 130.114H532.523V128.854L535.691 124.966H529.625V123.4H537.941V124.624L534.647 128.692ZM542.684 130.168C541.808 130.168 541.1 129.85 540.56 129.214C540.02 128.578 539.75 127.75 539.75 126.73C539.75 125.71 540.02 124.882 540.56 124.246C541.1 123.61 541.808 123.292 542.684 123.292C543.56 123.292 544.262 123.61 544.79 124.246C545.33 124.87 545.6 125.698 545.6 126.73C545.6 127.762 545.33 128.596 544.79 129.232C544.262 129.856 543.56 130.168 542.684 130.168ZM550.28 123.4H551.666L543.062 136H541.676L550.28 123.4ZM542.684 129.142C543.236 129.142 543.668 128.932 543.98 128.512C544.292 128.08 544.448 127.486 544.448 126.73C544.448 125.974 544.292 125.386 543.98 124.966C543.668 124.534 543.236 124.318 542.684 124.318C542.144 124.318 541.712 124.534 541.388 124.966C541.076 125.398 540.92 125.986 540.92 126.73C540.92 127.474 541.076 128.062 541.388 128.494C541.712 128.926 542.144 129.142 542.684 129.142ZM550.658 136.108C549.782 136.108 549.074 135.796 548.534 135.172C548.006 134.536 547.742 133.702 547.742 132.67C547.742 131.638 548.006 130.81 548.534 130.186C549.074 129.55 549.782 129.232 550.658 129.232C551.534 129.232 552.242 129.55 552.782 130.186C553.322 130.822 553.592 131.65 553.592 132.67C553.592 133.69 553.322 134.518 552.782 135.154C552.242 135.79 551.534 136.108 550.658 136.108ZM550.658 135.082C551.198 135.082 551.624 134.866 551.936 134.434C552.26 134.002 552.422 133.414 552.422 132.67C552.422 131.926 552.26 131.338 551.936 130.906C551.624 130.474 551.198 130.258 550.658 130.258C550.106 130.258 549.674 130.474 549.362 130.906C549.05 131.326 548.894 131.914 548.894 132.67C548.894 133.426 549.05 134.02 549.362 134.452C549.674 134.872 550.106 135.082 550.658 135.082Z" fill="black"/>
<rect x="203" y="125" width="300" height="10" rx="5" fill="#D1D1D1"/>
<rect x="203" y="125" width="99" height="10" rx="5" fill="#915650"/>
</svg>
