<svg width="1440" height="536" viewBox="0 0 1440 536" fill="none" xmlns="http://www.w3.org/2000/svg">
<path d="M253.5 2L311.5 29.9904M369.5 57.9807L366 236.534M369.5 57.9807L311.5 29.9904M369.5 57.9807L429.5 32.7345M498 2L429.5 32.7345M89 2L369.5 128.231L649.5 2M9 2L369.5 168.113L720 2L1097.5 166.283L1438.5 7.12242M366 236.534H454M366 236.534H278M454 236.534L512.5 265.805M454 236.534L493.351 218.301M512.5 265.805L454 293.978M512.5 265.805L731 265.439M454 293.978L655.714 392.036M454 293.978H366M278 293.978L225.5 265.805M278 293.978L232.5 316.342M278 293.978H366M225.5 265.805L278 236.534M225.5 265.805H132M278 236.534L232.5 218.301M311.5 29.9904L78.5 145.444M1 183.846L78.5 145.444M429.5 32.7345L661 140.621M731 174.699L661 140.621M731 174.699V265.439M731 174.699L796.5 144.625M731 356.179L655.714 392.036M731 356.179V265.439M731 356.179L1040.74 499.972M431.678 499.713L655.714 392.036M661 140.621L530.5 201.088M78.5 145.444L203 204.344M1 265.805H78.5M84.3299 392.036L203 330.842M232.5 218.301L132 265.805M232.5 218.301L203 204.344M132 265.805L232.5 316.342M132 265.805H78.5M232.5 316.342L203 330.842M203 204.344L78.5 265.805M78.5 265.805L203 330.842M493.351 218.301L596 265.805L500.005 316.342M493.351 218.301L530.5 201.088M530.5 201.088L661 265.556L529.832 330.842M731 265.439L793.25 265.543M1 352.52L302 499.713M302 499.713L238.5 534M302 499.713L366 468.14M366 468.14L368.045 396.792M366 468.14L503 534M366 293.978L367.339 361.301M367.339 361.301L731 534L1093.57 356.179M367.339 361.301L1 534M367.339 361.301L368.045 396.792M78.5 534L368.045 396.792M368.045 396.792L655.714 534M807.5 2L1097.5 131.524L1370 2M972.5 2L1037 32.3686M1097.5 59.0784L1037 32.3686M1097.5 59.0784L1139.5 35.3428M1097.5 59.0784V239.095M1198.5 2L1139.5 35.3428M1037 32.3686L796.5 144.625M1139.5 35.3428L1373.97 144.625M1438.5 174.699L1373.97 144.625M1097.5 239.095H1181.5M1097.5 239.095L1001.5 239.827M1181.5 239.095L1234 265.805M1181.5 239.095L1223.87 218.301M1234 265.805L1181.5 293.978M1234 265.805L1438.5 265.439M1181.5 293.978L1373.97 388.396M1181.5 293.978H1091.5M1001.5 293.978L949 265.805M1001.5 293.978L928.568 330.842M1001.5 293.978H1091.5M949 265.805L1001.5 239.827M949 265.805L855.5 265.648M1001.5 239.827L949 215.446M796.5 144.625L923.111 203.423M1373.97 144.625L1254.18 203.423M949 215.446L855.5 265.648M949 215.446L923.111 203.423M855.5 265.648L957.5 316.342M855.5 265.648L793.25 265.543M807.5 392.036L928.568 330.842M928.568 330.842L793.25 265.543M793.25 265.543L923.111 203.423M1223.87 218.301L1321.5 265.805L1227.09 316.342M1223.87 218.301L1254.18 203.423M1254.18 203.423L1389.5 265.805L1256.65 330.842M1438.5 356.179L1150.5 499.972M1223.87 534L1093.57 473.629M1093.57 473.629L972.5 534M1093.57 473.629V395.695M1091.5 293.978L1093.57 356.179M1093.57 356.179L1441 530.707M1093.57 356.179V395.695M1380 534L1093.57 395.695M1093.57 395.695L814.5 534" stroke="#B8B3BC" stroke-width="2"/>
</svg>
