<svg width="1440" height="781" viewBox="0 0 1440 781" fill="none" xmlns="http://www.w3.org/2000/svg">
<path d="M252.5 2L310.5 42.8807M368.5 83.7613L365 344.543M368.5 83.7613L310.5 42.8807M368.5 83.7613L428.5 46.8886M497 2L428.5 46.8886M88 2L368.5 186.364L648.5 2M365 344.543H453M365 344.543H277M453 344.543L511.5 387.294M453 344.543L492.351 317.913M511.5 387.294L453 428.441M511.5 387.294L730 386.759M453 428.441L654.714 571.657M453 428.441H365M277 428.441L224.5 387.294M277 428.441L231.5 461.105M277 428.441H365M224.5 387.294L277 344.543M224.5 387.294H131M277 344.543L231.5 317.913M310.5 42.8807L77.5 211.504M0 267.591L77.5 211.504M428.5 46.8886L660 204.46M730 254.231L660 204.46M730 254.231V386.759M730 254.231L795.5 210.307M730 519.287L654.714 571.657M730 519.287V386.759M730 519.287L1039.74 729.302M430.678 728.924L654.714 571.657M660 204.46L529.5 292.773M77.5 211.504L202 297.529M0 387.294H77.5M83.3299 571.657L202 482.282M231.5 317.913L131 387.294M231.5 317.913L202 297.529M131 387.294L231.5 461.105M131 387.294H77.5M231.5 461.105L202 482.282M202 297.529L77.5 387.294M77.5 387.294L202 482.282M492.351 317.913L595 387.294L499.005 461.105M492.351 317.913L529.5 292.773M529.5 292.773L660 386.93L528.832 482.282M730 386.759L792.25 386.912M0 513.944L301 728.924M301 728.924L237.5 779M301 728.924L365 682.81M365 682.81L367.045 578.605M365 682.81L502 779M365 428.441L366.339 526.769M366.339 526.769L730 779L1092.57 519.287M366.339 526.769L0 779H1437.5L1092.57 519.287M366.339 526.769L367.045 578.605M77.5 779L367.045 578.605M367.045 578.605L654.714 779M806.5 2L1096.5 191.173L1369 2M971.5 2L1036 46.3542M1096.5 85.3645L1036 46.3542M1096.5 85.3645L1138.5 50.6981M1096.5 85.3645V348.283M1197.5 2L1138.5 50.6981M1036 46.3542L795.5 210.307M1138.5 50.6981L1372.97 210.307M1437.5 254.5L1372.97 210.307M1096.5 348.283H1180.5M1096.5 348.283L1000.5 349.352M1180.5 348.283L1233 387.294M1180.5 348.283L1222.87 317.913M1233 387.294L1180.5 428.441M1233 387.294H1437.5M1180.5 428.441L1372.97 566.341M1180.5 428.441H1090.5M1000.5 428.441L948 387.294M1000.5 428.441L927.568 482.282M1000.5 428.441H1090.5M948 387.294L1000.5 349.352M948 387.294L854.5 387.064M1000.5 349.352L948 313.743M795.5 210.307L922.111 296.183M1372.97 210.307L1253.18 296.183M948 313.743L854.5 387.064M948 313.743L922.111 296.183M854.5 387.064L956.5 461.105M854.5 387.064L792.25 386.912M806.5 571.657L927.568 482.282M927.568 482.282L792.25 386.912M792.25 386.912L922.111 296.183M1222.87 317.913L1320.5 387.294L1226.09 461.105M1222.87 317.913L1253.18 296.183M1253.18 296.183L1388.5 387.294L1255.65 482.282M1437.5 519.287L1149.5 729.302M1222.87 779L1092.57 690.826M1092.57 690.826L968.276 779M1092.57 690.826V577.001M1090.5 428.441L1092.57 519.287M1092.57 519.287V577.001M1379 779L1092.57 577.001M1092.57 577.001L813.5 779M0 2L368.5 244.612L719 2L1096.5 241.94L1437.5 2H0Z" stroke="#F0EBE3" stroke-width="2"/>
</svg>
