<svg width="1440" height="726" viewBox="0 0 1440 726" fill="none" xmlns="http://www.w3.org/2000/svg">
<rect x="1" y="2" width="1440" height="723" fill="white"/>
<path d="M193.776 119.726L1.31735 2L1.31641 249.133L78.9341 196.944L193.776 119.726Z" fill="#98752E"/>
<path d="M366.871 320.737L368.233 226.44L193.776 119.726L78.9341 196.944L203.623 276.991L233.168 295.958L278.737 320.737H366.871Z" fill="#98752E"/>
<path d="M369.009 172.672L239.177 89.1983L193.776 119.726L368.233 226.44L369.009 172.672Z" fill="#98752E"/>
<path d="M370.376 78.0791L312.288 40.0395L239.177 89.1983L369.009 172.672L370.376 78.0791Z" fill="#98752E"/>
<path d="M370.376 173.551L504.078 90.3199L430.467 43.7689L370.376 78.0791L369.009 172.672L370.376 173.551Z" fill="#98752E"/>
<path d="M504.078 90.3199L370.376 173.551L369.009 172.672L368.233 226.44L370.376 227.751L544.412 115.827L504.078 90.3199Z" fill="#98752E"/>
<path d="M366.871 320.737H455.004L494.414 295.958L531.62 272.565L662.318 190.389L544.412 115.827L370.376 227.751L368.233 226.44L366.871 320.737Z" fill="#98752E"/>
<path d="M78.9341 196.944L1.31641 249.133V360.516H78.9341L203.623 276.991L78.9341 196.944Z" fill="#98752E"/>
<path d="M132.515 360.516L233.168 295.958L203.623 276.991L78.9341 360.516H132.515Z" fill="#98752E"/>
<path d="M226.157 360.516L278.737 320.737L233.168 295.958L132.515 360.516H226.157Z" fill="#98752E"/>
<path d="M278.737 398.805L226.157 360.516H132.515L233.168 429.198L278.737 398.805Z" fill="#98752E"/>
<path d="M233.168 429.198L132.515 360.516H78.9341L203.623 448.903L233.168 429.198Z" fill="#98752E"/>
<path d="M278.737 398.805L233.168 429.198L203.623 448.903L78.9341 360.516H1.31641V478.365L190.56 603.942L368.211 490.298L366.871 398.805H278.737Z" fill="#98752E"/>
<path d="M1.31641 478.365V725L190.56 603.942L1.31641 478.365Z" fill="#98752E"/>
<path d="M78.9341 725L228.276 628.969L190.56 603.942L1.31641 725H78.9341Z" fill="#98752E"/>
<path d="M239.177 725L302.773 678.404L228.276 628.969L78.9341 725H239.177Z" fill="#98752E"/>
<path d="M368.918 538.532L368.211 490.298L190.56 603.942L228.276 628.969L368.918 538.532Z" fill="#98752E"/>
<path d="M366.871 635.495L368.918 538.532L228.276 628.969L302.773 678.404L366.871 635.495Z" fill="#98752E"/>
<path d="M455.004 320.737H366.871H278.737L226.157 360.516L278.737 398.805H366.871H455.004L513.593 360.516L455.004 320.737Z" fill="#98752E"/>
<path d="M455.004 320.737L513.593 360.516L596.918 360.327L494.414 295.958L455.004 320.737Z" fill="#98752E"/>
<path d="M531.62 272.565L494.414 295.958L596.918 360.327L662.318 360.179L531.62 272.565Z" fill="#98752E"/>
<path d="M732.424 236.702L662.318 190.389L531.62 272.565L662.318 360.179L732.424 360.019V236.702Z" fill="#98752E"/>
<path d="M662.318 190.389L732.424 236.702L798.024 195.83L915.222 116.454L721.408 2L544.412 115.827L662.318 190.389Z" fill="#98752E"/>
<path d="M1099.48 324.217V225.265L915.222 116.454L798.024 195.83L924.826 275.738L950.755 292.077L1003.34 325.212L1099.48 324.217Z" fill="#98752E"/>
<path d="M1099.48 178.026L954.261 90.0131L915.222 116.454L1099.48 225.265V178.026Z" fill="#98752E"/>
<path d="M1226.04 100.827L1099.48 178.026V225.265L1258.96 121.572L1226.04 100.827Z" fill="#98752E"/>
<path d="M1099.48 225.265V324.217H1183.61L1226.04 295.958L1256.4 275.738L1376.37 195.83L1258.96 121.572L1099.48 225.265Z" fill="#98752E"/>
<path d="M1441 236.952L1376.37 195.83L1256.4 275.738L1391.92 360.516H1441V236.952Z" fill="#98752E"/>
<path d="M1226.04 295.958L1323.82 360.516H1391.92L1256.4 275.738L1226.04 295.958Z" fill="#98752E"/>
<path d="M1183.61 324.217L1236.19 360.516H1323.82L1226.04 295.958L1183.61 324.217Z" fill="#98752E"/>
<path d="M1183.61 324.217H1099.48L1003.34 325.212L950.755 360.516L1003.34 398.805H1093.47H1183.61L1236.19 360.516L1183.61 324.217Z" fill="#98752E"/>
<path d="M950.755 360.516L1003.34 325.212L950.755 292.077L857.113 360.303L950.755 360.516Z" fill="#98752E"/>
<path d="M857.113 360.303L950.755 292.077L924.826 275.738L794.769 360.161L857.113 360.303Z" fill="#98752E"/>
<path d="M732.424 236.702V360.019L794.769 360.161L924.826 275.738L798.024 195.83L732.424 236.702Z" fill="#98752E"/>
<path d="M732.424 360.019V483.337L809.394 531.825L930.292 448.903L794.769 360.161L732.424 360.019Z" fill="#98752E"/>
<path d="M959.144 429.114L857.113 360.303L794.769 360.161L930.292 448.903L959.144 429.114Z" fill="#98752E"/>
<path d="M1003.34 398.805L950.755 360.516L857.113 360.303L959.144 429.114L1003.34 398.805Z" fill="#98752E"/>
<path d="M662.318 360.179L530.951 448.903L657.024 532.067L732.424 483.337V360.019L662.318 360.179Z" fill="#98752E"/>
<path d="M597.219 360.516L501.079 429.198L530.951 448.903L662.318 360.179L596.918 360.327L597.219 360.516Z" fill="#98752E"/>
<path d="M513.593 360.516L455.004 398.805L501.079 429.198L597.219 360.516L596.918 360.327L513.593 360.516Z" fill="#98752E"/>
<path d="M545.699 604.673L657.024 532.067L530.951 448.903L501.079 429.198L455.004 398.805H366.871L368.211 490.298L545.699 604.673Z" fill="#98752E"/>
<path d="M368.211 490.298L368.918 538.532L508.547 628.903L545.699 604.673L368.211 490.298Z" fill="#98752E"/>
<path d="M368.918 538.532L366.871 635.495L432.648 678.404L508.547 628.903L368.918 538.532Z" fill="#98752E"/>
<path d="M432.648 678.404L366.871 635.495L302.773 678.404L239.177 725H504.078L432.648 678.404Z" fill="#98752E"/>
<path d="M432.648 678.404L504.078 725H657.024L508.547 628.903L432.648 678.404Z" fill="#98752E"/>
<path d="M657.024 725H732.424L545.699 604.673L508.547 628.903L657.024 725Z" fill="#98752E"/>
<path d="M732.424 483.337L657.024 532.067L545.699 604.673L732.424 725L918.968 600.852L809.394 531.825L732.424 483.337Z" fill="#98752E"/>
<path d="M1093.47 398.805H1003.34L959.144 429.114L930.292 448.903L809.394 531.825L918.968 600.852L1095.54 483.337L1093.47 398.805Z" fill="#98752E"/>
<path d="M1095.54 537.04V483.337L918.968 600.852L961.147 627.422L1095.54 537.04Z" fill="#98752E"/>
<path d="M1041.91 678.302L1095.54 642.954V537.04L961.147 627.422L1041.91 678.302Z" fill="#98752E"/>
<path d="M816.051 725H971.062L1041.91 678.302L961.147 627.422L816.051 725Z" fill="#98752E"/>
<path d="M732.424 725H816.051L961.147 627.422L918.968 600.852L732.424 725Z" fill="#98752E"/>
<path d="M1226.04 725L1095.54 642.954L1041.91 678.302L971.062 725H1226.04Z" fill="#98752E"/>
<path d="M1095.54 642.954L1226.04 725H1382.41L1230.87 625.705L1095.54 537.04V642.954Z" fill="#98752E"/>
<path d="M1095.54 483.337V537.04L1230.87 625.705L1265.51 602.234L1095.54 483.337Z" fill="#98752E"/>
<path d="M1229.27 429.198L1183.61 398.805H1093.47L1095.54 483.337L1265.51 602.234L1376.37 527.121L1258.87 448.903L1229.27 429.198Z" fill="#98752E"/>
<path d="M1382.41 725H1441L1265.51 602.234L1230.87 625.705L1382.41 725Z" fill="#98752E"/>
<path d="M1391.92 360.516L1258.87 448.903L1376.37 527.121L1441 483.337V360.516H1391.92Z" fill="#98752E"/>
<path d="M1323.82 360.516L1229.27 429.198L1258.87 448.903L1391.92 360.516H1323.82Z" fill="#98752E"/>
<path d="M1236.19 360.516L1183.61 398.805L1229.27 429.198L1323.82 360.516H1236.19Z" fill="#98752E"/>
<path d="M1441 725V483.337L1376.37 527.121L1265.51 602.234L1441 725Z" fill="#98752E"/>
<path d="M370.376 78.0791L312.288 40.0395M370.376 78.0791L430.467 43.7689M370.376 78.0791L369.009 172.672M239.177 89.1983L369.009 172.672M239.177 89.1983L193.776 119.726M239.177 89.1983L312.288 40.0395M504.078 90.3199L370.376 173.551L369.009 172.672M504.078 90.3199L430.467 43.7689M504.078 90.3199L544.412 115.827M1.31735 2L1.31641 725M1.31735 2L193.776 119.726M1.31735 2L1.31641 249.133M366.871 320.737H455.004M366.871 320.737H278.737M366.871 320.737L368.233 226.44M455.004 320.737L513.593 360.516M455.004 320.737L494.414 295.958M513.593 360.516L455.004 398.805M513.593 360.516L596.918 360.327M455.004 398.805L657.024 532.067M455.004 398.805H366.871M455.004 398.805L501.079 429.198M278.737 398.805L226.157 360.516M278.737 398.805L233.168 429.198M278.737 398.805H366.871M226.157 360.516L278.737 320.737M226.157 360.516H132.515M278.737 320.737L233.168 295.958M312.288 40.0395L193.776 119.726M1.31641 249.133L78.9341 196.944M1.31641 249.133V360.516M430.467 43.7689L544.412 115.827M732.424 236.702L662.318 190.389M732.424 236.702V360.019M732.424 236.702L798.024 195.83M732.424 483.337L657.024 532.067M732.424 483.337V360.019M732.424 483.337L809.394 531.825M432.648 678.404L508.547 628.903M432.648 678.404L366.871 635.495M432.648 678.404L504.078 725M662.318 190.389L531.62 272.565M662.318 190.389L544.412 115.827M78.9341 196.944L203.623 276.991M78.9341 196.944L193.776 119.726M1.31641 360.516H78.9341M1.31641 360.516V478.365M84.7729 532.067L203.623 448.903M233.168 295.958L132.515 360.516M233.168 295.958L203.623 276.991M132.515 360.516L233.168 429.198M132.515 360.516H78.9341M233.168 429.198L203.623 448.903M203.623 276.991L78.9341 360.516M78.9341 360.516L203.623 448.903M494.414 295.958L531.62 272.565M494.414 295.958L596.918 360.327M501.079 429.198L597.219 360.516L596.918 360.327M501.079 429.198L530.951 448.903M531.62 272.565L662.318 360.179M662.318 360.179L530.951 448.903M662.318 360.179L596.918 360.327M662.318 360.179L732.424 360.019M530.951 448.903L657.024 532.067M657.024 532.067L545.699 604.673M732.424 360.019L794.769 360.161M732.424 360.019L596.918 360.327M1.31641 478.365L190.56 603.942M1.31641 478.365V725M302.773 678.404L239.177 725M302.773 678.404L366.871 635.495M302.773 678.404L228.276 628.969M366.871 635.495L368.918 538.532M366.871 635.495L504.078 725M366.871 398.805L368.211 490.298M732.424 725L545.699 604.673M732.424 725H657.024M732.424 725L918.968 600.852M732.424 725H816.051M368.211 490.298L368.918 538.532M368.211 490.298L190.56 603.942M368.211 490.298L545.699 604.673M1.31641 725H1441M1.31641 725L190.56 603.942M1.31641 725H78.9341M78.9341 725L228.276 628.969M78.9341 725H239.177M368.918 538.532L228.276 628.969M368.918 538.532L508.547 628.903M657.024 725L508.547 628.903M657.024 725H504.078M239.177 725H504.078M1099.48 225.265L1258.96 121.572M1099.48 225.265L915.222 116.454M1099.48 225.265V324.217M1099.48 225.265V178.026M1441 236.952L1376.37 195.83M1441 236.952V725M1441 236.952V360.516M1099.48 178.026L954.261 90.0131L915.222 116.454M1099.48 178.026L1226.04 100.827L1258.96 121.572M1099.48 178.026V324.217M1099.48 324.217H1183.61M1099.48 324.217L1003.34 325.212M1183.61 324.217L1236.19 360.516M1183.61 324.217L1226.04 295.958M1236.19 360.516L1183.61 398.805M1236.19 360.516H1441M1236.19 360.516H1323.82M1183.61 398.805L1376.37 527.121M1183.61 398.805H1093.47M1183.61 398.805L1229.27 429.198M1003.34 398.805L950.755 360.516M1003.34 398.805H1093.47M1003.34 398.805L959.144 429.114M950.755 360.516L1003.34 325.212M950.755 360.516L857.113 360.303M1003.34 325.212L950.755 292.077M798.024 195.83L924.826 275.738M798.024 195.83L915.222 116.454M1376.37 195.83L1256.4 275.738M1376.37 195.83L1258.96 121.572M950.755 292.077L857.113 360.303M950.755 292.077L924.826 275.738M857.113 360.303L794.769 360.161M857.113 360.303L959.144 429.114M959.268 429.198L959.144 429.114M809.04 532.067L809.394 531.825M930.292 448.903L794.769 360.161M930.292 448.903L809.394 531.825M930.292 448.903L959.144 429.114M794.769 360.161L924.826 275.738M1226.04 295.958L1323.82 360.516M1226.04 295.958L1256.4 275.738M1323.82 360.516L1229.27 429.198M1323.82 360.516H1391.92M1229.27 429.198L1258.87 448.903M1256.4 275.738L1391.92 360.516M1391.92 360.516L1258.87 448.903M1391.92 360.516H1441M1258.87 448.903L1376.37 527.121M1441 360.516V483.337M1376.37 527.121L1265.51 602.234M1376.37 527.121L1441 483.337M1042.63 678.756L1041.91 678.302M1441 483.337L1265.51 602.234M1441 483.337V725M1152.56 678.756L1230.87 625.705M1226.04 725L1095.54 642.954M1226.04 725H971.062M1226.04 725H1382.41M1095.54 642.954V537.04M1095.54 642.954L1041.91 678.302M971.062 725L1041.91 678.302M971.062 725H816.051M1093.47 398.805L1095.54 483.337M1095.54 483.337V537.04M1095.54 483.337L918.968 600.852M1095.54 483.337L1265.51 602.234M1441 725L1265.51 602.234M1441 725H1382.41M1382.41 725L1230.87 625.705M1095.54 537.04L961.147 627.422M1095.54 537.04L1230.87 625.705M816.051 725L961.147 627.422M193.776 119.726L368.233 226.44M368.233 226.44L370.376 227.751L544.412 115.827M368.233 226.44L369.009 172.672M544.412 115.827L721.408 2L915.222 116.454M190.56 603.942L228.276 628.969M809.394 531.825L918.968 600.852M545.699 604.673L508.547 628.903M918.968 600.852L961.147 627.422M961.147 627.422L1041.91 678.302M1230.87 625.705L1265.51 602.234" stroke="#806328" stroke-width="2"/>
<path d="M1.33198 447.598V563.36L193.325 392.507L297.39 298.876L228.829 243.969L1.33198 447.598Z" fill="#40143C"/>
<path d="M543.104 380.7L297.39 182.601L228.829 243.969L297.39 298.876L408.6 387.939L566.398 514.312V399.48L543.104 380.7Z" fill="#40143C"/>
<path d="M297.39 298.876V603.109L362.941 658.549L408.6 695.059V506.176V387.939L297.39 298.876Z" fill="#40143C"/>
<path d="M297.39 603.109V298.876L193.325 392.507V506.176V708.012L297.39 603.109Z" fill="#40143C"/>
<path d="M193.325 392.507L1.33198 563.36V676.631L38.1514 643.942L178.666 519.191L193.325 506.176V392.507Z" fill="#40143C"/>
<path d="M193.325 708.012V506.176L178.666 519.191V724.582L193.325 708.012Z" fill="#40143C"/>
<path d="M297.39 603.109L193.325 708.012L178.666 724.582H284.286L362.941 658.549L297.39 603.109Z" fill="#40143C"/>
<path d="M428.492 724.582V521.95L408.6 506.176V695.059L362.941 658.549L284.286 724.582H428.492Z" fill="#40143C"/>
<path d="M543.104 724.582V612.833L428.492 521.95V724.582H543.104Z" fill="#40143C"/>
<path d="M606.599 663.181L566.398 631.304L543.104 612.833V724.582H646.799V695.059L606.599 663.181Z" fill="#40143C"/>
<path d="M408.6 387.939V506.176L428.492 519.191V521.95L543.104 612.833L566.398 631.304L606.599 663.181L646.799 695.059V578.702L566.398 514.312L408.6 387.939Z" fill="#40143C"/>
<path d="M178.666 724.582V519.191L38.1514 643.942L1.33198 676.631V724.582H62.1967H178.666Z" fill="#40143C"/>
<path d="M1.33198 563.36V447.598L228.829 243.969M1.33198 563.36L193.325 392.507M1.33198 563.36V724.582M1.33198 563.36V676.631M566.398 514.545V514.312M228.829 243.969L297.39 182.601L543.104 380.7L566.398 399.48V514.312M228.829 243.969L297.39 298.876M297.39 298.876V603.109M297.39 298.876L193.325 392.507M297.39 298.876L408.6 387.939M297.39 603.109L193.325 708.012M297.39 603.109L362.941 658.549M62.1967 724.582V622.635M62.1967 724.582H1.33198M62.1967 724.582H178.666M193.325 392.507V506.176M193.325 708.012V506.176M193.325 708.012L178.666 724.582M193.325 506.176L178.666 519.191M1.31641 676.631H1.33198M178.666 519.191V724.582M178.666 519.191L38.1514 643.942L1.33198 676.631M178.666 724.582H284.286M408.6 387.939V506.176M408.6 387.939L566.398 514.312M543.104 724.582V612.833M543.104 724.582H428.492M543.104 724.582H646.799M428.492 724.582V521.95M428.492 724.582H284.286M408.6 506.176V695.059L362.941 658.549M408.6 506.176L428.492 519.191V521.95M408.6 506.176L428.492 521.95M646.799 695.059L606.599 663.181L566.398 631.304L543.104 612.833M646.799 695.059V724.582M646.799 695.059V578.702L566.398 514.312M284.286 724.582L362.941 658.549M1.33198 676.631V724.582M543.104 612.833L428.492 521.95M1.33198 724.582H646.799" stroke="#350F31" stroke-width="2"/>
<path d="M389.326 653.318L441.764 688.651H588.087L641.533 653.902L586.46 616.608L555.358 638.839H480.271L445.039 613.933L389.326 653.318Z" fill="#2A0C27"/>
<path d="M588.087 688.651H441.764L387.855 725H641.996L588.087 688.651Z" fill="#2A0C27"/>
<path d="M641.996 725L694.011 689.437L641.533 653.902L588.087 688.651L641.996 725Z" fill="#2A0C27"/>
<path d="M888.436 725L840.482 689.872L807.573 712.884H728.635L694.011 689.437L641.996 725H888.436Z" fill="#2A0C27"/>
<path d="M807.573 665.765H728.635L694.011 689.437L728.635 712.884H807.573L840.482 689.872L807.573 665.765Z" fill="#2A0C27"/>
<path d="M838.378 617.299H697.83L641.533 653.902L694.011 689.437L728.635 665.765H807.573L840.482 689.872L890.82 654.674L838.378 617.299Z" fill="#2A0C27"/>
<path d="M697.83 617.299H838.378L892.987 574.708L841.266 538.543L807.573 562.102H728.635L695.674 538.543L641.532 577.243L697.83 617.299Z" fill="#2A0C27"/>
<path d="M807.573 514.983H728.635L695.674 538.543L728.635 562.102H807.573L841.266 538.543L807.573 514.983Z" fill="#2A0C27"/>
<path d="M586.46 616.608L641.533 653.902L697.83 617.299L641.532 577.243L586.46 616.608Z" fill="#2A0C27"/>
<path d="M545.731 589.028H480.271L445.039 613.933L480.271 638.839H555.358L586.46 616.608L545.731 589.028Z" fill="#2A0C27"/>
<path d="M387.855 725L441.764 688.651L389.326 653.318L338.192 689.466L387.855 725Z" fill="#2A0C27"/>
<path d="M190.321 688.931L137.564 725H387.855L338.192 689.466L305.066 712.884H224.204L190.321 688.931Z" fill="#2A0C27"/>
<path d="M305.066 665.765H224.204L190.321 688.931L224.204 712.884H305.066L338.192 689.466L305.066 665.765Z" fill="#2A0C27"/>
<path d="M224.204 665.765H305.066L338.192 689.466L389.326 653.318L335.871 617.299H197.249L140.387 653.631L190.321 688.931L224.204 665.765Z" fill="#2A0C27"/>
<path d="M85.5805 688.651L137.564 725L190.321 688.931L140.387 653.631L85.5805 688.651Z" fill="#2A0C27"/>
<path d="M391.634 576.18L335.871 617.299L389.326 653.318L445.039 613.933L391.634 576.18Z" fill="#2A0C27"/>
<path d="M480.271 589.028H545.731L586.46 616.608L641.532 577.243L588.087 539.216H441.764L391.634 576.18L445.039 613.933L480.271 589.028Z" fill="#2A0C27"/>
<path d="M641.532 577.243L695.674 538.543L643.428 501.198L588.087 539.216L641.532 577.243Z" fill="#2A0C27"/>
<path d="M728.635 514.983H807.573L841.266 538.543L891.217 503.615L838.378 463.825H697.83L643.428 501.198L695.674 538.543L728.635 514.983Z" fill="#2A0C27"/>
<path d="M841.266 538.543L892.987 574.708L938.494 539.216L891.217 503.615L841.266 538.543Z" fill="#2A0C27"/>
<path d="M838.378 617.299L890.82 654.674L949.084 613.933L892.987 574.708L838.378 617.299Z" fill="#2A0C27"/>
<path d="M888.436 725L938.494 688.651L890.82 654.674L840.482 689.872L888.436 725Z" fill="#2A0C27"/>
<path d="M1088.67 688.651H938.494L888.436 725H1138.73L1088.67 688.651Z" fill="#2A0C27"/>
<path d="M1392.87 725L1336.12 688.627L1300.45 712.884H1225.37L1191.67 688.801L1138.73 725H1392.87Z" fill="#2A0C27"/>
<path d="M1441 688.651L1390.28 651.794L1336.12 688.627L1392.87 725L1441 688.651Z" fill="#2A0C27"/>
<path d="M1441 688.651L1392.87 725H1441V688.651Z" fill="#2A0C27"/>
<path d="M1441 688.651V617.299L1390.28 651.794L1441 688.651Z" fill="#2A0C27"/>
<path d="M1441 617.299L1389.74 579.981L1342.81 617.299L1390.28 651.794L1441 617.299Z" fill="#2A0C27"/>
<path d="M1441 617.299V539.216L1389.74 579.981L1441 617.299Z" fill="#2A0C27"/>
<path d="M1441 539.216L1389.61 499.759L1333.47 539.017L1389.74 579.981L1441 539.216Z" fill="#2A0C27"/>
<path d="M1192.63 617.299H1342.81L1389.74 579.981L1333.47 539.017L1300.45 562.102H1225.37L1192.4 538.543L1138.79 576.863L1192.63 617.299Z" fill="#2A0C27"/>
<path d="M1192.63 617.299L1141.11 652.66L1191.67 688.801L1225.37 665.765H1300.45L1336.12 688.627L1390.28 651.794L1342.81 617.299H1192.63Z" fill="#2A0C27"/>
<path d="M1300.45 665.765H1225.37L1191.67 688.801L1225.37 712.884H1300.45L1336.12 688.627L1300.45 665.765Z" fill="#2A0C27"/>
<path d="M1088.67 688.651L1138.73 725L1191.67 688.801L1141.11 652.66L1088.67 688.651Z" fill="#2A0C27"/>
<path d="M1192.63 617.299L1138.79 576.863L1086.93 613.933L1141.11 652.66L1192.63 617.299Z" fill="#2A0C27"/>
<path d="M938.494 688.651H1088.67L1141.11 652.66L1086.93 613.933L1052.09 638.839H984.702L949.084 613.933L890.82 654.674L938.494 688.651Z" fill="#2A0C27"/>
<path d="M1052.09 589.028H984.702L949.084 613.933L984.702 638.839H1052.09L1086.93 613.933L1052.09 589.028Z" fill="#2A0C27"/>
<path d="M984.702 589.028H1052.09L1086.93 613.933L1138.79 576.863L1088.67 539.216H938.494L892.987 574.708L949.084 613.933L984.702 589.028Z" fill="#2A0C27"/>
<path d="M938.494 539.216H1088.67L1140.63 501.536L1086.93 463.152L1052.09 488.058H984.702L949.084 463.152L948.121 463.825L891.217 503.615L938.494 539.216Z" fill="#2A0C27"/>
<path d="M1052.09 438.246H984.702L949.084 463.152L984.702 488.058H1052.09L1086.93 463.152L1052.09 438.246Z" fill="#2A0C27"/>
<path d="M1138.79 576.863L1192.4 538.543L1140.63 501.536L1088.67 539.216L1138.79 576.863Z" fill="#2A0C27"/>
<path d="M1300.45 514.983H1225.37L1192.4 538.543L1225.37 562.102H1300.45L1333.47 539.017L1300.45 514.983Z" fill="#2A0C27"/>
<path d="M1225.37 514.983H1300.45L1333.47 539.017L1389.61 499.759L1342.81 463.825H1192.63L1140.63 501.536L1192.4 538.543L1225.37 514.983Z" fill="#2A0C27"/>
<path d="M1441 539.216V463.825L1389.61 499.759L1441 539.216Z" fill="#2A0C27"/>
<path d="M1441 463.825L1390.84 428.268L1342.81 463.825L1389.61 499.759L1441 463.825Z" fill="#2A0C27"/>
<path d="M1441 463.825V391.127L1390.84 428.268L1441 463.825Z" fill="#2A0C27"/>
<path d="M1441 391.127L1389.51 350.888L1335.59 389.108L1390.84 428.268L1441 391.127Z" fill="#2A0C27"/>
<path d="M1192.63 463.825H1342.81L1390.84 428.268L1335.59 389.108L1300.45 414.014H1225.37L1190.71 388.973L1138.73 426.13L1192.63 463.825Z" fill="#2A0C27"/>
<path d="M1300.45 364.202H1225.37L1190.71 388.973L1225.37 414.014H1300.45L1335.59 389.108L1300.45 364.202Z" fill="#2A0C27"/>
<path d="M1086.93 463.152L1140.63 501.536L1192.63 463.825L1138.73 426.13L1086.93 463.152Z" fill="#2A0C27"/>
<path d="M984.702 438.246H1052.09L1086.93 463.152L1138.73 426.13L1088.67 391.127H938.494L893.158 424.047L949.084 463.152L984.702 438.246Z" fill="#2A0C27"/>
<path d="M838.378 463.825L891.217 503.615L948.121 463.825L949.084 463.152L893.158 424.047L838.378 463.825Z" fill="#2A0C27"/>
<path d="M1138.73 426.13L1190.71 388.973L1140.62 352.782L1088.67 391.127L1138.73 426.13Z" fill="#2A0C27"/>
<path d="M1225.37 364.202H1300.45L1335.59 389.108L1389.51 350.888L1342.81 314.391H1192.63L1140.62 352.782L1190.71 388.973L1225.37 364.202Z" fill="#2A0C27"/>
<path d="M1441 391.127V314.391L1389.51 350.888L1441 391.127Z" fill="#2A0C27"/>
<path d="M1441 314.391L1389.94 278.201L1342.81 314.391L1389.51 350.888L1441 314.391Z" fill="#2A0C27"/>
<path d="M1441 314.391V239L1389.94 278.201L1441 314.391Z" fill="#2A0C27"/>
<path d="M137.564 725L85.5805 688.651L49 725H137.564Z" fill="#2A0C27"/>
<path d="M85.5805 688.651L137.564 725M85.5805 688.651L140.387 653.631M85.5805 688.651L49 725M335.871 617.299H197.249L140.387 653.631M335.871 617.299L389.326 653.318M335.871 617.299L391.634 576.18M441.764 688.651H588.087M441.764 688.651L387.855 725M441.764 688.651L389.326 653.318M588.087 688.651L641.996 725M588.087 688.651L641.533 653.902M697.83 617.299H838.378M697.83 617.299L641.533 653.902M697.83 617.299L641.532 577.243M838.378 617.299L890.82 654.674M838.378 617.299L892.987 574.708M938.494 688.651H1088.67M938.494 688.651L888.436 725M938.494 688.651L890.82 654.674M1088.67 688.651L1138.73 725M1088.67 688.651L1141.11 652.66M1192.63 617.299H1342.81M1192.63 617.299L1138.79 576.863M1192.63 617.299L1141.11 652.66M1342.81 617.299L1390.28 651.794M1342.81 617.299L1389.74 579.981M1441 688.651L1392.87 725M1441 688.651L1390.28 651.794M1441 688.651V725M1441 688.651V617.299M1392.87 725L1336.12 688.627M1392.87 725H1138.73M1392.87 725H1441M1138.73 725H888.436M1138.73 725L1191.67 688.801M888.436 725L840.482 689.872M888.436 725H641.996M641.996 725H387.855M641.996 725L694.011 689.437M387.855 725L338.192 689.466M387.855 725H137.564M137.564 725L190.321 688.931M137.564 725H49M1441 617.299L1390.28 651.794M1441 617.299L1389.74 579.981M1441 617.299V539.216M588.087 539.216H441.764L391.634 576.18M588.087 539.216L641.532 577.243M588.087 539.216L643.428 501.198M938.494 539.216H1088.67M938.494 539.216L892.987 574.708M938.494 539.216L891.217 503.615M1088.67 539.216L1138.79 576.863M1088.67 539.216L1140.63 501.536M1441 539.216L1389.74 579.981M1441 539.216L1389.61 499.759M1441 539.216V463.825M1342.81 463.825H1192.63M1342.81 463.825L1389.61 499.759M1342.81 463.825L1390.84 428.268M1192.63 463.825L1140.63 501.536M1192.63 463.825L1138.73 426.13M1441 463.825L1389.61 499.759M1441 463.825L1390.84 428.268M1441 463.825V391.127M838.378 463.825H697.83L643.428 501.198M838.378 463.825L891.217 503.615M838.378 463.825L893.158 424.047M1088.67 391.127H938.494L893.158 424.047M1088.67 391.127L1138.73 426.13M1088.67 391.127L1140.62 352.782M1441 391.127L1390.84 428.268M1441 391.127L1389.51 350.888M1441 391.127V314.391M1342.81 314.391H1192.63L1140.62 352.782M1342.81 314.391L1389.51 350.888M1342.81 314.391L1389.94 278.201M1441 314.391L1389.51 350.888M1441 314.391L1389.94 278.201M1441 314.391V239L1389.94 278.201M1441 725H49M389.326 653.318L445.039 613.933M389.326 653.318L338.192 689.466M641.533 653.902L586.46 616.608M641.533 653.902L694.011 689.437M586.46 616.608L555.358 638.839H480.271L445.039 613.933M586.46 616.608L545.731 589.028H480.271L445.039 613.933M586.46 616.608L641.532 577.243M445.039 613.933L391.634 576.18M694.011 689.437L728.635 712.884H807.573L840.482 689.872M694.011 689.437L728.635 665.765H807.573L840.482 689.872M840.482 689.872L890.82 654.674M890.82 654.674L949.084 613.933M892.987 574.708L841.266 538.543M892.987 574.708L949.084 613.933M841.266 538.543L807.573 562.102H728.635L695.674 538.543M841.266 538.543L807.573 514.983H728.635L695.674 538.543M841.266 538.543L891.217 503.615M695.674 538.543L641.532 577.243M695.674 538.543L643.428 501.198M338.192 689.466L305.066 712.884H224.204L190.321 688.931M338.192 689.466L305.066 665.765H224.204L190.321 688.931M190.321 688.931L140.387 653.631M891.217 503.615L948.121 463.825L949.084 463.152M949.084 613.933L984.702 638.839H1052.09L1086.93 613.933M949.084 613.933L984.702 589.028H1052.09L1086.93 613.933M1336.12 688.627L1300.45 712.884H1225.37L1191.67 688.801M1336.12 688.627L1300.45 665.765H1225.37L1191.67 688.801M1336.12 688.627L1390.28 651.794M1191.67 688.801L1141.11 652.66M1389.74 579.981L1333.47 539.017M1389.61 499.759L1333.47 539.017M1333.47 539.017L1300.45 562.102H1225.37L1192.4 538.543M1333.47 539.017L1300.45 514.983H1225.37L1192.4 538.543M1192.4 538.543L1138.79 576.863M1192.4 538.543L1140.63 501.536M1138.79 576.863L1086.93 613.933M1141.11 652.66L1086.93 613.933M1140.63 501.536L1086.93 463.152M1086.93 463.152L1052.09 488.058H984.702L949.084 463.152M1086.93 463.152L1052.09 438.246H984.702L949.084 463.152M1086.93 463.152L1138.73 426.13M949.084 463.152L893.158 424.047M1390.84 428.268L1335.59 389.108M1389.51 350.888L1335.59 389.108M1335.59 389.108L1300.45 414.014H1225.37L1190.71 388.973M1335.59 389.108L1300.45 364.202H1225.37L1190.71 388.973M1190.71 388.973L1138.73 426.13M1190.71 388.973L1140.62 352.782" stroke="#35260F" stroke-width="2"/>
</svg>
