<svg width="77" height="103" viewBox="0 0 77 103" fill="none" xmlns="http://www.w3.org/2000/svg">
<path fill-rule="evenodd" clip-rule="evenodd" d="M0.000208798 78.7021L0.000212312 -1.72009e-07L4.01904 0L4.01904 78.7021L0.000208798 78.7021Z" fill="#915650"/>
<path fill-rule="evenodd" clip-rule="evenodd" d="M40.1882 78.7021L40.1882 -1.72009e-07L44.207 0L44.207 78.7021L40.1882 78.7021Z" fill="#915650"/>
<path fill-rule="evenodd" clip-rule="evenodd" d="M32.9553 102.313L32.9553 15.7402L36.9741 15.7402L36.9741 102.313L32.9553 102.313Z" fill="#915650"/>
<path fill-rule="evenodd" clip-rule="evenodd" d="M73.1432 102.313L53.0491 69.2578L49.5957 71.2706L68.4663 102.313H73.1432Z" fill="#915650"/>
<path fill-rule="evenodd" clip-rule="evenodd" d="M71.8259 31.481L32.9541 101.193L35.0487 102.313H36.9085L76.4047 31.481H71.8259Z" fill="#915650"/>
<path fill-rule="evenodd" clip-rule="evenodd" d="M0.0010277 60.6005L49.0308 60.6005V64.5356H0.0010277V60.6005Z" fill="#915650"/>
</svg>
