<svg width="1446" height="668" viewBox="0 0 1446 668" fill="none" xmlns="http://www.w3.org/2000/svg">
<path d="M256.5 2L314.5 36.9353M372.5 71.8707L369 294.726M372.5 71.8707L314.5 36.9353M372.5 71.8707L432.5 40.3604M501 2L432.5 40.3604M92 2L372.5 159.552L652.5 2M369 294.726H457M369 294.726H281M457 294.726L515.5 331.26M457 294.726L496.351 271.969M515.5 331.26L457 366.424M515.5 331.26L734 330.803M457 366.424L658.714 488.812M457 366.424H369M281 366.424L228.5 331.26M281 366.424L235.5 394.337M281 366.424H369M228.5 331.26L281 294.726M228.5 331.26H135M281 294.726L235.5 271.969M314.5 36.9353L81.5 181.035M4 228.966L81.5 181.035M432.5 40.3604L664 175.016M734 217.549L664 175.016M734 217.549V330.803M734 217.549L799.5 180.013M734 444.058L658.714 488.812M734 444.058V330.803M734 444.058L1043.74 623.53M434.678 623.206L658.714 488.812M664 175.016L533.5 250.485M81.5 181.035L206 254.55M4 331.26H81.5M87.3299 488.812L206 412.434M235.5 271.969L135 331.26M235.5 271.969L206 254.55M135 331.26L235.5 394.337M135 331.26H81.5M235.5 394.337L206 412.434M206 254.55L81.5 331.26M81.5 331.26L206 412.434M496.351 271.969L599 331.26L503.005 394.337M496.351 271.969L533.5 250.485M533.5 250.485L664 330.95L532.832 412.434M734 330.803L796.25 330.934M4 439.491L305 623.206M305 623.206L241.5 666M305 623.206L369 583.799M369 583.799L371.045 494.748M369 583.799L506 666M369 366.424L370.339 450.451M370.339 450.451L734 666L1096.57 444.058M370.339 450.451L4 666M370.339 450.451L371.045 494.748M81.5 666L371.045 494.748M371.045 494.748L658.714 666M810.5 2L1100.5 163.662L1373 2M975.5 2L1040 39.9037M1100.5 73.2407L1040 39.9037M1100.5 73.2407L1142.5 43.6159M1100.5 73.2407V297.923M1201.5 2L1142.5 43.6159M1040 39.9037L799.5 180.013M1142.5 43.6159L1376.97 180.013M1441.5 217.549L1376.97 180.013M1100.5 297.923H1184.5M1100.5 297.923L1004.5 298.836M1184.5 297.923L1237 331.26M1184.5 297.923L1226.87 271.969M1237 331.26L1184.5 366.424M1237 331.26L1441.5 330.803M1184.5 366.424L1376.97 484.269M1184.5 366.424H1094.5M1004.5 366.424L952 331.26M1004.5 366.424L931.568 412.434M1004.5 366.424H1094.5M952 331.26L1004.5 298.836M952 331.26L858.5 331.064M1004.5 298.836L952 268.406M799.5 180.013L926.111 253.4M1376.97 180.013L1257.18 253.4M952 268.406L858.5 331.064M952 268.406L926.111 253.4M858.5 331.064L960.5 394.337M858.5 331.064L796.25 330.934M810.5 488.812L931.568 412.434M931.568 412.434L796.25 330.934M796.25 330.934L926.111 253.4M1226.87 271.969L1324.5 331.26L1230.09 394.337M1226.87 271.969L1257.18 253.4M1257.18 253.4L1392.5 331.26L1259.65 412.434M1441.5 444.058L1153.5 623.53M1226.87 666L1096.57 590.649M1096.57 590.649L975.5 666M1096.57 590.649V493.378M1094.5 366.424L1096.57 444.058M1096.57 444.058L1444 661.89M1096.57 444.058V493.378M1383 666L1096.57 493.378M1096.57 493.378L817.5 666M4 2L372.5 209.329L723 2L1100.5 207.045L1441.5 2H4Z" stroke="#E1D3B8" stroke-width="2"/>
</svg>
