<svg width="1440" height="668" viewBox="0 0 1440 668" fill="none" xmlns="http://www.w3.org/2000/svg">
<path d="M252.5 2L310.5 36.9353M368.5 71.8707L365 294.726M368.5 71.8707L310.5 36.9353M368.5 71.8707L428.5 40.3604M497 2L428.5 40.3604M88 2L368.5 159.552L648.5 2M365 294.726H453M365 294.726H277M453 294.726L511.5 331.26M453 294.726L492.351 271.969M511.5 331.26L453 366.424M511.5 331.26L730 330.803M453 366.424L654.714 488.812M453 366.424H365M277 366.424L224.5 331.26M277 366.424L231.5 394.337M277 366.424H365M224.5 331.26L277 294.726M224.5 331.26H131M277 294.726L231.5 271.969M310.5 36.9353L77.5 181.035M0 228.966L77.5 181.035M428.5 40.3604L660 175.016M730 217.549L660 175.016M730 217.549V330.803M730 217.549L795.5 180.013M730 444.058L654.714 488.812M730 444.058V330.803M730 444.058L1039.74 623.53M430.678 623.206L654.714 488.812M660 175.016L529.5 250.485M77.5 181.035L202 254.55M0 331.26H77.5M83.3299 488.812L202 412.434M231.5 271.969L131 331.26M231.5 271.969L202 254.55M131 331.26L231.5 394.337M131 331.26H77.5M231.5 394.337L202 412.434M202 254.55L77.5 331.26M77.5 331.26L202 412.434M492.351 271.969L595 331.26L499.005 394.337M492.351 271.969L529.5 250.485M529.5 250.485L660 330.95L528.832 412.434M730 330.803L792.25 330.934M0 439.491L301 623.206M301 623.206L237.5 666M301 623.206L365 583.799M365 583.799L367.045 494.748M365 583.799L502 666M365 366.424L366.339 450.451M366.339 450.451L730 666L1092.57 444.058M366.339 450.451L0 666M366.339 450.451L367.045 494.748M77.5 666L367.045 494.748M367.045 494.748L654.714 666M806.5 2L1096.5 163.662L1369 2M971.5 2L1036 39.9037M1096.5 73.2407L1036 39.9037M1096.5 73.2407L1138.5 43.6159M1096.5 73.2407V297.923M1197.5 2L1138.5 43.6159M1036 39.9037L795.5 180.013M1138.5 43.6159L1372.97 180.013M1437.5 217.549L1372.97 180.013M1096.5 297.923H1180.5M1096.5 297.923L1000.5 298.836M1180.5 297.923L1233 331.26M1180.5 297.923L1222.87 271.969M1233 331.26L1180.5 366.424M1233 331.26L1437.5 330.803M1180.5 366.424L1372.97 484.269M1180.5 366.424H1090.5M1000.5 366.424L948 331.26M1000.5 366.424L927.568 412.434M1000.5 366.424H1090.5M948 331.26L1000.5 298.836M948 331.26L854.5 331.064M1000.5 298.836L948 268.406M795.5 180.013L922.111 253.4M1372.97 180.013L1253.18 253.4M948 268.406L854.5 331.064M948 268.406L922.111 253.4M854.5 331.064L956.5 394.337M854.5 331.064L792.25 330.934M806.5 488.812L927.568 412.434M927.568 412.434L792.25 330.934M792.25 330.934L922.111 253.4M1222.87 271.969L1320.5 331.26L1226.09 394.337M1222.87 271.969L1253.18 253.4M1253.18 253.4L1388.5 331.26L1255.65 412.434M1437.5 444.058L1149.5 623.53M1222.87 666L1092.57 590.649M1092.57 590.649L971.5 666M1092.57 590.649V493.378M1090.5 366.424L1092.57 444.058M1092.57 444.058L1440 661.89M1092.57 444.058V493.378M1379 666L1092.57 493.378M1092.57 493.378L813.5 666M0 2L368.5 209.329L719 2L1096.5 207.045L1437.5 2H0Z" stroke="#F0EBEC" stroke-width="2"/>
</svg>
