<svg width="51" height="50" viewBox="0 0 51 50" fill="none" xmlns="http://www.w3.org/2000/svg">
<path fill-rule="evenodd" clip-rule="evenodd" d="M25.1562 50C38.9634 50 50.1562 38.8071 50.1562 25C50.1562 11.1929 38.9634 0 25.1562 0C11.3491 0 0.15625 11.1929 0.15625 25C0.15625 38.8071 11.3491 50 25.1562 50ZM42.1562 41V28.6192C42.1562 21.987 38.5608 18.901 33.7647 18.901C29.8936 18.901 28.1641 20.9997 27.1957 22.4688V19.4083H19.9066C20.0048 21.4353 19.9066 41 19.9066 41H27.1964V28.9418C27.1964 28.2958 27.2459 27.6533 27.4381 27.1918C27.9653 25.9007 29.1636 24.5661 31.1772 24.5661C33.8149 24.5661 34.8689 26.5465 34.8689 29.4484V41H42.1562ZM27.1957 22.4688V22.5386H27.1478C27.1551 22.5269 27.1639 22.5145 27.1728 22.502C27.1807 22.4908 27.1887 22.4796 27.1957 22.4688ZM8.15625 12.7298C8.15625 10.6111 9.78741 9 12.2812 9C14.7753 9 16.3083 10.6111 16.3562 12.7298C16.3562 14.8026 14.7753 16.4623 12.2332 16.4623H12.1845C9.74022 16.4623 8.15625 14.8023 8.15625 12.7298ZM15.8762 41H8.5892V19.4083H15.8762V41Z" fill="#FFF9F3"/>
</svg>
