<svg width="50" height="50" viewBox="0 0 50 50" fill="none" xmlns="http://www.w3.org/2000/svg">
<path fill-rule="evenodd" clip-rule="evenodd" d="M25 50C38.8071 50 50 38.8071 50 25C50 11.1929 38.8071 0 25 0C11.1929 0 0 11.1929 0 25C0 38.8071 11.1929 50 25 50ZM42 41V28.6192C42 21.987 38.4046 18.901 33.6085 18.901C29.7373 18.901 28.0078 20.9997 27.0394 22.4688V19.4083H19.7504C19.8485 21.4353 19.7504 41 19.7504 41H27.0401V28.9418C27.0401 28.2958 27.0896 27.6533 27.2818 27.1918C27.809 25.9007 29.0073 24.5661 31.0209 24.5661C33.6587 24.5661 34.7127 26.5465 34.7127 29.4484V41H42ZM27.0394 22.4688V22.5386H26.9915C26.9988 22.5269 27.0077 22.5145 27.0165 22.502C27.0245 22.4908 27.0324 22.4796 27.0394 22.4688ZM8 12.7298C8 10.6111 9.63116 9 12.125 9C14.619 9 16.1521 10.6111 16.2 12.7298C16.2 14.8026 14.619 16.4623 12.0769 16.4623H12.0282C9.58397 16.4623 8 14.8023 8 12.7298ZM15.7199 41H8.43295V19.4083H15.7199V41Z" fill="white"/>
</svg>
