<svg width="77" height="103" viewBox="0 0 77 103" fill="none" xmlns="http://www.w3.org/2000/svg">
<path fill-rule="evenodd" clip-rule="evenodd" d="M0.000208679 78.7021L0.000212193 -1.72009e-07L4.01904 0L4.01904 78.7021L0.000208679 78.7021Z" fill="black"/>
<path fill-rule="evenodd" clip-rule="evenodd" d="M40.1882 78.7021L40.1882 -1.72009e-07L44.207 0L44.207 78.7021L40.1882 78.7021Z" fill="black"/>
<path fill-rule="evenodd" clip-rule="evenodd" d="M32.9553 102.313L32.9553 15.7404L36.9741 15.7404L36.9741 102.313L32.9553 102.313Z" fill="black"/>
<path fill-rule="evenodd" clip-rule="evenodd" d="M73.1432 102.313L53.0491 69.2579L49.5957 71.2706L68.4663 102.313H73.1432Z" fill="black"/>
<path fill-rule="evenodd" clip-rule="evenodd" d="M71.8259 31.4808L32.9541 101.193L35.0487 102.313H36.9085L76.4047 31.4808H71.8259Z" fill="black"/>
<path fill-rule="evenodd" clip-rule="evenodd" d="M0.00102615 60.6006L49.0308 60.6006V64.5357H0.00102615V60.6006Z" fill="black"/>
</svg>
