<svg width="955" height="980" viewBox="0 0 955 980" fill="none" xmlns="http://www.w3.org/2000/svg">
<path d="M244.993 404.801L84.1281 239.818V163.472L244.993 0.927368L398.544 163.472V239.818L244.993 404.801ZM244.993 404.801L281.552 441.768V532.891L84.1281 724.989V813.65L244.993 978.657L398.544 813.65V724.989L201.12 532.891V441.768L244.993 404.801ZM244.993 124.067L359.547 0.927368L478.976 124.067M244.993 124.067V286.612M244.993 124.067L123.125 0.927368L1.25781 124.067V286.612L123.125 414.677M244.993 286.612L359.547 414.677M244.993 286.612L123.125 414.677M359.547 414.677L478.976 286.612M359.547 414.677V569.833M478.976 286.612V124.067M478.976 286.612L598.406 414.677M478.976 124.067L598.406 0.927368L717.836 124.067M478.976 404.801L325.424 239.818V163.472L478.976 0.927368L637.404 163.472V239.818L478.976 404.801ZM478.976 404.801L442.417 441.768V532.891L637.404 724.989V813.65L478.976 978.657L325.424 813.65V724.989L517.974 532.891V441.768L478.976 404.801ZM598.406 414.677L717.836 286.612M598.406 414.677V569.833L478.976 688.047M717.836 286.612V124.067M717.836 286.612L839.703 414.677M717.836 124.067L839.703 0.927368L954.258 124.067V286.612L839.703 414.677M717.836 404.801L554.534 239.818V163.472L717.836 0.927368L878.7 163.472V239.818L717.836 404.801ZM717.836 404.801L681.276 441.768V532.891L878.7 724.989V813.65L717.836 978.657L554.534 813.65V724.989L761.708 532.891V441.768L717.836 404.801ZM839.703 414.677V569.833L717.836 688.047V857.98M123.125 414.677V569.833M1.25781 0.927368L154.811 163.472V239.818L1.25781 414.677L40.2556 441.768V532.891L1.25781 569.833L154.811 724.989V813.65L1.25781 978.657M954.258 0.927368L803.143 163.472V239.818L954.258 414.677L925.01 441.768V532.891L954.258 569.833L905.511 631.403M123.125 569.833L244.993 688.047M123.125 569.833L1.25781 688.047V857.98L123.125 978.657L244.993 857.98M244.993 688.047L359.547 569.833M244.993 688.047V857.98M359.547 569.833L478.976 688.047M244.993 857.98L359.547 966.343L478.976 857.98M478.976 688.047V857.98M478.976 857.98L598.406 966.343L717.836 857.98M717.836 857.98L839.703 966.343L896.98 912.161M905.511 631.403L954.258 688.047V857.98L896.98 912.161M905.511 631.403L803.143 724.989V813.65L896.98 912.161" stroke="#C4C4C4"/>
</svg>
