<svg width="466" height="2314" viewBox="0 0 466 2314" fill="none" xmlns="http://www.w3.org/2000/svg">
<path d="M29.3978 3V597.313M29.3978 856.934V597.313M54.2459 3V525.37M70.4732 3V238.379M70.4732 473.758V238.379M70.4732 238.379L149.074 3M29.3978 597.313L182.927 140.63M410.74 489.398L395.02 447.28M410.74 489.398V3M410.74 489.398V747.455M312.362 3L395.02 206.318M395.02 3V447.28M395.02 447.28L229.197 3L182.927 140.63M435.588 3V813.142M182.927 140.63L229.197 263.772M465 891.341L304.248 463.514M229.197 263.772V946.081M229.197 263.772L158.967 473.758M229.197 263.772L304.248 463.514M1 946.081L158.967 473.758M229.197 946.081L158.967 1152.3M229.197 946.081L273.435 1070.42M70.4732 1412.15V989.872M70.4732 1412.15L149.074 1181.35M70.4732 1412.15V1665.33M158.967 473.758V728.687M158.967 1152.3V728.687M158.967 1152.3L149.074 1181.35M158.967 728.687L149.074 757.875M1 1194.75L29.3978 1110.97M149.074 757.875V1181.35M149.074 757.875L54.2459 1037.66M304.248 463.514V728.687M395.02 1412.15L304.248 1152.3V728.687M395.02 1412.15L317.673 1194.75M395.02 1412.15V1632.67M395.02 1412.15V967.887M317.673 1194.75V757.875L304.248 728.687M317.673 1194.75L273.435 1070.42M304.248 728.687L395.02 967.887M465 1152.3L437.87 1080.81M410.74 1009.31V1676.46M410.74 1009.31L437.87 1080.81M410.74 1009.31L395.02 967.887M437.87 1080.81L435.588 1749.97M465 1829.73L235.528 1181.35M235.528 1181.35L273.435 1070.42M235.528 1181.35L192.178 1315.18M1 1873.52L29.3978 1787.38M29.3978 1110.97V1787.38M29.3978 1110.97L54.2459 1037.66M29.3978 1787.38L54.2459 1712.01M54.2459 1037.66V1712.01M54.2459 1712.01L70.4732 1665.33M192.178 1315.18L235.528 1438.73M192.178 1315.18L70.4732 1665.33M465 2081.53L437.87 2005.53M235.528 1438.73V2313M235.528 1438.73L342.281 1737.77M235.528 1438.73L127.269 1767.22M1 2150.35L27.6229 2069.57M342.281 1737.77L395.02 1885.5M342.281 1737.77V1990.82M342.281 2313V1990.82M395.02 1885.5L410.74 1929.54M395.02 1885.5V2133.14M395.02 2313V2133.14M410.74 1929.54V2313M410.74 1929.54L437.87 2005.53M437.87 2005.53V2313M395.02 2133.14L360.029 2038.72M342.281 1990.82L360.029 2038.72M127.269 1767.22V1990.82M127.269 1767.22L54.2459 1988.79M127.269 2313V1990.82M70.4732 1929.54V2313M360.029 2038.72V2313M127.269 1990.82L111.88 2038.72M71.9945 2162.86L111.88 2038.72M111.88 2038.72V2313M54.2459 1988.79V2313M54.2459 1988.79L27.6229 2069.57M27.6229 2069.57L29.3978 2313" stroke="#E1D3B8" stroke-width="2"/>
</svg>
