<svg width="1440" height="482" viewBox="0 0 1440 482" fill="none" xmlns="http://www.w3.org/2000/svg">
<path d="M252.5 2L310.5 27.1492M368.5 52.2985L365 212.728M368.5 52.2985L310.5 27.1492M368.5 52.2985L428.5 29.6149M497 2L428.5 29.6149M88 2L368.5 115.418L648.5 2M8 2L368.5 151.252L719 2L1096.5 149.608L1437.5 6.60248M365 212.728H453M365 212.728H277M453 212.728L511.5 239.028M453 212.728L492.351 196.345M511.5 239.028L453 264.341M511.5 239.028L730 238.699M453 264.341L654.714 352.446M453 264.341H365M277 264.341L224.5 239.028M277 264.341L231.5 284.435M277 264.341H365M224.5 239.028L277 212.728M224.5 239.028H131M277 212.728L231.5 196.345M310.5 27.1492L77.5 130.884M0 165.388L77.5 130.884M428.5 29.6149L660 126.551M730 157.169L660 126.551M730 157.169V238.699M730 157.169L795.5 130.148M730 320.228L654.714 352.446M730 320.228V238.699M730 320.228L1039.74 449.426M430.678 449.194L654.714 352.446M660 126.551L529.5 180.88M77.5 130.884L202 183.806M0 239.028H77.5M83.3299 352.446L202 297.463M231.5 196.345L131 239.028M231.5 196.345L202 183.806M131 239.028L231.5 284.435M131 239.028H77.5M231.5 284.435L202 297.463M202 183.806L77.5 239.028M77.5 239.028L202 297.463M492.351 196.345L595 239.028L499.005 284.435M492.351 196.345L529.5 180.88M529.5 180.88L660 238.804L528.832 297.463M730 238.699L792.25 238.793M0 316.941L301 449.194M301 449.194L237.5 480M301 449.194L365 420.825M365 420.825L367.045 356.719M365 420.825L502 480M365 264.341L366.339 324.831M366.339 324.831L730 480L1092.57 320.228M366.339 324.831L0 480M366.339 324.831L367.045 356.719M77.5 480L367.045 356.719M367.045 356.719L654.714 480M806.5 2L1096.5 118.377L1369 2M971.5 2L1036 29.2861M1096.5 53.2847L1036 29.2861M1096.5 53.2847L1138.5 31.9584M1096.5 53.2847V215.029M1197.5 2L1138.5 31.9584M1036 29.2861L795.5 130.148M1138.5 31.9584L1372.97 130.148M1437.5 157.169L1372.97 130.148M1096.5 215.029H1180.5M1096.5 215.029L1000.5 215.686M1180.5 215.029L1233 239.028M1180.5 215.029L1222.87 196.345M1233 239.028L1180.5 264.341M1233 239.028L1437.5 238.699M1180.5 264.341L1372.97 349.175M1180.5 264.341H1090.5M1000.5 264.341L948 239.028M1000.5 264.341L927.568 297.463M1000.5 264.341H1090.5M948 239.028L1000.5 215.686M948 239.028L854.5 238.887M1000.5 215.686L948 193.78M795.5 130.148L922.111 182.977M1372.97 130.148L1253.18 182.977M948 193.78L854.5 238.887M948 193.78L922.111 182.977M854.5 238.887L956.5 284.435M854.5 238.887L792.25 238.793M806.5 352.446L927.568 297.463M927.568 297.463L792.25 238.793M792.25 238.793L922.111 182.977M1222.87 196.345L1320.5 239.028L1226.09 284.435M1222.87 196.345L1253.18 182.977M1253.18 182.977L1388.5 239.028L1255.65 297.463M1437.5 320.228L1149.5 449.426M1222.87 480L1092.57 425.757M1092.57 425.757L971.5 480M1092.57 425.757V355.733M1090.5 264.341L1092.57 320.228M1092.57 320.228L1440 477.041M1092.57 320.228V355.733M1379 480L1092.57 355.733M1092.57 355.733L813.5 480" stroke="#F0EBEC" stroke-width="2"/>
</svg>
